<svg width="528" height="428" viewBox="0 0 528 428" fill="none" xmlns="http://www.w3.org/2000/svg">
<circle cx="258.343" cy="163.114" r="131.093" stroke="#4F9CF9" stroke-width="1.81443" stroke-dasharray="13.61 13.61"/>
<circle cx="165" cy="295.114" r="131.093" stroke="#4F9CF9" stroke-width="1.81443" stroke-dasharray="13.61 13.61"/>
<circle cx="363" cy="295.114" r="131.093" stroke="#4F9CF9" stroke-width="1.81443" stroke-dasharray="13.61 13.61"/>
<circle cx="389.401" cy="165.943" r="33" fill="white"/>
<g clip-path="url(#clip0_648_179)">
<path d="M384.097 167.103C381.812 167.103 379.954 168.962 379.954 171.246V181.6C379.954 183.884 381.812 185.743 384.097 185.743C386.381 185.743 388.24 183.884 388.24 181.6V171.246C388.24 168.962 386.381 167.103 384.097 167.103V167.103Z" fill="#FF4340"/>
<path d="M377.635 167.103H373.624C371.412 167.103 369.613 168.902 369.613 171.114C369.613 173.326 371.412 175.125 373.624 175.125C375.835 175.125 377.635 173.326 377.635 171.114V167.103Z" fill="#FF4340"/>
<path d="M369.6 160.639C369.6 162.924 371.459 164.783 373.743 164.783H384.097C386.382 164.783 388.24 162.924 388.24 160.639C388.24 158.355 386.382 156.496 384.097 156.496H373.743C371.459 156.496 369.6 158.355 369.6 160.639V160.639Z" fill="#36C6FF"/>
<path d="M384.231 154.176H388.242V150.165C388.242 147.953 386.442 146.154 384.231 146.154C382.019 146.154 380.219 147.953 380.219 150.165C380.219 152.376 382.019 154.176 384.231 154.176Z" fill="#36C6FF"/>
<path d="M394.703 164.782C396.988 164.782 398.847 162.924 398.847 160.639V150.286C398.847 148.001 396.988 146.143 394.703 146.143C392.419 146.143 390.56 148.001 390.56 150.286V160.639C390.56 162.924 392.419 164.782 394.703 164.782Z" fill="#0DC46E"/>
<path d="M401.167 164.783H405.178C407.39 164.783 409.189 162.983 409.189 160.772C409.189 158.56 407.39 156.761 405.178 156.761C402.966 156.761 401.167 158.56 401.167 160.772V164.783Z" fill="#0DC46E"/>
<path d="M409.2 171.246C409.2 168.962 407.342 167.103 405.057 167.103H394.703C392.419 167.103 390.56 168.962 390.56 171.246C390.56 173.531 392.419 175.389 394.703 175.389H405.057C407.342 175.389 409.2 173.531 409.2 171.246Z" fill="#FDCB02"/>
<path d="M394.572 177.709H390.561V181.721C390.561 183.932 392.36 185.732 394.572 185.732C396.783 185.732 398.583 183.932 398.583 181.721C398.583 179.509 396.783 177.709 394.572 177.709Z" fill="#FDCB02"/>
</g>
<circle cx="33" cy="284.743" r="33" fill="white"/>
<g clip-path="url(#clip1_648_179)">
<path d="M51.5618 273.606H34.2368C33.5537 273.606 32.9993 274.16 32.9993 274.843C32.9993 275.526 33.5537 276.081 34.2368 276.081H47.9557L40.3525 281.993L34.9001 278.526L33.5735 280.615L39.761 284.55C39.9614 284.679 40.1941 284.743 40.4243 284.743C40.6916 284.743 40.9613 284.657 41.1841 284.483L50.3243 277.373V293.406H34.2368C33.5537 293.406 32.9993 293.96 32.9993 294.643C32.9993 295.326 33.5537 295.881 34.2368 295.881H51.5618C52.2449 295.881 52.7993 295.326 52.7993 294.643V274.843C52.7993 274.16 52.2449 273.606 51.5618 273.606Z" fill="#1976D2"/>
<path d="M35.027 266.465C34.7448 266.23 34.3662 266.129 34.0098 266.203L14.2098 269.916C13.6232 270.025 13.2 270.534 13.2 271.131V298.356C13.2 298.95 13.6232 299.462 14.2098 299.571L34.0098 303.284C34.084 303.298 34.1607 303.306 34.2375 303.306C34.5246 303.306 34.8042 303.207 35.027 303.021C35.3116 302.786 35.475 302.435 35.475 302.068V267.418C35.475 267.05 35.3116 266.701 35.027 266.465Z" fill="#2196F3"/>
<path d="M24.3381 293.405C20.9276 293.405 18.1506 290.074 18.1506 285.98C18.1506 281.887 20.9276 278.555 24.3381 278.555C27.7487 278.555 30.5256 281.887 30.5256 285.98C30.5256 290.074 27.7487 293.405 24.3381 293.405ZM24.3381 281.03C22.2913 281.03 20.6256 283.25 20.6256 285.98C20.6256 288.71 22.2913 290.93 24.3381 290.93C26.385 290.93 28.0506 288.71 28.0506 285.98C28.0506 283.25 26.385 281.03 24.3381 281.03Z" fill="#FAFAFA"/>
</g>
<circle cx="495" cy="284.743" r="33" fill="white"/>
<g clip-path="url(#clip2_648_179)">
<path d="M494.965 277.452L486.746 291.707H486.723L491.482 297.511L480.802 301.992C480.593 301.876 480.431 301.714 480.338 301.551L475.323 292.264C475.068 291.754 475.277 291.359 475.346 291.127L488.789 267.91C488.882 267.771 489.021 267.631 489.207 267.515H489.23L496.125 269.651L494.965 277.452Z" fill="#59C36A"/>
<path d="M514.799 291.707L505.489 297.512L503.284 291.707L494.964 277.452L489.23 267.515C489.392 267.399 489.601 267.33 489.787 267.33H500.219C500.451 267.399 500.916 267.376 501.217 267.91L514.66 291.127C514.753 291.29 514.799 291.498 514.799 291.707V291.707Z" fill="#FFDA2D"/>
<path d="M501.218 267.911C500.917 267.377 500.452 267.4 500.22 267.331H494.965V277.453L503.285 291.708L505.49 297.513L514.8 291.708C514.8 291.499 514.754 291.29 514.661 291.128L501.218 267.911Z" fill="#FDBF00"/>
<path d="M514.8 291.708C514.8 291.916 514.753 292.125 514.684 292.265L509.669 301.551C509.483 301.853 509.042 302.155 508.647 302.155H481.36C481.174 302.155 480.965 302.085 480.802 301.993L486.723 291.708H514.8Z" fill="#4086F4"/>
<path d="M494.965 302.155H508.648C509.043 302.155 509.484 301.853 509.669 301.551L514.684 292.265C514.754 292.125 514.8 291.916 514.8 291.708H494.965V302.155H494.965Z" fill="#4175DF"/>
</g>
<circle cx="126.342" cy="165.943" r="33" fill="white"/>
<g clip-path="url(#clip3_648_179)">
<path d="M114.321 175.772V172.589L119.695 175.701L126.342 169.478V183.621L114.321 175.772Z" fill="#0093EB"/>
<path d="M107.887 167.357L114.888 160.993L126.344 168.064L119.697 174.287L107.887 167.357Z" fill="#0093EB"/>
<path d="M114.887 160.992L106.542 154.628L118.564 148.264L127.049 153.921L114.887 160.992Z" fill="#0093EB"/>
<path d="M138.363 175.842L126.342 183.621V169.478L133.201 175.418L138.363 172.165V175.842Z" fill="#0093EB"/>
<path d="M133.201 174.004L126.342 168.064L137.868 160.709L144.798 166.649L133.201 174.004Z" fill="#0093EB"/>
<path d="M137.868 160.71L127.049 153.921L135.534 148.264L146.142 154.628L137.868 160.71Z" fill="#0093EB"/>
</g>
<circle cx="264" cy="378.085" r="33" fill="white"/>
<g clip-path="url(#clip4_648_179)">
<path d="M280.274 370.042H247.789C247.148 370.042 246.629 369.523 246.629 368.881V361.766C246.629 359.847 248.191 358.285 250.11 358.285H277.953C279.873 358.285 281.434 359.847 281.434 361.766V368.881C281.434 369.523 280.915 370.042 280.274 370.042Z" fill="#E3E7EA"/>
<path d="M277.953 358.285H264.031V370.042H280.273C280.915 370.042 281.433 369.523 281.433 368.881V361.766C281.433 359.847 279.872 358.285 277.953 358.285Z" fill="#BABAC0"/>
<path d="M246.584 382.803C246.585 382.802 246.585 382.801 246.585 382.801L244.277 371.805C244.114 370.761 244.393 369.717 245.043 368.951C245.715 368.162 246.69 367.721 247.711 367.721H280.288C281.309 367.721 282.284 368.162 282.956 368.951C283.606 369.717 283.885 370.761 283.722 371.759L281.414 382.806L283.722 393.802C283.885 394.846 283.606 395.89 282.956 396.656C282.284 397.445 281.309 397.885 280.288 397.885H247.711C246.69 397.885 245.715 397.445 245.043 396.656C244.393 395.89 244.114 394.846 244.277 393.848C244.277 393.848 246.544 382.995 246.584 382.803V382.803Z" fill="#4086F4"/>
<path d="M246.585 382.801C246.585 382.801 246.585 382.802 246.584 382.803H281.415L283.722 371.759C283.885 370.761 283.606 369.717 282.956 368.951C282.284 368.162 281.309 367.721 280.288 367.721H247.711C246.69 367.721 245.715 368.162 245.043 368.951C244.393 369.717 244.114 370.761 244.277 371.805L246.585 382.801Z" fill="#4175DF"/>
<path d="M252.398 365.246C253.039 365.246 253.558 364.727 253.558 364.086C253.558 363.445 253.039 362.926 252.398 362.926C251.757 362.926 251.238 363.445 251.238 364.086C251.238 364.727 251.757 365.246 252.398 365.246Z" fill="#FFF5F5"/>
<path d="M275.601 365.246C276.242 365.246 276.761 364.727 276.761 364.086C276.761 363.445 276.242 362.926 275.601 362.926C274.96 362.926 274.441 363.445 274.441 364.086C274.441 364.727 274.96 365.246 275.601 365.246Z" fill="#E3E7EA"/>
<path d="M259.359 390.924C257.396 390.924 255.637 389.681 254.983 387.83C254.769 387.226 255.085 386.564 255.69 386.351C256.292 386.135 256.957 386.454 257.17 387.058C257.497 387.982 258.377 388.604 259.359 388.604C260.638 388.604 261.679 387.563 261.679 386.284C261.679 385.005 260.638 383.963 259.359 383.963H257.916C257.276 383.963 256.756 383.444 256.756 382.803C256.756 382.162 257.276 381.643 257.916 381.643H259.359C260.638 381.643 261.679 380.602 261.679 379.323C261.679 378.044 260.638 377.002 259.359 377.002C258.377 377.002 257.497 377.624 257.17 378.549C256.957 379.154 256.291 379.471 255.69 379.256C255.085 379.043 254.769 378.38 254.983 377.776C255.637 375.925 257.396 374.682 259.359 374.682C261.918 374.682 263.999 376.763 263.999 379.323C263.999 380.707 263.39 381.952 262.425 382.803C263.39 383.654 263.999 384.899 263.999 386.284C263.999 388.843 261.918 390.924 259.359 390.924V390.924Z" fill="#FFF5F5"/>
<path d="M255.69 379.256C256.291 379.471 256.957 379.154 257.17 378.549C257.497 377.624 258.378 377.002 259.359 377.002C260.638 377.002 261.679 378.044 261.679 379.323C261.679 380.602 260.638 381.643 259.359 381.643H257.916C257.276 381.643 256.756 382.162 256.756 382.803H262.425C263.39 381.952 263.999 380.707 263.999 379.323C263.999 376.763 261.918 374.682 259.359 374.682C257.396 374.682 255.637 375.925 254.983 377.776C254.769 378.38 255.085 379.043 255.69 379.256V379.256Z" fill="#E3E7EA"/>
<path d="M270.961 390.924C270.32 390.924 269.801 390.405 269.801 389.764V378.009L268.124 379.128C267.59 379.481 266.87 379.338 266.515 378.806C266.16 378.272 266.304 377.553 266.837 377.197L270.318 374.877C270.673 374.64 271.132 374.617 271.508 374.819C271.886 375.021 272.121 375.414 272.121 375.842V389.764C272.121 390.405 271.603 390.924 270.961 390.924V390.924Z" fill="#FFF5F5"/>
<path d="M268.124 379.128L269.801 378.01V382.803H272.121V375.843C272.121 375.414 271.886 375.021 271.508 374.82C271.132 374.618 270.673 374.641 270.318 374.877L266.837 377.198C266.304 377.553 266.16 378.273 266.515 378.806C266.87 379.339 267.59 379.482 268.124 379.128V379.128Z" fill="#E3E7EA"/>
</g>
<circle cx="261.172" cy="33" r="33" fill="white"/>
<g clip-path="url(#clip5_648_179)">
<path d="M276.022 18.1497H246.322V47.8497H276.022V18.1497Z" fill="#ECEFF1"/>
<path d="M261.171 36.1233L276.021 47.8499V24.6987L261.171 36.1233Z" fill="#CFD8DC"/>
<path d="M277.259 18.1499H276.022L261.172 29.8765L246.322 18.1499H245.084C243.035 18.1499 241.372 19.8131 241.372 21.8624V44.1374C241.372 46.1867 243.035 47.8499 245.084 47.8499H246.322V24.6988L261.172 36.1209L276.022 24.6963V47.8499H277.259C279.308 47.8499 280.972 46.1867 280.972 44.1374V21.8624C280.972 19.8131 279.308 18.1499 277.259 18.1499Z" fill="#F44336"/>
</g>
<circle cx="263.057" cy="252.686" r="47.1429" fill="white"/>
<path d="M237 237.677V246.759C237 249.525 240.454 251 242.565 249.064L252.641 239.982C254.848 238 253.408 234.497 250.386 234.497H240.31C238.487 234.497 237 235.926 237 237.677Z" fill="#5986EF"/>
<path d="M284.69 234.497H274.614C271.64 234.497 270.152 238 272.359 239.982L282.435 249.064C284.546 250.954 288 249.525 288 246.759V237.677C288 235.926 286.513 234.497 284.69 234.497Z" fill="#5986EF"/>
<path d="M264.779 256.67L282.435 272.621C284.546 274.511 288 273.082 288 270.316V261.142C288 260.266 287.616 259.436 286.944 258.837L264.779 238.784C263.484 237.631 261.516 237.631 260.221 238.784L238.056 258.837C237.384 259.436 237 260.266 237 261.142V270.316C237 273.082 240.454 274.557 242.565 272.621L260.221 256.67C261.516 255.518 263.484 255.518 264.779 256.67Z" fill="#5986EF"/>
<defs>
<clipPath id="clip0_648_179">
<rect width="39.6" height="39.6" fill="white" transform="translate(369.601 146.143)"/>
</clipPath>
<clipPath id="clip1_648_179">
<rect width="39.6" height="39.6" fill="white" transform="translate(13.1998 264.942)"/>
</clipPath>
<clipPath id="clip2_648_179">
<rect width="39.6" height="39.6" fill="white" transform="translate(475.2 264.942)"/>
</clipPath>
<clipPath id="clip3_648_179">
<rect width="39.6" height="39.6" fill="white" transform="translate(106.542 146.143)"/>
</clipPath>
<clipPath id="clip4_648_179">
<rect width="39.6" height="39.6" fill="white" transform="translate(244.2 358.285)"/>
</clipPath>
<clipPath id="clip5_648_179">
<rect width="39.6" height="39.6" fill="white" transform="translate(241.372 13.2)"/>
</clipPath>
</defs>
</svg>
