<svg width="485" height="393" viewBox="0 0 485 393" fill="none" xmlns="http://www.w3.org/2000/svg">
<circle cx="237.303" cy="149.83" r="120.25" stroke="#4F9CF9" stroke-width="2" stroke-dasharray="15 15"/>
<circle cx="151.562" cy="271.08" r="120.25" stroke="#4F9CF9" stroke-width="2" stroke-dasharray="15 15"/>
<circle cx="333.438" cy="271.08" r="120.25" stroke="#4F9CF9" stroke-width="2" stroke-dasharray="15 15"/>
<circle cx="357.688" cy="152.428" r="30.3125" fill="white"/>
<g clip-path="url(#clip0_648_101)">
<path d="M352.816 153.494C350.718 153.494 349.011 155.202 349.011 157.3V166.81C349.011 168.909 350.718 170.616 352.816 170.616C354.915 170.616 356.622 168.909 356.622 166.81V157.3C356.622 155.202 354.915 153.494 352.816 153.494V153.494Z" fill="#FF4340"/>
<path d="M346.879 153.493H343.195C341.163 153.493 339.511 155.146 339.511 157.178C339.511 159.209 341.163 160.862 343.195 160.862C345.227 160.862 346.879 159.209 346.879 157.178V153.493Z" fill="#FF4340"/>
<path d="M339.501 147.557C339.501 149.655 341.208 151.362 343.307 151.362H352.817C354.915 151.362 356.623 149.655 356.623 147.557C356.623 145.458 354.915 143.751 352.817 143.751H343.307C341.208 143.751 339.501 145.458 339.501 147.557V147.557Z" fill="#36C6FF"/>
<path d="M352.939 141.619H356.624V137.935C356.624 135.903 354.971 134.25 352.939 134.25C350.908 134.25 349.255 135.903 349.255 137.935C349.255 139.966 350.908 141.619 352.939 141.619Z" fill="#36C6FF"/>
<path d="M362.56 151.362C364.659 151.362 366.366 149.655 366.366 147.557V138.046C366.366 135.948 364.659 134.24 362.56 134.24C360.462 134.24 358.755 135.948 358.755 138.046V147.556C358.755 149.655 360.462 151.362 362.56 151.362Z" fill="#0DC46E"/>
<path d="M368.497 151.363H372.181C374.213 151.363 375.866 149.71 375.866 147.679C375.866 145.647 374.213 143.994 372.181 143.994C370.15 143.994 368.497 145.647 368.497 147.679V151.363Z" fill="#0DC46E"/>
<path d="M375.877 157.299C375.877 155.201 374.169 153.493 372.071 153.493H362.56C360.462 153.493 358.755 155.201 358.755 157.299C358.755 159.398 360.462 161.105 362.56 161.105H372.071C374.169 161.105 375.877 159.398 375.877 157.299Z" fill="#FDCB02"/>
<path d="M362.439 163.237H358.755V166.921C358.755 168.953 360.408 170.605 362.439 170.605C364.471 170.605 366.124 168.952 366.124 166.921C366.124 164.889 364.471 163.237 362.439 163.237Z" fill="#FDCB02"/>
</g>
<circle cx="30.3125" cy="261.553" r="30.3125" fill="white"/>
<g clip-path="url(#clip1_648_101)">
<path d="M47.3632 251.324H31.4491C30.8216 251.324 30.3124 251.833 30.3124 252.46C30.3124 253.088 30.8216 253.597 31.4491 253.597H44.0508L37.0668 259.028L32.0584 255.843L30.8398 257.762L36.5234 261.377C36.7076 261.495 36.9213 261.554 37.1327 261.554C37.3782 261.554 37.626 261.475 37.8306 261.315L46.2264 254.784V269.511H31.4491C30.8216 269.511 30.3124 270.02 30.3124 270.648C30.3124 271.275 30.8216 271.785 31.4491 271.785H47.3632C47.9906 271.785 48.4999 271.275 48.4999 270.648V252.46C48.4999 251.833 47.9906 251.324 47.3632 251.324Z" fill="#1976D2"/>
<path d="M32.1743 244.764C31.9152 244.548 31.5673 244.455 31.2399 244.523L13.0524 247.934C12.5136 248.034 12.1249 248.502 12.1249 249.05V274.058C12.1249 274.603 12.5136 275.074 13.0524 275.174L31.2399 278.584C31.3081 278.598 31.3786 278.605 31.4491 278.605C31.7128 278.605 31.9697 278.514 32.1743 278.343C32.4358 278.127 32.5858 277.804 32.5858 277.468V245.64C32.5858 245.301 32.4358 244.98 32.1743 244.764Z" fill="#2196F3"/>
<path d="M22.3553 269.511C19.2225 269.511 16.6718 266.451 16.6718 262.691C16.6718 258.931 19.2225 255.871 22.3553 255.871C25.4881 255.871 28.0389 258.931 28.0389 262.691C28.0389 266.451 25.4881 269.511 22.3553 269.511ZM22.3553 258.144C20.4752 258.144 18.9452 260.183 18.9452 262.691C18.9452 265.199 20.4752 267.238 22.3553 267.238C24.2355 267.238 25.7655 265.199 25.7655 262.691C25.7655 260.183 24.2355 258.144 22.3553 258.144Z" fill="#FAFAFA"/>
</g>
<circle cx="454.688" cy="261.553" r="30.3125" fill="white"/>
<g clip-path="url(#clip2_648_101)">
<path d="M454.656 254.858L447.106 267.952H447.085L451.457 273.283L441.647 277.399C441.455 277.293 441.306 277.143 441.221 276.994L436.614 268.464C436.379 267.994 436.571 267.632 436.635 267.419L448.983 246.093C449.068 245.965 449.196 245.837 449.367 245.73H449.388L455.722 247.692L454.656 254.858Z" fill="#59C36A"/>
<path d="M472.875 267.952L464.323 273.283L462.297 267.952L454.655 254.857L449.387 245.73C449.536 245.623 449.728 245.559 449.899 245.559H459.482C459.695 245.623 460.121 245.602 460.399 246.092L472.747 267.418C472.832 267.568 472.875 267.76 472.875 267.952V267.952Z" fill="#FFDA2D"/>
<path d="M460.399 246.093C460.122 245.603 459.695 245.624 459.482 245.56H454.655V254.858L462.297 267.953L464.323 273.284L472.875 267.953C472.875 267.76 472.832 267.569 472.747 267.419L460.399 246.093Z" fill="#FDBF00"/>
<path d="M472.876 267.952C472.876 268.144 472.833 268.336 472.769 268.463L468.162 276.994C467.992 277.271 467.587 277.548 467.224 277.548H442.159C441.988 277.548 441.796 277.484 441.647 277.399L447.085 267.952H472.876Z" fill="#4086F4"/>
<path d="M454.655 277.548H467.223C467.586 277.548 467.991 277.271 468.161 276.994L472.768 268.463C472.832 268.336 472.875 268.144 472.875 267.952H454.655V277.548H454.655Z" fill="#4175DF"/>
</g>
<circle cx="116.053" cy="152.428" r="30.3125" fill="white"/>
<g clip-path="url(#clip3_648_101)">
<path d="M105.012 161.456V158.533L109.949 161.391L116.055 155.675V168.666L105.012 161.456Z" fill="#0093EB"/>
<path d="M99.1002 153.727L105.531 147.881L116.054 154.377L109.948 160.093L99.1002 153.727Z" fill="#0093EB"/>
<path d="M105.53 147.881L97.8657 142.035L108.908 136.189L116.703 141.385L105.53 147.881Z" fill="#0093EB"/>
<path d="M127.096 161.521L116.053 168.666V155.675L122.354 161.131L127.096 158.143V161.521Z" fill="#0093EB"/>
<path d="M122.354 159.832L116.053 154.376L126.641 147.62L133.007 153.077L122.354 159.832Z" fill="#0093EB"/>
<path d="M126.642 147.621L116.704 141.385L124.498 136.189L134.242 142.035L126.642 147.621Z" fill="#0093EB"/>
</g>
<circle cx="242.5" cy="347.294" r="30.3125" fill="white"/>
<g clip-path="url(#clip4_648_101)">
<path d="M257.447 339.906H227.609C227.019 339.906 226.543 339.429 226.543 338.84V332.304C226.543 330.541 227.977 329.107 229.74 329.107H255.316C257.079 329.107 258.513 330.541 258.513 332.304V338.84C258.513 339.429 258.036 339.906 257.447 339.906Z" fill="#E3E7EA"/>
<path d="M255.317 329.107H242.529V339.906H257.448C258.038 339.906 258.514 339.429 258.514 338.84V332.304C258.514 330.541 257.08 329.107 255.317 329.107Z" fill="#BABAC0"/>
<path d="M226.503 351.629C226.503 351.627 226.503 351.626 226.503 351.626L224.383 341.526C224.234 340.567 224.49 339.608 225.087 338.904C225.705 338.18 226.6 337.775 227.538 337.775H257.462C258.399 337.775 259.295 338.18 259.913 338.904C260.51 339.608 260.765 340.567 260.616 341.483L258.496 351.631L260.616 361.731C260.765 362.69 260.51 363.65 259.913 364.353C259.295 365.077 258.4 365.482 257.462 365.482H227.538C226.6 365.482 225.705 365.077 225.087 364.353C224.49 363.649 224.234 362.69 224.383 361.774C224.383 361.774 226.466 351.804 226.503 351.629V351.629Z" fill="#4086F4"/>
<path d="M226.503 351.626C226.503 351.626 226.503 351.627 226.503 351.629H258.497L260.616 341.483C260.765 340.567 260.51 339.608 259.913 338.904C259.295 338.18 258.4 337.775 257.462 337.775H227.538C226.6 337.775 225.705 338.18 225.087 338.904C224.49 339.608 224.234 340.567 224.383 341.526L226.503 351.626Z" fill="#4175DF"/>
<path d="M231.843 335.501C232.431 335.501 232.909 335.024 232.909 334.435C232.909 333.847 232.431 333.37 231.843 333.37C231.254 333.37 230.777 333.847 230.777 334.435C230.777 335.024 231.254 335.501 231.843 335.501Z" fill="#FFF5F5"/>
<path d="M253.157 335.501C253.746 335.501 254.223 335.024 254.223 334.435C254.223 333.847 253.746 333.37 253.157 333.37C252.569 333.37 252.092 333.847 252.092 334.435C252.092 335.024 252.569 335.501 253.157 335.501Z" fill="#E3E7EA"/>
<path d="M238.237 359.088C236.434 359.088 234.818 357.946 234.218 356.246C234.021 355.691 234.311 355.082 234.867 354.887C235.42 354.689 236.031 354.981 236.226 355.536C236.527 356.385 237.335 356.957 238.237 356.957C239.412 356.957 240.368 356 240.368 354.825C240.368 353.65 239.412 352.694 238.237 352.694H236.912C236.324 352.694 235.846 352.217 235.846 351.628C235.846 351.039 236.324 350.562 236.912 350.562H238.237C239.412 350.562 240.368 349.606 240.368 348.431C240.368 347.256 239.412 346.3 238.237 346.3C237.335 346.3 236.527 346.871 236.226 347.72C236.03 348.276 235.419 348.567 234.867 348.37C234.311 348.174 234.021 347.565 234.218 347.011C234.818 345.31 236.434 344.168 238.237 344.168C240.588 344.168 242.499 346.08 242.499 348.431C242.499 349.703 241.94 350.847 241.053 351.628C241.94 352.41 242.499 353.553 242.499 354.825C242.499 357.176 240.588 359.088 238.237 359.088V359.088Z" fill="#FFF5F5"/>
<path d="M234.867 348.37C235.419 348.567 236.03 348.276 236.226 347.72C236.527 346.871 237.336 346.3 238.237 346.3C239.412 346.3 240.368 347.256 240.368 348.431C240.368 349.606 239.412 350.562 238.237 350.562H236.912C236.324 350.562 235.846 351.039 235.846 351.628H241.053C241.94 350.846 242.499 349.703 242.499 348.431C242.499 346.08 240.588 344.168 238.237 344.168C236.434 344.168 234.818 345.31 234.218 347.011C234.021 347.565 234.311 348.174 234.867 348.37V348.37Z" fill="#E3E7EA"/>
<path d="M248.894 359.088C248.305 359.088 247.828 358.611 247.828 358.022V347.225L246.288 348.252C245.797 348.577 245.136 348.446 244.81 347.956C244.483 347.466 244.615 346.805 245.106 346.479L248.303 344.347C248.629 344.13 249.051 344.109 249.396 344.294C249.743 344.48 249.959 344.841 249.959 345.234V358.022C249.959 358.611 249.483 359.088 248.894 359.088V359.088Z" fill="#FFF5F5"/>
<path d="M246.288 348.252L247.828 347.225V351.628H249.959V345.234C249.959 344.841 249.743 344.479 249.396 344.294C249.051 344.109 248.629 344.13 248.303 344.347L245.106 346.479C244.615 346.805 244.483 347.466 244.81 347.956C245.136 348.446 245.797 348.577 246.288 348.252V348.252Z" fill="#E3E7EA"/>
</g>
<circle cx="239.902" cy="30.3125" r="30.3125" fill="white"/>
<g clip-path="url(#clip5_648_101)">
<path d="M253.543 16.6719H226.262V43.9531H253.543V16.6719Z" fill="#ECEFF1"/>
<path d="M239.902 33.1817L253.543 43.9532V22.6875L239.902 33.1817Z" fill="#CFD8DC"/>
<path d="M254.68 16.6719H253.543L239.902 27.4434L226.262 16.6719H225.125C223.242 16.6719 221.715 18.1996 221.715 20.082V40.543C221.715 42.4254 223.242 43.9531 225.125 43.9531H226.262V22.6874L239.902 33.1793L253.543 22.6851V43.9531H254.68C256.562 43.9531 258.09 42.4254 258.09 40.543V20.082C258.09 18.1996 256.562 16.6719 254.68 16.6719Z" fill="#F44336"/>
</g>
<circle cx="241.804" cy="231.787" r="43.3036" fill="white"/>
<path d="M216.5 215.665V224.746C216.5 227.512 219.954 228.987 222.065 227.051L232.141 217.97C234.348 215.987 232.908 212.484 229.886 212.484H219.81C217.987 212.484 216.5 213.913 216.5 215.665Z" fill="#5986EF"/>
<path d="M264.19 212.484H254.114C251.14 212.484 249.652 215.987 251.859 217.97L261.935 227.051C264.046 228.941 267.5 227.512 267.5 224.746V215.665C267.5 213.913 266.013 212.484 264.19 212.484Z" fill="#5986EF"/>
<path d="M244.279 234.658L261.935 250.608C264.046 252.498 267.5 251.069 267.5 248.303V239.129C267.5 238.253 267.116 237.424 266.444 236.824L244.279 216.771C242.984 215.619 241.016 215.619 239.721 216.771L217.556 236.824C216.884 237.424 216.5 238.253 216.5 239.129V248.303C216.5 251.069 219.954 252.544 222.065 250.608L239.721 234.658C241.016 233.505 242.984 233.505 244.279 234.658Z" fill="#5986EF"/>
<defs>
<clipPath id="clip0_648_101">
<rect width="36.375" height="36.375" fill="white" transform="translate(339.501 134.24)"/>
</clipPath>
<clipPath id="clip1_648_101">
<rect width="36.375" height="36.375" fill="white" transform="translate(12.1249 243.366)"/>
</clipPath>
<clipPath id="clip2_648_101">
<rect width="36.375" height="36.375" fill="white" transform="translate(436.501 243.366)"/>
</clipPath>
<clipPath id="clip3_648_101">
<rect width="36.375" height="36.375" fill="white" transform="translate(97.8657 134.24)"/>
</clipPath>
<clipPath id="clip4_648_101">
<rect width="36.375" height="36.375" fill="white" transform="translate(224.312 329.107)"/>
</clipPath>
<clipPath id="clip5_648_101">
<rect width="36.375" height="36.375" fill="white" transform="translate(221.715 12.125)"/>
</clipPath>
</defs>
</svg>
