<svg width="169" height="210" viewBox="0 0 169 210" fill="none" xmlns="http://www.w3.org/2000/svg">
<g opacity="0.2">
<path d="M87.444 209.925C85.9096 209.925 84.0767 209.28 81.6362 207.818C75.1591 203.853 68.5172 191.947 61.5046 179.356C57.643 172.442 53.6579 165.29 49.6522 159.429C43.8032 148.84 33.8867 141.543 24.2895 134.471C17.2769 129.308 10.6556 124.422 5.52746 118.39L5.51716 118.377C1.6659 113.688 -0.136161 109.157 0.00800394 104.534C0.286036 95.5125 7.97826 87.4785 16.8959 78.1801L17.7506 77.2845C24.3616 70.3568 32.6613 61.0847 44.6785 47.2425L45.698 46.1098C56.4485 34.151 69.8353 19.2683 87.1762 10.2465C121.91 -10.6552 152.308 5.53142 161.905 23.0746C171.914 43.5811 171.049 65.352 158.61 106.325C145.584 149.038 116.73 182.056 104.929 194.265C100.1 198.295 97.0721 201.865 94.8685 204.472C92.0675 207.765 90.2449 209.925 87.444 209.925ZM6.43363 117.125C11.4485 123.026 18.008 127.859 24.9485 132.983C34.659 140.134 44.7094 147.536 50.6819 158.362C54.698 164.223 58.7037 171.414 62.5755 178.355C69.4954 190.762 76.0344 202.484 82.1923 206.264C88.2781 209.885 89.7094 208.2 93.9623 203.195C96.2071 200.547 99.2861 196.912 104.146 192.856C115.803 180.779 144.451 148.01 157.364 105.68C169.628 65.2993 170.524 43.9235 160.793 23.9965C151.474 6.98018 121.786 -8.71909 87.7117 11.7874C70.5458 20.7302 57.2517 35.5075 46.5732 47.3742L45.5641 48.5069C33.5366 62.3623 25.2265 71.6475 18.595 78.5884L17.7403 79.4839C9.06979 88.5189 1.59382 96.3291 1.33638 104.574C1.21281 108.696 2.881 112.792 6.43363 117.125Z" fill="#CCCCCC"/>
<path d="M85.354 197.992C83.2327 197.992 80.9879 197.123 77.8986 195.582L77.8369 195.556C71.9055 191.75 67.2098 182.57 62.2465 172.863C58.8586 166.225 55.3471 159.376 51.1252 153.41C45.1732 143.73 37.687 136.196 30.4581 128.913C25.5977 124.027 21.005 119.404 16.9993 114.294L16.9272 114.188C8.77161 99.9774 14.6206 93.7082 25.227 82.3157C26.3803 81.0777 27.5954 79.7738 28.862 78.3777C31.354 76.0202 34.0108 73.3861 36.8323 70.5939C49.3643 58.1741 66.5405 41.1709 90.7705 27.3682C120.386 12.8675 143.267 23.3512 152.823 40.17C162.4 57.7 158.682 78.7991 147.922 114.043C136.131 149.683 114.609 172.758 103.045 185.151L101.758 186.534C93.1595 194.7 89.473 197.992 85.354 197.992ZM78.4135 194.002C86.8472 198.19 88.2785 197.189 100.934 185.204L102.19 183.86C113.662 171.559 135.019 148.656 146.686 113.424C157.272 78.7728 160.968 58.0687 151.742 41.1841C142.495 24.9053 120.211 14.8035 91.2854 28.9619C67.2304 42.6592 50.1366 59.5965 37.6458 71.9505C34.8242 74.7426 32.1675 77.3767 29.6961 79.7211C28.4604 81.0777 27.2453 82.3815 26.092 83.6327C15.4753 95.0384 10.6149 100.254 17.9776 113.135C21.9215 118.153 26.473 122.723 31.2819 127.57C38.5828 134.906 46.1206 142.505 52.1446 152.304C56.4078 158.323 59.9501 165.237 63.3689 171.928C68.219 181.411 72.8117 190.38 78.4135 194.002Z" fill="#CCCCCC"/>
<path d="M83.5439 188.036C80.8357 188.036 78.3231 186.798 75.1927 184.691C69.9615 180.661 65.7601 172.324 61.3116 163.513C58.6755 158.271 55.9363 152.858 52.8059 147.892C48.4295 140.095 43.2396 133.431 38.235 126.977C34.1263 121.683 30.2441 116.691 27.1858 111.542L27.1446 111.463C20.9455 98.1077 27.3505 91.878 38.9867 80.5645L39.1206 80.4328L41.2727 78.5495C53.5267 67.8682 70.3116 53.2357 93.3059 42.6334C120.45 31.557 137.729 42.8442 144.289 55.8566C151.301 69.7384 149.582 88.3747 138.357 120.182C130.181 142.348 116.836 162.275 98.7018 179.409C91.6892 185.494 87.4158 188.036 83.5439 188.036ZM28.267 110.528C31.2739 115.572 35.1148 120.524 39.1823 125.753C44.2281 132.246 49.4489 138.976 53.8665 146.839C57.0279 151.83 59.7773 157.296 62.4341 162.577C66.7899 171.23 70.9089 179.396 75.8517 183.202C82.9776 188.023 86.5302 187.931 97.9295 178.013C115.868 161.05 129.069 141.347 137.142 119.457C148.15 88.2561 149.901 70.094 143.166 56.7654C136.36 43.2656 118.442 34.1516 93.7281 44.227C70.9192 54.7503 54.2167 69.3037 42.0244 79.9455L39.7899 81.9079C28.0714 93.3005 22.7064 98.516 28.267 110.528Z" fill="#CCCCCC"/>
<path d="M82.57 178.974C79.5425 178.974 76.7004 177.644 73.5288 175.036L73.5082 175.023C68.7302 170.835 64.8789 162.959 60.8011 154.635C58.9167 150.776 56.9601 146.798 54.8389 143.005C52.0071 137.447 48.8663 132.311 45.8286 127.359C42.1009 121.274 38.5688 115.518 36.2622 109.934C32.2359 98.1465 38.1261 91.9827 48.3 83.198C58.7828 74.9005 74.9808 63.0734 94.8343 56.093C113.792 51.1014 127.992 55.1052 134.861 67.3538C142.275 80.5507 140.432 101.479 129.805 124.777C118.673 152.198 101.075 168.28 95.9465 172.547C90.4888 176.867 86.3801 178.974 82.57 178.974ZM74.2496 173.6C80.181 178.46 84.8354 179.33 95.2256 171.098C100.271 166.897 117.643 151.026 128.631 123.948C138.99 101.228 140.864 80.9721 133.769 68.3548C127.22 56.6857 113.504 52.9321 95.1329 57.7657C75.4853 64.6802 59.4007 76.4151 49.0105 84.6467C38.538 93.6817 33.9762 99.0553 37.4464 109.21C39.681 114.597 43.1718 120.286 46.8686 126.318C49.927 131.31 53.0883 136.46 55.9304 142.057C58.062 145.85 60.0185 149.867 61.9133 153.739C65.9293 161.892 69.7084 169.61 74.2496 173.6Z" fill="#CCCCCC"/>
<path d="M82.028 170.703C78.8152 170.703 75.8598 169.294 72.7912 166.476L72.7088 166.383C60.9594 151.171 47.068 116.335 44.401 109.513L44.3598 109.355C42.2797 99.5824 46.9754 93.8401 56.3564 86.6621C65.1916 80.3139 79.1447 71.9375 95.4971 68.0258C110.552 64.9966 121.828 69.0795 127.265 79.5237C133.299 91.1269 131.456 108.762 122.219 127.912C114.084 146.377 102.098 159.666 93.5921 165.936C89.1436 169.123 85.4365 170.703 82.028 170.703ZM73.615 165.132C79.4948 170.493 84.7363 170.308 92.9228 164.447C101.274 158.297 113.044 145.231 121.066 127.043C129.901 108.723 131.796 91.3245 126.153 80.472C121.025 70.6072 110.212 66.7746 95.7237 69.7117C79.5669 73.5838 65.7683 81.8812 57.0257 88.1504C48.0463 95.0122 43.814 100.109 45.6264 108.841C53.2877 128.439 64.6459 153.489 73.615 165.132Z" fill="#CCCCCC"/>
<path d="M81.473 163.078C78.0336 163.078 75.0576 161.616 72.8025 158.784C63.7819 147.602 54.3906 124.014 51.6206 109.829C51.1675 106.55 51.8162 103.349 53.5256 100.294C58.7979 90.8769 74.4192 82.7507 95.3231 78.5624C107.114 77.1005 115.908 81.1439 120.109 89.955C124.867 99.9382 123.157 114.465 115.424 129.796C105.363 149.196 93.3254 161.576 83.2236 162.946C82.6263 163.038 82.0393 163.078 81.473 163.078ZM99.9158 79.9717C98.4947 79.9717 97.0222 80.0639 95.4982 80.2615C74.9856 84.3707 59.6835 92.2335 54.6274 101.295C53.124 103.982 52.5576 106.734 52.9386 109.487C55.6572 123.382 64.8837 146.588 73.7499 157.572C76.0874 160.496 79.3208 161.774 83.0897 161.26C92.8002 159.943 104.478 147.839 114.312 128.874C121.643 114.334 123.394 100.123 118.976 90.8506C115.589 83.7516 108.906 79.9717 99.9158 79.9717Z" fill="#CCCCCC"/>
<path d="M81.7912 155.834C78.599 155.834 75.7878 154.516 73.5944 151.961C65.7683 142.887 58.5292 123.697 58.1173 110.909V110.883C58.0658 99.0949 73.3885 89.4145 94.5395 87.8867C103.55 87.6102 110.233 91.456 113.374 98.7524C116.978 107.116 115.495 118.719 109.306 130.599C101.655 145.034 92.0784 154.411 83.6757 155.689C83.0269 155.781 82.3988 155.834 81.7912 155.834ZM59.456 110.856C59.8679 123.263 66.8908 141.886 74.5006 150.697C76.8176 153.397 79.9274 154.53 83.5109 153.99C91.5327 152.765 100.759 143.664 108.194 129.637C114.094 118.311 115.557 107.34 112.2 99.5558C109.306 92.852 103.066 89.296 94.591 89.5726C74.5315 91.0345 59.4148 100.188 59.456 110.856Z" fill="#CCCCCC"/>
<path d="M82.2551 148.972C79.4645 148.972 76.9725 147.879 74.9645 145.732C67.9107 138.238 62.8959 123.065 63.9977 112.582C65.1922 102.519 78.0332 95.3018 93.1911 96.1315C99.8433 96.6189 104.745 100.122 107.01 105.983C109.605 112.7 108.421 121.617 103.746 130.428C98.2265 140.74 90.9462 147.602 84.2734 148.787C83.5835 148.919 82.9142 148.972 82.2551 148.972ZM90.7918 97.7779C77.3432 97.7779 66.3558 104.139 65.3261 112.832C64.2963 122.617 69.1979 137.382 75.8192 144.428C78.0023 146.746 80.8547 147.668 84.0881 147.102C90.4005 145.982 97.3307 139.384 102.644 129.466C107.041 121.182 108.195 112.898 105.816 106.734C103.777 101.452 99.2666 98.2915 93.1293 97.8306C92.3467 97.8042 91.5641 97.7779 90.7918 97.7779Z" fill="#CCCCCC"/>
<path d="M82.7881 142.413C80.5433 142.413 78.5044 141.583 76.795 139.963C70.8739 134.34 67.5478 123.026 69.3808 114.742C71.2446 106.55 80.9243 101.624 91.3968 103.521C96.041 104.403 99.4495 107.353 100.994 111.831C102.745 116.902 101.88 123.329 98.6257 129.466C94.8877 136.473 89.8728 141.109 84.8682 142.176C84.168 142.334 83.4677 142.413 82.7881 142.413ZM70.668 115.216C68.9998 122.736 72.1714 133.444 77.5879 138.594C79.5135 140.424 81.954 141.083 84.652 140.503C89.2344 139.516 94.0536 135.038 97.5341 128.518C100.52 122.881 101.334 117.06 99.779 112.529C98.43 108.604 95.382 106.01 91.2115 105.22C81.5421 103.455 72.3259 107.946 70.668 115.216Z" fill="#CCCCCC"/>
<path d="M83.3557 136.064C81.8008 136.064 80.2974 135.55 78.9793 134.444C74.572 130.796 72.5125 123.051 74.3763 117.191C76.2505 111.356 82.9336 108.208 89.2871 110.184C92.2219 111.093 94.3638 113.318 95.3214 116.427C96.3718 119.851 95.8363 124.013 93.8592 127.832C91.1303 133.074 87.0834 136.064 83.3557 136.064ZM79.7001 133.022C83.4999 136.169 89.3489 133.43 92.7471 126.897C94.477 123.552 94.9713 119.956 94.0754 117.059C93.2825 114.477 91.4702 112.62 88.9679 111.843C83.2322 110.065 77.239 112.752 75.612 117.836C73.9747 122.986 75.8077 129.795 79.7001 133.022Z" fill="#CCCCCC"/>
<path d="M83.8309 129.835C82.9865 129.835 82.1627 129.585 81.411 129.058C78.8366 127.254 77.7966 123.105 79.1044 119.799C80.3916 116.533 83.9236 114.966 86.9614 116.309C88.4236 116.954 89.4945 118.245 89.9579 119.957C90.4522 121.762 90.2154 123.869 89.2989 125.726C87.9911 128.347 85.8801 129.835 83.8309 129.835ZM84.6547 117.534C82.7909 117.534 81.03 118.68 80.2783 120.576C79.3 123.065 80.0826 126.2 82.0392 127.557C83.9854 128.926 86.7348 127.688 88.1559 124.804C88.8664 123.368 89.0518 121.854 88.681 120.51C88.3515 119.299 87.5792 118.377 86.5083 117.903C85.9007 117.652 85.2726 117.534 84.6547 117.534Z" fill="#CCCCCC"/>
</g>
</svg>
