<svg width="246" height="274" viewBox="0 0 246 274" fill="none" xmlns="http://www.w3.org/2000/svg">
<g style="mix-blend-mode:multiply" opacity="0.2">
<path d="M127.188 273.407C124.956 273.407 122.29 272.565 118.74 270.658C109.319 265.485 99.6585 249.95 89.4587 233.522C83.842 224.5 78.0457 215.168 72.2193 207.521C63.712 193.704 49.2884 184.184 35.3291 174.956C25.1293 168.219 15.4986 161.844 8.03971 153.973L8.02473 153.956C2.42306 147.838 -0.198047 141.927 0.0116418 135.895C0.416041 124.123 11.6044 113.641 24.5751 101.508L25.8183 100.34C35.434 91.3004 47.506 79.2023 64.9851 61.1411L66.4679 59.6632C82.1046 44.0594 101.576 24.6406 126.798 12.8691C177.318 -14.4032 221.532 6.7169 235.492 29.607C250.05 56.3637 248.792 84.7702 230.699 138.232C211.752 193.962 169.784 237.045 152.62 252.975C145.595 258.233 141.192 262.89 137.987 266.293C133.913 270.589 131.262 273.407 127.188 273.407ZM9.35775 152.324C16.6519 160.022 26.1927 166.329 36.2877 173.014C50.4117 182.345 65.03 192.003 73.7171 206.129C79.5584 213.776 85.3847 223.159 91.0164 232.216C101.081 248.404 110.592 263.698 119.549 268.63C128.401 273.356 130.483 271.156 136.669 264.626C139.934 261.172 144.412 256.429 151.481 251.136C168.436 235.378 210.104 192.622 228.886 137.39C246.725 84.7014 248.028 56.8105 233.874 30.81C220.319 8.60722 177.138 -11.877 127.577 14.8797C102.609 26.5481 83.2729 45.8294 67.741 61.3129L66.2731 62.7908C48.7792 80.8692 36.6921 92.9845 27.0464 102.041L25.8033 103.209C13.1921 114.998 2.31821 125.189 1.94377 135.946C1.76404 141.325 4.19043 146.67 9.35775 152.324Z" fill="#CCCCCC"/>
<path d="M124.281 257.838C121.195 257.838 117.93 256.704 113.437 254.693L113.347 254.659C104.72 249.692 97.8899 237.714 90.6706 225.049C85.743 216.388 80.6355 207.452 74.4947 199.667C65.8375 187.036 54.9487 177.207 44.4344 167.704C37.3649 161.328 30.6848 155.296 24.8585 148.629L24.7536 148.491C12.8912 129.949 21.3986 121.769 36.8257 106.904C38.5032 105.289 40.2705 103.587 42.1128 101.766C45.7374 98.6895 49.6017 95.2526 53.7056 91.6094C71.9335 75.4042 96.9163 53.2186 132.159 35.209C175.235 16.2885 208.515 29.9676 222.415 51.9126C236.344 74.7855 230.937 102.316 215.285 148.302C198.136 194.804 166.832 224.912 150.012 241.083L148.14 242.887C135.634 253.542 130.272 257.838 124.281 257.838ZM114.186 252.631C126.452 258.096 128.534 256.79 146.942 241.151L148.769 239.399C165.454 223.348 196.518 193.464 213.488 147.494C228.885 102.281 234.262 75.2667 220.842 53.2358C207.392 31.9954 174.98 18.8147 132.908 37.2883C97.9198 55.1605 73.0568 77.2601 54.8888 93.3794C50.7849 97.0226 46.9207 100.46 43.326 103.518C41.5287 105.288 39.7613 106.99 38.0838 108.622C22.6417 123.504 15.5723 130.31 26.2813 147.116C32.0178 153.664 38.638 159.627 45.6326 165.951C56.2518 175.523 67.2155 185.438 75.9775 198.224C82.1783 206.077 87.3306 215.099 92.3032 223.829C99.3577 236.202 106.038 247.905 114.186 252.631Z" fill="#CCCCCC"/>
<path d="M121.769 244.847C117.83 244.847 114.175 243.231 109.622 240.482C102.013 235.223 95.9021 224.345 89.4318 212.849C85.5975 206.009 81.6134 198.946 77.0601 192.467C70.6946 182.294 63.1458 173.599 55.8667 165.178C49.8905 158.27 44.2439 151.757 39.7955 145.037L39.7356 144.934C30.719 127.509 40.0352 119.381 56.96 104.619L57.1547 104.447L60.2851 101.99C78.1086 88.0527 102.522 68.9604 135.968 55.1266C175.449 40.6742 200.582 55.4016 210.122 72.3802C220.322 90.4929 217.821 114.809 201.495 156.311C189.603 185.233 170.192 211.233 143.816 233.591C133.616 241.53 127.4 244.847 121.769 244.847ZM41.3682 143.714C45.7417 150.296 51.3284 156.757 57.2446 163.58C64.5837 172.052 72.1774 180.833 78.6029 191.093C83.201 197.606 87.2001 204.737 91.0643 211.628C97.3999 222.919 103.391 233.573 110.58 238.54C120.945 244.829 126.112 244.709 142.693 231.769C168.784 209.635 187.985 183.927 199.728 155.365C215.739 114.655 218.285 90.9569 208.49 73.5659C198.59 55.9515 172.528 44.0596 136.582 57.206C103.406 70.9366 79.1121 89.9258 61.3785 103.811L58.1283 106.372C41.0836 121.236 33.2802 128.042 41.3682 143.714Z" fill="#CCCCCC"/>
<path d="M120.362 233.024C115.958 233.024 111.825 231.288 107.211 227.886L107.182 227.868C100.232 222.404 94.6302 212.127 88.699 201.266C85.9581 196.231 83.1123 191.041 80.0269 186.092C75.908 178.84 71.3398 172.138 66.9214 165.677C61.4994 157.737 56.3621 150.228 53.007 142.941C47.1508 127.561 55.718 119.518 70.516 108.056C85.7634 97.2298 109.323 81.7978 138.2 72.6899C165.774 66.1769 186.429 71.401 196.419 87.3829C207.203 104.602 204.522 131.909 189.065 162.309C172.874 198.087 147.277 219.07 139.818 224.638C131.88 230.274 125.904 233.024 120.362 233.024ZM108.26 226.013C116.887 232.354 123.657 233.488 138.77 222.747C146.109 217.265 171.376 196.558 187.357 161.226C202.425 131.582 205.151 105.152 194.831 88.6889C185.305 73.4632 165.355 68.5655 138.635 74.8724C110.057 83.8944 86.662 99.206 71.5495 109.947C56.3171 121.735 49.682 128.747 54.7295 141.996C57.9796 149.025 63.0571 156.449 68.4341 164.319C72.8825 170.832 77.4807 177.551 81.6145 184.855C84.7149 189.804 87.5607 195.046 90.3166 200.098C96.1579 210.735 101.655 220.806 108.26 226.013Z" fill="#CCCCCC"/>
<path d="M119.432 222.231C114.759 222.231 110.46 220.392 105.997 216.714L105.877 216.594C88.7877 196.746 68.5827 151.292 64.7035 142.39L64.6436 142.184C61.6181 129.433 68.4479 121.94 82.0926 112.575C94.9435 104.291 115.238 93.3619 139.023 88.2581C160.92 84.3056 177.321 89.6328 185.229 103.26C194.006 118.4 191.325 141.411 177.89 166.397C166.058 190.49 148.624 207.83 136.252 216.01C129.782 220.168 124.39 222.231 119.432 222.231ZM107.195 214.961C115.748 221.956 123.371 221.715 135.279 214.068C147.426 206.043 164.545 188.995 176.213 165.263C189.064 141.359 191.82 118.658 183.612 104.498C176.153 91.6263 160.426 86.6255 139.353 90.4577C115.852 95.51 95.7823 106.336 83.0662 114.516C70.0056 123.47 63.8497 130.12 66.4858 141.514C77.6292 167.085 94.1497 199.77 107.195 214.961Z" fill="#CCCCCC"/>
<path d="M118.748 212.282C113.746 212.282 109.417 210.374 106.137 206.68C93.0165 192.09 79.3568 161.312 75.3278 142.804C74.6688 138.525 75.6124 134.349 78.0987 130.362C85.7673 118.075 108.489 107.472 138.893 102.007C156.043 100.1 168.834 105.375 174.945 116.872C181.864 129.898 179.378 148.853 168.13 168.856C153.497 194.169 135.988 210.323 121.294 212.11C120.426 212.23 119.572 212.282 118.748 212.282ZM145.573 103.846C143.506 103.846 141.365 103.966 139.148 104.224C109.312 109.586 87.0554 119.845 79.7013 131.668C77.5145 135.174 76.6908 138.765 77.2449 142.357C81.1991 160.487 94.6191 190.767 107.515 205.099C110.915 208.914 115.618 210.581 121.1 209.91C135.224 208.192 152.208 192.399 166.512 167.653C177.176 148.681 179.723 130.139 173.297 118.041C168.369 108.778 158.649 103.846 145.573 103.846Z" fill="#CCCCCC"/>
<path d="M119.148 202.83C114.505 202.83 110.416 201.111 107.226 197.777C95.843 185.937 85.3137 160.899 84.7145 144.212V144.178C84.6397 128.798 106.927 116.167 137.691 114.173C150.796 113.813 160.517 118.831 165.085 128.351C170.327 139.263 168.17 154.403 159.169 169.904C148.04 188.738 134.111 200.974 121.889 202.641C120.946 202.761 120.032 202.83 119.148 202.83ZM86.6617 144.144C87.2608 160.332 97.4756 184.631 108.544 196.128C111.914 199.651 116.437 201.128 121.65 200.424C133.317 198.826 146.737 186.951 157.551 168.649C166.134 153.87 168.26 139.555 163.378 129.399C159.169 120.652 150.092 116.012 137.766 116.373C108.589 118.281 86.6017 130.224 86.6617 144.144Z" fill="#CCCCCC"/>
<path d="M119.483 193.876C115.424 193.876 111.799 192.449 108.878 189.648C98.6187 179.87 91.3245 160.073 92.9271 146.394C94.6645 133.265 113.342 123.848 135.389 124.93C145.065 125.566 152.194 130.137 155.489 137.785C159.264 146.549 157.541 158.183 150.741 169.68C142.713 183.135 132.124 192.089 122.418 193.635C121.415 193.807 120.441 193.876 119.483 193.876ZM131.899 127.078C112.338 127.078 96.357 135.379 94.8593 146.721C93.3615 159.489 100.491 178.753 110.122 187.947C113.297 190.972 117.446 192.174 122.149 191.435C131.33 189.975 141.41 181.365 149.139 168.425C155.534 157.616 157.212 146.807 153.752 138.764C150.786 131.873 144.226 127.749 135.299 127.147C134.161 127.113 133.023 127.078 131.899 127.078Z" fill="#CCCCCC"/>
<path d="M120.399 185.318C117.134 185.318 114.169 184.236 111.682 182.122C103.07 174.784 98.2323 160.022 100.898 149.213C103.609 138.524 117.688 132.097 132.921 134.572C139.676 135.723 144.633 139.572 146.88 145.415C149.426 152.031 148.168 160.418 143.435 168.426C137.998 177.568 130.704 183.617 123.425 185.009C122.406 185.215 121.388 185.318 120.399 185.318ZM102.771 149.832C100.344 159.644 104.957 173.615 112.836 180.335C115.636 182.723 119.186 183.583 123.11 182.826C129.775 181.538 136.785 175.695 141.847 167.188C146.191 159.833 147.374 152.238 145.113 146.326C143.151 141.205 138.717 137.82 132.651 136.788C118.587 134.486 105.182 140.346 102.771 149.832Z" fill="#CCCCCC"/>
<path d="M121.151 177.035C118.89 177.035 116.703 176.365 114.786 174.921C108.375 170.161 105.38 160.057 108.091 152.409C110.817 144.797 120.537 140.689 129.779 143.267C134.047 144.453 137.163 147.357 138.556 151.413C140.083 155.881 139.304 161.311 136.429 166.295C132.46 173.134 126.573 177.035 121.151 177.035ZM115.834 173.065C121.361 177.173 129.869 173.598 134.811 165.075C137.327 160.71 138.046 156.018 136.743 152.238C135.59 148.869 132.954 146.446 129.314 145.432C120.972 143.112 112.255 146.618 109.888 153.251C107.507 159.971 110.173 168.855 115.834 173.065Z" fill="#CCCCCC"/>
<path d="M121.715 168.907C120.487 168.907 119.289 168.58 118.195 167.893C114.451 165.539 112.938 160.125 114.84 155.812C116.713 151.55 121.85 149.505 126.268 151.258C128.395 152.1 129.953 153.784 130.627 156.018C131.346 158.373 131.001 161.122 129.668 163.545C127.766 166.965 124.696 168.907 121.715 168.907ZM122.913 152.856C120.202 152.856 117.641 154.351 116.548 156.826C115.125 160.074 116.263 164.164 119.109 165.934C121.94 167.721 125.939 166.106 128.006 162.342C129.039 160.469 129.309 158.493 128.77 156.74C128.29 155.159 127.167 153.956 125.609 153.337C124.726 153.011 123.812 152.856 122.913 152.856Z" fill="#CCCCCC"/>
</g>
</svg>
