<svg width="357" height="272" viewBox="0 0 357 272" fill="none" xmlns="http://www.w3.org/2000/svg">
<g opacity="0.2">
<path d="M184.55 271.474C181.312 271.474 177.444 270.641 172.293 268.753C158.623 263.633 144.606 248.257 129.805 231.997C121.656 223.067 113.245 213.831 104.791 206.262C92.4467 192.587 71.518 183.164 51.263 174.03C36.4629 167.363 22.4887 161.052 11.6657 153.262L11.644 153.245C3.51588 147.19 -0.287368 141.339 0.0168923 135.369C0.603679 123.718 16.8381 113.342 35.6588 101.334L37.4626 100.177C51.4151 91.2306 68.9317 79.2563 94.294 61.3799L96.4455 59.9172C119.135 44.4731 147.387 25.253 183.985 13.6019C257.29 -13.3913 321.446 7.51267 341.701 30.1686C362.825 56.6515 361 84.7672 334.746 137.682C307.254 192.842 246.359 235.483 221.453 251.251C211.26 256.455 204.871 261.065 200.22 264.433C194.309 268.685 190.462 271.474 184.55 271.474ZM13.5782 151.629C24.1621 159.249 38.0059 165.492 52.6539 172.108C73.1479 181.344 94.3592 190.903 106.964 204.884C115.44 212.453 123.894 221.74 132.066 230.704C146.67 246.726 160.471 261.864 173.467 266.746C186.311 271.423 189.332 269.246 198.307 262.783C203.045 259.364 209.543 254.669 219.801 249.431C244.403 233.834 304.864 191.515 332.117 136.849C358 84.6992 359.891 57.0937 339.354 31.3592C319.685 9.38364 257.03 -10.891 185.116 15.5919C148.887 27.141 120.83 46.225 98.2928 61.55L96.163 63.0128C70.779 80.9062 53.2406 92.8975 39.2447 101.861L37.4409 103.018C19.1418 114.686 3.36375 124.772 2.82043 135.42C2.55964 140.744 6.08035 146.033 13.5782 151.629Z" fill="#CCCCCC"/>
<path d="M180.138 256.064C175.661 256.064 170.923 254.942 164.403 252.952L164.273 252.918C151.755 248.002 141.845 236.147 131.369 223.611C124.219 215.039 116.808 206.194 107.898 198.489C95.3363 185.987 79.5366 176.258 64.2801 166.852C54.0222 160.542 44.3293 154.572 35.8753 147.972L35.7231 147.836C18.5107 129.484 30.855 121.387 53.2398 106.675C55.6739 105.076 58.2384 103.392 60.9115 101.589C66.1708 98.5445 71.7779 95.1427 77.7327 91.5368C104.182 75.4974 140.432 53.5389 191.569 35.7135C254.073 16.9867 302.363 30.5258 322.532 52.2462C342.743 74.8851 334.898 102.133 312.187 147.649C287.303 193.675 241.881 223.475 217.475 239.48L214.758 241.266C196.611 251.812 188.831 256.064 180.138 256.064ZM165.49 250.91C183.289 256.319 186.31 255.027 213.02 239.549L215.671 237.814C239.882 221.927 284.955 192.349 309.579 146.85C331.92 102.099 339.722 75.3613 320.25 53.5559C300.734 32.5328 253.704 19.487 192.656 37.7716C141.888 55.4609 105.812 77.3343 79.4496 93.2887C73.4948 96.8946 67.8877 100.296 62.6719 103.324C60.0639 105.076 57.4994 106.76 55.0654 108.376C32.6588 123.105 22.4009 129.841 37.9399 146.476C46.2636 152.956 55.8695 158.858 66.0187 165.117C81.4273 174.591 97.3358 184.406 110.049 197.06C119.047 204.833 126.523 213.763 133.738 222.404C143.974 234.65 153.667 246.233 165.49 250.91Z" fill="#CCCCCC"/>
<path d="M176.315 243.206C170.599 243.206 165.296 241.607 158.689 238.885C147.649 233.681 138.782 222.914 129.394 211.535C123.83 204.765 118.049 197.775 111.442 191.362C102.206 181.293 91.2524 172.687 80.6903 164.352C72.0189 157.515 63.8256 151.068 57.3709 144.418L57.284 144.316C44.2008 127.069 57.7187 119.023 82.2768 104.413L82.5593 104.243L87.1015 101.81C112.964 88.016 148.388 69.1191 196.918 55.4269C254.205 41.1224 290.673 55.6991 304.517 72.5039C319.317 90.4313 315.688 114.499 291.999 155.576C274.743 184.202 246.577 209.936 208.306 232.065C193.505 239.923 184.486 243.206 176.315 243.206ZM59.6529 143.108C65.9989 149.622 74.1052 156.018 82.6897 162.77C93.3388 171.156 104.357 179.847 113.681 190.002C120.353 196.448 126.155 203.507 131.762 210.327C140.955 221.502 149.649 232.048 160.08 236.963C175.119 243.188 182.617 243.069 206.676 230.262C244.534 208.354 272.396 182.909 289.434 154.64C312.667 114.346 316.361 90.8905 302.148 73.6775C287.783 56.2433 249.967 44.4732 197.809 57.485C149.67 71.0751 114.42 89.87 88.688 103.613L83.9719 106.148C59.24 120.86 47.9171 127.596 59.6529 143.108Z" fill="#CCCCCC"/>
<path d="M174.263 231.504C167.874 231.504 161.876 229.786 155.182 226.418L155.139 226.401C145.055 220.992 136.926 210.821 128.32 200.071C124.343 195.088 120.214 189.951 115.737 185.052C109.76 177.875 103.132 171.241 96.7207 164.846C88.8534 156.988 81.399 149.555 76.5308 142.343C68.0333 127.12 80.4645 119.16 101.937 107.815C124.061 97.0991 158.246 81.8251 200.147 72.8104C240.157 66.364 270.127 71.5347 284.623 87.353C300.271 104.396 296.38 131.423 273.952 161.512C250.459 196.925 213.317 217.692 202.494 223.203C190.976 228.782 182.305 231.504 174.263 231.504ZM156.703 224.564C169.221 230.84 179.045 231.963 200.973 221.332C211.622 215.907 248.286 195.411 271.475 160.44C293.338 131.1 297.293 104.94 282.319 88.6457C268.497 73.5758 239.549 68.7282 200.778 74.9705C159.311 83.9002 125.365 99.0552 103.436 109.686C81.3338 121.354 71.7061 128.294 79.0301 141.407C83.7461 148.364 91.1136 155.712 98.9157 163.502C105.37 169.948 112.042 176.599 118.041 183.828C122.539 188.726 126.669 193.914 130.667 198.915C139.143 209.443 147.119 219.41 156.703 224.564Z" fill="#CCCCCC"/>
<path d="M173.12 220.822C166.339 220.822 160.102 219.002 153.625 215.362L153.452 215.243C128.654 195.598 99.3368 150.609 93.708 141.798L93.6211 141.594C89.231 128.974 99.1412 121.558 118.94 112.288C137.587 104.089 167.035 93.2718 201.546 88.2201C233.32 84.3081 257.117 89.5809 268.592 103.069C281.328 118.054 277.438 140.829 257.943 165.56C240.774 189.406 215.477 206.568 197.526 214.665C188.137 218.781 180.313 220.822 173.12 220.822ZM155.364 213.627C167.774 220.55 178.836 220.312 196.113 212.743C213.739 204.799 238.579 187.927 255.509 164.437C274.156 140.778 278.155 118.309 266.245 104.294C255.422 91.5539 232.603 86.6043 202.025 90.3973C167.926 95.3979 138.804 106.114 120.352 114.21C101.401 123.071 92.4692 129.654 96.2942 140.931C112.463 166.24 136.435 198.591 155.364 213.627Z" fill="#CCCCCC"/>
<path d="M171.948 210.974C164.689 210.974 158.408 209.086 153.649 205.429C134.611 190.988 114.79 160.525 108.944 142.206C107.988 137.971 109.357 133.838 112.965 129.892C124.092 117.731 157.061 107.236 201.178 101.827C226.062 99.9393 244.622 105.161 253.489 116.54C263.53 129.433 259.922 148.194 243.601 167.992C222.368 193.046 196.962 209.035 175.642 210.803C174.382 210.923 173.143 210.974 171.948 210.974ZM210.871 103.647C207.872 103.647 204.764 103.766 201.548 104.021C158.256 109.328 125.961 119.483 115.29 131.185C112.117 134.655 110.922 138.209 111.726 141.764C117.463 159.709 136.936 189.678 155.648 203.864C160.581 207.64 167.405 209.29 175.36 208.626C195.854 206.925 220.499 191.294 241.254 166.801C256.728 148.024 260.422 129.671 251.099 117.697C243.949 108.529 229.844 103.647 210.871 103.647Z" fill="#CCCCCC"/>
<path d="M172.62 201.619C165.883 201.619 159.95 199.918 155.321 196.618C138.804 184.899 123.526 160.117 122.657 143.601V143.567C122.548 128.344 154.886 115.843 199.526 113.87C218.542 113.512 232.646 118.479 239.275 127.902C246.881 138.703 243.752 153.687 230.69 169.03C214.543 187.671 194.331 199.782 176.597 201.432C175.228 201.551 173.903 201.619 172.62 201.619ZM125.482 143.533C126.351 159.556 141.173 183.606 157.233 194.985C162.123 198.472 168.687 199.935 176.25 199.237C193.18 197.656 212.652 185.902 228.343 167.788C240.796 153.16 243.882 138.992 236.797 128.939C230.691 120.282 217.52 115.69 199.634 116.047C157.299 117.935 125.395 129.756 125.482 143.533Z" fill="#CCCCCC"/>
<path d="M173.601 192.757C167.712 192.757 162.452 191.346 158.214 188.573C143.327 178.895 132.743 159.301 135.069 145.762C137.59 132.767 164.691 123.446 196.681 124.517C210.721 125.147 221.066 129.671 225.847 137.24C231.324 145.915 228.824 157.43 218.958 168.809C207.309 182.127 191.944 190.988 177.861 192.519C176.405 192.689 174.992 192.757 173.601 192.757ZM191.618 126.644C163.235 126.644 140.046 134.859 137.872 146.085C135.699 158.722 146.044 177.789 160.018 186.889C164.626 189.883 170.646 191.073 177.47 190.342C190.792 188.896 205.418 180.375 216.632 167.567C225.912 156.868 228.346 146.17 223.326 138.21C219.023 131.389 209.504 127.307 196.551 126.712C194.899 126.678 193.248 126.644 191.618 126.644Z" fill="#CCCCCC"/>
<path d="M174.725 184.287C169.987 184.287 165.684 183.215 162.076 181.123C149.58 173.86 142.56 159.25 146.429 148.551C150.362 137.971 170.791 131.61 192.893 134.059C202.695 135.199 209.889 139.009 213.148 144.792C216.843 151.34 215.017 159.641 208.15 167.567C200.261 176.616 189.677 182.603 179.115 183.981C177.637 184.185 176.159 184.287 174.725 184.287ZM149.145 149.163C145.624 158.875 152.318 172.704 163.75 179.354C167.814 181.718 172.964 182.569 178.658 181.82C188.33 180.545 198.5 174.762 205.846 166.342C212.149 159.063 213.866 151.545 210.584 145.693C207.737 140.625 201.304 137.274 192.502 136.254C172.095 133.974 152.644 139.774 149.145 149.163Z" fill="#CCCCCC"/>
<path d="M175.924 176.088C172.642 176.088 169.469 175.425 166.688 173.996C157.386 169.285 153.039 159.283 156.973 151.714C160.928 144.179 175.033 140.114 188.442 142.666C194.636 143.839 199.157 146.714 201.178 150.728C203.394 155.15 202.264 160.525 198.092 165.458C192.332 172.227 183.791 176.088 175.924 176.088ZM168.209 172.159C176.228 176.224 188.573 172.686 195.745 164.25C199.396 159.93 200.439 155.286 198.548 151.544C196.875 148.211 193.05 145.812 187.769 144.809C175.663 142.513 163.015 145.982 159.581 152.548C156.126 159.198 159.994 167.992 168.209 172.159Z" fill="#CCCCCC"/>
<path d="M176.922 168.043C175.14 168.043 173.402 167.72 171.815 167.04C166.382 164.709 164.187 159.352 166.947 155.082C169.664 150.864 177.118 148.84 183.529 150.575C186.615 151.408 188.875 153.075 189.853 155.286C190.897 157.617 190.397 160.338 188.463 162.736C185.702 166.121 181.247 168.043 176.922 168.043ZM178.661 152.157C174.727 152.157 171.011 153.637 169.425 156.086C167.36 159.301 169.012 163.349 173.141 165.101C177.248 166.869 183.051 165.271 186.05 161.546C187.55 159.692 187.941 157.736 187.159 156.001C186.463 154.436 184.833 153.245 182.573 152.633C181.291 152.31 179.965 152.157 178.661 152.157Z" fill="#CCCCCC"/>
</g>
</svg>
