<svg width="1092" height="632" viewBox="0 0 1092 632" fill="none" xmlns="http://www.w3.org/2000/svg">
<g opacity="0.3">
<path d="M392.801 631.255C389.137 631.255 385.623 630.74 382.301 629.712C375.335 627.556 369.15 623.128 363.918 616.552C358.295 609.485 353.717 599.857 350.311 587.934C343.465 563.97 341.764 535.272 340.12 507.517C339.796 502.067 339.462 496.432 339.096 490.964C336.597 453.698 331.923 421.054 324.808 391.168C310.614 331.551 287.249 280.672 257.24 244.033C222.533 201.661 182.695 180.554 145.061 184.601C122.942 186.981 91.7055 209.61 74.7997 248.257C64.7667 271.193 61.5212 296.647 65.4157 321.862L65.2757 321.968C63.2341 308.744 63.1182 295.487 64.9326 282.565C66.5971 270.711 69.88 259.124 74.6914 248.125C82.3437 230.631 93.5859 215.126 107.203 203.285C119.786 192.344 133.236 185.618 145.079 184.345C164.774 182.228 185.003 186.925 205.204 198.307C223.516 208.626 241.056 223.935 257.336 243.812C287.364 280.472 310.742 331.379 324.944 391.031C332.063 420.937 336.74 453.599 339.24 490.886C339.607 496.354 339.941 501.991 340.263 507.441C341.906 535.175 343.606 563.854 350.443 587.782C357.055 610.927 367.791 624.947 382.352 629.453C402.516 635.695 429.133 622.641 453.549 594.531C488.735 554.024 516.339 495.065 543.034 438.048C547.714 428.054 552.551 417.72 557.316 407.741C569.685 381.829 586.28 348.251 604.971 318.337C624.076 287.761 642.601 265.297 661.608 249.657C673.242 240.085 685.189 233.635 697.119 230.489C708.138 227.581 719.503 227.401 730.897 229.948C750.443 234.32 770.711 246.669 792.862 267.697C836.477 309.107 879.127 359.369 919.627 417.091C958.12 471.953 995.02 534.034 1029.3 601.602L1029.18 601.79C958.124 461.723 878.586 349.395 792.776 267.925C744.296 221.898 702.63 216.164 661.649 249.883C619.956 284.186 586.915 346.092 557.419 407.881C552.656 417.857 547.819 428.191 543.139 438.185C516.436 495.222 488.823 554.2 453.613 594.734C442.235 607.834 429.901 618.051 417.947 624.28C411.632 627.571 405.469 629.722 399.629 630.676C397.301 631.064 395.023 631.255 392.801 631.255Z" fill="#FFE492"/>
<path d="M397.851 617.044C388.506 617.044 380.178 613.86 373.091 607.575C365.187 600.567 358.864 589.708 354.295 575.302C353.891 574.025 353.495 572.706 353.119 571.377C346.362 547.517 344.416 519.191 342.535 491.797C342.154 486.261 341.761 480.534 341.337 474.978C338.808 441.892 334.66 412.732 328.654 385.835C327.914 382.524 327.136 379.205 326.34 375.973C311.794 316.868 288.131 266.634 257.909 230.7C222.846 189.051 182.798 168.817 145.142 173.726C123.128 176.626 91.9867 199.626 75.0562 237.976C64.9183 260.941 61.4067 286.445 64.8981 311.733L64.7572 311.835C62.9271 298.58 62.9839 285.298 64.9275 272.361C66.7126 260.479 70.0832 248.866 74.9479 237.844C82.6567 220.381 93.8723 204.858 107.379 192.956C119.864 181.955 133.279 175.036 145.156 173.473C164.873 170.902 185.171 175.15 205.485 186.095C223.886 196.011 241.555 210.945 258.002 230.481C288.242 266.436 311.917 316.701 326.473 375.838C327.269 379.073 328.047 382.395 328.787 385.708C334.797 412.623 338.948 441.798 341.478 474.901C341.904 480.458 342.297 486.184 342.678 491.723C344.558 519.1 346.502 547.405 353.25 571.232C353.626 572.556 354.021 573.876 354.424 575.149C363.865 604.929 379.811 617.044 397.895 617.044C397.995 617.044 398.092 617.044 398.192 617.044C398.078 617.041 397.965 617.044 397.851 617.044ZM401.727 616.866C418.699 615.321 437.241 603.759 453.899 586.559C489.848 549.305 518.86 491.766 546.918 436.123C548.074 433.829 549.229 431.541 550.383 429.252C552.919 424.228 555.925 418.281 558.985 412.286C572.712 385.399 589.195 354.115 607.366 325.957C626.7 295.995 645.22 273.761 663.984 257.982C675.513 248.298 687.345 241.475 699.151 237.705C710.089 234.211 721.369 233.224 732.674 234.769C752.205 237.441 772.456 247.57 794.585 265.736C816.163 283.42 833.682 300.067 849.719 318.124C872.436 343.73 893.547 373.233 911.202 398.714C952.23 458.125 991.54 525.587 1028.04 599.228L1027.92 599.413C991.429 525.783 952.123 458.326 911.1 398.922C893.447 373.443 872.34 343.946 849.628 318.348C833.595 300.295 816.08 283.654 794.506 265.974C746.3 226.399 704.838 223.93 664.026 258.211C621.664 293.828 587.645 356.495 559.084 412.438C556.023 418.433 553.019 424.378 550.483 429.404C549.328 431.69 548.173 433.981 547.017 436.275C518.95 491.936 489.928 549.496 453.953 586.777C445.037 595.982 435.806 603.295 426.515 608.509C417.867 613.357 409.546 616.161 401.727 616.866Z" fill="#FFE492"/>
<path d="M403.242 603.158C402.118 603.158 401.005 603.115 399.906 603.026C390.645 602.288 382.4 598.454 375.401 591.626C367.747 584.159 361.589 573.099 357.1 558.751C356.702 557.473 356.309 556.151 355.936 554.821C349.27 531.078 347.082 503.131 344.968 476.107C344.527 470.474 344.071 464.649 343.583 458.996C340.748 426.022 336.388 397.095 330.249 370.561C329.489 367.28 328.692 363.99 327.876 360.783C312.977 302.193 289.015 252.603 258.582 217.374C223.164 176.449 182.907 157.085 145.227 162.857C124.007 166.158 93.0842 187.846 75.3364 227.66C65.0825 250.662 61.2959 276.235 64.3854 301.612L64.2439 301.706C62.6249 288.411 62.8579 275.098 64.9329 262.138C66.8409 250.218 70.3054 238.575 75.2295 227.528C82.9964 210.105 94.1814 194.577 107.577 182.619C119.96 171.565 133.336 164.458 145.241 162.606C164.982 159.584 185.349 163.38 205.775 173.889C224.265 183.403 242.063 197.959 258.675 217.156C289.126 252.408 313.101 302.026 328.009 360.648C328.825 363.858 329.623 367.149 330.383 370.434C336.524 396.984 340.887 425.928 343.722 458.92C344.21 464.575 344.667 470.401 345.107 476.033C347.222 503.042 349.407 530.969 356.065 554.684C356.438 556.014 356.828 557.333 357.227 558.607C375.467 616.907 419.103 610.648 454.255 578.585C491.205 544.614 521.886 488.153 551.558 433.553L551.862 432.992C554.736 427.699 557.708 422.229 560.662 416.827C591.826 359.841 625.659 301.277 666.37 266.302C677.797 256.503 689.514 249.308 701.193 244.916C712.056 240.831 723.249 239.037 734.462 239.585C754.011 240.539 774.244 248.45 796.318 263.77C819.523 279.812 836.708 294.559 852.042 311.586C873.885 335.895 894.303 366.613 912.317 393.716C952.392 454.383 990.906 522.726 1026.79 596.84L1026.67 597.023C990.793 522.916 952.282 454.581 912.212 393.919C894.2 366.821 873.786 336.108 851.95 311.807C836.623 294.785 819.442 280.043 796.246 264.006C748.397 230.799 707.142 231.598 666.412 266.523C625.728 301.475 591.908 360.014 560.757 416.979C557.803 422.381 554.831 427.854 551.957 433.144L551.653 433.705C536.866 460.914 521.577 489.049 505.608 514.18C487.663 542.422 470.88 563.559 454.301 578.801C436.97 594.607 418.986 603.158 403.242 603.158Z" fill="#FFE492"/>
<path d="M1025.41 594.631C990.146 520.047 952.43 450.834 913.315 388.916C911.656 386.313 909.995 383.697 908.328 381.073C891.372 354.377 873.84 326.772 854.264 305.267C835.267 284.461 815.15 271.74 797.977 262.04C750.59 235.1 709.541 239.167 668.791 274.835C626.948 311.559 591.169 372.531 562.421 421.524C560.695 424.465 558.972 427.411 557.246 430.359C555.972 432.536 554.697 434.713 553.422 436.887C537.05 464.812 522.203 489.778 506.294 512.56C488.12 538.584 471.224 557.643 454.639 570.829C439.095 583.188 423.179 589.727 409.002 589.729C406.419 589.729 403.896 589.513 401.441 589.074C392.476 587.473 384.488 582.975 377.699 575.703C370.292 567.769 364.3 556.499 359.888 542.204C359.494 540.923 359.106 539.599 358.736 538.267C352.165 514.648 349.74 487.094 347.395 460.448C346.89 454.709 346.367 448.771 345.814 443.009C342.671 410.14 338.097 381.444 331.832 355.28C331.052 352.025 330.233 348.765 329.399 345.585C314.147 287.511 289.887 238.566 259.244 204.039C223.47 163.837 183.005 145.348 145.303 151.976C119.519 156.596 90.8677 183.455 75.6283 217.289C65.2461 240.339 61.179 265.993 63.8633 291.477L63.7209 291.566C62.3153 278.222 62.724 264.869 64.9356 251.876C66.9715 239.913 70.5335 228.232 75.5217 217.154C83.3457 199.782 94.4995 184.254 107.777 172.253C120.058 161.153 133.388 153.861 145.314 151.724C165.08 148.248 185.515 151.595 206.052 161.668C224.63 170.781 242.559 184.962 259.338 203.816C290 238.363 314.273 287.336 329.534 345.446C330.369 348.628 331.188 351.89 331.968 355.146C338.237 381.325 342.812 410.036 345.958 442.921C346.511 448.685 347.034 454.62 347.538 460.361C349.882 486.992 352.306 514.529 358.869 538.12C359.239 539.449 359.626 540.771 360.019 542.05C378.996 603.537 422.831 595.856 454.601 570.598C492.506 540.461 524.821 485.348 553.333 436.72C554.608 434.543 555.882 432.366 557.157 430.191C558.882 427.243 560.606 424.297 562.332 421.357C578.742 393.392 594.902 366.216 612.168 341.173C632.024 312.373 650.532 290.601 668.748 274.612C680.079 264.694 691.678 257.125 703.226 252.119C714.019 247.438 725.127 244.84 736.242 244.394C755.845 243.607 776.061 249.301 798.044 261.796C815.223 271.501 835.349 284.228 854.356 305.046C873.941 326.559 891.477 354.171 908.437 380.873C910.102 383.496 911.765 386.112 913.424 388.716C952.543 450.639 990.262 519.859 1025.53 594.451L1025.41 594.631Z" fill="#FFE492"/>
<path d="M1024.16 592.241C988.844 515.754 951.925 445.66 914.425 383.912C912.18 380.218 909.888 376.41 907.671 372.728C891.791 346.361 875.372 319.097 856.584 298.725C837.815 278.455 817.304 267.809 799.714 260.071C752.914 239.273 712.069 246.606 671.175 283.147C632.156 318.127 598.987 370.729 566.909 421.598L563.387 427.182C560.605 431.594 557.728 436.154 554.895 440.627C522.82 491.204 491.045 538.606 454.984 562.852C446.234 568.736 437.451 572.813 428.878 574.977C419.671 577.299 410.958 577.332 402.978 575.074C394.311 572.62 386.582 567.467 380.006 559.757C372.85 551.366 367.022 539.89 362.688 525.651C362.298 524.362 361.915 523.035 361.549 521.706C355.074 498.227 352.416 471.078 349.847 444.823C349.274 438.965 348.68 432.906 348.057 427.022C344.6 394.254 339.815 365.789 333.426 340.001C332.628 336.778 331.789 333.543 330.934 330.39C315.329 272.83 290.772 224.529 259.915 190.706C223.785 151.232 183.111 133.613 145.383 141.101C119.772 146.289 91.219 173.336 75.9505 206.875C65.429 229.984 61.0709 255.737 63.3464 281.35L63.2031 281.434C62.0119 268.033 62.6002 254.628 64.9505 241.597C67.1177 229.584 70.7822 217.857 75.8422 206.744C83.7254 189.43 94.8436 173.917 107.997 161.88C120.171 150.74 133.452 143.273 145.392 140.852C165.181 136.924 185.684 139.819 206.335 149.456C225.002 158.169 243.059 171.971 260.005 190.485C290.879 224.326 315.45 272.658 331.064 330.25C331.919 333.406 332.759 336.644 333.558 339.866C339.951 365.667 344.739 394.147 348.196 426.933C348.819 432.817 349.413 438.879 349.986 444.737C352.554 470.977 355.21 498.112 361.678 521.564C362.043 522.888 362.427 524.213 362.816 525.502C381.271 586.133 422.512 584.431 454.953 562.619C490.985 538.393 522.747 491.008 554.808 440.454C557.641 435.981 560.518 431.422 563.299 427.009L566.822 421.425C582.568 396.456 598.849 370.635 616.116 346.615C635.673 319.411 653.667 298.578 671.127 282.923C682.365 272.881 693.85 264.94 705.261 259.322C715.99 254.04 727.012 250.635 738.023 249.201C757.724 246.636 777.92 250.112 799.771 259.822C817.369 267.566 837.891 278.214 856.672 298.502C875.471 318.881 891.895 346.153 907.778 372.528C909.996 376.209 912.288 380.015 914.532 383.712C952.036 445.465 988.958 515.563 1024.27 592.058L1024.16 592.241Z" fill="#FFE492"/>
<path d="M1022.9 589.85C988.046 512.513 951.921 441.542 915.531 378.911C912.796 374.204 909.999 369.31 907.295 364.578C892.389 338.495 876.976 311.525 858.899 292.189C840.192 272.266 819.36 263.779 801.448 258.106C755.387 243.286 714.748 253.887 673.555 291.463C637.591 324.393 606.038 371.063 575.522 416.195C572.311 420.945 568.99 425.854 565.757 430.611C561.961 436.198 559.063 440.443 556.363 444.371C541.9 465.394 524.765 489.602 507.327 509.737C488.848 531.073 471.839 545.839 455.325 554.882C446.641 559.637 438.006 562.636 429.657 563.792C420.692 565.036 412.23 564.122 404.51 561.075C396.144 557.774 388.676 551.967 382.308 543.814C375.404 534.975 369.744 523.293 365.484 509.1C365.101 507.814 364.721 506.484 364.356 505.15C357.983 481.828 355.099 455.098 352.31 429.249C351.662 423.254 350.994 417.055 350.295 411.034C346.522 378.358 341.524 350.126 335.015 324.721C334.196 321.526 333.338 318.322 332.463 315.194C316.506 258.149 291.649 210.493 260.582 177.372C224.097 138.624 183.213 121.881 145.463 130.223C123.972 135.074 94.2497 157.422 76.2952 196.409C65.6204 219.589 60.9625 245.458 62.8272 271.219L62.6847 271.295C61.709 257.825 62.4805 244.362 64.9764 231.28C67.2803 219.206 71.0521 207.428 76.1902 196.272C84.1314 179.029 95.2115 163.542 108.236 151.48C120.303 140.306 133.526 132.669 145.472 129.972C165.285 125.592 185.857 128.036 206.618 137.236C225.374 145.548 243.56 158.975 260.671 177.149C291.757 210.287 316.628 257.972 332.594 315.049C333.469 318.177 334.328 321.387 335.147 324.584C341.659 350.002 346.659 378.248 350.435 410.94C351.135 416.964 351.804 423.162 352.451 429.158C355.238 454.994 358.121 481.709 364.488 505.005C364.852 506.337 365.231 507.664 365.615 508.948C380.913 559.931 414.443 577.011 455.307 554.636C492.313 534.373 525.482 488.96 556.284 444.183C558.985 440.255 561.881 436.011 565.678 430.424C568.91 425.666 572.231 420.757 575.442 416.007C590.465 393.789 605.998 370.814 622.258 349.301C640.645 324.972 657.41 305.978 673.51 291.237C684.664 281.063 696.032 272.748 707.299 266.527C717.972 260.633 728.909 256.424 739.806 254.011C759.647 249.622 779.827 250.878 801.499 257.85C819.42 263.528 840.267 272.018 858.989 291.958C877.078 311.307 892.495 338.285 907.405 364.375C910.109 369.107 912.906 374.001 915.641 378.708C952.033 441.346 988.162 512.323 1023.02 589.664L1022.9 589.85Z" fill="#FFE492"/>
<path d="M1021.64 587.461C987.246 509.269 951.917 437.417 916.634 373.908C913.631 368.507 910.562 362.836 907.592 357.353C893.446 331.235 878.82 304.229 861.212 285.649C842.467 265.965 821.358 259.685 803.18 256.138C758.669 247.215 717.045 261.489 675.933 299.776C643.183 330.4 613.59 371.369 584.972 410.99C579.191 418.992 573.215 427.268 567.42 435.157C563.875 439.985 560.738 444.225 557.827 448.117C544.292 466.197 526.377 489.379 507.834 508.325C489.203 527.359 472.137 539.982 455.661 546.911C437.692 554.469 420.53 554.525 406.034 547.076C397.974 542.933 390.764 536.473 384.604 527.874C377.954 518.59 372.461 506.706 368.275 492.556C367.896 491.267 367.52 489.935 367.159 488.601C360.891 465.456 357.787 439.165 354.786 413.743C354.06 407.592 353.31 401.234 352.528 395.056C348.433 362.465 343.223 334.462 336.599 309.45C335.761 306.284 334.882 303.107 333.987 300.007C317.678 243.478 292.525 196.463 261.245 164.05C224.405 126.03 183.313 110.16 145.538 119.357C119.923 125.725 92.2444 152.468 76.6639 185.898C65.8216 209.162 60.8564 235.166 62.305 261.099L62.1618 261.167C61.4043 247.616 62.3618 234.082 65.0066 220.945C67.4509 208.801 71.3382 196.963 76.5592 185.758C84.5572 168.597 95.5967 153.145 108.485 141.073C120.439 129.876 133.601 122.072 145.544 119.103C165.381 114.272 186.023 116.267 206.895 125.028C225.741 132.939 244.057 145.99 261.334 163.822C292.631 196.255 317.799 243.295 334.119 299.86C335.014 302.96 335.892 306.139 336.732 309.308C343.358 334.335 348.571 362.351 352.669 394.957C353.45 401.135 354.2 407.496 354.926 413.646C357.926 439.056 361.029 465.334 367.29 488.456C367.651 489.791 368.026 491.117 368.405 492.406C383.384 543.059 415.999 563.342 455.653 546.665C491.802 531.459 526.088 490.222 557.753 447.926C560.663 444.034 563.801 439.797 567.344 434.969C573.138 427.081 579.115 418.807 584.895 410.804C613.52 371.176 643.118 330.197 675.883 299.56C686.962 289.241 698.215 280.556 709.329 273.741C719.958 267.226 730.809 262.21 741.58 258.833C761.612 252.553 781.775 251.592 803.219 255.89C821.408 259.439 842.536 265.721 861.3 285.428C878.921 304.021 893.553 331.037 907.704 357.165C910.673 362.648 913.743 368.316 916.745 373.718C952.031 437.232 987.364 509.089 1021.76 587.286L1021.64 587.461Z" fill="#FFE492"/>
<path d="M1020.39 585.07C986.457 506.016 951.923 433.289 917.742 368.907C914.601 362.99 911.388 356.726 908.282 350.667C894.774 324.328 880.807 297.091 863.53 279.11C844.679 259.594 823.322 255.552 804.915 254.172C761.56 250.68 720.148 268.317 678.315 308.09C648.964 336.116 621.716 371.586 595.365 405.887C586.305 417.682 577.746 428.823 569.088 439.7C565.566 444.128 562.364 448.106 559.297 451.859C539.512 476.051 523.322 493.543 508.347 506.904C489.561 523.667 472.44 534.146 456.005 538.936C449.629 540.793 443.372 541.719 437.323 541.719C426.599 541.719 416.523 538.817 407.564 533.067C391.351 522.662 379.074 503.463 371.073 476.003C370.697 474.701 370.325 473.369 369.969 472.04C363.813 449.096 360.497 423.272 357.291 398.296C356.479 391.968 355.64 385.427 354.77 379.066C350.347 346.552 344.923 318.782 338.192 294.168C337.333 291.03 336.435 287.881 335.52 284.808C318.859 228.794 293.406 182.424 261.915 150.714C224.72 113.425 183.421 98.4246 145.621 108.477C119.839 115.472 92.9306 141.707 77.0724 175.315C66.0486 198.675 60.7654 224.834 61.791 250.965L61.6469 251.028C61.1118 237.383 62.2591 223.768 65.0584 210.562C67.65 198.338 71.6561 186.433 76.9691 175.175C85.0226 158.108 96.0158 142.707 108.762 130.635C120.602 119.42 133.693 111.463 145.626 108.226C165.487 102.943 186.197 104.486 207.18 112.811C226.115 120.323 244.559 132.999 262.004 150.486C293.513 182.216 318.98 228.612 335.652 284.659C336.566 287.734 337.465 290.883 338.324 294.024C345.06 318.65 350.487 346.435 354.911 378.962C355.781 385.323 356.621 391.866 357.432 398.194C360.637 423.158 363.951 448.971 370.102 471.895C370.458 473.222 370.828 474.554 371.205 475.853C386.144 527.135 417.053 550.036 456.007 538.682C493.088 527.874 528.994 488.626 559.231 451.656C562.296 447.903 565.498 443.927 569.02 439.5C577.676 428.623 586.235 417.485 595.295 405.689C621.65 371.381 648.903 335.905 678.265 307.869C689.286 297.391 700.423 288.333 711.367 280.944C721.967 273.789 732.733 267.966 743.364 263.641C763.64 255.392 783.784 252.21 804.947 253.915C823.37 255.296 844.746 259.342 863.619 278.882C880.91 296.875 894.883 324.125 908.395 350.474C911.503 356.533 914.715 362.797 917.854 368.712C952.037 433.099 986.574 505.833 1020.5 584.893L1020.39 585.07Z" fill="#FFE492"/>
<path d="M1019.13 582.68C985.204 501.631 952.403 430.069 918.855 363.904C915.654 357.591 912.527 351.144 909.215 344.319C896.271 317.637 882.886 290.05 865.852 272.571C846.74 253.063 824.178 251.439 806.657 252.205C764.767 253.799 723.566 274.799 680.702 316.407C654.971 341.492 630.496 371.617 606.826 400.752C594.386 416.064 582.636 430.523 570.76 444.247C567.234 448.324 563.966 452.039 560.771 455.604C540.97 477.667 524.476 493.515 508.863 505.48C489.912 520.003 472.736 528.338 456.352 530.961C447.933 532.309 439.737 532.055 431.99 530.208C423.788 528.252 416.086 524.499 409.098 519.057C393.611 506.992 381.76 486.941 373.876 459.455C373.504 458.151 373.137 456.816 372.784 455.487C366.747 432.779 363.23 407.447 359.828 382.95C358.921 376.415 357.982 369.655 357.015 363.084C352.259 330.641 346.624 303.102 339.787 278.894C338.907 275.784 337.989 272.663 337.057 269.618C320.043 214.119 294.293 168.393 262.59 137.386C233.317 108.885 201.63 94.0148 171.165 94.0148C162.553 94.0148 154.044 95.2023 145.709 97.605C120.176 105.105 93.41 131.434 77.5166 164.681C66.2988 188.151 60.6839 214.487 61.2795 240.841L61.1348 240.897C60.8233 227.145 62.1661 213.437 65.1249 200.154C67.8675 187.841 72.0022 175.858 77.4122 164.539C85.5199 147.578 96.4627 132.241 109.06 120.181C120.952 108.797 133.625 100.903 145.709 97.3564C165.594 91.6223 186.373 92.7158 207.468 100.601C226.491 107.711 245.067 120.009 262.677 137.155C294.397 168.18 320.164 213.931 337.188 269.463C338.121 272.508 339.041 275.631 339.92 278.744C346.76 302.965 352.398 330.516 357.157 362.975C358.124 369.546 359.064 376.305 359.971 382.844C363.371 407.331 366.886 432.652 372.918 455.342C373.271 456.669 373.638 458.004 374.009 459.305C388.754 510.702 418.771 536.723 456.367 530.705C494.41 524.613 532.115 487.255 560.714 455.391C563.909 451.826 567.176 448.111 570.701 444.036C582.575 430.318 594.324 415.856 606.762 400.546C630.435 371.409 654.914 341.277 680.654 316.184C702.723 294.762 723.82 279.15 745.155 268.454C765.73 258.137 785.857 252.738 806.683 251.946C818.572 251.426 828.135 252.33 836.778 254.786C847.939 257.957 857.478 263.699 865.944 272.341C882.994 289.835 896.384 317.437 909.335 344.131C912.646 350.956 915.774 357.401 918.973 363.713C952.521 429.881 985.325 501.449 1019.26 582.502L1019.13 582.68Z" fill="#FFE492"/>
<path d="M1017.87 580.289C984.42 498.352 952.391 425.938 919.956 358.899C916.748 352.267 913.614 345.434 910.296 338.201C897.865 311.098 885.012 283.07 868.164 266.03C848.867 246.612 826.082 247.389 808.387 250.233C768.37 256.447 727.38 280.811 683.078 324.715C661.239 346.452 640.015 371.327 619.488 395.385C603.262 414.401 587.937 432.364 572.423 448.783C568.916 452.497 565.487 456.049 562.234 459.338C542.633 479.138 525.34 493.76 509.369 504.041C490.246 516.351 473.013 522.547 456.688 522.979C448.382 523.197 440.33 521.857 432.762 518.993C424.828 515.989 417.38 511.292 410.623 505.03C395.875 491.362 384.45 470.458 376.667 442.896C376.302 441.595 375.938 440.258 375.587 438.921C369.679 416.489 365.973 391.693 362.389 367.714C361.376 360.929 360.327 353.911 359.249 347.089C354.155 314.706 348.307 287.401 341.372 263.607C340.473 260.524 339.535 257.431 338.583 254.414C321.217 199.43 295.167 154.349 263.253 124.044C225.351 88.219 183.631 74.9646 145.783 86.722C120.521 94.7016 93.9086 121.099 77.9847 153.968C66.5555 177.562 60.5985 204.096 60.7551 230.706L60.6112 230.755C60.5289 216.884 62.0712 203.069 65.1968 189.695C68.0987 177.28 72.3656 165.211 77.882 153.824C86.0395 136.984 96.9276 121.723 109.369 109.689C121.137 98.3069 133.728 90.2792 145.783 86.4708C165.694 80.2876 186.541 80.927 207.747 88.3763C226.859 95.0898 245.562 107.012 263.338 123.814C295.272 154.133 321.335 199.242 338.711 254.259C339.664 257.276 340.603 260.372 341.503 263.457C348.442 287.264 354.291 314.582 359.388 346.977C360.467 353.8 361.515 360.817 362.53 367.605C366.112 391.574 369.815 416.36 375.72 438.776C376.071 440.111 376.435 441.448 376.798 442.747C391.637 495.287 420.017 523.694 456.712 522.72C486.487 521.933 520 501.722 562.181 459.117C565.432 455.829 568.859 452.279 572.366 448.565C587.876 432.149 603.2 414.19 619.424 395.174C639.953 371.113 661.181 346.234 683.026 324.492C705.363 302.355 726.265 285.599 746.928 273.261C767.862 260.762 787.97 253.143 808.402 249.972C826.115 247.122 848.927 246.348 868.253 265.796C885.119 282.856 897.979 310.898 910.416 338.013C913.733 345.247 916.867 352.077 920.074 358.706C952.512 425.747 984.541 498.167 1017.99 580.109L1017.87 580.289Z" fill="#FFE492"/>
<path d="M1016.62 577.899C983.65 495.071 952.396 421.799 921.067 353.898C917.887 347.005 914.783 339.842 911.499 332.258C899.549 304.671 887.191 276.145 870.486 259.491C850.981 240.145 827.983 243.329 810.127 248.264C772.011 258.603 732.4 285.538 685.463 333.03C667.851 350.922 650.419 370.55 633.562 389.531C613.087 412.584 593.747 434.361 574.092 453.327C570.551 456.747 567.056 460.03 563.706 463.08C543.981 481.028 526.375 493.958 509.884 502.604C500.647 507.448 491.66 510.957 483.171 513.035C474.118 515.25 465.324 515.912 457.033 515.004C440.213 513.159 425.114 505.086 412.158 491.009C398.165 475.806 387.167 454.052 379.469 426.346C379.108 425.034 378.749 423.694 378.4 422.365C372.633 400.263 368.755 376.056 365.006 352.647C363.87 345.561 362.697 338.233 361.492 331.104C356.053 298.775 349.992 271.7 342.966 248.33C342.047 245.272 341.087 242.207 340.117 239.221C322.399 184.75 296.052 140.313 263.925 110.716C225.669 75.624 183.742 63.2424 145.867 75.8498C105.291 89.5584 61.0174 148.79 60.2417 220.58L60.0972 220.621C60.2908 202.662 63.0896 184.97 68.4148 168.032C73.278 152.563 80.141 138.004 88.8129 124.765C96.8758 112.454 106.122 101.826 116.292 93.1739C125.965 84.9458 136.192 78.8666 145.865 75.5987C165.799 68.9638 186.716 69.1541 208.032 76.167C227.234 82.4821 246.067 94.029 264.008 110.488C296.152 140.105 322.515 184.567 340.244 239.069C341.216 242.058 342.175 245.123 343.096 248.183C350.126 271.563 356.188 298.653 361.631 330.995C362.836 338.124 364.009 345.452 365.145 352.541C368.893 375.942 372.769 400.139 378.533 422.228C378.881 423.557 379.239 424.897 379.6 426.206C394.395 479.452 421.907 510.896 457.068 514.753C486.834 518.013 521.7 501.041 563.659 462.861C567.008 459.812 570.501 456.531 574.042 453.111C593.692 434.15 613.029 412.376 633.501 389.325C650.36 370.342 667.794 350.711 685.408 332.816C732.364 285.305 771.994 258.359 810.13 248.013C822.129 244.696 831.888 243.636 840.847 244.679C852.299 246.011 862.021 250.781 870.572 259.263C887.296 275.935 899.661 304.478 911.618 332.081C914.903 339.662 918.005 346.824 921.184 353.716C952.514 421.622 983.77 494.896 1016.74 577.729L1016.62 577.899Z" fill="#FFE492"/>
<path d="M1015.37 575.509C982.884 491.778 952.401 417.654 922.178 348.895C919.051 341.781 916.004 334.329 912.778 326.436C901.284 298.321 889.398 269.247 872.806 252.95C852.85 233.442 828.469 239.807 811.866 246.293C766.827 263.678 723.899 304.095 687.849 341.344C674.886 354.786 661.871 369.025 649.282 382.795C624.03 410.417 600.179 436.508 575.765 457.871C572.174 461.015 568.614 464.026 565.18 466.825C545.288 483.01 527.37 494.244 510.403 501.166C491.169 509.014 473.331 510.988 457.38 507.03C440.995 502.962 426.296 492.854 413.695 476.984C400.478 460.34 389.906 437.736 382.271 409.798C381.916 408.487 381.559 407.144 381.214 405.81C375.605 384.114 371.579 360.571 367.684 337.802C366.409 330.34 365.088 322.627 363.737 315.12C357.865 282.384 351.772 256.309 344.562 233.053C343.623 230.024 342.644 226.989 341.653 224.028C323.579 170.075 296.933 126.282 264.596 97.3859C225.986 63.0294 183.85 51.5181 145.95 64.9755C105.133 79.6533 61.7222 138.08 59.7267 210.454L59.5829 210.487C60.0782 192.531 63.0779 174.857 68.497 157.957C73.4638 142.472 80.3596 127.898 88.9948 114.644C97.0473 102.283 106.259 91.5757 116.375 82.8147C126.008 74.4723 136.234 68.2181 145.947 64.7243C165.907 57.6379 186.891 57.3791 208.318 63.953C227.609 69.8698 246.571 81.0412 264.679 97.155C297.036 126.067 323.697 169.884 341.778 223.871C342.769 226.835 343.749 229.872 344.689 232.901C351.904 256.167 357.999 282.258 363.873 315.005C365.225 322.513 366.545 330.229 367.821 337.691C371.715 360.452 375.74 383.987 381.344 405.673C381.69 407.007 382.045 408.347 382.4 409.659C397.243 463.965 423.887 498.456 457.423 506.778C487.502 514.243 522.736 501.097 565.14 466.596C568.572 463.8 572.132 460.791 575.72 457.648C600.128 436.289 623.975 410.204 649.223 382.584C661.811 368.815 674.828 354.573 687.793 341.129C712.035 316.084 731.961 297.58 750.497 282.897C772.319 265.613 792.39 253.559 811.859 246.044C823.733 241.406 833.883 239.305 842.887 239.625C854.481 240.036 864.296 244.319 872.892 252.722C889.506 269.039 901.398 298.13 912.899 326.263C916.125 334.154 919.171 341.606 922.298 348.715C952.523 417.476 983.006 491.606 1015.49 575.339L1015.37 575.509Z" fill="#FFE492"/>
<path d="M1014.11 573.117C982.115 488.481 952.406 413.501 923.282 343.89C920.227 336.59 917.255 328.88 914.109 320.715C903.052 292.034 891.621 262.377 875.12 246.41C854.918 226.947 830.334 235.896 813.599 244.322C772.288 264.952 733.284 304.233 690.227 349.657C682.459 357.88 674.584 366.367 666.967 374.578C637.673 406.151 607.384 438.797 577.428 462.413C573.788 465.286 570.16 468.028 566.644 470.566C546.824 484.855 528.074 494.664 510.912 499.721C491.471 505.45 473.575 505.224 457.716 499.053C441.786 492.855 427.489 480.709 415.221 462.954C402.807 444.985 392.659 421.534 385.059 393.252C384.708 391.937 384.357 390.593 384.014 389.258C378.589 368.07 374.443 345.293 370.434 323.268C368.989 315.331 367.495 307.126 365.967 299.141C359.731 266.439 353.431 240.587 346.142 217.783C345.185 214.789 344.186 211.78 343.173 208.842C324.753 155.395 297.811 112.247 265.259 84.0563C226.296 50.4357 183.952 39.7971 146.024 54.102C106.412 69.1984 62.5224 125.575 59.2026 200.327L59.0596 200.352C59.8569 182.396 63.0572 164.742 68.5702 147.88C73.6395 132.378 80.5692 117.791 89.1663 104.521C105.028 80.0424 125.75 61.5741 146.019 53.8508C166.002 46.3152 187.056 45.6048 208.595 51.7398C227.975 57.2608 247.066 68.0541 265.339 83.8229C297.91 112.029 324.867 155.205 343.301 208.677C344.315 211.617 345.314 214.627 346.272 217.623C353.564 240.44 359.867 266.302 366.105 299.017C367.632 307.004 369.127 315.209 370.572 323.146C374.581 345.166 378.726 367.938 384.148 389.116C384.489 390.45 384.841 391.793 385.192 393.107C400.396 449.692 425.493 486.24 457.769 498.802C487.655 510.433 524.273 500.855 566.609 470.332C570.123 467.795 573.748 465.055 577.386 462.185C607.332 438.576 637.617 405.935 666.905 374.367C674.522 366.157 682.397 357.67 690.167 349.446C709.015 329.562 730.912 306.755 752.273 287.714C774.617 267.796 794.67 253.525 813.58 244.081C825.489 238.086 835.741 234.975 844.918 234.574C856.492 234.067 866.679 237.974 875.201 246.184C882.593 253.337 889.674 264.011 896.849 278.818C903.185 291.892 908.799 306.461 914.229 320.548C917.375 328.71 920.347 336.42 923.4 343.717C952.526 413.331 982.235 488.313 1014.23 572.952L1014.11 573.117Z" fill="#FFE492"/>
<path d="M1012.85 570.727C981.356 485.177 952.421 409.342 924.393 338.889C921.424 331.429 918.541 323.485 915.489 315.077C904.86 285.8 893.871 255.526 877.441 239.874C862.083 225.292 841.768 226.104 815.338 242.355C778.397 264.949 743.56 302.741 706.675 342.755C702.082 347.738 697.334 352.889 692.613 357.976C690.763 359.973 688.912 361.975 687.063 363.974C651.934 401.954 615.609 441.227 579.1 466.96C575.409 469.563 571.714 472.037 568.118 474.31C548.063 486.978 528.992 495.042 511.437 498.274C491.778 501.892 473.821 499.472 458.066 491.079C442.605 482.84 428.709 468.657 416.767 448.923C405.191 429.795 395.467 405.498 387.865 376.703C387.519 375.387 387.172 374.039 386.832 372.702C381.628 352.179 377.408 330.321 373.325 309.183C371.673 300.622 369.962 291.77 368.216 283.154C361.606 250.474 355.102 224.846 347.743 202.503C346.765 199.535 345.746 196.556 344.714 193.646C325.937 140.717 298.696 98.2109 265.932 70.7252C226.618 37.8429 184.064 28.0746 146.11 43.2268C107.136 58.9094 63.2524 115.748 58.6904 190.2L58.5465 190.22C59.6475 172.262 63.047 154.628 68.6534 137.809C73.8266 122.289 80.7893 107.685 89.3492 94.405C105.159 69.8752 125.844 51.1328 146.102 42.9807C166.111 34.9936 187.232 33.8315 208.882 39.5301C228.351 44.6502 247.573 55.068 266.013 70.4918C298.795 97.9952 326.053 140.524 344.838 193.481C345.87 196.391 346.89 199.375 347.868 202.343C355.231 224.699 361.74 250.335 368.351 283.027C370.099 291.643 371.808 300.498 373.462 309.059C377.542 330.191 381.762 352.044 386.964 372.56C387.304 373.897 387.65 375.242 387.996 376.559C403.455 435.108 427.706 474.62 458.129 490.827C488.161 506.827 525.158 501.187 568.092 474.066C571.685 471.793 575.378 469.322 579.068 466.721C615.564 440.999 651.883 401.733 687.004 363.758C688.856 361.757 690.705 359.757 692.554 357.76C697.276 352.673 702.023 347.523 706.616 342.542C743.509 302.52 778.356 264.718 815.313 242.114C827.254 234.771 837.607 230.654 846.963 229.519C858.674 228.101 868.956 231.509 877.526 239.643C884.884 246.653 891.858 257.376 898.846 272.424C905.011 285.701 910.402 300.551 915.615 314.912C918.668 323.318 921.55 331.259 924.517 338.716C952.546 409.172 981.483 485.01 1012.98 570.562L1012.85 570.727Z" fill="#FFE492"/>
<path d="M1011.59 568.337C983.011 488.617 954.045 409.735 925.493 333.885C922.581 326.208 919.762 317.959 916.778 309.229C907.071 280.827 896.068 248.637 879.75 233.335C864.193 218.779 843.689 221.086 817.066 240.384C785.419 263.254 756.031 296.883 724.916 332.485C715.173 343.633 705.097 355.165 694.986 366.288C677.333 385.746 658.285 406.335 638.61 425.088C617.538 445.173 598.614 460.353 580.756 471.501C577.004 473.843 573.244 476.048 569.577 478.05C549.29 489.12 529.905 495.42 511.96 496.774C492.095 498.271 474.075 493.674 458.398 483.099C429.474 463.329 406.68 421.965 390.651 360.153C390.309 358.834 389.967 357.484 389.63 356.147C384.704 336.529 380.477 315.833 376.391 295.817C374.467 286.396 372.478 276.653 370.445 267.172C363.454 234.5 356.742 209.097 349.322 187.229C348.323 184.286 347.285 181.335 346.234 178.455C327.109 126.037 299.569 84.1775 266.594 57.3947C226.928 25.2482 184.165 16.3552 146.183 32.3524C106.884 48.994 64.0305 105.079 58.1649 180.074L58.0221 180.084C59.4269 162.121 63.0285 144.507 68.7254 127.731C74.0042 112.191 80.9997 97.5715 89.5195 84.2816C97.5459 71.7604 106.658 60.8123 116.601 51.7392C126.254 42.9326 136.203 36.3257 146.173 32.1037C166.207 23.6675 187.398 22.0538 209.158 27.3135C228.716 32.0403 248.066 42.0801 266.672 57.1587C299.667 83.9568 327.223 125.841 346.359 178.285C347.41 181.168 348.451 184.121 349.45 187.064C356.872 208.945 363.588 234.358 370.582 267.04C372.615 276.524 374.604 286.267 376.527 295.69C380.614 315.704 384.839 336.397 389.763 356.007C390.098 357.347 390.443 358.694 390.783 360.014C406.8 421.777 429.573 463.108 458.47 482.858C488.261 502.953 526.674 501.207 569.558 477.806C573.222 475.804 576.982 473.602 580.731 471.263C620.658 446.34 659.038 405.635 694.925 366.077C705.036 354.954 715.111 343.425 724.854 332.277C755.975 296.667 785.369 263.031 817.032 240.15C843.696 220.822 864.24 218.515 879.834 233.104C887.142 239.958 893.992 250.7 900.776 265.941C906.758 279.381 911.916 294.475 916.905 309.069C919.89 317.799 922.707 326.045 925.618 333.718C954.171 409.57 983.138 488.452 1011.72 568.174L1011.59 568.337Z" fill="#FFE492"/>
<path d="M1010.34 565.947C982.368 485.786 954.197 406.026 926.606 328.882C923.819 321.121 921.125 312.727 918.273 303.842C908.945 274.778 898.371 241.835 882.072 226.792C866.308 212.261 845.613 216.062 818.806 238.407C790.722 261.785 763.731 294.794 737.627 326.72C724.539 342.728 711.004 359.28 697.372 374.597C675.855 398.797 657.946 417.258 641.012 432.697C620.131 451.734 600.967 465.912 582.429 476.04C578.623 478.121 574.794 480.054 571.05 481.787C551.541 490.812 532.827 495.379 515.375 495.382C514.405 495.382 513.443 495.366 512.482 495.338C492.366 494.75 474.287 487.945 458.746 475.117C451.248 468.891 444.093 460.987 437.479 451.625C431.262 442.826 425.33 432.461 419.847 420.82C409.982 399.878 401.348 374.618 393.452 343.6C393.113 342.266 392.776 340.929 392.443 339.586C387.893 321.285 383.775 302.155 379.795 283.654C377.496 272.974 375.12 261.93 372.689 251.18C365.204 218.059 358.49 193.62 350.916 171.945C349.897 169.03 348.839 166.107 347.768 163.255C328.292 111.356 300.454 70.1417 267.267 44.0617C227.25 12.6535 184.279 4.63337 146.269 21.4754C107.619 38.6473 64.7702 95.1587 57.6532 169.943L57.5112 169.946C60.8261 135.112 71.9588 101.989 89.7045 74.1581C97.7257 61.5786 106.803 50.5519 116.687 41.3773C126.304 32.4514 136.253 25.672 146.259 21.2268C166.316 12.3389 187.576 10.2761 209.447 15.0968C229.094 19.4279 248.574 29.0921 267.344 43.8232C300.552 69.921 328.406 111.161 347.894 163.09C348.965 165.944 350.025 168.87 351.044 171.785C358.622 193.473 365.339 217.919 372.825 251.053C375.256 261.806 377.634 272.85 379.931 283.529C383.912 302.028 388.028 321.156 392.577 339.452C392.91 340.794 393.246 342.131 393.585 343.463C410.363 409.375 431.703 452.363 458.826 474.883C496.408 505.908 540.591 495.63 571.038 481.544C574.78 479.811 578.606 477.88 582.41 475.799C625.047 452.503 666.212 409.367 697.311 374.392C710.941 359.08 724.474 342.527 737.561 326.522C763.671 294.591 790.668 261.572 818.765 238.184C830.76 228.185 841.316 222.045 851.035 219.416C863.02 216.174 873.491 218.579 882.155 226.566C889.454 233.302 896.219 244.131 902.836 259.669C908.666 273.36 913.615 288.779 918.402 303.692C921.253 312.575 923.945 320.966 926.731 328.722C954.322 405.866 982.494 485.626 1010.47 565.787L1010.34 565.947Z" fill="#FFE492"/>
<path d="M1009.08 563.557L927.714 323.881C925.057 316.054 922.494 307.536 919.781 298.522C910.829 268.77 900.681 235.051 884.391 220.256C868.637 205.951 847.155 211.396 820.542 236.441C794.957 260.517 770.584 292.534 747.013 323.498C731.648 343.682 715.761 364.55 699.755 382.917C651.647 438.122 611.217 470.728 572.521 485.532C556.469 491.672 540.939 494.763 526.188 494.763C521.717 494.763 517.32 494.479 513 493.91C492.624 491.231 474.485 482.224 459.091 467.143C444.823 453.163 432.488 433.428 421.385 406.808C412.518 385.551 404.531 360.209 396.25 327.055C391.88 309.559 387.775 291.379 383.805 273.799C374.821 234.016 365.532 192.877 352.51 156.671C332.537 101.139 303.291 57.5903 267.935 30.7313C227.568 0.0640149 184.388 -7.08586 146.35 10.6011C109.523 27.7247 65.8972 81.7218 57.1356 159.817L56.9943 159.812C60.9108 124.905 72.284 91.7869 89.8839 64.0374C105.797 38.9468 125.846 19.8822 146.338 10.355C166.421 1.01801 187.75 -1.49637 209.73 2.8854C229.467 6.81808 249.075 16.1094 268.012 30.4954C285.507 43.7853 301.619 61.2794 315.903 82.4931C330.306 103.884 342.665 128.785 352.635 156.504C365.662 192.722 374.955 233.871 383.941 273.665C387.911 291.242 392.016 309.419 396.386 326.913C408.467 375.288 426.523 434.915 459.179 466.909C496.629 503.6 541.483 497.15 572.516 485.279C611.192 470.484 651.604 437.891 699.693 382.707C715.693 364.347 731.579 343.479 746.941 323.3C770.517 292.331 794.896 260.306 820.494 236.218C847.153 211.13 868.68 205.68 884.474 220.023C891.768 226.648 898.45 237.57 904.904 253.42C910.583 267.372 915.326 283.131 919.912 298.37C922.624 307.384 925.187 315.897 927.842 323.721L1009.21 563.397L1009.08 563.557Z" fill="#FFE492"/>
<path d="M1010.13 545.132C989.997 478.398 972.403 424.246 954.762 374.717C946.2 350.657 937.364 326.974 928.499 304.327C925.818 297.477 923.213 290.19 920.456 282.474C913.526 263.082 906.36 243.031 897.267 228.15C892.387 220.145 887.485 214.413 882.282 210.628C866.321 198.893 845.372 206.652 820.018 233.691C806.898 247.664 794.625 263.564 784.349 277.275C773.47 291.791 762.564 307.798 752.016 323.278C736.857 345.529 721.181 368.537 704.843 388.296C694.898 400.356 684.966 411.131 675.322 420.326C656.028 438.721 635.793 453.878 615.178 465.377C602.449 472.403 589.839 477.713 577.701 481.159C567.241 484.117 556.892 485.824 546.938 486.233C532.042 486.847 517.832 484.505 504.703 479.266C490.744 473.694 477.908 464.801 466.551 452.83C456.425 442.156 447.207 428.717 438.37 411.74C421.902 380.132 409.937 343.583 401.353 315.273C397.143 301.3 393.095 287.051 389.18 273.272C377.907 233.587 367.259 196.105 352.539 162.718C340.515 135.666 326.02 112.321 309.453 93.3273C296.722 78.7307 282.469 66.7931 267.091 57.8444C263.427 55.7157 259.675 53.7316 255.942 51.953C239.866 44.3083 221.394 39.3303 201.041 37.1559C180.526 34.913 162.377 36.854 145.558 43.0956C136.052 46.5969 126.626 52.09 117.538 59.42C85.4525 85.2996 62.0802 128.744 55.0168 175.637L54.8425 175.609C56.7255 163.108 59.736 150.795 63.7896 139.007C67.6403 127.811 72.4565 117.012 78.1038 106.912C88.7736 87.8317 102.393 71.3094 117.49 59.1333C126.592 51.7906 136.033 46.2899 145.553 42.7835C162.39 36.5368 180.554 34.5933 201.085 36.8388C221.45 39.0132 239.931 43.9963 256.018 51.646C259.755 53.4271 263.508 55.4112 267.174 57.5425C282.565 66.4963 296.83 78.444 309.571 93.0533C326.149 112.06 340.656 135.425 352.685 162.494C367.414 195.902 378.064 233.394 389.342 273.089C393.255 286.869 397.304 301.115 401.513 315.085C410.092 343.383 422.052 379.913 438.511 411.502C447.338 428.461 456.546 441.888 466.661 452.549C488.887 475.975 515.904 487.202 546.965 485.916C556.91 485.507 567.253 483.8 577.704 480.844C589.834 477.398 602.434 472.093 615.153 465.073C635.755 453.581 655.979 438.434 675.26 420.05C684.897 410.862 694.823 400.092 704.76 388.043C721.089 368.293 736.761 345.291 751.915 323.047C762.465 307.565 773.372 291.552 784.256 277.032C794.537 263.313 806.817 247.407 819.947 233.425C831.235 221.386 841.82 213.069 851.411 208.702C863.191 203.338 873.61 203.887 882.375 210.331C887.594 214.129 892.51 219.876 897.402 227.899C906.508 242.802 913.679 262.867 920.614 282.271C923.371 289.984 925.976 297.271 928.654 304.117C937.522 326.766 946.359 350.451 954.921 374.517C972.564 424.051 990.158 478.208 1010.29 544.947L1010.13 545.132Z" fill="#FFE492"/>
<path d="M1011.18 526.701C993.128 458.838 975.478 402.05 957.214 353.094C948.311 329.181 938.916 306.194 929.288 284.772C926.733 279.089 924.242 273.182 921.604 266.93C913.704 248.208 905.535 228.849 895.529 215.455C890.48 208.663 885.459 203.934 880.175 200.996C859.944 189.741 836.013 211.064 819.497 230.932C807.8 244.968 796.802 260.839 785.631 277.221C775.853 291.562 766.453 306.988 756.503 323.318C741.733 347.558 726.461 372.623 709.933 393.67C700.118 406.226 690.107 417.083 680.178 425.938C661.682 442.435 641.971 455.245 619.918 465.105C607.576 470.621 595.114 474.551 582.879 476.781C572.558 478.641 562.378 479.306 552.622 478.75C538.107 477.933 524.216 474.259 511.332 467.832C497.801 461.081 485.244 451.216 474.01 438.512C464.167 427.384 454.98 413.577 445.922 396.303C429.467 364.976 416.185 330.247 406.455 303.489C402.853 293.584 399.331 283.618 395.924 273.976C382.357 235.583 369.544 199.316 352.569 168.763C339.883 145.928 324.987 126.62 308.298 111.376C295.671 99.8421 281.917 91.2004 266.252 84.9563C262.637 83.5177 258.941 82.2212 255.27 81.1023C239.143 76.213 221.583 74.3634 200.304 72.4504C184.972 71.0016 164.805 70.0476 144.764 75.5838C135.278 78.1565 125.904 82.6246 116.9 88.8585C85.1999 110.813 61.2744 149.166 52.897 191.456L52.6937 191.393C54.9146 180.178 58.2048 169.179 62.4694 158.698C66.5341 148.711 71.509 139.136 77.2555 130.23C88.1757 113.312 101.869 98.8831 116.854 88.5058C125.875 82.2592 135.267 77.7836 144.769 75.2058C164.829 69.6619 185.012 70.6185 200.353 72.0672C221.639 73.9803 239.205 75.8299 255.343 80.7217C259.017 81.8431 262.715 83.1396 266.335 84.5782C282.014 90.8299 295.782 99.4793 308.424 111.026C325.13 126.285 340.038 145.608 352.737 168.466C369.724 199.042 382.543 235.319 396.114 273.728C399.52 283.367 403.042 293.333 406.644 303.236C416.373 329.983 429.648 364.7 446.094 396.011C455.141 413.267 464.318 427.059 474.15 438.175C496.239 463.154 522.658 476.675 552.669 478.364C562.417 478.917 572.586 478.255 582.898 476.395C595.121 474.168 607.572 470.243 619.903 464.729C641.938 454.88 661.632 442.08 680.112 425.598C690.029 416.753 700.027 405.912 709.831 393.368C726.344 372.339 741.61 347.284 756.374 323.056C766.328 306.719 775.729 291.29 785.514 276.942C796.69 260.549 807.693 244.674 819.401 230.623C830.108 217.741 840.313 208.476 849.735 203.076C861.16 196.53 871.435 195.706 880.276 200.623C885.578 203.574 890.617 208.318 895.681 215.131C905.704 228.55 913.88 247.927 921.788 266.664C924.425 272.913 926.917 278.817 929.47 284.498C939.101 305.927 948.498 328.922 957.405 352.843C975.671 401.811 993.326 458.61 1011.38 526.488L1011.18 526.701Z" fill="#FFE492"/>
<path d="M1012.22 508.271C995.992 438.358 978.802 380.528 959.667 331.476C950.42 307.709 940.465 285.42 930.077 265.221C927.858 260.903 925.586 256.321 923.39 251.891C914.319 233.587 904.939 214.662 893.794 202.765C888.566 197.143 883.423 193.413 878.073 191.365C857.537 183.503 834.602 207.043 818.978 228.173C808.394 242.437 798.397 258.604 788.727 274.241L786.917 277.169C778.139 291.355 769.673 306.913 760.708 323.387C746.433 349.619 731.674 376.742 715.023 399.044C705.325 412.116 695.235 423.054 685.032 431.554C667.243 446.373 648.056 456.949 624.654 464.834C612.553 468.911 600.24 471.459 588.055 472.403C577.873 473.161 567.864 472.781 558.303 471.266C529.357 466.702 503.506 450.864 481.466 424.196C471.939 412.666 462.782 398.496 453.474 380.868C437.716 351.098 424.126 320.5 411.558 291.71C409.872 287.851 408.207 284.017 406.554 280.214C389.402 240.762 373.202 203.498 352.604 174.818C339.156 156.093 323.86 140.824 307.144 129.432C294.871 121.069 281.22 115.391 265.415 112.072C261.853 111.329 258.215 110.717 254.6 110.256C245.506 109.114 235.754 108.929 225.43 108.733C217.137 108.576 208.563 108.414 199.565 107.751C182.198 106.364 162.516 104.793 143.967 108.081C134.397 109.779 125.075 113.219 116.259 118.309C84.9719 136.374 60.4912 169.639 50.7734 207.294L50.5461 207.175C53.1077 197.247 56.6762 187.562 61.1516 178.39C65.4311 169.619 70.5638 161.261 76.4067 153.551C87.5819 138.804 101.35 126.474 116.22 117.888C125.056 112.785 134.397 109.337 143.986 107.637C162.553 104.346 182.245 105.92 199.619 107.307C208.611 107.967 217.186 108.132 225.476 108.289C235.805 108.485 245.559 108.67 254.661 109.814C258.278 110.279 261.921 110.89 265.486 111.633C281.311 114.955 294.977 120.641 307.267 129.016C324.004 140.421 339.316 155.707 352.779 174.452C373.396 203.158 389.604 240.44 406.762 279.909C408.416 283.712 410.083 287.544 411.767 291.405C424.332 320.19 437.917 350.781 453.671 380.54C462.969 398.149 472.116 412.306 481.633 423.82C503.643 450.456 529.461 466.27 558.369 470.83C567.919 472.342 577.918 472.722 588.089 471.964C600.261 471.02 612.563 468.475 624.65 464.403C648.029 456.525 667.193 445.962 684.959 431.163C695.14 422.681 705.211 411.763 714.893 398.714C731.522 376.44 746.273 349.332 760.539 323.115C769.507 306.634 777.978 291.068 786.763 276.872L788.574 273.944C798.248 258.3 808.251 242.122 818.847 227.843C834.52 206.645 857.534 183.036 878.166 190.934C883.541 192.992 888.703 196.734 893.95 202.379C905.12 214.302 914.51 233.247 923.59 251.571C925.785 256.001 928.057 260.583 930.275 264.899C940.668 285.108 950.628 307.41 959.88 331.189C979.023 380.261 996.219 438.112 1012.45 508.048L1012.22 508.271Z" fill="#FFE492"/>
<path d="M1013.27 489.838C999.066 418.87 981.859 358.314 962.12 309.858C952.53 286.242 942.016 264.648 930.869 245.674C929.26 242.934 927.615 240.09 926.023 237.34C915.513 219.171 904.643 200.38 892.064 190.079C886.669 185.611 881.408 182.883 875.976 181.737C855.141 177.342 833.2 203.062 818.461 225.412C809.317 239.22 800.764 254.575 792.493 269.425C791.062 271.996 789.632 274.561 788.202 277.116C780.343 291.152 772.732 306.831 764.675 323.43C750.976 351.649 736.811 380.827 720.114 404.423C710.308 418.279 700.421 428.991 689.885 437.176C667.848 454.295 646.937 460.63 629.388 464.573C617.519 467.237 605.354 468.404 593.229 468.034C583.192 467.691 573.351 466.263 563.983 463.791C536.204 456.482 510.95 438.346 488.924 409.886C479.758 398.047 470.634 383.509 461.025 365.441C451.315 347.234 442.323 329.715 433.627 312.771C427.717 301.255 422.134 290.378 416.663 279.942C395.983 240.493 376.89 205.81 352.642 180.879C338.438 166.277 322.743 155.043 305.992 147.489C293.986 142.075 280.827 139.439 264.582 139.187C261.076 139.142 257.493 139.215 253.934 139.408C248.524 139.72 242.894 140.372 236.935 141.065C225.499 142.392 212.535 143.897 198.825 143.054C193.604 142.732 188.291 142.278 183.152 141.836C169.934 140.702 156.267 139.53 143.168 140.578C133.549 141.349 124.277 143.765 115.614 147.758C84.7733 161.979 59.7386 190.16 48.6446 223.141L48.4025 222.946C51.3071 214.309 55.1537 205.942 59.8347 198.074C64.3304 190.518 69.6207 183.381 75.556 176.863C86.9931 164.303 100.835 154.071 115.588 147.268C124.272 143.265 133.564 140.842 143.205 140.07C156.318 139.02 169.991 140.195 183.215 141.329C188.353 141.77 193.666 142.225 198.885 142.547C212.583 143.389 225.537 141.887 236.967 140.56C242.929 139.867 248.561 139.215 253.976 138.903C257.54 138.71 261.126 138.637 264.635 138.683C280.903 138.931 294.081 141.575 306.108 146.997C322.879 154.56 338.596 165.808 352.817 180.43C363.771 191.69 374.575 205.957 385.849 224.042C395.942 240.232 405.556 257.947 416.89 279.564C422.36 290.002 427.943 300.879 433.854 312.396C442.55 329.337 451.541 346.856 461.249 365.061C470.848 383.11 479.963 397.633 489.117 409.459C511.113 437.881 536.331 455.992 564.072 463.291C573.429 465.76 583.256 467.186 593.282 467.529C605.394 467.899 617.546 466.735 629.4 464.07C646.927 460.135 667.81 453.807 689.809 436.719C700.316 428.557 710.177 417.873 719.956 404.053C736.626 380.497 750.78 351.342 764.467 323.146C772.53 306.537 780.145 290.85 788.012 276.798C789.442 274.244 790.871 271.678 792.301 269.111C800.578 254.25 809.136 238.885 818.292 225.06C827.881 210.519 837.334 199.332 846.386 191.812C857.109 182.904 867.091 179.347 876.054 181.239C881.512 182.391 886.799 185.131 892.217 189.617C904.83 199.946 915.712 218.76 926.236 236.951C927.828 239.702 929.473 242.546 931.081 245.284C942.236 264.272 952.758 285.887 962.356 309.521C972.837 335.251 982.676 364.566 991.599 396.652C999.486 425.01 1006.86 456.284 1013.53 489.6L1013.27 489.838Z" fill="#FFE492"/>
<path d="M1014.31 471.4C1001.93 398.397 985.193 336.773 964.576 288.239C954.641 264.772 943.568 243.875 931.665 226.125C931.098 225.28 930.532 224.435 929.965 223.588C917.589 205.107 904.792 185.997 890.341 177.393C884.742 174.059 879.359 172.331 873.886 172.108C852.771 171.25 831.813 199.119 817.951 222.647C809.802 236.411 802.272 251.497 794.991 266.086C793.19 269.694 791.328 273.424 789.496 277.057C782.514 290.895 775.729 306.628 768.545 323.288C755.478 353.59 741.967 384.922 725.211 409.797C715.517 424.188 705.551 434.981 694.743 442.796C673.449 458.189 653.024 462.231 634.125 464.306C622.471 465.585 610.454 465.367 598.405 463.659C588.514 462.213 578.846 459.739 569.666 456.309C543.125 446.414 518.468 425.979 496.385 395.571C487.541 383.394 478.706 368.917 468.583 350.01C449.334 314.174 434.899 288.934 421.779 268.172C395.685 226.879 375.023 202.585 352.695 186.94C337.746 176.467 321.651 169.269 304.855 165.544C293.202 162.961 280.528 163.192 263.762 166.3C260.326 166.945 256.799 167.703 253.28 168.558C249.955 169.378 246.566 170.317 242.978 171.309C229.728 174.975 214.71 179.131 198.092 178.354C189.333 177.946 180.459 176.827 171.878 175.746C162.125 174.518 152.04 173.247 142.372 173.074C132.679 172.902 123.458 174.292 114.972 177.21C84.6206 187.641 59.0285 210.742 46.5149 239.004L46.2733 238.707C49.5235 231.365 53.6481 224.314 58.5319 217.75C63.2464 211.412 68.6912 205.498 74.7166 200.167C86.4211 189.81 100.34 181.676 114.968 176.649C123.477 173.727 132.718 172.331 142.434 172.504C152.11 172.676 162.201 173.947 171.958 175.178C180.537 176.259 189.406 177.378 198.158 177.786C214.746 178.56 229.748 174.409 242.983 170.748C246.573 169.753 249.965 168.817 253.292 167.995C256.815 167.14 260.344 166.381 263.783 165.734C280.575 162.624 293.271 162.39 304.949 164.981C321.769 168.71 337.886 175.919 352.856 186.408C375.215 202.072 395.898 226.392 422.016 267.72C435.141 288.49 449.581 313.738 468.834 349.584C478.95 368.476 487.775 382.938 496.609 395.101C518.663 425.467 543.283 445.873 569.784 455.753C578.952 459.179 588.61 461.647 598.486 463.093C610.521 464.799 622.523 465.017 634.162 463.74C653.033 461.668 673.423 457.636 694.667 442.278C705.435 434.494 715.367 423.736 725.027 409.396C741.746 384.574 755.244 353.275 768.296 323.006C775.485 306.337 782.275 290.591 789.267 276.732C791.099 273.102 792.961 269.372 794.761 265.764C802.049 251.162 809.584 236.066 817.747 222.279C826.793 206.924 835.869 194.778 844.723 186.177C855.094 176.101 864.929 171.182 873.949 171.545C879.454 171.768 884.864 173.506 890.49 176.855C904.989 185.489 917.805 204.625 930.197 223.134C930.765 223.981 931.332 224.829 931.897 225.671C943.815 243.442 954.9 264.364 964.846 287.856C985.481 336.433 1002.23 398.105 1014.62 471.159L1014.31 471.4Z" fill="#FFE492"/>
<path d="M641.211 464.042C640.416 464.042 639.632 464.04 638.862 464.032C627.408 463.946 615.537 462.348 603.581 459.278C593.841 456.728 584.343 453.208 575.35 448.822C562.499 442.565 549.883 433.573 537.848 422.097C526.225 411.015 514.787 397.273 503.849 381.25C493.131 365.553 483.412 348.061 476.142 334.576C459.123 303.109 442.555 276.809 426.897 256.402C401.538 223.352 377.979 203.204 352.753 192.997C337.535 186.839 320.861 183.591 304.484 183.591C304.23 183.591 303.978 183.591 303.724 183.594C289.646 183.68 275.805 188.359 262.948 193.403C259.6 194.724 256.13 196.168 252.632 197.698C250.714 198.546 248.791 199.418 246.756 200.342C232.404 206.865 216.135 214.256 197.361 213.65C185.928 213.279 174.43 211.153 163.311 209.095C156.131 207.766 148.708 206.393 141.578 205.563C131.776 204.424 122.61 204.79 114.331 206.654C84.5189 213.363 58.3692 231.387 44.3782 254.872L44.1549 254.453C51.3311 242.409 61.3319 231.981 73.8794 223.456C85.8626 215.317 99.8579 209.288 114.35 206.028C122.65 204.16 131.841 203.79 141.665 204.934C148.803 205.764 156.23 207.139 163.412 208.469C174.524 210.526 186.015 212.652 197.433 213.02C216.159 213.627 232.399 206.246 246.728 199.736C248.764 198.809 250.688 197.937 252.607 197.089C256.107 195.559 259.581 194.113 262.932 192.791C275.811 187.74 289.675 183.053 303.787 182.964C320.436 182.86 337.414 186.118 352.892 192.383C365.911 197.652 378.259 205.409 390.64 216.095C402.563 226.389 414.504 239.4 427.142 255.874C442.812 276.296 459.392 302.617 476.422 334.104C483.686 347.582 493.397 365.061 504.104 380.741C526.299 413.252 550.321 435.953 575.5 448.215C584.481 452.597 593.967 456.111 603.693 458.658C615.634 461.723 627.488 463.322 638.926 463.406C656.824 463.537 677.733 462.457 699.527 447.83C710.558 440.426 720.557 429.6 730.097 414.734C746.851 388.626 759.63 355.117 771.991 322.709C778.348 306.04 784.353 290.294 790.522 276.664C792.498 272.297 794.502 267.799 796.44 263.448C802.987 248.747 809.756 233.549 817.197 219.5C825.713 203.338 834.414 190.229 843.057 180.536C853.079 169.299 862.762 163.012 871.837 161.85C877.439 161.132 882.973 161.865 888.757 164.093C904.22 170.045 918.372 187.339 932.709 206.056C945.21 222.375 957.182 243.168 967.331 266.188C978.611 291.684 988.596 321.595 997.006 355.089C1004.5 384.929 1010.79 417.776 1015.71 452.719L1015.36 452.973C1004.8 377.932 988.536 315.237 967.032 266.632C956.898 243.645 944.945 222.883 932.462 206.591C918.15 187.907 904.026 170.646 888.62 164.714C882.868 162.499 877.364 161.771 871.797 162.484C855.121 164.623 835.816 185.007 817.44 219.886C810.012 233.909 803.249 249.094 796.708 263.78C794.77 268.134 792.764 272.635 790.788 277.001C784.63 290.606 778.629 306.339 772.279 322.993C766.214 338.894 759.943 355.338 753.063 371.145C745.264 389.065 737.821 403.466 730.308 415.176C720.726 430.107 710.682 440.982 699.599 448.421C689.825 454.982 679.599 459.318 668.338 461.683C658.803 463.675 649.394 464.042 641.211 464.042Z" fill="#FFE492"/>
<path d="M663.808 465.314C656.579 465.314 649.715 464.542 643.583 463.761C632.309 462.325 620.587 459.344 608.743 454.898C599.159 451.247 589.831 446.685 581.018 441.334C556.883 426.712 534.077 402.373 511.297 366.93C501.362 351.476 492.209 334.847 483.688 319.142C466.856 288.226 449.468 263.158 432.005 244.632C406.322 217.384 381.156 202.899 352.806 199.048C336.653 196.853 319.287 197.749 302.585 201.636C288.606 204.889 274.933 212.739 262.124 220.498C258.919 222.449 255.503 224.58 251.975 226.831C251.093 227.396 250.203 227.972 249.301 228.553C234.483 238.124 217.717 248.953 197.634 248.953C197.295 248.953 196.958 248.95 196.617 248.942C183.055 248.696 169.542 245.225 156.471 241.866C151.29 240.534 145.931 239.159 140.768 238.045C130.683 235.873 121.821 235.231 113.672 236.089C84.0369 239.21 57.9908 251.835 42.2147 270.735L42.0353 270.179C49.8342 260.837 60.5542 252.725 73.0328 246.722C85.307 240.818 99.3764 236.901 113.72 235.391C121.891 234.531 130.776 235.173 140.884 237.35C146.053 238.464 151.412 239.841 156.596 241.171C169.654 244.525 183.155 247.993 196.691 248.24C217.154 248.615 234.193 237.606 249.225 227.896C250.126 227.315 251.017 226.739 251.9 226.171C255.431 223.918 258.848 221.787 262.057 219.835C274.887 212.061 288.585 204.201 302.602 200.938C319.33 197.046 336.724 196.148 352.904 198.345C366.954 200.253 380.071 204.759 393.007 212.117C406.329 219.696 419.165 230.126 432.249 244.01C449.734 262.562 467.144 287.66 483.994 318.607C492.511 334.307 501.658 350.926 511.585 366.365C534.334 401.759 557.106 426.063 581.202 440.662C590.002 446.003 599.318 450.56 608.888 454.206C620.715 458.646 632.421 461.624 643.679 463.055C662.623 465.466 682.912 466.704 704.375 453.366C715.668 446.345 725.737 435.451 735.155 420.057C751.932 392.638 764.473 355.236 775.539 322.237C781.106 305.634 786.366 289.951 791.762 276.583C793.709 271.76 795.682 266.774 797.59 261.953C803.559 246.869 809.731 231.273 816.635 216.707C824.634 199.738 832.96 185.664 841.38 174.876C851.052 162.487 860.584 154.834 869.711 152.137C875.415 150.45 881.074 150.181 887.008 151.308C903.589 154.462 919.155 170.045 933.508 186.418C946.761 201.534 959.311 221.619 969.805 244.5C981.485 269.877 991.543 300.088 999.698 334.287C1006.99 364.87 1012.74 398.504 1016.79 434.258L1016.4 434.509C1007.79 358.509 991.566 292.976 969.48 244.992C959.008 222.154 946.48 202.108 933.254 187.022C918.936 170.687 903.409 155.141 886.899 152C880.999 150.879 875.376 151.148 869.708 152.822C852.856 157.803 834.111 180.625 816.923 217.088C810.033 231.623 803.868 247.204 797.905 262.273C795.996 267.096 794.023 272.082 792.074 276.91C786.69 290.248 781.436 305.916 775.874 322.501C764.79 355.551 752.228 393.013 735.396 420.524C725.926 436.001 715.801 446.957 704.444 454.018C694.588 460.143 684.273 463.69 672.906 464.854C669.831 465.184 666.789 465.314 663.808 465.314Z" fill="#FFE492"/>
<path d="M677.801 468.06C677.697 468.06 677.595 468.06 677.492 468.06C667.28 468.015 657.481 465.777 648.318 463.488C637.2 460.712 625.627 456.346 613.919 450.515C604.494 445.768 595.336 440.158 586.702 433.846C563.807 417.133 542.219 391.322 518.762 352.612C510.313 338.675 502.133 323.667 494.22 309.157C493.231 307.34 492.24 305.526 491.249 303.712C474.313 272.804 456.105 248.967 437.133 232.865C411.152 210.819 383.593 201.736 352.879 205.098C336.038 206.943 318.26 211.984 301.468 219.677C288.218 225.748 275.964 235.489 261.321 247.591C258.352 250.055 255.178 252.714 251.335 255.962L251.121 256.144C243.703 262.452 235.296 269.599 226.132 275.034C215.608 281.275 205.713 284.28 195.888 284.244C180.568 284.175 165.454 279.071 150.839 274.131C147.258 272.92 143.553 271.67 139.97 270.538C129.693 267.298 120.88 265.661 113.026 265.537C84.1068 265.08 57.509 272.763 40.0541 286.611L39.9405 285.926C48.4905 279.142 59.6475 273.636 72.2047 270.003C84.7854 266.362 98.9304 264.555 113.108 264.778C120.985 264.903 129.821 266.542 140.12 269.789C143.706 270.921 147.41 272.172 150.993 273.382C165.59 278.315 180.685 283.414 195.968 283.483C196.036 283.483 196.105 283.483 196.174 283.483C218.044 283.483 236.309 267.955 250.995 255.469L251.211 255.287C255.055 252.037 258.229 249.378 261.199 246.914C275.868 234.791 288.143 225.033 301.434 218.944C318.255 211.236 336.062 206.187 352.932 204.339C367.962 202.695 381.849 203.949 395.39 208.176C409.981 212.73 423.715 220.578 437.374 232.17C456.383 248.302 474.623 272.177 491.587 303.136C492.577 304.95 493.568 306.767 494.557 308.583C502.466 323.089 510.644 338.091 519.085 352.018C542.512 390.68 564.069 416.456 586.925 433.141C595.547 439.446 604.692 445.045 614.103 449.787C625.795 455.61 637.351 459.969 648.452 462.74C668.336 467.708 687.948 471.153 709.241 458.934C720.797 452.302 730.934 441.338 740.229 425.415C757.02 396.65 768.685 356.793 778.978 321.625C783.796 305.161 788.348 289.608 793.02 276.538C794.818 271.51 796.638 266.308 798.398 261.277C803.9 245.546 809.589 229.283 816.09 213.948C823.587 196.165 831.537 181.124 839.719 169.245C849.045 155.706 858.425 146.694 867.598 142.462C873.285 139.838 878.945 138.56 884.885 138.56C885.014 138.56 885.143 138.56 885.273 138.562C903.722 138.735 921.176 153.75 934.323 166.811C948.326 180.728 961.457 200.102 972.296 222.841C984.378 248.101 994.509 278.609 1002.41 313.518C1009.49 344.845 1014.7 379.268 1017.89 415.834L1017.46 416.08C1012.72 361.672 1000.97 284.079 971.944 223.391C961.131 200.704 948.031 181.375 934.061 167.491C920.954 154.465 903.553 139.493 885.193 139.323C879.148 139.26 873.406 140.534 867.634 143.198C850.638 151.04 832.451 176.301 816.42 214.326C809.934 229.625 804.251 245.871 798.754 261.584C796.994 266.618 795.173 271.822 793.375 276.853C788.714 289.889 784.168 305.422 779.356 321.868C769.044 357.1 757.358 397.033 740.501 425.909C731.144 441.94 720.938 452.976 709.305 459.652C699.445 465.307 689.135 468.06 677.801 468.06Z" fill="#FFE492"/>
<path d="M688.776 471.633C686.576 471.633 684.341 471.506 682.065 471.253C672.102 470.144 662.652 466.818 653.044 463.215C641.905 459.038 630.797 453.452 619.085 446.134C609.824 440.294 600.838 433.641 592.376 426.357C570.907 407.906 550.503 380.745 526.218 338.292C520.187 327.75 514.212 316.693 508.433 305.999C505.286 300.178 502.035 294.158 498.804 288.279C481.649 257.162 462.624 234.561 442.255 221.098C415.342 203.31 386.13 200.052 352.949 211.14C335.419 216.998 317.228 226.186 300.347 237.707C286.785 246.963 274.462 259.961 261.415 273.723L260.513 274.674C258.474 276.831 256.413 279.018 254.326 281.23C253.124 282.507 251.914 283.79 250.693 285.084C243.076 293.196 234.88 301.658 225.811 308.171C215.281 315.732 205.254 319.451 195.154 319.542C178.339 319.69 161.925 312.702 146.053 305.938C143.788 304.971 141.444 303.974 139.167 303.028C128.492 298.588 119.979 296.033 112.373 294.982C84.3026 291.108 57.1529 293.838 37.8825 302.475L37.847 301.678C57.168 293.018 84.3741 290.278 112.493 294.16C120.121 295.213 128.656 297.776 139.351 302.223C141.629 303.172 143.973 304.169 146.239 305.136C161.917 311.817 178.123 318.72 194.7 318.72C194.879 318.72 195.057 318.72 195.237 318.718C216.698 318.525 233.628 302.373 250.51 284.399C251.731 283.105 252.941 281.822 254.143 280.545C256.23 278.33 258.29 276.146 260.33 273.987L261.232 273.035C274.302 259.251 286.645 246.23 300.251 236.943C317.164 225.399 335.385 216.197 352.946 210.328C386.211 199.212 415.501 202.48 442.487 220.317C462.906 233.815 481.976 256.467 499.169 287.652C502.4 293.533 505.653 299.552 508.799 305.375C514.575 316.066 520.55 327.121 526.578 337.656C550.833 380.06 571.209 407.183 592.64 425.603C601.09 432.875 610.062 439.52 619.311 445.35C631.005 452.657 642.097 458.237 653.219 462.405C670.103 468.736 691.114 476.616 714.102 464.478C725.92 458.239 736.123 447.207 745.295 430.751C762.095 400.609 772.818 358.215 782.28 320.814C786.39 304.565 790.272 289.218 794.269 276.481C795.827 271.518 797.404 266.385 798.929 261.42C804.044 244.768 809.335 227.551 815.536 211.175C822.545 192.565 830.119 176.558 838.048 163.597C847.032 148.912 856.26 138.542 865.475 132.775C871.389 129.074 877.293 126.793 883.527 125.801C891.876 124.471 900.469 125.892 909.799 130.134C917.693 133.727 925.978 139.304 935.128 147.187C949.883 159.901 963.594 178.567 974.777 201.166C987.263 226.307 997.466 257.117 1005.1 292.734C1011.98 324.807 1016.65 360.019 1018.97 397.394L1018.5 397.628C1013.6 318.72 997.936 249.163 974.4 201.77C963.247 179.232 949.575 160.619 934.863 147.943C915.149 130.959 898.825 124.182 883.483 126.623C877.291 127.607 871.428 129.873 865.555 133.547C843.632 147.265 826.458 183.532 815.911 211.538C809.725 227.873 804.441 245.07 799.332 261.701C797.806 266.669 796.228 271.805 794.671 276.77C790.686 289.469 786.808 304.799 782.703 321.027C773.222 358.509 762.475 400.992 745.598 431.271C736.354 447.857 726.069 458.978 714.156 465.267C706.082 469.53 697.723 471.633 688.776 471.633Z" fill="#FFE492"/>
<path d="M698.179 475.728C683.187 475.728 669.485 468.834 657.763 462.938C646.735 457.392 635.771 450.46 624.246 441.75C615.152 434.823 606.336 427.125 598.044 418.867C573.186 394.139 552.413 358.646 533.669 323.972C529.842 316.893 525.99 309.596 522.267 302.54C517.098 292.742 511.751 282.611 506.354 272.847C488.926 241.424 469.083 220.053 447.376 209.328C419.296 195.457 388.431 198.022 353.016 217.173C334.782 227.033 316.181 240.366 299.223 255.731C286.144 267.58 274.568 282.539 262.314 298.377C261.445 299.498 260.575 300.625 259.7 301.751L259.225 302.365C256.246 306.219 253.165 310.203 250.046 314.201C242.568 323.825 234.4 333.779 225.356 341.383C214.857 350.21 204.736 354.612 194.413 354.84C176.293 355.243 158.807 346.147 141.897 337.351C140.712 336.734 139.532 336.12 138.357 335.514C127.203 329.744 118.984 326.324 111.712 324.421C84.6867 317.353 56.982 315.13 35.7017 318.324L35.7506 317.439C57.0657 314.237 84.8112 316.462 111.873 323.541C119.165 325.449 127.401 328.877 138.576 334.656C139.751 335.263 140.931 335.877 142.117 336.496C158.995 345.275 176.448 354.348 194.498 353.952C216.916 353.455 234.798 332.819 249.799 313.516C252.918 309.518 255.999 305.534 258.978 301.683L259.453 301.069C260.328 299.94 261.198 298.816 262.067 297.694C274.342 281.829 285.938 266.844 299.061 254.955C316.05 239.562 334.686 226.206 352.952 216.328C369.742 207.25 385.173 202.008 400.125 200.303C416.805 198.403 432.773 201.151 447.59 208.471C469.365 219.228 489.267 240.66 506.744 272.17C512.145 281.938 517.493 292.072 522.664 301.873C526.387 308.929 530.236 316.224 534.062 323.3C552.787 357.935 573.534 393.39 598.347 418.072C606.627 426.318 615.43 434.006 624.511 440.923C636.019 449.62 646.965 456.542 657.978 462.08C674.886 470.585 695.929 481.17 718.951 470.032C731.032 464.186 741.302 453.086 750.35 436.097C767.155 404.536 776.87 359.534 785.441 319.826C788.886 303.872 792.138 288.804 795.508 276.43C796.754 271.853 798.019 267.123 799.243 262.549C804.03 244.656 808.981 226.152 814.971 208.41C821.503 188.957 828.7 171.978 836.364 157.95C845.009 142.12 854.085 130.393 863.339 123.093C869.349 118.354 875.376 115.068 881.769 113.046C890.38 110.323 899.614 110.415 909.214 113.317C917.621 115.86 926.606 120.652 935.919 127.566C951.426 139.078 965.717 157.034 977.248 179.493C990.138 204.518 1000.41 235.624 1007.79 271.952C1014.46 304.771 1018.58 340.774 1020.05 378.959L1019.54 379.177C1016.44 298.265 1001.28 227.583 976.848 180.153C965.354 157.767 951.11 139.869 935.657 128.396C915.624 113.525 897.997 108.788 881.768 113.921C875.422 115.928 869.437 119.191 863.471 123.895C841.453 141.262 825.174 179.625 815.393 208.752C809.418 226.449 804.474 244.928 799.694 262.797C798.47 267.372 797.203 272.104 795.956 276.686C792.598 289.02 789.349 304.068 785.909 320.001C781.786 339.104 777.112 360.754 771.477 381.052C765.021 404.308 758.22 422.49 750.688 436.637C746.332 444.817 741.579 451.779 736.558 457.331C731.159 463.301 725.251 467.863 718.999 470.887C711.845 474.35 704.882 475.728 698.179 475.728Z" fill="#FFE492"/>
<path d="M706.583 480.222C701.627 480.222 696.523 479.359 691.216 477.636C680.763 474.244 671.058 468.089 662.494 462.661C651.7 455.819 640.571 447.306 629.418 437.363C620.498 429.36 611.852 420.617 603.725 411.372C580.394 384.865 561.574 349.621 541.132 309.65C539.315 306.097 537.472 302.474 535.69 298.968C528.672 285.168 521.417 270.899 513.915 257.416C496.182 225.625 475.523 205.487 452.51 197.56C423.481 187.561 390.032 196.188 353.096 223.204C334.142 237.067 315.129 254.544 298.112 273.748C285.299 288.208 274.221 305.255 262.492 323.305C261.301 325.139 260.104 326.979 258.901 328.826C255.907 333.428 252.684 338.368 249.413 343.313C242.551 353.718 234.272 365.575 224.914 374.59C214.437 384.683 204.222 389.77 193.688 390.138C174.402 390.815 156.018 379.428 138.238 368.417L137.561 367.998C128.856 362.609 119.62 357.164 111.067 353.858C84.9952 343.783 57.4614 336.788 33.5397 334.162L33.6702 333.213C57.6172 335.841 85.176 342.841 111.271 352.927C119.849 356.243 129.1 361.695 137.819 367.092L138.496 367.511C156.237 378.497 174.585 389.856 193.776 389.184C215.94 388.407 233.467 366.354 249.107 342.636C252.378 337.693 255.598 332.753 258.592 328.153C259.795 326.309 260.992 324.467 262.183 322.635C273.932 304.555 285.03 287.477 297.885 272.969C314.934 253.727 333.983 236.217 352.972 222.329C370.302 209.655 386.969 200.922 402.508 196.376C420.264 191.182 437.153 191.263 452.706 196.619C475.807 204.576 496.543 224.785 514.335 256.685C521.842 270.181 529.102 284.455 536.123 298.263C537.905 301.766 539.748 305.39 541.565 308.942C561.987 348.875 580.787 384.081 604.075 410.542C612.192 419.772 620.824 428.503 629.732 436.495C640.869 446.423 651.98 454.923 662.758 461.756C679.652 472.468 700.679 485.796 723.823 475.583C736.168 470.136 746.504 458.97 755.425 441.443C772.232 408.421 781.247 358.648 788.491 318.654C791.313 303.076 793.977 288.362 796.767 276.387C797.646 272.611 798.542 268.722 799.408 264.959C803.907 245.412 808.561 225.198 814.428 205.652C823.512 175.233 839.004 134.541 861.223 113.424C867.358 107.593 873.51 103.3 880.029 100.301C897.097 92.3421 916.176 94.9174 936.732 107.951C952.989 118.26 967.862 135.505 979.74 157.825C993.033 182.73 1003.38 214.136 1010.5 251.177C1013.77 268.166 1016.33 286.312 1018.12 305.111C1019.83 323.066 1020.85 341.712 1021.14 360.531L1020.6 360.729C1019.31 277.807 1004.65 206.002 979.315 158.538C967.48 136.302 952.665 119.122 936.471 108.852C916.01 95.8765 897.035 93.3088 880.074 101.217C873.602 104.193 867.497 108.453 861.408 114.241C839.342 135.211 823.936 175.695 814.897 205.964C809.044 225.46 804.399 245.646 799.904 265.167C799.038 268.93 798.143 272.822 797.263 276.6C794.483 288.535 791.82 303.228 789.004 318.784C785.359 338.909 781.228 361.718 775.969 383.247C769.926 407.984 763.328 427.204 755.797 442.001C751.5 450.442 746.759 457.562 741.707 463.159C736.264 469.19 730.259 473.681 723.86 476.502C718.244 478.983 712.518 480.222 706.583 480.222Z" fill="#FFE492"/>
<path d="M714.25 484.968C708.31 484.968 702.188 483.59 695.781 480.827C685.401 476.354 675.736 468.93 667.208 462.379C656.473 454.133 645.493 444.24 634.575 432.972C625.828 423.902 617.354 414.113 609.389 403.876C587.468 375.725 569.92 339.443 551.34 301.035C550.421 299.134 549.501 297.231 548.579 295.328C539.937 277.487 531.002 259.036 521.462 241.986C503.405 209.791 481.929 190.884 457.632 185.789C427.112 179.388 391.963 194.005 353.16 229.229C333.75 246.847 313.801 269.055 296.985 291.761C284.288 308.905 273.533 328.195 262.146 348.62C260.797 351.038 259.445 353.464 258.085 355.894C255.365 360.758 252.132 366.525 248.761 372.424C242.515 383.377 234.109 397.297 224.457 407.768C214.002 419.112 203.694 424.894 192.944 425.439C184.114 425.833 174.664 423.404 164.055 418.013C154.947 413.385 146.298 407.336 136.744 400.486C128.031 394.155 118.82 387.617 110.397 383.299C85.4461 370.506 58.8526 359.304 31.3574 349.998L31.5624 349.001C59.0743 358.31 85.6823 369.522 110.647 382.319C119.093 386.65 128.316 393.199 137.04 399.534C153.054 411.02 172.984 425.32 193.033 424.424C215.97 423.257 233.196 398.428 248.393 371.77C251.762 365.876 254.994 360.111 257.712 355.25C259.073 352.819 260.424 350.394 261.771 347.978C273.177 327.521 283.951 308.197 296.69 290.997C313.54 268.246 333.528 245.995 352.975 228.343C391.895 193.013 427.164 178.358 457.801 184.782C469.547 187.245 480.745 192.967 491.079 201.786C502.169 211.248 512.54 224.515 521.907 241.212C531.459 258.28 540.4 276.741 549.046 294.595C549.968 296.501 550.889 298.401 551.809 300.301C570.37 338.677 587.904 374.923 609.782 403.02C617.736 413.243 626.197 423.019 634.931 432.074C645.834 443.324 656.797 453.204 667.517 461.437C684.364 474.377 705.332 490.481 728.673 481.141C741.317 476.082 751.721 464.847 760.477 446.798C777.315 412.322 785.116 359.657 791.385 317.341C793.628 302.207 795.746 287.912 798.004 276.352C798.469 273.968 798.937 271.57 799.405 269.159C803.64 247.388 808.02 224.872 813.862 202.9C822.225 171.297 836.859 128.443 859.084 103.761C865.284 96.8749 871.558 91.5772 878.267 87.5633C887.597 81.9332 897.619 79.2869 908.056 79.6929C917.584 80.0633 927.498 82.9735 937.521 88.3397C954.527 97.4407 969.98 113.976 982.207 136.156C995.906 160.94 1006.33 192.65 1013.19 230.401C1016.34 247.723 1018.7 266.242 1020.21 285.443C1021.66 303.833 1022.34 322.898 1022.22 342.107L1021.64 342.28C1022.16 258.574 1007.63 183.726 981.761 136.927C969.584 114.843 954.198 98.3769 937.265 89.3115C916.387 78.1325 896.017 77.8585 878.357 88.5148C871.7 92.4982 865.474 97.7553 859.322 104.588C837.25 129.1 822.697 171.733 814.376 203.179C808.55 225.093 804.177 247.575 799.947 269.319C799.479 271.73 799.011 274.13 798.545 276.515C796.295 288.031 794.18 302.308 791.941 317.42C785.654 359.857 777.83 412.675 760.884 447.371C756.663 456.071 751.938 463.353 746.841 469.008C741.358 475.093 735.254 479.507 728.7 482.131C723.969 484.019 719.173 484.968 714.25 484.968Z" fill="#FFE492"/>
<path d="M721.417 489.906C714.648 489.906 707.68 487.948 700.358 484.015C689.999 478.451 680.4 469.761 671.932 462.096C661.23 452.409 650.4 441.131 639.74 428.582C631.171 418.458 622.869 407.622 615.061 396.379C595.835 368.704 580.461 334.799 564.184 298.902C561.524 293.034 558.771 286.967 556.036 281.002C546.418 260.045 538.142 242.764 529.017 226.553C510.622 193.932 488.332 176.256 462.763 174.013C430.635 171.194 393.782 191.796 353.231 235.246C333.086 256.833 312.713 283.296 295.865 309.764C283.172 329.704 272.619 351.41 261.445 374.389C260.061 377.236 258.672 380.093 257.275 382.953C254.787 388.055 251.495 394.778 248.119 401.52C233.901 429.957 216.14 459.234 192.209 460.731C191.463 460.774 190.717 460.794 189.974 460.794C171.408 460.794 153.811 447.644 135.935 432.961L134.82 432.038C125.973 424.7 117.615 417.771 109.737 412.727C80.0493 393.718 51.0963 377.673 29.189 365.819L29.462 364.781C51.3745 376.64 80.3357 392.688 110.034 411.704C117.933 416.761 126.3 423.7 135.159 431.045L136.273 431.969C154.803 447.19 173.033 460.766 192.299 459.655C215.964 458.173 233.579 429.122 247.691 400.898C251.066 394.162 254.354 387.443 256.842 382.344C258.239 379.482 259.627 376.627 261.011 373.78C272.202 350.765 282.772 329.024 295.505 309.021C312.387 282.497 332.801 255.98 352.986 234.35C371.72 214.276 389.979 198.862 407.255 188.533C427.077 176.682 445.8 171.435 462.903 172.934C488.604 175.188 511.007 192.951 529.488 225.724C538.626 241.959 546.91 259.258 556.538 280.233C559.275 286.198 562.027 292.267 564.689 298.136C580.949 333.997 596.308 367.869 615.498 395.489C623.294 406.719 631.584 417.537 640.14 427.646C650.784 440.179 661.598 451.44 672.285 461.111C689.059 476.297 709.936 495.194 733.534 486.687C746.433 482.036 756.902 470.735 765.539 452.14C782.372 416.094 788.902 360.465 794.15 315.767C795.862 301.183 797.48 287.406 799.251 276.306L799.291 276.052C803.259 251.195 807.363 225.493 813.305 200.133C818.467 178.014 824.531 158.127 831.325 141.021C838.986 121.736 847.608 105.944 856.953 94.0829C863.205 86.1465 869.603 79.8415 876.512 74.8102C895.187 61.1371 916.559 59.0262 938.319 68.7107C947.076 72.6079 955.502 78.512 963.365 86.2556C971.272 94.0448 978.446 103.542 984.688 114.477C998.793 139.141 1009.29 171.151 1015.89 209.618C1021.82 244.192 1024.39 283.633 1023.3 323.673L1022.69 323.818C1025.01 238.121 1010.99 162.121 984.218 115.307C971.702 93.3801 955.745 77.629 938.073 69.7662C916.436 60.1375 895.199 62.2256 876.655 75.8048C869.799 80.798 863.453 87.0523 857.249 94.9253C839.802 117.073 824.801 153.54 813.867 200.385C807.94 225.678 803.843 251.345 799.881 276.166L799.84 276.42C798.075 287.48 796.459 301.236 794.749 315.8C789.484 360.635 782.934 416.431 765.983 452.731C761.819 461.698 757.106 469.137 751.978 474.84C746.447 480.991 740.248 485.332 733.548 487.75C729.558 489.186 725.524 489.906 721.417 489.906Z" fill="#FFE492"/>
<path d="M188.999 496.121C180.697 496.121 171.955 493.226 162.362 487.314C152.831 481.441 143.642 473.332 135.131 465.446C133.59 464.01 132.063 462.577 130.545 461.153C122.992 454.067 115.857 447.374 109.081 442.16C82.0633 421.377 56.1934 402.698 31.174 384.638L27.0287 381.644L27.363 380.576L31.5083 383.57C56.5286 401.635 82.4027 420.314 109.426 441.102C116.22 446.328 123.364 453.029 130.926 460.126C132.442 461.549 133.97 462.983 135.509 464.416C152.981 480.604 171.7 496.291 191.57 494.893C216.004 493.087 234.025 459.281 246.994 430.034C250.315 422.555 253.539 415.1 255.978 409.442C257.323 406.324 258.661 403.208 259.996 400.1C271.062 374.335 281.515 349.998 294.326 327.051C311.236 296.767 332.074 265.98 353.004 240.367C372.421 216.604 391.477 197.828 409.646 184.564C430.486 169.348 450.122 161.452 468.009 161.094C494.942 160.379 518.182 176.916 537.074 210.243C547.544 228.739 556.577 248.748 564.035 265.881C568.092 275.206 572.126 284.763 576.027 294.006C589.836 326.729 604.116 360.563 621.218 387.967C628.858 400.212 636.978 412.076 645.353 423.227C655.719 436.996 666.386 449.637 677.057 460.796C693.738 478.236 714.496 499.942 738.398 492.239C751.554 488 762.088 476.633 770.604 457.49C787.431 419.809 792.615 361.134 796.778 313.987C798.011 300.045 799.173 286.874 800.504 276.271C803.503 252.368 807.172 224.588 812.755 197.379C817.472 174.323 823.155 153.465 829.646 135.385C836.989 114.932 845.461 97.7858 854.828 84.4197C861.035 75.5623 867.742 68.0445 874.763 62.0719C884.784 53.5215 895.593 48.1452 906.892 46.0951C917.473 44.1744 928.317 45.1842 939.12 49.0941C948.231 52.3925 956.987 57.817 965.144 65.2206C973.352 72.6699 980.764 81.951 987.171 92.8052C994.56 105.304 1001.02 120.063 1006.36 136.674C1011.42 152.412 1015.54 169.965 1018.6 188.841C1024.31 224.157 1026.31 264.412 1024.39 305.249L1023.74 305.363C1027.87 217.669 1014.36 140.52 986.68 93.6958C974.003 72.2259 957.029 56.7844 938.882 50.2155C916.443 42.0939 894.337 46.5442 874.953 63.0843C867.989 69.0087 861.335 76.4681 855.177 85.2545C837.528 110.439 823.458 148.231 813.36 197.585C807.79 224.72 804.13 252.452 801.136 276.317C799.81 286.882 798.648 300.032 797.419 313.957C795.365 337.215 793.036 363.58 789.089 389.066C784.51 418.64 778.621 441.216 771.087 458.086C766.981 467.316 762.281 474.915 757.12 480.669C751.544 486.886 745.246 491.156 738.4 493.361C734.947 494.474 731.559 494.979 728.243 494.979C708.385 494.979 691.018 476.818 676.657 461.803C665.97 450.626 655.287 437.968 644.907 424.178C636.52 413.012 628.388 401.13 620.738 388.868C603.601 361.408 589.306 327.538 575.483 294.785C571.583 285.545 567.551 275.99 563.496 266.671C556.049 249.557 547.028 229.576 536.577 211.116C517.787 177.967 494.684 161.526 467.902 162.231C425.87 163.073 382.384 205.671 353.305 241.26C332.418 266.823 311.623 297.543 294.749 327.767C281.976 350.645 271.538 374.944 260.489 400.669C259.154 403.777 257.815 406.892 256.469 410.013C254.029 415.674 250.802 423.133 247.479 430.62C242.035 442.898 233.633 460.77 223.566 474.167C218.677 480.672 213.661 485.785 208.657 489.365C203.077 493.356 197.297 495.598 191.48 496.027C190.655 496.091 189.828 496.121 188.999 496.121Z" fill="#FFE492"/>
<path d="M188.017 531.443C179.706 531.443 171.005 528.325 161.513 521.961C151.685 515.375 142.252 506.114 134.322 497.921C131.886 495.399 129.459 492.842 127.112 490.368C120.55 483.454 114.351 476.921 108.422 471.587C87.1277 452.431 65.9386 433.73 45.4459 415.642C38.6674 409.659 31.6589 403.473 24.8674 397.465L25.2587 396.367C32.0502 402.375 39.0587 408.56 45.8372 414.543C66.3298 432.631 87.5215 451.335 108.817 470.494C114.762 475.842 120.968 482.381 127.538 489.305C129.884 491.779 132.311 494.334 134.744 496.856C151.191 513.84 170.446 531.818 190.836 530.126C215.874 528 233.625 491.086 246.294 459.165C249.541 450.988 252.712 442.777 255.111 436.538C256.343 433.336 257.569 430.137 258.793 426.945C269.798 398.236 280.191 371.121 293.146 345.082C309.995 311.215 331.259 276.163 353.018 246.384C383.302 205.091 428.72 154.722 473.11 149.26C501.35 145.692 525.422 161.002 544.655 194.767C553.296 209.945 561.583 227.451 571.527 251.537C576.552 263.708 581.484 276.323 586.253 288.52C598.661 320.253 611.49 353.066 626.935 380.456C634.417 393.728 642.366 406.635 650.562 418.818C660.487 433.557 671.006 447.578 681.826 460.492C698.457 480.209 719.155 504.751 743.257 497.804C756.464 494.075 767.366 482.315 775.664 462.854C792.488 423.469 796.402 359.034 799.258 311.986C800.059 298.783 800.816 286.312 801.751 276.252C803.827 253.894 806.889 224.414 812.199 194.64C821.383 143.046 835.009 102.714 852.699 74.772C858.903 64.9276 865.738 56.3746 873.008 49.3491C883.353 39.3423 894.554 32.6111 906.302 29.3457C917.37 26.2706 928.678 26.3188 939.915 29.4903C949.39 32.2254 958.473 37.1831 966.914 44.2214C975.436 51.3307 983.085 60.3885 989.65 71.1438C997.241 83.571 1003.82 98.3808 1009.2 115.164C1014.3 131.07 1018.37 148.871 1021.29 168.078C1026.79 204.137 1028.23 245.204 1025.47 286.84L1024.79 286.919C1030.74 197.223 1017.74 118.922 989.138 72.0952C976.17 50.8511 958.609 36.1429 939.691 30.6828C916.352 24.0987 893.378 30.9111 873.25 50.3843C866.038 57.3515 859.261 65.8359 853.105 75.6017C835.533 103.359 821.99 143.462 812.851 194.803C807.556 224.496 804.501 253.917 802.428 276.232C801.498 286.257 800.741 298.712 799.94 311.898C798.464 336.217 796.789 363.784 793.342 390.696C789.326 422.033 783.715 445.835 776.185 463.461C772.132 472.968 767.446 480.732 762.255 486.537C756.627 492.832 750.232 497.023 743.246 498.997C732.404 502.12 721.372 499.314 709.519 490.416C699.215 482.68 689.738 471.445 681.378 461.535C670.542 448.603 660.009 434.562 650.069 419.803C641.861 407.601 633.901 394.677 626.408 381.387C610.93 353.942 598.087 321.092 585.666 289.327C580.9 277.133 575.969 264.525 570.948 252.364C561.021 228.322 552.749 210.848 544.129 195.706C525.011 162.133 501.092 146.915 473.031 150.46C428.832 155.902 383.563 206.116 353.37 247.285C331.654 277.003 310.435 311.981 293.621 345.777C280.703 371.743 270.325 398.82 259.337 427.486C258.113 430.68 256.887 433.879 255.655 437.081C253.253 443.325 250.08 451.543 246.83 459.728C234.049 491.933 216.124 529.177 190.741 531.331C189.839 531.405 188.929 531.443 188.017 531.443Z" fill="#FFE492"/>
<path d="M187.088 566.769C164.377 566.769 143.124 541.806 124.283 519.673C118.494 512.874 113.025 506.449 107.759 501.017L22.7047 413.288L23.1482 412.164L108.203 499.893C113.483 505.338 118.958 511.77 124.755 518.58C144.323 541.567 166.504 567.622 190.1 565.364C215.719 562.915 233.213 522.893 245.592 488.303C249.64 476.99 253.61 465.479 257.45 454.345C267.952 423.899 278.811 392.414 291.962 363.112C302.405 339.846 314.912 315.445 328.132 292.552C342.635 267.436 357.765 244.393 373.1 224.065C390.009 201.654 406.763 183.114 422.895 168.964C440.739 153.315 457.781 143.097 473.551 138.594C505.142 129.574 531.615 143.262 552.232 179.283C569.365 209.215 582.733 246.228 595.66 282.023C606.913 313.18 618.548 345.395 632.647 372.934C648.932 404.74 667.081 434.093 686.591 460.173C703.03 482.148 723.487 509.499 748.116 503.352C768.917 498.16 783.139 473.894 791.592 429.163C798.783 391.115 800.337 345.981 801.587 309.716C802.012 297.358 802.415 285.684 802.998 276.217C806.21 224.032 812.043 180.953 820.829 144.521C826.311 121.79 833.03 101.528 840.799 84.2974C849.475 65.0501 859.721 49.0047 871.251 36.6079C881.226 25.883 892.023 18.0938 903.346 13.4558C914.123 9.041 925.144 7.56181 936.101 9.05877C957.651 12.0019 977.547 26.3524 992.123 49.4639C999.915 61.8176 1006.61 76.6806 1012.03 93.6369C1017.17 109.708 1021.19 127.76 1023.99 147.296C1029.26 184.099 1030.14 225.981 1026.55 268.41L1025.83 268.454C1033.49 178.098 1020.69 96.6105 991.587 50.4763C960.686 1.48263 910.198 -3.90894 871.536 37.6608C833.239 78.8398 811.053 156.841 803.712 276.124C803.131 285.559 802.73 297.218 802.305 309.562C801.053 345.905 799.495 391.136 792.271 429.356C788.336 450.174 783.019 466.904 776.47 479.086C772.786 485.934 768.62 491.531 764.086 495.717C759.261 500.172 753.879 503.164 748.086 504.61C745.718 505.201 743.341 505.498 740.955 505.498C732.261 505.498 723.405 501.563 714.08 493.591C703.575 484.609 693.88 471.649 686.09 461.236C666.554 435.118 648.38 405.727 632.071 373.875C617.94 346.278 606.293 314.024 595.028 282.834C582.117 247.085 568.766 210.118 551.675 180.262C531.197 144.488 504.906 130.888 473.532 139.847C410.069 157.968 335.199 268.631 292.491 363.782C279.375 393.003 268.531 424.444 258.043 454.85C254.201 465.988 250.229 477.507 246.177 488.831C237.958 511.795 230.485 528.239 222.659 540.575C217.775 548.273 212.711 554.342 207.609 558.612C201.936 563.359 196.012 566.059 190.001 566.635C189.031 566.724 188.058 566.769 187.088 566.769Z" fill="#FFE492"/>
</g>
</svg>
