<svg width="1592" height="424" viewBox="0 0 1592 424" fill="none" xmlns="http://www.w3.org/2000/svg">
<g opacity="0.3">
<path d="M609.204 423.622C603.521 423.622 597.99 423.276 592.674 422.587C581.526 421.14 571.227 418.17 562.061 413.758C552.21 409.018 543.571 402.558 536.38 394.56C521.927 378.483 514.697 359.23 507.703 340.611C506.329 336.955 504.909 333.174 503.467 329.506C493.627 304.505 481.153 282.606 465.336 262.556C433.782 222.561 389.407 188.429 337.005 163.848C276.404 135.423 211.247 121.263 153.537 123.978C119.617 125.574 74.8006 140.755 54.7709 166.682C42.884 182.069 41.9255 199.145 52.0009 216.061L51.8008 216.132C46.518 207.261 44.2163 198.367 44.9615 189.698C45.6452 181.746 48.8813 173.972 54.5818 166.594C63.6481 154.858 78.5995 144.456 97.8202 136.512C115.581 129.172 135.363 124.66 153.524 123.806C183.725 122.386 215.846 125.537 248.994 133.172C279.042 140.095 308.692 150.366 337.12 163.7C389.552 188.294 433.953 222.446 465.525 262.464C481.351 282.527 493.831 304.439 503.678 329.453C505.123 333.121 506.543 336.904 507.915 340.56C514.901 359.166 522.127 378.405 536.56 394.458C550.518 409.984 569.411 419.39 592.712 422.413C624.98 426.601 664.165 417.843 697.528 398.985C745.607 371.811 778.974 332.257 811.245 294.007C816.902 287.302 822.749 280.369 828.54 273.675C843.573 256.291 863.932 233.765 888.128 213.697C912.86 193.184 937.992 178.114 964.963 167.622C981.47 161.2 998.965 156.873 1016.96 154.762C1033.58 152.812 1051.18 152.691 1069.26 154.4C1100.26 157.332 1133.67 165.617 1171.39 179.724C1245.65 207.504 1319.83 241.224 1391.87 279.947C1460.35 316.752 1527.51 358.4 1591.48 403.729L1591.33 403.855C1458.72 309.889 1317.4 234.532 1171.29 179.877C1088.74 148.999 1023.21 145.152 965.061 167.773C905.9 190.786 864.572 232.316 828.722 273.768C822.934 280.461 817.086 287.394 811.43 294.098C779.15 332.362 745.772 371.928 697.66 399.121C682.112 407.91 664.622 414.764 647.081 418.943C637.814 421.15 628.603 422.594 619.699 423.234C616.151 423.494 612.649 423.622 609.204 423.622Z" fill="#FFE492"/>
<path d="M614.76 414.088C600.269 414.088 586.845 411.952 574.848 407.736C561.471 403.034 549.927 395.749 540.535 386.084C539.704 385.228 538.88 384.343 538.084 383.451C523.786 367.444 516.234 348.442 508.933 330.064C507.456 326.35 505.93 322.508 504.383 318.781C495.165 296.585 484.065 277.022 470.446 258.978C468.768 256.757 467.031 254.53 465.279 252.362C433.262 212.711 388.526 179.01 335.909 154.903C274.87 126.963 209.529 113.388 151.922 116.682C118.249 118.627 73.6385 134.057 53.523 159.785C41.4779 175.191 40.1149 192.301 49.5769 209.266L49.3746 209.334C44.415 200.442 42.3771 191.531 43.3202 182.852C44.1864 174.881 47.5543 167.09 53.334 159.696C62.4926 147.98 77.4 137.567 96.4405 129.582C114.039 122.202 133.734 117.56 151.902 116.512C182.066 114.787 214.223 117.637 247.476 124.98C277.596 131.632 307.387 141.65 336.019 154.757C388.667 178.878 433.427 212.598 465.464 252.272C467.216 254.442 468.955 256.67 470.632 258.893C484.26 276.949 495.367 296.522 504.589 318.73C506.139 322.457 507.665 326.299 509.142 330.015C516.441 348.381 523.986 367.37 538.264 383.354C539.058 384.243 539.883 385.128 540.711 385.982C560.119 405.96 586.786 414.088 614.829 414.088C614.983 414.088 615.134 414.088 615.288 414.088C615.112 414.086 614.936 414.088 614.76 414.088ZM620.742 413.969C646.813 412.932 673.715 405.176 696.794 393.637C746.577 368.644 782.357 330.044 816.96 292.714C818.384 291.175 819.809 289.64 821.233 288.105C824.362 284.735 828.07 280.745 831.856 276.723C848.839 258.685 869.392 237.698 893.062 218.808C918.247 198.707 943.408 183.792 969.98 173.206C986.308 166.709 1003.56 162.132 1021.27 159.603C1037.67 157.259 1055 156.597 1072.78 157.633C1103.5 159.426 1136.52 166.22 1173.74 178.408C1210.04 190.272 1239.87 201.439 1267.63 213.553C1306.95 230.731 1344.41 250.524 1375.87 267.618C1449 307.475 1520.76 352.733 1589.15 402.136L1589 402.26C1520.62 352.864 1448.87 307.61 1375.74 267.758C1344.29 250.665 1306.84 230.876 1267.52 213.703C1239.77 201.592 1209.95 190.428 1173.66 178.568C1092.57 152.018 1027.88 150.362 970.081 173.359C910.091 197.254 867.369 239.295 832.034 276.825C828.246 280.847 824.54 284.835 821.411 288.207C819.987 289.741 818.562 291.278 817.138 292.816C782.524 330.158 746.731 368.772 696.913 393.783C684.56 399.959 671.416 404.864 657.843 408.362C645.208 411.615 632.754 413.496 620.742 413.969Z" fill="#FFE492"/>
<path d="M620.887 404.772C619.144 404.772 617.411 404.743 615.692 404.684C601.213 404.188 587.814 401.617 575.868 397.036C562.803 392.027 551.483 384.607 542.226 374.982C541.403 374.124 540.583 373.237 539.792 372.345C525.654 356.417 517.788 337.668 510.184 319.538C508.599 315.76 506.959 311.851 505.297 308.059C495.624 285.938 484.231 266.532 470.465 248.731C468.761 246.531 466.998 244.323 465.22 242.171C432.738 202.866 387.642 169.598 334.81 145.964C273.335 118.508 207.81 105.518 150.303 109.39C117.925 111.605 73.4447 126.154 52.296 152.864C40.0772 168.296 38.2987 185.451 47.1517 202.476L46.9472 202.539C42.3086 193.62 40.5389 184.689 41.682 175.994C42.7329 167.998 46.2415 160.187 52.1091 152.776C61.3644 141.087 76.2235 130.67 95.0815 122.648C112.515 115.232 132.12 110.464 150.284 109.222C180.413 107.194 212.604 109.741 245.961 116.791C276.156 123.174 306.085 132.939 334.92 145.817C387.783 169.467 432.903 202.754 465.404 242.081C467.183 244.234 468.948 246.442 470.652 248.646C484.425 266.457 495.824 285.875 505.501 308.008C507.163 311.802 508.803 315.71 510.388 319.489C517.99 337.608 525.85 356.343 539.97 372.253C540.761 373.145 541.577 374.03 542.399 374.885C580.016 413.996 646.681 409.797 696.06 388.287C747.92 365.497 786.461 327.62 823.732 290.99L824.115 290.614C827.725 287.063 831.458 283.394 835.173 279.77C874.377 241.54 917.468 202.251 975.001 178.788C991.153 172.214 1008.17 167.387 1025.58 164.44C1041.77 161.7 1058.84 160.496 1076.31 160.864C1106.78 161.504 1139.42 166.811 1176.11 177.089C1214.66 187.851 1243.67 197.744 1270.17 209.167C1307.94 225.475 1344.51 246.083 1376.79 264.265C1448.64 304.965 1519.31 350.813 1586.81 400.534L1586.66 400.657C1519.16 350.941 1448.5 305.097 1376.66 264.401C1344.39 246.222 1307.82 225.618 1270.07 209.315C1243.57 197.896 1214.57 188.006 1176.03 177.247C1096.52 154.97 1032.67 155.506 975.102 178.936C917.607 202.384 874.533 241.656 835.344 279.872C831.629 283.496 827.896 287.167 824.286 290.716L823.904 291.092C805.33 309.346 786.124 328.221 765.384 345.08C742.077 364.027 719.435 378.207 696.165 388.432C671.82 399.036 645.3 404.772 620.887 404.772Z" fill="#FFE492"/>
<path d="M1584.33 399.051C1517.71 349.015 1448.14 302.583 1377.58 261.044C1374.59 259.298 1371.59 257.543 1368.59 255.783C1338.02 237.873 1306.41 219.354 1272.62 204.926C1239.83 190.969 1206.59 182.435 1178.41 175.927C1100.62 157.854 1037.61 160.583 980.13 184.511C921.122 209.148 875.399 250.052 838.662 282.92C836.457 284.893 834.256 286.869 832.051 288.847C830.424 290.307 828.795 291.767 827.166 293.226C806.248 311.96 787.221 328.709 766.198 343.992C742.18 361.451 719.031 374.237 695.422 383.083C673.297 391.374 649.662 395.761 627.678 395.762C623.672 395.762 619.726 395.618 615.848 395.323C601.69 394.249 588.583 391.231 576.892 386.353C564.135 381.03 553.039 373.47 543.909 363.88C543.094 363.02 542.28 362.132 541.493 361.238C527.522 345.393 519.351 326.908 511.45 309.032C509.748 305.182 507.987 301.199 506.206 297.333C496.072 275.282 484.385 256.031 470.482 238.479C468.752 236.295 466.96 234.108 465.158 231.975C432.21 193.015 386.756 160.179 333.71 137.017C271.801 110.046 206.092 97.643 148.687 102.089C109.443 105.189 69.3136 123.207 51.0975 145.905C38.6875 161.369 36.4869 178.579 44.7287 195.675L44.5221 195.735C40.2066 186.783 38.7029 177.825 40.0527 169.109C41.2948 161.083 44.9486 153.246 50.9106 145.815C60.2627 134.16 75.0734 123.743 93.7423 115.692C111.009 108.246 130.513 103.354 148.665 101.92C178.759 99.5885 210.984 101.834 244.444 108.591C274.711 114.705 304.783 124.218 333.82 136.867C386.899 160.043 432.377 192.898 465.345 231.881C467.149 234.016 468.941 236.205 470.671 238.389C484.583 255.951 496.274 275.213 506.415 297.274C508.196 301.141 509.957 305.122 511.659 308.974C519.555 326.84 527.722 345.313 541.676 361.139C542.463 362.031 543.274 362.918 544.087 363.776C583.358 405.025 650.104 399.873 695.327 382.928C749.283 362.711 790.571 325.737 827.001 293.114C828.63 291.653 830.257 290.193 831.886 288.734C834.089 286.756 836.292 284.78 838.497 282.807C859.467 264.047 880.176 245.815 902.943 229.015C929.124 209.694 954.34 195.088 980.028 184.361C996.011 177.708 1012.79 172.63 1029.89 169.272C1045.88 166.132 1062.69 164.389 1079.85 164.089C1110.13 163.561 1142.39 167.381 1178.48 175.764C1206.67 182.275 1239.92 190.812 1272.72 204.778C1306.54 219.211 1338.15 237.735 1368.72 255.648C1371.73 257.408 1374.72 259.163 1377.71 260.91C1448.29 302.452 1517.86 348.889 1584.49 398.93L1584.33 399.051Z" fill="#FFE492"/>
<path d="M1582 397.447C1515 346.135 1446.53 299.112 1378.49 257.687C1374.42 255.209 1370.26 252.654 1366.23 250.184C1337.39 232.496 1307.56 214.205 1275.16 200.538C1242.81 186.94 1209.3 179.798 1180.79 174.606C1104.89 160.654 1042.72 165.573 985.155 190.087C930.248 213.555 887.231 248.843 845.631 282.969L841.062 286.715C837.455 289.675 833.724 292.734 830.046 295.735C788.404 329.665 746.717 361.466 694.679 377.732C682.051 381.679 669.085 384.414 656.136 385.866C642.231 387.424 628.724 387.446 615.989 385.931C602.156 384.285 589.346 380.828 577.915 375.655C565.474 370.026 554.6 362.327 545.6 352.775C544.789 351.91 543.982 351.02 543.202 350.128C529.402 334.377 520.936 316.164 512.749 298.55C510.922 294.62 509.032 290.555 507.123 286.608C496.518 264.625 484.541 245.529 470.507 228.229C468.752 226.067 466.934 223.897 465.103 221.781C431.691 183.166 385.879 150.763 332.616 128.072C270.269 101.59 204.375 89.7706 147.069 94.7935C108.184 98.2744 68.2365 116.419 49.9281 138.92C37.3114 154.423 34.6756 171.699 42.304 188.882L42.0952 188.938C38.1029 179.948 36.8696 170.955 38.4282 162.213C39.866 154.154 43.6714 146.286 49.7391 138.831C59.1922 127.216 73.9502 116.809 92.4213 108.734C109.516 101.26 128.915 96.2506 147.043 94.6267C177.102 91.9918 209.359 93.934 242.925 100.399C273.267 106.244 303.478 115.503 332.719 127.924C386.013 150.627 431.852 183.051 465.283 221.687C467.114 223.805 468.935 225.977 470.689 228.138C484.733 245.447 496.716 264.554 507.326 286.549C509.234 290.496 511.125 294.562 512.951 298.492C521.134 316.096 529.596 334.3 543.38 350.033C544.158 350.921 544.965 351.81 545.774 352.675C584.099 393.35 647.778 392.208 694.593 377.575C746.59 361.323 788.259 329.534 829.883 295.619C833.561 292.618 837.292 289.56 840.9 286.6L845.468 282.853C865.889 266.103 887.003 248.78 909.934 232.666C935.906 214.416 960.476 200.44 985.045 189.937C1000.87 183.2 1017.4 177.873 1034.2 174.104C1049.99 170.56 1066.54 168.276 1083.38 167.314C1113.52 165.594 1145.4 167.926 1180.84 174.44C1209.36 179.634 1242.89 186.778 1275.26 200.389C1307.68 214.06 1337.51 232.356 1366.36 250.05C1370.39 252.52 1374.56 255.073 1378.63 257.553C1446.67 298.981 1515.15 346.007 1582.16 397.325L1582 397.447Z" fill="#FFE492"/>
<path d="M1579.67 395.846C1513.25 343.963 1445.87 296.351 1379.41 254.334C1374.42 251.177 1369.3 247.893 1364.34 244.719C1337.06 227.221 1308.84 209.127 1277.71 196.155C1245.51 182.79 1211.85 177.097 1183.16 173.291C1109.37 163.349 1048.04 170.46 990.179 195.669C939.681 217.761 898.222 249.07 858.125 279.347C853.906 282.533 849.542 285.827 845.29 289.019C840.298 292.767 836.484 295.614 832.924 298.249C813.862 312.353 791.165 328.593 767.348 342.101C742.108 356.414 718.095 366.321 693.934 372.387C681.229 375.577 668.318 377.589 655.556 378.365C641.854 379.199 628.586 378.586 616.125 376.542C602.625 374.328 590.114 370.431 578.935 364.962C566.813 359.032 556.166 351.196 547.289 341.674C546.489 340.811 545.686 339.919 544.908 339.024C531.291 323.378 522.541 305.446 514.077 288.105C512.114 284.082 510.085 279.924 508.038 275.885C496.956 253.963 484.687 235.024 470.527 217.98C468.746 215.837 466.902 213.687 465.044 211.589C431.169 173.32 384.995 141.349 331.517 119.129C268.737 93.1341 202.659 81.9018 145.454 87.4984C112.904 90.7528 70.3913 105.745 48.7896 131.9C35.9465 147.451 32.8643 164.806 39.8795 182.087L39.6706 182.138C36.0015 173.102 35.043 164.07 36.8193 155.294C38.4593 147.194 42.423 139.292 48.605 131.808C58.1593 120.241 72.8623 109.851 91.1289 101.759C108.052 94.2626 127.335 89.1392 145.428 87.3298C175.451 84.392 207.744 86.0311 241.41 92.203C271.825 97.7792 302.177 106.787 331.62 118.979C385.129 141.211 431.329 173.201 465.224 211.492C467.082 213.59 468.928 215.744 470.709 217.888C484.876 234.94 497.152 253.89 508.241 275.822C510.289 279.863 512.319 284.021 514.282 288.043C522.739 305.376 531.487 323.298 545.088 338.927C545.866 339.82 546.667 340.711 547.467 341.572C579.35 375.774 634.08 387.233 693.866 372.222C748.008 358.629 792.174 328.162 832.773 298.123C836.332 295.488 840.144 292.641 845.136 288.893C849.388 285.701 853.752 282.407 857.971 279.221C877.71 264.316 898.12 248.903 919.891 234.47C944.509 218.149 967.467 205.407 990.073 195.517C1005.74 188.692 1022.04 183.114 1038.52 178.94C1054.12 174.986 1070.41 172.162 1086.92 170.544C1116.99 167.599 1148.48 168.441 1183.2 173.119C1211.9 176.928 1245.59 182.624 1277.81 196.001C1308.96 208.981 1337.19 227.08 1364.48 244.583C1369.43 247.757 1374.55 251.041 1379.55 254.198C1446.01 296.22 1513.39 343.836 1579.83 395.722L1579.67 395.846Z" fill="#FFE492"/>
<path d="M1577.34 394.242C1511.49 341.786 1445.2 293.584 1380.32 250.978C1374.8 247.354 1369.14 243.55 1363.65 239.871C1337.54 222.35 1310.53 204.232 1280.25 191.767C1248.03 178.562 1214.3 174.35 1185.54 171.97C1115.09 165.984 1052.83 175.56 995.201 201.245C949.318 221.79 909.986 249.274 871.949 275.854C864.266 281.223 856.323 286.775 848.6 292.067C843.876 295.306 839.69 298.151 835.799 300.762C817.704 312.891 793.633 328.443 767.912 341.153C742.067 353.922 717.623 362.391 693.183 367.039C666.527 372.11 639.924 372.147 616.252 367.15C603.09 364.37 590.876 360.037 579.947 354.268C568.148 348.04 557.728 340.067 548.972 330.574C548.178 329.71 547.382 328.816 546.608 327.921C533.185 312.394 524.163 294.756 515.439 277.701C513.329 273.575 511.148 269.31 508.947 265.165C497.379 243.301 484.818 224.515 470.543 207.735C468.736 205.611 466.865 203.48 464.981 201.4C430.642 163.476 384.11 131.936 330.416 110.191C267.203 84.6849 200.941 74.0381 143.835 80.2083C105.134 84.4806 66.4925 102.421 47.6829 124.848C34.5936 140.455 31.0563 157.9 37.4537 175.298L37.2427 175.344C33.8989 166.253 33.2173 157.173 35.2157 148.36C37.0624 140.213 41.1954 132.271 47.4983 124.755C57.1537 113.241 71.7995 102.876 89.8529 94.7768C106.598 87.2653 125.76 82.0296 143.804 80.0381C173.793 76.7972 206.12 78.1351 239.89 84.0125C270.38 89.3198 300.872 98.0755 330.518 110.038C384.242 131.796 430.8 163.354 465.162 201.301C467.046 203.381 468.916 205.514 470.726 207.64C485.007 224.43 497.575 243.225 509.15 265.099C511.35 269.243 513.531 273.511 515.642 277.636C524.36 294.683 533.378 312.312 546.789 327.824C547.563 328.719 548.356 329.609 549.15 330.474C580.486 364.455 634.31 378.062 693.13 366.874C746.754 356.673 793.321 329.008 835.654 300.634C839.543 298.023 843.731 295.18 848.453 291.941C856.174 286.649 864.119 281.099 871.8 275.73C909.846 249.145 949.184 221.653 995.089 201.1C1010.62 194.178 1026.68 188.351 1042.82 183.779C1058.26 179.408 1074.28 176.043 1090.45 173.778C1120.51 169.565 1151.62 168.92 1185.56 171.803C1214.33 174.185 1248.1 178.399 1280.36 191.619C1310.66 204.093 1337.67 222.217 1363.8 239.745C1369.28 243.424 1374.95 247.226 1380.47 250.85C1445.35 293.459 1511.64 341.665 1577.5 394.125L1577.34 394.242Z" fill="#FFE492"/>
<path d="M1575.01 392.638C1509.75 339.603 1444.55 290.813 1381.24 247.622C1375.42 243.652 1369.44 239.45 1363.65 235.385C1338.49 217.715 1312.47 199.443 1282.8 187.38C1250.44 174.287 1216.68 171.576 1187.91 170.65C1120.12 168.307 1058.73 180.139 1000.23 206.822C959.196 225.623 922.621 249.419 887.249 272.43C875.087 280.343 863.598 287.817 851.914 295.114C847.161 298.085 842.832 300.754 838.677 303.271C811.867 319.501 789.562 331.235 768.479 340.199C742.03 351.445 717.157 358.474 692.438 361.688C682.849 362.934 673.295 363.555 663.914 363.555C647.285 363.555 631.195 361.608 616.382 357.751C589.575 350.771 567.463 337.891 550.661 319.468C549.869 318.595 549.08 317.702 548.315 316.81C535.096 301.417 525.821 284.093 516.851 267.337C514.578 263.092 512.23 258.704 509.862 254.437C497.8 232.624 484.943 213.994 470.566 197.482C468.732 195.376 466.835 193.264 464.925 191.203C430.122 153.625 383.229 122.517 329.32 101.244C265.674 76.2274 199.229 66.1644 142.222 72.9082C103.36 77.601 65.8333 95.201 46.6214 117.747C33.266 133.419 29.2605 150.968 35.0336 168.498L34.8203 168.541C31.8063 159.387 31.4062 150.253 33.6332 141.393C35.6953 133.193 40.002 125.206 46.4389 117.654C56.1955 106.204 70.7776 95.8717 88.6111 87.7729C105.176 80.2495 124.203 74.9116 142.189 72.7397C172.142 69.1959 204.505 70.2308 238.376 75.8155C268.94 80.8555 299.571 89.3593 329.421 101.09C383.361 122.377 430.28 153.502 465.105 191.102C467.015 193.165 468.913 195.278 470.748 197.385C485.135 213.906 497.998 232.546 510.065 254.367C512.432 258.634 514.782 263.024 517.053 267.269C526.019 284.017 535.289 301.334 548.497 316.713C549.262 317.603 550.049 318.497 550.841 319.368C582.217 353.771 633.813 369.135 692.401 361.518C748.173 354.267 797.571 327.937 838.541 303.135C842.694 300.617 847.022 297.95 851.775 294.98C863.458 287.683 874.946 280.211 887.108 272.297C922.485 249.281 959.069 225.482 1000.11 206.673C1015.53 199.644 1031.35 193.567 1047.13 188.61C1062.43 183.81 1078.19 179.904 1093.98 177.002C1124.1 171.468 1154.83 169.334 1187.92 170.478C1216.71 171.404 1250.51 174.119 1282.9 187.227C1312.6 199.298 1338.62 217.579 1363.8 235.256C1369.59 239.32 1375.57 243.523 1381.38 247.491C1444.7 290.685 1509.9 339.48 1575.17 392.519L1575.01 392.638Z" fill="#FFE492"/>
<path d="M1572.68 391.035C1507.09 336.663 1444.77 288.654 1382.16 244.266C1376.18 240.031 1370.3 235.706 1364.07 231.127C1339.73 213.228 1314.56 194.72 1285.35 182.994C1252.59 169.907 1217.34 168.817 1190.29 169.331C1125.59 170.4 1065.06 184.489 1005.25 212.402C969.364 229.231 936.232 249.44 904.19 268.986C887.35 279.258 871.445 288.959 855.225 298.165C850.41 300.901 845.937 303.393 841.553 305.784C814.378 320.586 791.339 331.217 769.043 339.245C741.98 348.988 716.679 354.579 691.691 356.339C678.853 357.243 666.102 357.073 653.793 355.834C640.761 354.521 628.217 352.004 616.51 348.353C590.562 340.259 568.976 326.807 552.349 308.368C551.565 307.493 550.782 306.598 550.021 305.706C537.024 290.472 527.516 273.478 518.32 257.044C515.867 252.659 513.33 248.125 510.777 243.716C498.209 221.951 485.063 203.476 470.586 187.236C468.724 185.149 466.8 183.056 464.868 181.013C429.601 143.781 382.351 113.105 328.226 92.3032C278.269 73.1832 226.751 63.207 179.509 63.207C166.154 63.207 153.151 64.0036 140.609 65.6155C102.215 70.647 64.9238 88.31 45.5997 110.615C31.9608 126.359 27.4694 144.027 32.6115 161.708L32.3961 161.745C29.7118 152.519 29.5997 143.323 32.0619 134.412C34.3438 126.152 38.8374 118.113 45.415 110.519C55.2727 99.1407 69.7867 88.8513 87.3916 80.7611C104.009 73.1236 122.399 67.8283 140.569 65.4487C170.487 61.6019 202.885 62.3355 236.86 67.6257C267.497 72.3951 298.27 80.6453 328.322 92.1483C382.478 112.962 429.757 143.655 465.046 180.909C466.981 182.952 468.906 185.047 470.769 187.136C485.252 203.384 498.405 221.868 510.98 243.643C513.532 248.051 516.071 252.586 518.525 256.972C527.716 273.4 537.22 290.387 550.206 305.609C550.967 306.499 551.749 307.394 552.532 308.268C583.624 342.748 634.337 360.205 691.674 356.167C749.692 352.08 802.182 327.018 841.43 305.641C845.813 303.25 850.285 300.758 855.1 298.024C871.317 288.821 887.221 279.119 904.058 268.848C936.104 249.301 969.241 229.086 1005.14 212.252C1035.93 197.881 1066.15 187.408 1097.52 180.232C1127.78 173.311 1158.12 169.689 1190.29 169.158C1208.64 168.809 1223.62 169.415 1237.41 171.062C1255.23 173.19 1270.94 177.042 1285.45 182.839C1314.69 194.576 1339.87 213.093 1364.23 231.001C1370.46 235.58 1376.34 239.903 1382.31 244.138C1444.93 288.528 1507.25 336.54 1572.84 390.916L1572.68 391.035Z" fill="#FFE492"/>
<path d="M1570.35 389.431C1505.36 334.462 1444.1 285.882 1383.07 240.908C1377.04 236.459 1371.08 231.875 1364.78 227.022C1341.16 208.84 1316.75 190.036 1287.89 178.605C1254.86 165.579 1219.65 166.099 1192.67 168.007C1131.61 172.176 1071.94 188.522 1010.27 217.975C979.886 232.557 950.954 249.245 922.975 265.385C900.857 278.142 879.968 290.193 858.538 301.208C853.694 303.699 848.946 306.082 844.428 308.288C817.201 321.572 792.726 331.381 769.605 338.278C741.92 346.537 716.19 350.694 690.944 350.983C678.098 351.129 665.398 350.231 653.203 348.309C640.42 346.294 628.117 343.143 616.637 338.942C591.58 329.773 570.517 315.749 554.035 297.259C553.261 296.385 552.483 295.488 551.725 294.591C538.972 279.543 529.257 262.908 519.861 246.821C517.203 242.27 514.453 237.562 511.689 232.985C498.607 211.26 485.168 192.942 470.605 176.979C468.717 174.911 466.767 172.836 464.808 170.813C429.077 133.926 381.466 103.682 327.126 83.3521C262.616 59.318 195.799 50.4261 138.99 58.3138C101.094 63.667 64.0506 81.3759 44.6188 103.427C30.6721 119.255 25.6817 137.056 30.1841 154.908L29.9686 154.94C27.6207 145.635 27.801 136.367 30.5072 127.395C33.02 119.066 37.7048 110.969 44.4364 103.33C54.3908 92.0329 68.8322 81.7946 86.1996 73.7214C102.626 66.0857 120.866 60.7002 138.951 58.1453C168.836 53.9972 201.267 54.4261 235.342 59.4236C266.054 63.9274 296.966 71.9257 327.221 83.1972C381.594 103.538 429.231 133.8 464.982 170.709C466.943 172.733 468.895 174.809 470.783 176.879C485.355 192.85 498.798 211.177 511.887 232.91C514.653 237.487 517.401 242.195 520.061 246.748C529.453 262.828 539.163 279.456 551.907 294.494C552.666 295.39 553.444 296.287 554.215 297.158C585.635 332.406 634.192 351.463 690.939 350.809C736.985 350.282 785.719 336.722 844.309 308.14C848.825 305.934 853.571 303.553 858.414 301.061C879.838 290.048 900.727 278.001 922.841 265.243C950.825 249.102 979.76 232.411 1010.16 217.825C1041.25 202.974 1070.98 191.733 1101.05 183.456C1131.51 175.071 1161.47 169.96 1192.65 167.832C1219.66 165.921 1254.91 165.402 1287.99 178.448C1316.88 189.893 1341.31 208.705 1364.94 226.896C1371.24 231.749 1377.19 236.331 1383.22 240.779C1444.26 285.754 1505.52 334.338 1570.51 389.31L1570.35 389.431Z" fill="#FFE492"/>
<path d="M1568.02 387.826C1503.63 332.26 1443.44 283.104 1383.99 237.552C1377.96 232.927 1372 228.122 1365.69 223.034C1342.74 204.527 1319.01 185.39 1290.44 174.217C1257.1 161.239 1221.95 163.375 1195.05 166.685C1137.59 173.622 1080.48 191.691 1015.3 223.552C990.85 235.555 966.96 248.723 943.857 261.456C915.797 276.922 889.292 291.531 861.85 304.255C856.905 306.549 852.012 308.752 847.305 310.798C819.59 322.839 794.358 331.513 770.169 337.314C756.62 340.563 743.245 342.917 730.415 344.311C716.73 345.797 703.199 346.241 690.198 345.632C663.819 344.394 639.113 338.978 616.768 329.535C592.636 319.336 572.099 304.742 555.727 286.154C554.958 285.274 554.186 284.376 553.432 283.484C540.952 268.657 531.063 252.416 521.502 236.713C518.607 231.959 515.615 227.043 512.605 222.26C498.995 200.571 485.264 182.408 470.627 166.73C468.712 164.679 466.733 162.622 464.75 160.619C428.556 124.076 380.586 94.2649 326.03 74.4096C261.089 50.8674 194.09 42.561 137.376 51.0189C76.6488 60.2155 17.4741 99.9517 27.7627 148.113L27.5451 148.141C24.9707 136.093 26.4788 124.224 32.0254 112.861C37.0906 102.483 45.4028 92.716 56.7312 83.8343C67.2638 75.5755 79.9003 68.4453 94.2867 62.6411C107.97 57.121 122.855 53.0427 137.332 50.8504C167.182 46.3993 199.648 46.527 233.827 51.2317C264.613 55.4683 295.666 63.2147 326.123 74.2564C380.709 94.1253 428.707 123.953 464.924 160.517C466.909 162.522 468.888 164.578 470.805 166.631C485.448 182.316 499.186 200.49 512.803 222.187C515.813 226.97 518.805 231.885 521.7 236.641C531.259 252.34 541.143 268.573 553.617 283.392C554.369 284.284 555.138 285.182 555.907 286.061C587.373 321.782 635.07 342.876 690.211 345.463C736.892 347.651 788.242 336.265 847.197 310.651C851.902 308.605 856.793 306.405 861.738 304.11C889.174 291.39 915.673 276.782 943.73 261.319C966.835 248.583 990.727 235.414 1015.18 223.409C1080.39 191.535 1137.53 173.458 1195.01 166.517C1213.09 164.292 1228.05 163.581 1242.11 164.28C1260.08 165.174 1275.92 168.374 1290.54 174.064C1319.14 185.249 1342.88 204.398 1365.84 222.915C1372.15 228.001 1378.11 232.806 1384.14 237.429C1443.6 282.985 1503.79 332.143 1568.18 387.712L1568.02 387.826Z" fill="#FFE492"/>
<path d="M1565.69 386.226C1501.92 330.054 1442.78 280.326 1384.91 234.198C1378.92 229.425 1373 224.426 1366.74 219.131C1344.41 200.27 1321.33 180.765 1292.99 169.832C1258.92 156.745 1222.13 161.015 1197.42 165.366C1130.36 177.029 1070.26 204.144 1020.32 229.133C1002.37 238.151 984.469 247.703 967.153 256.94C932.415 275.471 899.606 292.974 865.166 307.306C860.101 309.415 855.062 311.436 850.186 313.313C821.93 324.171 795.942 331.708 770.74 336.351C742.169 341.616 714.823 342.94 689.455 340.285C663.395 337.557 638.984 330.775 616.903 320.128C593.743 308.962 573.731 293.798 557.419 275.056C556.658 274.176 555.891 273.276 555.141 272.38C542.971 257.825 532.959 242.031 523.275 226.757C520.103 221.751 516.821 216.576 513.523 211.539C499.178 189.579 485.555 172.086 470.652 156.484C468.711 154.452 466.708 152.416 464.696 150.43C428.033 114.234 379.703 84.8552 324.932 65.4696C259.56 42.4211 192.377 34.6985 135.759 43.7266C74.8142 53.5734 16.8486 92.7701 25.3389 141.323L25.1212 141.345C23.0152 129.299 24.8377 117.442 30.5359 106.105C35.7594 95.7164 44.1199 85.9394 55.389 77.0475C65.8974 68.7547 78.4679 61.5717 92.7532 55.6943C106.355 50.0977 121.212 45.9019 135.715 43.5581C165.532 38.8041 198.031 38.6305 232.311 43.0407C263.172 47.01 294.365 54.5045 325.024 65.3147C379.829 84.7105 428.185 114.106 464.866 150.324C466.877 152.312 468.882 154.35 470.825 156.382C485.737 171.991 499.365 189.494 513.716 211.463C517.014 216.499 520.296 221.676 523.469 226.682C533.15 241.951 543.16 257.74 555.321 272.288C556.071 273.184 556.836 274.082 557.597 274.962C589.307 311.395 636.144 334.534 689.482 340.117C737.319 345.124 789.853 336.305 850.087 313.16C854.961 311.284 860 309.265 865.06 307.157C899.492 292.828 932.297 275.328 967.027 256.799C984.344 247.562 1002.25 238.008 1020.2 228.988C1053.79 212.186 1081.72 199.773 1108.12 189.922C1139.19 178.328 1168.38 170.241 1197.37 165.199C1215.04 162.088 1230.45 160.678 1244.46 160.893C1262.5 161.168 1278.41 164.042 1293.08 169.679C1321.46 180.625 1344.56 200.142 1366.9 219.015C1373.16 224.309 1379.08 229.308 1385.06 234.077C1442.94 280.207 1502.08 329.938 1565.85 386.111L1565.69 386.226Z" fill="#FFE492"/>
<path d="M1563.36 384.619C1500.2 327.839 1442.13 277.538 1385.83 230.838C1379.92 225.941 1374.08 220.768 1367.89 215.291C1346.15 196.05 1323.68 176.154 1295.54 165.442C1261.09 152.385 1224.4 158.389 1199.8 164.042C1139.04 177.882 1084.85 204.234 1025.35 234.707C1014.62 240.224 1003.76 245.917 993.268 251.425C952.896 272.607 911.152 294.508 868.479 310.351C863.295 312.278 858.107 314.118 853.061 315.82C824.614 325.407 797.107 331.987 771.305 335.38C742.075 339.223 714.287 339.071 688.706 334.932C663.011 330.774 638.896 322.626 617.031 310.714C594.904 298.66 575.413 282.927 559.101 263.953C558.347 263.071 557.586 262.169 556.841 261.274C545.037 247.06 534.962 231.779 525.219 217.003C521.708 211.679 518.078 206.174 514.431 200.818C499.526 178.879 485.619 161.536 470.665 146.237C468.702 144.229 466.67 142.21 464.63 140.239C427.51 104.384 378.824 75.4372 323.833 56.5249C258.032 33.9699 190.666 26.8329 134.141 36.4295C75.1308 46.5572 16.0946 84.3785 22.9119 134.527L22.6943 134.544C21.0564 122.498 23.1933 110.654 29.0433 99.3419C34.4228 88.9419 42.8339 79.1564 54.0414 70.2542C74.7197 53.8321 103.897 41.4423 134.092 36.261C163.874 31.2057 196.409 30.7291 230.792 34.8448C261.728 38.5487 293.06 45.7895 323.921 56.3683C378.943 75.2908 427.657 104.256 464.802 140.128C466.844 142.101 468.875 144.12 470.841 146.13C485.801 161.437 499.715 178.787 514.625 200.734C518.272 206.093 521.903 211.597 525.414 216.922C535.155 231.694 545.229 246.971 557.025 261.179C557.768 262.074 558.529 262.974 559.283 263.856C591.919 301.817 636.687 326.336 688.748 334.763C736.954 342.566 792.205 336.14 852.969 315.664C858.012 313.962 863.196 312.123 868.378 310.198C911.036 294.36 952.775 272.462 993.138 251.284C1003.64 245.776 1014.49 240.082 1025.22 234.566C1051.27 221.226 1081.57 205.926 1111.65 193.151C1143.11 179.79 1171.92 170.215 1199.73 163.88C1217.24 159.858 1232.64 157.771 1246.81 157.502C1264.67 157.162 1281.1 159.783 1295.63 165.291C1308.23 170.089 1320.92 177.25 1334.42 187.184C1346.34 195.955 1357.38 205.728 1368.05 215.179C1374.23 220.654 1380.08 225.827 1385.98 230.722C1442.29 277.424 1500.36 327.727 1563.52 384.508L1563.36 384.619Z" fill="#FFE492"/>
<path d="M1561.03 383.016C1498.49 325.624 1441.48 274.749 1386.74 227.484C1380.94 222.48 1375.2 217.151 1369.12 211.51C1347.95 191.869 1326.07 171.559 1298.08 161.059C1271.93 151.277 1240.56 151.821 1202.18 162.723C1148.51 177.881 1100.53 203.234 1049.74 230.078C1043.42 233.421 1036.88 236.877 1030.37 240.289C1027.82 241.629 1025.27 242.972 1022.73 244.313C974.33 269.792 924.288 296.14 871.792 313.403C866.485 315.149 861.152 316.809 855.939 318.334C826.867 326.833 798.585 332.242 771.878 334.41C741.973 336.838 713.739 335.214 687.965 329.583C662.67 324.056 638.852 314.541 617.174 301.302C596.161 288.47 577.193 272.17 560.795 252.853C560.048 251.969 559.294 251.066 558.553 250.169C547.198 236.4 537.156 221.736 527.441 207.556C523.508 201.813 519.439 195.874 515.352 190.094C499.871 168.17 485.682 150.977 470.693 135.988C468.702 133.997 466.646 131.998 464.58 130.046C426.989 94.5379 377.942 66.0221 322.736 47.583C256.509 25.5234 188.956 18.9702 132.525 29.1353C74.5986 39.6561 15.6459 77.7872 20.4891 127.734L20.2692 127.748C19.1019 115.7 21.5509 103.871 27.5526 92.5872C33.0904 82.1753 41.5499 72.3779 52.698 63.4689C73.2884 47.0127 102.365 34.4391 132.474 28.9702C162.223 23.6119 194.79 22.8323 229.275 26.6553C260.285 30.0902 291.76 37.0791 322.824 47.4263C378.061 65.8774 427.138 94.4085 464.745 129.935C466.811 131.888 468.871 133.889 470.863 135.881C485.858 150.878 500.055 168.077 515.541 190.009C519.63 195.789 523.697 201.729 527.632 207.472C537.343 221.649 547.385 236.31 558.736 250.073C559.476 250.97 560.228 251.872 560.976 252.756C594.319 292.034 638.25 318.541 688.022 329.415C737.154 340.148 793.623 336.364 855.86 318.17C861.068 316.645 866.399 314.987 871.704 313.243C924.182 295.987 974.216 269.644 1022.6 244.169C1025.15 242.826 1027.7 241.484 1030.25 240.145C1036.75 236.732 1043.29 233.277 1049.62 229.935C1100.42 203.086 1148.41 177.726 1202.1 162.562C1219.44 157.636 1234.84 154.873 1249.16 154.112C1267.1 153.161 1283.59 155.447 1298.18 160.904C1310.71 165.607 1323.24 172.8 1336.49 182.895C1348.17 191.803 1358.91 201.765 1369.29 211.399C1375.37 217.038 1381.11 222.366 1386.9 227.369C1441.65 274.635 1498.66 325.512 1561.19 382.906L1561.03 383.016Z" fill="#FFE492"/>
<path d="M1558.69 381.412C1501.62 327.931 1444.07 275.012 1387.66 224.127C1381.91 218.976 1376.22 213.443 1370.19 207.586C1350.6 188.532 1328.38 166.937 1300.63 156.672C1274.17 146.906 1242.75 148.454 1204.55 161.4C1159.14 176.743 1118.95 199.303 1076.4 223.187C1063.07 230.667 1049.29 238.403 1035.39 245.865C1011.13 258.918 984.891 272.731 957.382 285.312C927.921 298.786 901.006 308.97 875.098 316.449C869.655 318.02 864.176 319.499 858.81 320.842C829.123 328.268 800.07 332.495 772.461 333.404C741.896 334.408 713.216 331.324 687.213 324.229C639.195 310.966 597.227 283.216 562.477 241.749C561.736 240.864 560.989 239.958 560.252 239.061C549.473 225.901 539.607 212.016 530.066 198.588C525.574 192.268 520.931 185.732 516.26 179.371C500.189 157.453 485.715 140.411 470.709 125.74C468.688 123.766 466.606 121.786 464.516 119.854C426.468 84.6885 377.06 56.6068 321.638 38.6391C254.983 17.0731 187.247 11.1071 130.908 21.8391C72.6307 33.0033 15.1554 70.6289 18.0639 120.94L17.844 120.947C17.1472 108.896 19.9128 97.08 26.0617 85.8255C31.76 75.4 40.2679 65.5923 51.3523 56.6766C61.7947 48.2765 74.1718 40.9319 88.1383 34.845C101.698 28.937 116.069 24.5046 130.853 21.6723C160.569 16.0127 193.172 14.9301 227.757 18.4586C258.843 21.6297 290.456 28.365 321.722 38.4808C377.177 56.4587 426.613 84.5574 464.683 119.74C466.773 121.674 468.86 123.655 470.88 125.63C485.893 140.309 500.374 157.358 516.451 179.283C521.123 185.645 525.766 192.181 530.257 198.503C539.798 211.929 549.662 225.812 560.437 238.968C561.171 239.867 561.921 240.77 562.659 241.655C597.383 283.09 639.314 310.818 687.285 324.067C736.699 337.548 795.988 336.377 858.742 320.679C864.104 319.336 869.582 317.858 875.021 316.289C932.947 299.569 985.946 272.261 1035.27 245.724C1049.16 238.261 1062.94 230.527 1076.27 223.048C1118.83 199.158 1159.02 176.593 1204.46 161.243C1242.71 148.277 1274.2 146.729 1300.72 156.517C1313.15 161.114 1325.49 168.321 1338.45 178.546C1349.88 187.562 1360.29 197.688 1370.37 207.478C1376.39 213.335 1382.08 218.867 1387.82 224.015C1444.24 274.901 1501.79 327.821 1558.86 381.303L1558.69 381.412Z" fill="#FFE492"/>
<path d="M1556.36 379.81C1500.16 326.033 1443.71 272.525 1388.57 220.772C1383.01 215.565 1377.49 209.934 1371.64 203.974C1352.52 184.476 1330.86 162.375 1303.17 152.283C1276.4 142.535 1244.92 145.085 1206.92 160.076C1167.12 175.759 1130.54 197.904 1095.18 219.322C1077.44 230.06 1059.1 241.165 1040.42 251.441C1010.92 267.676 986.106 280.06 962.317 290.418C932.984 303.189 905.537 312.7 878.411 319.495C872.842 320.891 867.214 322.188 861.685 323.351C832.877 329.405 804.588 332.469 777.525 332.471C776.022 332.471 774.527 332.46 773.032 332.442C741.744 332.047 712.619 327.482 686.467 318.876C673.844 314.699 661.482 309.397 649.727 303.116C638.678 297.213 627.82 290.26 617.454 282.45C598.805 268.401 581.372 251.454 564.163 230.646C563.424 229.751 562.688 228.854 561.955 227.953C551.97 215.676 542.524 202.842 533.389 190.43C528.115 183.266 522.663 175.856 517.172 168.644C500.264 146.425 485.941 130.03 470.726 115.488C468.679 113.533 466.571 111.572 464.454 109.659C425.944 74.8416 376.179 47.1922 320.541 29.6961C253.459 8.62542 185.539 3.245 129.292 14.5437C72.1072 26.0637 14.7067 63.9752 15.641 114.145L15.4211 114.147C14.9859 90.7787 26.9474 68.5574 50.011 49.8867C60.4358 41.4476 72.747 34.0501 86.6058 27.8952C100.091 21.9071 114.433 17.359 129.237 14.3769C158.918 8.41436 191.556 7.03053 226.242 10.2646C257.403 13.1701 289.157 19.6535 320.622 29.5361C376.295 47.0442 426.089 74.7106 464.623 109.548C466.74 111.463 468.853 113.425 470.899 115.381C486.121 129.931 500.451 146.331 517.363 168.559C522.855 175.773 528.309 183.182 533.581 190.346C542.715 202.757 552.159 215.589 562.142 227.863C562.874 228.763 563.609 229.66 564.347 230.554C600.916 274.772 640.89 303.611 686.553 318.719C749.799 339.533 816.668 332.637 861.628 323.187C867.152 322.025 872.776 320.729 878.342 319.334C940.731 303.705 997.661 274.767 1040.29 251.303C1058.97 241.031 1077.31 229.926 1095.04 219.189C1130.42 197.768 1167 175.616 1206.82 159.926C1223.83 153.218 1239.21 149.099 1253.86 147.335C1271.93 145.16 1288.55 146.774 1303.26 152.132C1315.66 156.651 1327.88 163.916 1340.63 174.34C1351.87 183.524 1362.01 193.868 1371.82 203.873C1377.66 209.832 1383.18 215.461 1388.74 220.665C1443.88 272.418 1500.33 325.926 1556.54 379.703L1556.36 379.81Z" fill="#FFE492"/>
<path d="M1554.03 378.205L1389.49 217.415C1384.12 212.164 1378.78 206.45 1373.13 200.402C1354.48 180.443 1333.35 157.822 1305.72 147.897C1279 138.3 1246.56 141.953 1209.3 158.755C1173.48 174.906 1140.81 196.385 1109.21 217.158C1088.62 230.699 1067.32 244.699 1045.44 257.02C979.676 294.055 922.201 315.929 864.565 325.861C840.655 329.98 817.068 332.054 794.194 332.054C787.26 332.054 780.397 331.863 773.606 331.482C741.579 329.684 712.011 323.642 685.724 313.524C661.361 304.146 639.074 290.906 617.595 273.048C600.443 258.787 584.001 241.786 565.853 219.545C556.275 207.807 547 195.611 538.03 183.817C517.73 157.128 496.74 129.529 470.752 105.24C430.891 67.9854 378.568 38.77 319.442 20.7513C251.935 0.177629 183.831 -4.61897 127.677 7.24657C73.3098 18.7342 14.3022 54.959 13.2162 107.35L12.9963 107.347C13.4822 83.9292 25.8175 61.7113 48.6678 43.0951C69.3285 26.2628 97.3671 13.473 127.619 7.08147C157.267 0.81763 189.94 -0.86918 224.726 2.0704C255.961 4.7087 287.855 10.9419 319.523 20.593C348.78 29.5087 376.566 41.2449 402.111 55.4764C427.87 69.8271 451.021 86.5317 470.919 105.128C496.918 129.425 517.915 157.031 538.219 183.727C547.189 195.519 556.464 207.713 566.04 219.449C592.518 251.902 630.062 291.904 685.823 313.368C749.77 337.982 818.293 333.655 864.517 325.691C922.124 315.766 979.573 293.9 1045.31 256.879C1067.18 244.563 1088.48 230.563 1109.07 217.025C1140.67 196.249 1173.35 174.765 1209.19 158.605C1246.52 141.774 1279.03 138.118 1305.81 147.74C1318.18 152.185 1330.29 159.512 1342.84 170.145C1353.88 179.505 1363.76 190.077 1373.31 200.3C1378.96 206.348 1384.29 212.059 1389.66 217.308L1554.21 378.098L1554.03 378.205Z" fill="#FFE492"/>
<path d="M1552.71 365.844C1510.81 321.074 1474.86 284.746 1439.57 251.519C1422.45 235.377 1404.95 219.49 1387.58 204.296C1382.33 199.701 1377.12 194.812 1371.61 189.636C1357.76 176.627 1343.44 163.175 1326.96 153.192C1318.11 147.822 1309.59 143.976 1300.91 141.437C1274.28 133.564 1243.04 138.77 1208.05 156.909C1189.94 166.283 1173.46 176.95 1159.72 186.148C1145.17 195.886 1130.82 206.625 1116.94 217.01C1096.99 231.937 1076.37 247.372 1054.2 260.628C1040.7 268.719 1027.03 275.948 1013.55 282.116C986.571 294.456 957.617 304.625 927.49 312.339C908.876 317.052 890.172 320.615 871.901 322.926C856.154 324.911 840.378 326.057 825.009 326.331C802.007 326.743 779.596 325.171 758.399 321.657C735.861 317.919 714.532 311.953 695.006 303.922C677.594 296.761 661.148 287.745 644.728 276.356C614.131 255.151 589.726 230.632 571.884 211.639C563.119 202.266 554.56 192.707 546.283 183.462C522.45 156.839 499.938 131.694 471.768 109.296C448.792 91.1474 422.579 75.4861 393.847 62.744C371.769 52.9516 347.756 44.9431 322.476 38.9397C316.455 37.5116 310.319 36.1806 304.245 34.9874C278.092 29.8589 248.651 26.5193 216.741 25.0606C184.57 23.5559 156.735 24.858 131.654 29.0452C117.474 31.3942 103.736 35.0793 90.816 39.9967C45.2033 57.3585 15.9138 86.504 12.4667 117.963L12.1919 117.944C13.1108 109.558 15.8083 101.297 20.2073 93.3891C24.3865 85.8776 30.1266 78.6334 37.267 71.8572C50.7587 59.0572 69.2341 47.9729 90.695 39.8044C103.635 34.8784 117.395 31.1882 131.597 28.8359C156.705 24.6452 184.561 23.3414 216.759 24.8478C248.686 26.3065 278.143 29.6495 304.313 34.7814C310.393 35.9763 316.531 37.3074 322.557 38.7372C347.857 44.744 371.89 52.7593 393.986 62.5602C422.737 75.3108 448.973 90.9857 471.959 109.146C500.147 131.558 522.664 156.71 546.505 183.34C554.78 192.584 563.339 202.142 572.101 211.513C589.935 230.497 614.329 255.005 644.908 276.196C661.311 287.573 677.74 296.581 695.131 303.733C733.346 319.449 777.04 326.981 825 326.118C840.356 325.844 856.121 324.698 871.855 322.715C890.113 320.404 908.804 316.845 927.402 312.135C957.512 304.426 986.447 294.264 1013.4 281.931C1026.88 275.767 1040.55 268.542 1054.03 260.458C1076.19 247.209 1096.81 231.777 1116.75 216.855C1130.63 206.468 1144.98 195.726 1159.53 185.985C1173.28 176.782 1189.78 166.111 1207.9 156.73C1223.48 148.654 1238.56 143.074 1252.73 140.145C1270.14 136.547 1286.39 136.914 1301.01 141.238C1309.71 143.786 1318.25 147.641 1327.12 153.023C1343.63 163.022 1357.96 176.482 1371.82 189.5C1377.33 194.674 1382.54 199.563 1387.79 204.155C1405.16 219.35 1422.66 235.239 1439.79 251.384C1475.08 284.615 1511.03 320.947 1552.93 365.72L1552.71 365.844Z" fill="#FFE492"/>
<path d="M1551.38 353.481C1512.53 307.954 1476.07 269.857 1439.92 237.014C1422.28 220.972 1404.03 205.55 1385.67 191.179C1380.8 187.367 1376 183.404 1370.9 179.21C1355.66 166.65 1339.89 153.663 1322.23 144.677C1313.31 140.121 1304.77 136.948 1296.11 134.977C1262.93 127.426 1229.23 141.731 1206.8 155.06C1190.91 164.476 1176.4 175.123 1161.7 186.114C1148.83 195.734 1136.72 206.083 1123.91 217.038C1104.88 233.3 1085.21 250.116 1062.95 264.235C1049.74 272.659 1035.95 279.942 1021.97 285.882C995.934 296.95 967.418 305.544 934.798 312.158C916.542 315.859 897.847 318.495 879.231 319.991C863.523 321.239 847.844 321.685 832.627 321.312C809.987 320.764 787.858 318.299 766.85 313.988C744.787 309.459 723.735 302.841 704.281 294.318C687.237 286.853 670.779 277.59 653.968 266.002C623.437 244.985 597.282 221.687 577.91 203.736C570.738 197.091 563.682 190.405 556.855 183.937C529.672 158.18 503.997 133.85 472.784 113.353C449.456 98.0337 423.267 85.0805 394.947 74.8541C373.519 67.1162 350.807 61.3188 325.516 57.1298C319.68 56.1647 313.742 55.295 307.87 54.5443C282.078 51.2643 254.552 50.0235 221.248 48.7401C197.241 47.7681 165.815 47.1281 135.624 50.8422C121.325 52.5681 107.504 55.5656 94.54 59.7477C48.8965 74.4762 17.9341 100.206 11.7126 128.577L11.3872 128.534C13.036 121.011 16.3776 113.632 21.313 106.601C26.0176 99.9009 32.1996 93.4771 39.6852 87.5026C53.9111 76.1528 72.8351 66.4728 94.4125 59.5111C107.401 55.3205 121.249 52.3179 135.571 50.5886C165.791 46.8694 197.241 47.5111 221.263 48.483C254.578 49.7664 282.113 51.0073 307.922 54.289C313.799 55.0413 319.741 55.9111 325.585 56.8762C350.899 61.0703 373.633 66.8728 395.085 74.6192C423.434 84.8558 449.645 97.8192 472.997 113.154C504.232 133.666 529.918 158.003 557.111 183.77C563.934 190.236 570.991 196.922 578.162 203.566C597.53 221.51 623.674 244.8 654.188 265.806C670.98 277.382 687.419 286.635 704.444 294.092C742.696 310.849 785.829 319.92 832.638 321.053C847.842 321.425 863.506 320.98 879.198 319.733C897.796 318.238 916.476 315.605 934.714 311.906C967.308 305.299 995.8 296.711 1021.82 285.654C1035.78 279.721 1049.55 272.447 1062.74 264.032C1084.98 249.925 1104.65 233.116 1123.66 216.863C1136.48 205.903 1148.59 195.552 1161.47 185.927C1176.18 174.929 1190.7 164.279 1206.61 154.852C1221.15 146.211 1235.49 139.995 1249.23 136.372C1265.9 131.981 1281.71 131.428 1296.2 134.727C1304.9 136.706 1313.47 139.889 1322.41 144.459C1340.1 153.462 1355.88 166.461 1371.15 179.031C1376.24 183.224 1381.05 187.184 1385.91 190.995C1404.28 205.372 1422.53 220.798 1440.17 236.846C1476.34 269.697 1512.8 307.801 1551.66 353.338L1551.38 353.481Z" fill="#FFE492"/>
<path d="M1550.06 341.115C1513.7 294.213 1477.78 255.416 1440.26 222.509C1422.12 206.565 1403.11 191.612 1383.77 178.061C1379.64 175.164 1375.38 172.09 1371.26 169.118C1354.27 156.839 1336.69 144.143 1317.51 136.162C1308.5 132.39 1299.93 129.888 1291.3 128.514C1258.2 123.239 1226.4 139.031 1205.56 153.207C1191.43 162.776 1178.51 173.622 1166.02 184.112L1163.68 186.077C1152.34 195.593 1141.7 206.031 1130.44 217.083C1112.5 234.681 1093.95 252.877 1071.7 267.838C1058.76 276.608 1044.86 283.946 1030.4 289.648C1005.19 299.59 977.127 306.684 942.099 311.975C923.987 314.71 905.3 316.419 886.556 317.052C870.888 317.561 855.306 317.306 840.238 316.289C794.621 313.227 751.998 302.603 713.552 284.712C696.932 276.977 680.464 267.471 663.208 255.644C634.007 235.673 608.035 215.146 583.938 195.831C580.706 193.243 577.51 190.671 574.338 188.119C541.425 161.653 510.34 136.654 473.806 117.413C449.956 104.851 423.792 94.6075 396.046 86.965C375.676 81.3547 353.599 77.5454 328.559 75.319C322.916 74.8203 317.176 74.4101 311.497 74.1003C297.212 73.3343 282.061 73.2101 266.019 73.079C253.134 72.9735 239.812 72.8645 225.753 72.4203C198.6 71.4892 167.827 70.4356 139.59 72.6415C125.021 73.7803 111.116 76.0884 98.2601 79.5028C52.6343 91.622 19.9966 113.939 10.9545 139.2L10.583 139.12C12.9661 132.459 16.9496 125.962 22.4215 119.809C27.6537 113.925 34.2753 108.318 42.1017 103.145C57.0707 93.2526 76.4475 84.9803 98.1326 79.2203C111.018 75.7973 124.951 73.4841 139.549 72.3437C167.814 70.136 198.602 71.1913 225.766 72.1224C239.816 72.5649 253.138 72.6756 266.019 72.7811C282.067 72.9122 297.223 73.0364 311.522 73.8041C317.205 74.1156 322.951 74.5258 328.599 75.0245C353.67 77.2526 375.772 81.0671 396.172 86.6858C423.951 94.3369 450.143 104.592 474.02 117.168C510.586 136.425 541.687 161.437 574.612 187.915C577.785 190.466 580.983 193.037 584.213 195.627C608.305 214.938 634.269 235.46 663.461 255.425C680.699 267.237 697.15 276.735 713.75 284.46C752.145 302.329 794.713 312.938 840.271 315.997C855.321 317.011 870.888 317.266 886.539 316.758C905.263 316.124 923.932 314.417 942.024 311.685C977.017 306.4 1005.04 299.314 1030.22 289.386C1044.66 283.695 1058.53 276.371 1071.45 267.617C1093.67 252.674 1112.21 234.488 1130.13 216.9C1141.4 205.843 1152.05 195.401 1163.4 185.877L1165.74 183.913C1178.23 173.418 1191.16 162.565 1205.3 152.985C1226.21 138.764 1258.12 122.926 1291.38 128.225C1300.04 129.605 1308.65 132.116 1317.69 135.903C1336.92 143.901 1354.51 156.611 1371.52 168.904C1375.64 171.876 1379.89 174.95 1384.02 177.845C1403.37 191.403 1422.39 206.364 1440.54 222.317C1478.08 255.237 1514.01 294.048 1550.38 340.965L1550.06 341.115Z" fill="#FFE492"/>
<path d="M1548.73 328.748C1515.35 281.138 1478.97 240.513 1440.6 208.006C1421.95 192.163 1402.19 177.676 1381.87 164.947C1378.93 163.109 1375.93 161.201 1373.02 159.356C1353.81 147.167 1333.95 134.561 1312.8 127.65C1303.71 124.653 1295.12 122.823 1286.51 122.054C1253.5 119.106 1223.59 136.36 1204.31 151.354C1192.34 160.617 1181.54 170.918 1171.09 180.881C1169.28 182.605 1167.48 184.326 1165.67 186.04C1155.73 195.456 1146.44 205.975 1136.6 217.111C1119.87 236.042 1102.58 255.616 1080.46 271.446C1067.47 280.741 1053.86 287.928 1038.83 293.419C1007.39 304.903 975.981 309.153 949.4 311.798C931.421 313.586 912.744 314.369 893.881 314.12C878.261 313.89 862.774 312.932 847.851 311.274C803.603 306.37 761.539 294.203 722.827 275.111C706.719 267.169 690.242 257.415 672.45 245.295C654.478 233.08 637.731 221.327 621.533 209.96C610.525 202.234 600.127 194.937 589.973 187.936C551.588 161.471 516.429 138.203 474.837 121.478C450.474 111.683 424.337 104.146 397.152 99.0783C377.667 95.4459 356.839 93.6774 331.608 93.5089C326.165 93.4783 320.621 93.5276 315.131 93.657C306.793 93.8663 298.166 94.3038 289.036 94.7685C271.515 95.6587 251.652 96.6681 230.257 96.103C222.11 95.8868 213.797 95.5821 205.758 95.2859C185.08 94.5251 163.698 93.7387 143.554 94.4417C128.761 94.9591 114.77 96.5795 101.975 99.2587C56.4262 108.799 22.1156 127.705 10.1914 149.831L9.78467 149.7C12.9064 143.906 17.5319 138.292 23.5314 133.014C29.2934 127.945 36.3547 123.157 44.5152 118.784C60.2405 110.358 80.068 103.494 101.856 98.9302C114.682 96.2442 128.703 94.6187 143.53 94.1012C163.696 93.3966 185.086 94.1846 205.775 94.9455C213.813 95.2417 222.125 95.5464 230.27 95.7625C251.645 96.3276 271.493 95.32 289.005 94.4298C298.14 93.9651 306.768 93.5276 315.116 93.3183C320.612 93.1889 326.161 93.1395 331.61 93.1702C356.877 93.337 377.735 95.1106 397.253 98.7481C424.471 103.822 450.644 111.368 475.037 121.177C493.825 128.731 512.863 138.302 533.24 150.435C551.483 161.296 569.228 173.18 590.263 187.683C600.417 194.685 610.816 201.982 621.825 209.708C638.021 221.073 654.768 232.826 672.736 245.039C690.51 257.148 706.97 266.891 723.058 274.825C761.717 293.892 803.722 306.042 847.908 310.939C862.813 312.595 878.281 313.552 893.883 313.781C912.724 314.03 931.382 313.249 949.338 311.461C975.887 308.821 1007.26 304.576 1038.64 293.112C1053.62 287.637 1067.2 280.469 1080.16 271.197C1102.24 255.395 1119.52 235.836 1136.23 216.92C1146.07 205.778 1155.37 195.254 1165.32 185.827C1167.13 184.113 1168.94 182.392 1170.74 180.67C1181.2 170.7 1192.01 160.392 1204 151.117C1216.54 141.363 1229.41 133.858 1242.24 128.813C1257.44 122.837 1272.35 120.45 1286.55 121.72C1295.2 122.493 1303.84 124.331 1312.96 127.34C1334.17 134.27 1354.06 146.891 1373.29 159.095C1376.2 160.94 1379.2 162.849 1382.14 164.685C1402.47 177.424 1422.25 191.924 1440.92 207.78C1461.29 225.041 1481.24 244.707 1500.21 266.232C1516.98 285.257 1533.43 306.237 1549.1 328.588L1548.73 328.748Z" fill="#FFE492"/>
<path d="M1547.4 316.38C1516.5 267.405 1480.69 226.063 1440.95 193.503C1421.79 177.76 1401.27 163.742 1379.97 151.834C1378.96 151.267 1377.95 150.7 1376.93 150.132C1354.78 137.733 1331.88 124.913 1308.09 119.141C1298.88 116.904 1290.25 115.745 1281.73 115.595C1248.85 115.02 1220.81 133.716 1203.08 149.5C1192.65 158.734 1183.38 168.855 1174.43 178.642C1172.21 181.063 1169.92 183.565 1167.66 186.002C1159.05 195.286 1151.05 205.84 1142.57 217.017C1127.16 237.345 1111.23 258.365 1089.22 275.052C1076.49 284.707 1062.77 291.948 1047.26 297.19C1016.7 307.517 985.676 310.229 956.701 311.621C938.834 312.479 920.163 312.332 901.206 311.187C885.637 310.217 870.248 308.557 855.464 306.256C812.722 299.618 771.216 285.909 732.104 265.509C716.441 257.34 700.423 247.628 681.699 234.943C646.113 210.903 619.689 193.97 596.02 180.041C548.946 152.339 513.017 136.041 475.888 125.546C451.031 118.52 424.92 113.691 398.278 111.192C379.793 109.459 360.177 109.614 334.675 111.699C329.45 112.132 324.103 112.64 318.783 113.214C313.757 113.764 308.653 114.394 303.247 115.059C283.287 117.519 260.663 120.307 234.77 119.786C221.123 119.512 207.183 118.761 193.702 118.036C178.381 117.212 162.539 116.36 147.52 116.244C132.461 116.128 118.384 117.061 105.693 119.018C60.2956 126.016 24.3076 141.514 9.4265 160.474L9.00439 160.275C12.8692 155.349 18.1366 150.618 24.6593 146.215C30.9556 141.963 38.4522 137.995 46.9424 134.419C63.4349 127.471 83.7175 122.014 105.596 118.642C118.323 116.681 132.43 115.745 147.524 115.861C162.557 115.977 178.408 116.829 193.735 117.655C207.211 118.38 221.145 119.131 234.781 119.405C260.628 119.924 283.228 117.139 303.165 114.683C308.573 114.016 313.683 113.388 318.71 112.836C324.037 112.263 329.388 111.754 334.618 111.32C360.159 109.233 379.809 109.076 398.332 110.814C425.012 113.316 451.16 118.152 476.053 125.189C513.233 135.697 549.199 152.012 596.315 179.738C619.992 193.672 646.426 210.61 682.02 234.658C700.731 247.332 716.731 257.034 732.377 265.194C771.436 285.565 812.881 299.255 855.559 305.883C870.323 308.181 885.694 309.837 901.242 310.807C920.176 311.951 938.823 312.098 956.668 311.241C985.599 309.851 1016.57 307.146 1047.06 296.843C1062.51 291.621 1076.19 284.404 1088.87 274.783C1110.83 258.132 1126.75 237.134 1142.14 216.828C1150.62 205.645 1158.63 195.081 1167.26 185.784C1169.52 183.349 1171.81 180.846 1174.02 178.426C1182.98 168.63 1192.25 158.503 1202.7 149.253C1214.27 138.952 1226.4 130.804 1238.76 125.034C1253.23 118.274 1267.69 114.974 1281.74 115.217C1290.31 115.367 1298.98 116.533 1308.24 118.78C1332.1 124.572 1355.04 137.41 1377.22 149.827C1378.23 150.395 1379.25 150.964 1380.26 151.529C1401.59 163.451 1422.12 177.486 1441.31 193.246C1481.08 225.835 1516.92 267.209 1547.84 316.218L1547.4 316.38Z" fill="#FFE492"/>
<path d="M967.64 311.444C966.407 311.444 965.191 311.443 963.995 311.438C946.221 311.38 927.557 310.307 908.525 308.248C893.013 306.537 877.721 304.176 863.073 301.233C842.144 297.036 821.14 291.003 800.64 283.305C780.843 275.87 760.906 266.651 741.38 255.902C722.247 245.371 704.376 233.637 690.944 224.59C659.515 203.48 629.612 185.836 602.066 172.145C557.452 149.974 517.693 136.457 476.941 129.609C452.356 125.478 425.98 123.299 400.584 123.299C400.19 123.299 399.799 123.299 399.405 123.301C377.588 123.359 356.875 126.498 337.744 129.882C332.765 130.768 327.614 131.737 322.435 132.763C319.596 133.332 316.754 133.917 313.746 134.537C292.534 138.913 268.49 143.871 239.28 143.465C221.49 143.216 203.32 141.79 185.748 140.409C174.402 139.517 162.671 138.597 151.482 138.04C136.099 137.276 121.944 137.521 109.404 138.772C64.2485 143.272 26.5831 155.364 8.64621 171.119L8.23291 170.838C17.4333 162.758 31.2723 155.763 49.3653 150.043C66.6448 144.583 87.3824 140.539 109.334 138.351C121.906 137.099 136.099 136.85 151.517 137.618C162.718 138.174 174.455 139.097 185.805 139.989C203.366 141.369 221.525 142.796 239.291 143.043C268.426 143.449 292.428 138.498 313.606 134.13C316.615 133.509 319.458 132.923 322.298 132.355C327.482 131.328 332.637 130.358 337.621 129.471C356.785 126.082 377.533 122.939 399.403 122.879C425.204 122.809 452.053 124.995 477.058 129.197C498.09 132.733 518.48 137.936 539.389 145.105C559.527 152.011 580.126 160.74 602.361 171.791C629.929 185.492 659.854 203.15 691.302 224.273C704.723 233.315 722.581 245.041 741.694 255.56C781.316 277.371 822.2 292.6 863.209 300.826C877.837 303.766 893.11 306.123 908.6 307.832C927.607 309.889 946.245 310.961 963.995 311.017C991.77 311.106 1024.02 310.381 1055.48 300.568C1071.4 295.601 1085.17 288.338 1097.58 278.365C1119.39 260.85 1133.84 238.37 1147.82 216.629C1155.01 205.446 1161.8 194.883 1169.18 185.739C1171.55 182.809 1173.94 179.791 1176.25 176.872C1184.05 167.01 1192.11 156.814 1201.4 147.39C1212.02 136.547 1223.41 127.752 1235.26 121.25C1249.01 113.711 1263.01 109.494 1276.9 108.714C1285.47 108.232 1294.17 108.724 1303.5 110.219C1328.43 114.212 1353.14 125.814 1378.37 138.37C1400.37 149.318 1422.26 163.267 1441.69 178.711C1463.26 195.815 1483.53 215.882 1501.93 238.352C1518.33 258.37 1533.35 280.406 1546.57 303.848L1546.07 304.018C1517.67 253.676 1482.42 211.616 1441.29 179.008C1421.9 163.587 1400.04 149.659 1378.08 138.729C1352.89 126.195 1328.23 114.615 1303.39 110.636C1294.11 109.15 1285.46 108.661 1276.94 109.139C1251.42 110.574 1224.75 124.249 1201.84 147.648C1192.56 157.056 1184.51 167.243 1176.71 177.095C1174.41 180.016 1172.02 183.036 1169.65 185.965C1162.28 195.092 1155.49 205.647 1148.31 216.82C1141.45 227.487 1134.36 238.518 1126.22 249.123C1116.99 261.145 1107.76 270.806 1097.98 278.661C1085.51 288.678 1071.68 295.974 1055.68 300.964C1041.58 305.366 1026.41 308.275 1009.33 309.861C994.861 311.198 980.33 311.444 967.64 311.444Z" fill="#FFE492"/>
<path d="M1002.89 312.298C991.684 312.298 980.916 311.78 971.283 311.256C953.57 310.293 934.915 308.293 915.837 305.311C900.391 302.861 885.195 299.801 870.673 296.211C830.906 286.402 791.644 270.073 750.646 246.296C732.766 235.928 715.911 224.773 700.183 214.236C669.133 193.496 638.157 176.679 608.112 164.25C563.924 145.971 522.58 136.253 478.001 133.67C452.6 132.197 425.815 132.798 400.537 135.406C379.38 137.588 359.434 142.854 340.813 148.059C336.155 149.368 331.2 150.798 326.088 152.308C324.811 152.687 323.523 153.074 322.217 153.464C300.771 159.884 276.505 167.149 245.362 167.149C244.837 167.149 244.314 167.147 243.784 167.142C222.714 166.977 201.203 164.648 180.397 162.395C172.149 161.501 163.619 160.579 155.434 159.831C139.447 158.374 125.602 157.944 113.104 158.519C67.6471 160.613 29.2782 169.082 7.83931 181.762L7.47217 181.389C18.0707 175.122 33.3959 169.68 51.7856 165.653C69.8741 161.692 91.0646 159.064 113.066 158.051C125.6 157.474 139.48 157.905 155.502 159.365C163.696 160.112 172.228 161.036 180.479 161.928C201.265 164.179 222.756 166.505 243.786 166.67C275.577 166.922 300.239 159.537 321.995 153.023C323.298 152.633 324.589 152.247 325.866 151.865C330.982 150.354 335.939 148.924 340.602 147.615C359.254 142.4 379.237 137.127 400.452 134.938C425.769 132.327 452.598 131.724 478.04 133.198C500.132 134.478 521.195 137.501 542.432 142.437C564.304 147.522 585.879 154.519 608.391 163.833C638.474 176.279 669.489 193.116 700.573 213.877C716.293 224.41 733.138 235.559 751.002 245.916C791.945 269.661 831.147 285.966 870.851 295.76C885.351 299.343 900.527 302.4 915.951 304.846C935.003 307.825 953.632 309.823 971.318 310.783C1001.08 312.4 1032.74 313.231 1063.89 304.282C1080.28 299.573 1094.15 292.264 1106.29 281.937C1127.92 263.542 1141.38 238.451 1153.25 216.313C1159.23 205.174 1164.88 194.653 1171.1 185.685C1173.35 182.449 1175.61 179.105 1177.8 175.87C1184.64 165.751 1191.72 155.288 1200.09 145.516C1209.78 134.133 1220.44 124.691 1231.77 117.453C1244.78 109.142 1258.34 104.008 1272.06 102.199C1280.63 101.067 1289.37 100.887 1298.75 101.642C1324.97 103.758 1351.6 114.213 1376.48 125.196C1399.45 135.338 1422.12 148.812 1442.06 164.162C1464.24 181.186 1484.67 201.453 1502.79 224.396C1518.99 244.914 1533.29 267.477 1545.3 291.464L1544.73 291.632C1519.22 240.647 1483.56 196.682 1441.64 164.492C1421.74 149.171 1399.11 135.722 1376.18 125.602C1351.36 114.643 1324.8 104.214 1298.69 102.107C1289.36 101.355 1280.69 101.535 1272.16 102.659C1246.83 106 1221.41 121.31 1200.6 145.772C1192.24 155.523 1185.17 165.976 1178.34 176.085C1176.15 179.321 1173.89 182.665 1171.64 185.905C1165.42 194.853 1159.79 205.363 1153.82 216.49C1141.92 238.662 1128.43 263.794 1106.74 282.25C1094.53 292.633 1080.58 299.983 1064.1 304.72C1049.8 308.829 1034.37 311.208 1016.93 311.99C1012.21 312.211 1007.52 312.298 1002.89 312.298Z" fill="#FFE492"/>
<path d="M1025.02 314.14C1024.86 314.14 1024.7 314.14 1024.54 314.14C1008.7 314.109 993.146 312.608 978.571 311.073C960.885 309.21 942.24 306.281 923.151 302.37C907.775 299.185 892.677 295.421 878.277 291.187C840.099 279.975 802.491 262.659 759.919 236.689C744.587 227.34 729.499 217.272 714.906 207.537C713.082 206.318 711.255 205.101 709.428 203.884C678.217 183.149 646.166 167.158 614.168 156.356C570.352 141.566 526.161 135.472 479.071 137.728C453.251 138.965 426.49 142.347 401.681 147.508C382.106 151.581 364.664 158.116 343.893 166.235C339.683 167.888 335.187 169.672 329.749 171.85L329.445 171.973C318.952 176.204 307.059 180.999 293.719 184.645C278.398 188.832 263.535 190.848 248.293 190.824C224.526 190.778 200.271 187.353 176.816 184.039C171.069 183.227 165.125 182.388 159.387 181.629C142.932 179.455 129.003 178.358 116.804 178.274C71.8856 177.968 31.8701 183.122 7.0192 192.412L6.7334 191.952C18.906 187.401 35.326 183.707 54.2169 181.27C73.1431 178.827 94.7887 177.615 116.81 177.765C129.044 177.849 143.009 178.948 159.499 181.127C165.241 181.886 171.186 182.725 176.935 183.537C200.361 186.846 224.585 190.267 248.295 190.313C248.401 190.313 248.508 190.313 248.614 190.313C282.529 190.313 308.367 179.896 329.142 171.52L329.447 171.398C334.888 169.217 339.384 167.433 343.596 165.78C364.402 157.648 381.875 151.101 401.511 147.016C426.362 141.845 453.167 138.458 479.032 137.219C502.076 136.116 523.811 136.957 545.486 139.792C568.841 142.848 591.395 148.112 614.432 155.889C646.492 166.712 678.597 182.729 709.859 203.498C711.686 204.715 713.512 205.934 715.337 207.152C729.924 216.884 745.007 226.948 760.326 236.291C802.843 262.228 840.396 279.52 878.51 290.713C892.89 294.943 907.967 298.7 923.32 301.881C942.383 305.787 961.001 308.712 978.659 310.57C1010.29 313.903 1041.25 316.215 1072.32 308.017C1089.17 303.568 1103.14 296.213 1115 285.53C1136.44 266.233 1148.15 239.495 1158.48 215.901C1163.31 204.856 1167.88 194.422 1173.04 185.655C1175.02 182.281 1177.01 178.792 1178.93 175.416C1184.95 164.863 1191.17 153.952 1198.79 143.665C1207.57 131.734 1217.49 121.644 1228.28 113.675C1240.57 104.592 1253.68 98.5464 1267.22 95.7072C1275.62 93.9472 1284.19 93.0894 1293.41 93.0894C1293.61 93.0894 1293.81 93.0894 1294.01 93.0911C1322.64 93.2068 1352.11 103.28 1374.59 112.043C1398.53 121.379 1422 134.376 1442.44 149.631C1465.22 166.577 1485.82 187.043 1503.65 210.463C1519.65 231.479 1533.24 254.572 1544.03 279.103L1543.41 279.268C1527.35 242.768 1496.72 190.713 1441.99 150C1421.59 134.78 1398.18 121.813 1374.29 112.499C1351.88 103.76 1322.5 93.7157 1294.01 93.6017C1284.62 93.5591 1275.92 94.4136 1267.4 96.2008C1242.3 101.462 1218.14 118.409 1199.36 143.918C1191.76 154.182 1185.54 165.081 1179.53 175.622C1177.61 178.999 1175.62 182.49 1173.64 185.866C1168.5 194.611 1163.93 205.032 1159.1 216.065C1148.75 239.701 1137.02 266.49 1115.5 285.862C1103.56 296.616 1089.5 304.021 1072.53 308.499C1058.14 312.293 1042.6 314.14 1025.02 314.14Z" fill="#FFE492"/>
<path d="M1042.62 316.536C1039.2 316.536 1035.72 316.451 1032.15 316.281C1016.52 315.537 1001.33 313.305 985.856 310.888C967.915 308.087 949.796 304.339 930.463 299.43C915.166 295.511 900.167 291.048 885.879 286.162C849.634 273.784 813.646 255.562 769.192 227.082C758.151 220.01 747.115 212.592 736.442 205.418C730.632 201.513 724.626 197.474 718.674 193.53C687.092 172.655 653.971 157.492 620.229 148.461C575.648 136.527 529.828 134.342 480.149 141.78C453.902 145.71 427.165 151.874 402.831 159.603C383.282 165.812 366.253 174.532 348.224 183.765L346.978 184.403C344.161 185.85 341.315 187.317 338.432 188.801C336.773 189.658 335.102 190.519 333.416 191.387C322.903 196.829 311.548 202.505 298.527 206.875C283.408 211.947 268.455 214.442 252.806 214.504C226.755 214.602 200.183 209.915 174.488 205.377C170.821 204.728 167.026 204.059 163.344 203.424C146.08 200.446 132.47 198.732 120.506 198.027C76.3573 195.428 34.693 197.259 6.19274 203.053L6.01025 202.519C34.5852 196.71 76.3353 194.871 120.561 197.475C132.558 198.182 146.203 199.901 163.5 202.885C167.185 203.521 170.979 204.19 174.648 204.839C200.029 209.321 226.265 213.952 251.971 213.952C252.248 213.952 252.525 213.952 252.804 213.95C286.053 213.821 309.721 202.985 333.022 190.927C334.708 190.059 336.379 189.198 338.039 188.342C340.921 186.856 343.766 185.39 346.584 183.942L347.831 183.304C365.891 174.056 382.948 165.321 402.56 159.091C426.938 151.346 453.722 145.172 480.015 141.235C529.82 133.778 575.762 135.971 620.465 147.937C654.289 156.992 687.488 172.189 719.14 193.11C725.092 197.055 731.1 201.093 736.91 204.999C747.579 212.172 758.613 219.588 769.647 226.655C814.048 255.103 849.986 273.299 886.167 285.656C900.435 290.534 915.413 294.992 930.687 298.904C949.991 303.806 968.084 307.549 985.999 310.345C1013.19 314.592 1047.04 319.879 1080.74 311.736C1098.07 307.55 1112.13 300.15 1123.71 289.11C1144.94 268.888 1154.78 240.447 1163.47 215.356C1167.24 204.456 1170.81 194.16 1174.97 185.615C1176.59 182.286 1178.21 178.842 1179.78 175.511C1185.05 164.34 1190.5 152.789 1197.49 141.804C1205.38 129.319 1214.56 118.58 1224.78 109.886C1236.37 100.034 1249.02 93.0771 1262.38 89.2081C1270.96 86.7247 1279.75 85.1945 1289.26 84.529C1301.99 83.6371 1315.55 84.5903 1330.69 87.4362C1343.51 89.8464 1357.25 93.5877 1372.7 98.8762C1397.62 107.406 1421.87 119.928 1442.83 135.089C1466.21 151.955 1486.97 172.624 1504.51 196.519C1520.31 218.036 1533.18 241.658 1542.77 266.732L1542.08 266.888C1521.84 213.952 1486.42 167.288 1442.34 135.494C1421.43 120.374 1397.25 107.887 1372.41 99.3835C1339.12 87.9894 1312.72 83.443 1289.32 85.0805C1279.88 85.7409 1271.15 87.2609 1262.63 89.7256C1230.83 98.929 1210 123.259 1198.13 142.047C1191.15 153.006 1185.71 164.543 1180.45 175.7C1178.88 179.033 1177.25 182.478 1175.63 185.809C1171.49 194.328 1167.93 204.613 1164.16 215.499C1155.46 240.645 1145.59 269.145 1124.27 289.459C1112.59 300.585 1098.42 308.046 1080.95 312.265C1069.11 315.125 1056.49 316.536 1042.62 316.536Z" fill="#FFE492"/>
<path d="M1057.86 319.284C1034.61 319.284 1012.26 314.66 993.137 310.704C975.148 306.983 957.037 302.333 937.77 296.49C922.56 291.843 907.657 286.678 893.477 281.138C850.97 264.549 813.076 240.738 778.46 217.477C771.392 212.728 764.252 207.833 757.349 203.099C747.764 196.525 737.851 189.729 727.919 183.179C695.864 162.098 661.672 147.761 626.295 140.566C580.53 131.261 533.078 132.981 481.226 145.829C454.528 152.444 427.818 161.388 403.98 171.696C385.595 179.645 370.039 189.681 353.571 200.306C352.403 201.058 351.234 201.814 350.058 202.57L349.42 202.981C345.417 205.567 341.277 208.239 337.08 210.922C327.025 217.378 315.951 224.055 303.143 229.157C288.275 235.078 273.287 238.032 257.315 238.185C229.281 238.456 200.708 232.353 173.079 226.452C171.142 226.038 169.214 225.627 167.295 225.22C149.074 221.349 135.782 219.055 124.201 217.778C81.1607 213.036 37.8432 211.545 5.355 213.688L5.28906 213.094C37.83 210.946 81.2113 212.438 124.309 217.187C135.923 218.467 149.243 220.767 167.497 224.644C169.416 225.051 171.344 225.463 173.283 225.878C200.86 231.768 229.378 237.855 257.304 237.589C291.989 237.256 316.415 223.412 336.588 210.462C340.785 207.78 344.924 205.107 348.927 202.524L349.565 202.112C350.741 201.354 351.911 200.6 353.078 199.848C369.575 189.204 385.157 179.152 403.604 171.175C427.486 160.849 454.247 151.889 480.991 145.262C505.573 139.172 528.663 135.655 551.577 134.512C577.138 133.237 602.341 135.08 626.488 139.991C661.977 147.208 696.27 161.586 728.416 182.724C738.355 189.278 748.269 196.076 757.857 202.651C764.76 207.385 771.896 212.278 778.961 217.026C813.542 240.261 851.39 264.047 893.82 280.605C907.98 286.137 922.861 291.295 938.05 295.935C957.288 301.77 975.37 306.413 993.333 310.129C1020.91 315.834 1055.24 322.936 1089.16 315.463C1106.96 311.541 1121.1 304.095 1132.42 292.697C1153.42 271.524 1161.29 241.334 1168.22 214.695C1171.01 203.993 1173.64 193.884 1176.89 185.582C1178.09 182.512 1179.29 179.339 1180.46 176.27C1185.02 164.267 1189.73 151.853 1196.18 139.95C1203.19 126.9 1211.64 115.509 1221.28 106.098C1232.15 95.4784 1244.35 87.6112 1257.53 82.7141C1266.09 79.5346 1274.91 77.3303 1284.5 75.9737C1297.42 74.1473 1311.75 74.2086 1327.1 76.1558C1340.54 77.8614 1355.24 81.0767 1370.79 85.715C1396.68 93.4375 1421.72 105.484 1443.19 120.551C1467.19 137.339 1488.1 158.207 1505.36 182.578C1520.95 204.595 1533.11 228.748 1541.49 254.365L1540.75 254.512C1522.99 200.231 1488.16 152.813 1442.68 120.993C1421.27 105.975 1396.32 93.9686 1370.52 86.2716C1337.07 76.2954 1308.98 73.1175 1284.64 76.5609C1275.12 77.9073 1266.36 80.0963 1257.86 83.252C1226.5 94.9031 1207.39 120.639 1196.89 140.18C1190.46 152.052 1185.75 164.449 1181.19 176.437C1180.03 179.506 1178.82 182.68 1177.62 185.754C1174.39 194.028 1171.76 204.124 1168.98 214.813C1165.64 227.628 1161.86 242.153 1156.37 255.77C1150.08 271.371 1142.44 283.569 1133.03 293.06C1127.58 298.547 1121.32 303.218 1114.43 306.942C1107.01 310.947 1098.58 314.008 1089.37 316.037C1078.83 318.36 1068.25 319.284 1057.86 319.284Z" fill="#FFE492"/>
<path d="M1071.6 322.298C1063.91 322.298 1055.86 321.719 1047.35 320.563C1030.6 318.288 1014.57 314.158 1000.42 310.517C982.585 305.927 963.965 300.216 945.078 293.545C929.964 288.177 915.158 282.311 901.075 276.109C860.652 258.327 825.827 234.682 787.729 207.867C784.343 205.484 780.905 203.053 777.581 200.701C764.489 191.443 750.954 181.87 737.163 172.825C704.576 151.498 669.316 137.988 632.36 132.67C585.745 125.962 535.256 131.75 482.303 149.874C455.131 159.174 428.444 170.899 405.13 183.782C387.576 193.482 373.126 204.919 357.827 217.028C356.273 218.259 354.712 219.493 353.142 220.732C349.235 223.819 345.028 227.134 340.747 230.451C331.771 237.431 320.832 245.385 307.762 251.433C293.132 258.204 278.106 261.617 261.829 261.864C232.031 262.318 201.7 254.679 172.366 247.292L171.25 247.011C156.887 243.396 141.694 239.743 127.901 237.525C85.8589 230.766 42.0423 226.073 4.52637 224.311L4.57693 223.675C42.1324 225.438 85.9886 230.134 128.068 236.9C141.901 239.125 157.12 242.783 171.505 246.403L172.621 246.684C201.891 254.054 232.161 261.675 261.813 261.224C296.058 260.703 319.709 245.908 340.165 229.996C344.445 226.681 348.648 223.367 352.555 220.281C354.125 219.043 355.686 217.808 357.24 216.579C372.565 204.449 387.042 192.992 404.653 183.259C428.011 170.35 454.748 158.604 481.971 149.287C506.816 140.785 531.264 134.926 554.633 131.876C581.335 128.391 607.538 128.446 632.514 132.039C669.61 137.377 705 150.934 737.697 172.335C751.499 181.389 765.041 190.965 778.139 200.228C781.463 202.579 784.902 205.009 788.287 207.392C826.348 234.182 861.136 257.801 901.486 275.552C915.549 281.745 930.333 287.602 945.425 292.963C964.286 299.624 982.875 305.326 1000.68 309.91C1028.6 317.096 1063.34 326.037 1097.59 319.186C1115.86 315.532 1130.1 308.041 1141.13 296.282C1161.91 274.129 1167.92 240.739 1172.75 213.908C1174.63 203.457 1176.41 193.586 1178.82 185.552C1179.58 183.019 1180.35 180.41 1181.09 177.886C1184.93 164.773 1188.92 151.212 1194.88 138.099C1204.1 117.692 1221.61 90.393 1252.69 76.2262C1261.27 72.3147 1270.12 69.4347 1279.75 67.4227C1304.94 62.0832 1334.94 63.8108 1368.9 72.5547C1395.76 79.4704 1421.59 91.0398 1443.58 106.013C1468.18 122.722 1489.26 143.79 1506.23 168.64C1514.01 180.037 1520.89 192.211 1526.68 204.822C1532.2 216.868 1536.76 229.377 1540.23 242.002L1539.42 242.134C1524.15 186.505 1489.92 138.333 1443.03 106.492C1421.12 91.5742 1395.4 80.0491 1368.64 73.1589C1334.84 64.4542 1305 62.7317 1279.96 68.0372C1270.41 70.0338 1261.62 72.8917 1253.1 76.7742C1222.24 90.8423 1204.83 118.002 1195.66 138.308C1189.71 151.387 1185.73 164.929 1181.89 178.025C1181.15 180.55 1180.38 183.161 1179.62 185.695C1177.22 193.702 1175.45 203.559 1173.57 213.995C1171.14 227.496 1168.38 242.798 1163.67 257.241C1158.26 273.837 1151.11 286.73 1141.8 296.657C1136.49 302.32 1130.27 307.096 1123.33 310.851C1115.86 314.897 1107.27 317.91 1097.8 319.803C1089.48 321.467 1080.8 322.298 1071.6 322.298Z" fill="#FFE492"/>
<path d="M1084.26 325.482C1075.05 325.482 1065.34 324.558 1054.96 322.704C1038.15 319.703 1021.97 314.723 1007.7 310.328C989.729 304.796 971.12 298.159 952.385 290.6C937.37 284.515 922.662 277.948 908.672 271.08C870.173 252.195 837.153 227.855 802.194 202.088C800.464 200.813 798.733 199.536 796.999 198.26C780.742 186.29 763.933 173.912 746.409 162.474C713.255 140.876 676.926 128.192 638.432 124.774C590.08 120.479 537.914 130.285 483.38 153.916C456.102 165.735 428.721 180.634 406.279 195.866C389.334 207.368 375.743 220.309 361.355 234.011C359.651 235.633 357.943 237.261 356.221 238.891C352.783 242.154 348.692 246.023 344.409 249.981C336.477 257.329 325.67 266.667 312.378 273.691C297.981 281.301 282.922 285.181 266.339 285.547C252.709 285.81 237.668 284.181 220.353 280.564C205.487 277.46 191.107 273.402 175.195 268.806C160.67 264.559 145.341 260.173 131.588 257.276C90.8487 248.694 47.817 241.179 3.69043 234.935L3.84871 234.267C48.0016 240.512 91.0576 248.033 131.818 256.619C145.609 259.524 160.961 263.918 175.503 268.168C202.174 275.873 235.368 285.467 266.315 284.866C301.696 284.083 324.435 267.426 343.734 249.541C348.015 245.587 352.104 241.72 355.54 238.459C357.261 236.828 358.969 235.201 360.671 233.581C375.084 219.856 388.699 206.893 405.699 195.354C428.186 180.091 455.62 165.164 482.951 153.322C537.65 129.62 589.996 119.788 638.533 124.098C657.142 125.751 675.422 129.589 692.86 135.506C711.571 141.853 729.778 150.753 746.976 161.955C764.52 173.405 781.34 185.79 797.606 197.768C799.34 199.046 801.073 200.321 802.803 201.596C837.729 227.341 870.72 251.657 909.144 270.507C923.115 277.364 937.801 283.923 952.794 289.998C971.502 297.545 990.083 304.173 1008.02 309.696C1036.22 318.377 1071.31 329.181 1106.01 322.915C1124.81 319.521 1139.15 311.984 1149.84 299.875C1170.43 276.747 1174.09 241.415 1177.04 213.027C1178.1 202.874 1179.09 193.284 1180.75 185.529C1181.09 183.929 1181.43 182.321 1181.77 180.704C1184.85 166.098 1188.04 150.993 1193.58 136.253C1201.49 115.051 1217.32 86.3022 1247.84 69.7439C1256.35 65.1243 1265.23 61.5703 1274.99 58.8775C1288.56 55.1005 1303.68 53.3252 1319.92 53.5975C1334.76 53.846 1350.6 55.7983 1367 59.3983C1394.83 65.5039 1421.44 76.5967 1443.95 91.4767C1469.16 108.103 1490.4 129.376 1507.08 154.702C1514.74 166.323 1521.37 178.746 1526.78 191.628C1531.97 203.965 1536.07 216.755 1538.96 229.642L1538.09 229.758C1525.5 173.603 1490.98 123.39 1443.38 91.9941C1420.96 77.1788 1394.47 66.132 1366.76 60.0503C1332.59 52.5507 1300.96 52.3669 1275.28 59.5158C1265.6 62.1881 1256.78 65.7149 1248.34 70.2988C1218.03 86.743 1202.29 115.344 1194.42 136.44C1188.89 151.141 1185.71 166.224 1182.63 180.811C1182.29 182.428 1181.95 184.038 1181.61 185.638C1179.96 193.364 1178.97 202.942 1177.92 213.08C1174.96 241.55 1171.28 276.983 1150.56 300.26C1145.41 306.096 1139.24 310.981 1132.25 314.775C1124.72 318.857 1115.96 321.819 1106.21 323.579C1099.18 324.845 1091.89 325.482 1084.26 325.482Z" fill="#FFE492"/>
<path d="M1096.16 328.796C1085.66 328.796 1074.54 327.481 1062.56 324.843C1045.61 321.11 1029.33 315.281 1014.97 310.138C996.827 303.64 978.226 296.074 959.687 287.655C944.779 280.864 930.171 273.594 916.263 266.052C882.019 247.485 852.751 224.739 821.765 200.658C816.699 196.72 811.461 192.651 806.264 188.649C787.995 174.589 772.395 162.996 755.65 152.121C721.904 130.237 684.509 118.378 644.5 116.874C594.227 114.983 540.376 128.804 484.449 157.953C456.665 172.435 429.308 190.188 407.419 207.944C390.928 221.321 378.037 235.883 364.389 251.299C362.698 253.209 361.001 255.126 359.293 257.044C356.25 260.467 352.223 264.978 348.066 269.5C330.571 288.578 307.714 308.218 270.844 309.223C269.695 309.252 268.54 309.265 267.388 309.265C238.598 309.265 209.205 300.443 179.135 290.593L177.258 289.973C162.364 285.051 148.294 280.402 135.27 277.018C86.1907 264.266 38.7248 253.502 2.85547 245.549L3.11269 244.853C38.9908 252.809 86.4699 263.575 135.567 276.332C148.626 279.725 162.711 284.38 177.625 289.308L179.5 289.927C210.672 300.138 241.113 309.247 270.811 308.501C307.272 307.507 329.938 288.018 347.303 269.083C351.458 264.564 355.481 260.057 358.524 256.635C360.232 254.715 361.927 252.801 363.617 250.891C377.287 235.451 390.198 220.865 406.741 207.446C428.675 189.652 456.087 171.863 483.926 157.352C509.764 143.885 535.61 133.544 560.747 126.615C589.588 118.664 617.783 115.144 644.544 116.15C684.759 117.662 722.344 129.578 756.247 151.565C773.017 162.457 788.632 174.062 806.919 188.133C812.118 192.135 817.357 196.206 822.424 200.143C853.38 224.201 882.619 246.925 916.798 265.454C930.685 272.988 945.271 280.246 960.157 287.027C978.67 295.435 997.242 302.99 1015.36 309.478C1043.8 319.665 1079.2 332.343 1114.44 326.635C1133.69 323.515 1148.12 315.934 1158.54 303.459C1178.87 279.277 1180.09 241.958 1181.07 211.972C1181.39 202.188 1181.7 192.945 1182.67 185.498L1182.69 185.328C1184.86 168.652 1187.11 151.41 1192.27 134.397C1196.73 119.558 1202.95 106.217 1210.75 94.7408C1219.54 81.8029 1230.39 71.2089 1242.98 63.2514C1251.4 57.9272 1260.32 53.6974 1270.22 50.322C1296.99 41.1493 1329.8 39.7331 1365.09 46.2301C1379.3 48.8446 1393.31 52.8054 1406.74 58.0003C1420.25 63.2259 1432.89 69.597 1444.32 76.9331C1470.14 93.4795 1491.55 114.954 1507.94 140.76C1522.67 163.954 1532.96 190.414 1537.68 217.275L1536.76 217.372C1526.64 159.881 1492.74 108.896 1443.73 77.4897C1420.81 62.7799 1393.54 52.2131 1364.88 46.9382C1329.79 40.4786 1297.19 41.8795 1270.6 50.9893C1260.77 54.3391 1251.93 58.5348 1243.57 63.8165C1220.06 78.6744 1202.64 103.139 1193.18 134.566C1188.04 151.534 1185.79 168.753 1183.62 185.405L1183.6 185.575C1182.63 192.995 1182.33 202.223 1182.01 211.994C1181.02 242.072 1179.79 279.504 1159.32 303.856C1154.3 309.871 1148.18 314.862 1141.14 318.688C1133.55 322.814 1124.63 325.727 1114.63 327.349C1108.67 328.312 1102.53 328.796 1096.16 328.796Z" fill="#FFE492"/>
<path d="M271.528 332.965C258.654 332.965 244.635 331.023 228.813 327.057C213.092 323.116 197.544 317.676 183.083 312.386C180.465 311.423 177.866 310.461 175.286 309.506C162.438 304.752 150.303 300.262 138.961 296.764C93.7376 282.822 50.6311 270.291 8.94258 258.175L2.03516 256.166L2.3825 255.45L9.28992 257.458C50.9806 269.578 94.0937 282.109 139.326 296.054C150.698 299.561 162.849 304.056 175.712 308.817C178.291 309.772 180.889 310.733 183.505 311.695C213.191 322.555 244.729 333.079 275.318 332.141C312.919 330.929 335.453 308.25 350.882 288.629C354.834 283.612 358.642 278.611 361.518 274.815C363.105 272.723 364.681 270.633 366.253 268.548C379.29 251.263 391.603 234.936 407.796 219.542C429.172 199.225 456.557 178.571 484.912 161.388C511.219 145.446 537.764 132.851 563.816 123.952C593.696 113.744 622.883 108.447 650.563 108.207C692.214 107.727 730.899 118.822 765.529 141.179C784.725 153.588 801.937 167.011 816.244 178.505C824.029 184.76 831.813 191.172 839.343 197.373C865.994 219.326 893.553 242.023 924.461 260.408C938.267 268.623 952.759 276.582 967.53 284.063C985.81 293.3 1004.37 301.78 1022.71 309.266C1051.37 320.967 1087.03 335.528 1122.86 330.361C1142.59 327.516 1157.1 319.891 1167.24 307.048C1187.31 281.77 1185.95 242.406 1184.86 210.777C1184.54 201.424 1184.23 192.589 1184.6 185.475C1185.43 169.44 1186.67 150.803 1190.97 132.549C1194.6 117.082 1200.07 103.089 1207.24 90.9595C1215.35 77.2386 1225.75 65.7356 1238.13 56.7688C1246.34 50.8267 1255.54 45.7833 1265.47 41.7765C1279.64 36.0403 1295.54 32.4335 1312.73 31.0582C1328.83 29.7697 1345.81 30.4471 1363.19 33.0701C1377.85 35.2829 1392.29 38.922 1406.13 43.8888C1420.05 48.8863 1433.03 55.1127 1444.7 62.3944C1458.16 70.7791 1470.53 80.6803 1481.48 91.8242C1491.85 102.382 1501.04 114.158 1508.8 126.822C1523.32 150.514 1532.87 177.52 1536.42 204.915L1535.43 204.992C1527.8 146.161 1494.51 94.4046 1444.08 62.9918C1420.99 48.5884 1392.19 38.2292 1363 33.8224C1326.9 28.3739 1293.34 31.3595 1265.93 42.4556C1256.07 46.4301 1246.95 51.4344 1238.81 57.3288C1215.47 74.2242 1199.7 99.5774 1191.94 132.687C1187.65 150.891 1186.41 169.496 1185.59 185.506C1185.22 192.594 1185.53 201.416 1185.85 210.757C1186.39 226.36 1187 244.047 1184.96 261.145C1182.59 280.985 1177.07 296.131 1168.09 307.448C1163.2 313.641 1157.13 318.738 1150.04 322.599C1142.39 326.769 1133.31 329.634 1123.05 331.113C1117.87 331.86 1112.7 332.199 1107.55 332.199C1076.76 332.199 1046.92 320.015 1022.25 309.942C1003.89 302.444 985.295 293.952 966.991 284.701C952.198 277.21 937.687 269.239 923.861 261.012C892.889 242.59 865.302 219.869 838.624 197.896C831.096 191.697 823.314 185.286 815.534 179.034C801.246 167.554 784.059 154.149 764.898 141.765C730.455 119.526 691.996 108.497 650.578 108.97C585.534 109.535 524.919 138.112 485.523 161.988C457.225 179.137 429.895 199.746 408.566 220.022C392.421 235.37 380.125 251.671 367.108 268.929C365.536 271.014 363.958 273.104 362.371 275.198C359.493 278.995 355.683 284 351.728 289.023C345.251 297.259 335.084 309.249 321.616 318.236C315.076 322.601 308.116 326.03 300.929 328.432C292.916 331.11 284.311 332.614 275.36 332.902C274.091 332.944 272.814 332.965 271.528 332.965Z" fill="#FFE492"/>
<path d="M275.661 356.661C262.772 356.661 248.781 354.569 233.043 350.3C216.748 345.881 200.638 339.668 187.03 334.172C182.848 332.48 178.676 330.764 174.64 329.105C163.357 324.466 152.699 320.083 142.651 316.506C106.564 303.655 70.7118 291.108 36.0384 278.974C24.5693 274.96 12.7111 270.81 1.21777 266.78L1.64865 266.043C13.142 270.073 25.0002 274.223 36.4693 278.237C71.1427 290.371 106.999 302.919 143.088 315.772C153.163 319.36 163.834 323.746 175.13 328.392C179.164 330.051 183.337 331.765 187.514 333.457C215.737 344.851 248.473 356.912 279.821 355.777C318.308 354.351 339.925 329.586 354.461 308.172C358.187 302.686 361.791 297.178 364.512 292.992C365.91 290.844 367.3 288.698 368.687 286.557C381.156 267.297 392.933 249.106 408.854 231.638C429.561 208.917 456.925 185.403 485.9 165.425C526.252 137.723 588.618 103.932 656.58 100.267C699.801 97.874 739.581 108.145 774.811 130.797C790.639 140.979 806.292 152.723 825.568 168.882C835.309 177.047 844.976 185.51 854.323 193.692C878.644 214.98 903.79 236.994 932.125 255.369C945.852 264.272 960.245 272.931 974.904 281.105C992.654 290.992 1011.21 300.398 1030.06 309.062C1059 322.289 1095.03 338.754 1131.29 334.094C1151.17 331.592 1166.2 323.702 1175.95 310.647C1195.73 284.225 1191.49 240.998 1188.39 209.435C1187.52 200.577 1186.69 192.211 1186.53 185.462C1186.17 170.463 1186.2 150.686 1189.67 130.711C1195.66 96.0987 1210.33 69.0417 1233.29 50.2961C1241.33 43.6919 1250.56 37.954 1260.71 33.2408C1275.15 26.5276 1291.44 22.0118 1309.14 19.8212C1325.81 17.7582 1343.35 17.7906 1361.29 19.9182C1376.42 21.7531 1391.3 25.0791 1405.51 29.8008C1419.87 34.5702 1433.18 40.6467 1445.08 47.8621C1458.84 56.1991 1471.41 66.1344 1482.44 77.394C1492.89 88.0646 1502.05 100.007 1509.66 112.892C1523.95 137.083 1532.77 164.633 1535.15 192.565L1534.11 192.618C1528.97 132.444 1496.29 79.9149 1444.44 48.5004C1420.93 34.2484 1391.34 24.3812 1361.13 20.7182C1323.88 16.3012 1289.35 20.8714 1261.25 33.9353C1251.19 38.6093 1242.03 44.3012 1234.05 50.8527C1211.24 69.474 1196.66 96.3778 1190.71 130.82C1187.25 150.74 1187.22 170.478 1187.58 185.449C1187.74 192.174 1188.56 200.529 1189.43 209.375C1191.03 225.69 1192.85 244.184 1191.81 262.238C1190.6 283.261 1185.71 299.229 1176.85 311.054C1172.09 317.432 1166.07 322.64 1158.95 326.535C1151.23 330.758 1141.98 333.569 1131.46 334.894C1115.15 336.989 1097.6 335.107 1077.79 329.137C1060.57 323.947 1044.08 316.41 1029.53 309.762C1010.65 301.086 992.074 291.666 974.297 281.765C959.616 273.58 945.203 264.909 931.457 255.993C903.062 237.581 877.888 215.544 853.543 194.233C844.199 186.053 834.535 177.595 824.803 169.437C805.56 153.307 789.936 141.585 774.145 131.426C739.124 108.904 699.597 98.6944 656.651 101.072C588.981 104.723 526.821 138.41 486.59 166.029C457.672 185.966 430.366 209.432 409.703 232.104C393.826 249.523 382.067 267.689 369.617 286.919C368.23 289.062 366.84 291.209 365.442 293.357C362.718 297.546 359.113 303.059 355.382 308.55C340.719 330.155 318.884 355.141 279.867 356.586C278.479 356.635 277.075 356.661 275.661 356.661Z" fill="#FFE492"/>
<path d="M279.878 380.359C244.659 380.359 207.706 363.612 174.947 348.764C164.881 344.203 155.373 339.893 146.337 336.249L0.399902 277.394L0.907749 276.64L146.845 335.494C155.905 339.147 165.424 343.462 175.504 348.031C209.528 363.452 248.095 380.931 284.323 379.416C323.659 377.774 344.381 350.924 358.04 327.719C362.507 320.129 366.821 312.407 370.993 304.938C382.405 284.512 394.204 263.391 409.907 243.733C422.377 228.124 437.867 211.755 454.702 196.397C473.171 179.547 492.946 164.088 513.472 150.451C536.105 135.416 559.118 122.979 581.869 113.486C607.035 102.987 631.826 96.1326 655.56 93.1113C703.105 87.0602 746.348 96.2432 784.084 120.408C815.444 140.488 842.098 165.319 867.874 189.333C890.311 210.235 913.511 231.847 939.782 250.322C970.127 271.66 1002.97 291.351 1037.4 308.848C1066.41 323.59 1102.51 341.939 1139.72 337.815C1171.14 334.332 1189.31 318.053 1195.26 288.044C1200.32 262.519 1195.51 232.24 1191.64 207.911C1190.32 199.62 1189.08 191.789 1188.46 185.438C1185.09 150.429 1187.24 121.528 1195.04 97.0875C1199.9 81.8381 1207.07 68.2449 1216.36 56.6858C1226.74 43.7734 1240.06 33.0091 1255.95 24.6925C1269.7 17.4976 1285.2 12.2721 1302.01 9.16061C1318.02 6.1989 1334.87 5.20656 1352.11 6.21082C1385.99 8.18529 1419.14 17.8125 1445.45 33.3172C1459.51 41.6049 1472.27 51.576 1483.39 62.9513C1493.92 73.7326 1503.05 85.8432 1510.52 98.9496C1524.58 123.639 1532.66 151.736 1533.87 180.201L1532.77 180.23C1530.18 119.613 1497.29 64.9462 1444.78 33.9964C1389.02 1.12826 1309.86 -2.48876 1256.56 25.3989C1203.77 53.0245 1181.85 105.353 1189.56 185.375C1190.17 191.705 1191.41 199.527 1192.73 207.808C1196.6 232.189 1201.43 262.533 1196.34 288.174C1193.57 302.14 1188.01 313.363 1179.8 321.535C1175.18 326.129 1169.62 329.884 1163.26 332.693C1156.49 335.682 1148.62 337.689 1139.87 338.659C1136.29 339.055 1132.66 339.255 1128.96 339.255C1115.47 339.255 1101.11 336.615 1085.37 331.266C1067.65 325.241 1050.54 316.546 1036.79 309.561C1002.32 292.039 969.428 272.322 939.039 250.953C912.709 232.439 889.485 210.802 867.023 189.877C841.28 165.894 814.659 141.094 783.378 121.065C745.895 97.0654 702.949 87.942 655.732 93.9522C560.219 106.109 461.832 180.349 410.835 244.182C395.173 263.786 383.39 284.878 371.993 305.277C367.819 312.749 363.503 320.477 359.032 328.073C349.963 343.479 341.007 354.511 330.846 362.786C324.503 367.951 317.622 372.022 310.394 374.887C302.356 378.072 293.602 379.883 284.373 380.269C282.883 380.329 281.381 380.359 279.878 380.359Z" fill="#FFE492"/>
</g>
</svg>
