<svg width="256" height="43" viewBox="0 0 256 43" fill="none" xmlns="http://www.w3.org/2000/svg">
<path d="M216.573 14.3119C216.26 14.3408 215.943 14.363 215.637 14.4026C215.437 14.4276 215.35 14.3697 215.217 14.3414C215.172 14.3315 215.124 14.3109 215.083 14.3145C214.773 14.3433 214.463 14.3749 214.152 14.4064C214.059 14.4616 214 14.5337 213.855 14.5629C213.713 14.5906 213.545 14.5944 213.387 14.6103C213.178 14.63 212.969 14.6497 212.76 14.668C212.656 14.6772 212.571 14.705 212.537 14.7548C212.531 14.7631 212.601 14.7819 212.639 14.7933C212.767 14.8312 212.892 14.8746 213.032 14.9027C213.166 14.9296 213.329 14.8769 213.473 14.9117C213.795 14.9901 213.798 14.9887 214.042 14.9668C214.251 14.9471 214.459 14.9261 214.668 14.9104C214.71 14.9068 214.758 14.9261 214.802 14.936C214.936 14.9629 215.023 15.0289 215.219 14.9986C215.368 14.9748 215.532 14.967 215.687 14.9526C215.818 14.9891 215.94 15.0312 216.08 15.0593C216.211 15.0863 216.249 15.1085 216.18 15.1496C216.118 15.1877 216.029 15.2047 215.912 15.2101C215.808 15.2138 215.703 15.2284 215.599 15.2376C215.545 15.2429 215.494 15.2468 215.444 15.252C215.244 15.2715 215.244 15.2715 214.878 15.1928C214.734 15.162 214.574 15.2133 214.437 15.1838C214.344 15.1641 214.264 15.1333 214.175 15.1122C214.137 15.1035 214.077 15.1035 214.029 15.1073C213.871 15.1204 213.713 15.1308 213.561 15.152C213.453 15.1667 213.391 15.2062 213.404 15.244C213.408 15.2589 213.484 15.2789 213.529 15.2792C213.63 15.2797 213.738 15.2582 213.836 15.2655C213.931 15.2728 214.03 15.2978 214.101 15.3261C214.245 15.3854 214.405 15.326 214.542 15.3392C214.685 15.3537 214.803 15.4054 214.941 15.4349C214.976 15.4423 215.042 15.4272 215.096 15.4219C215.251 15.4088 215.406 15.3971 215.561 15.3841C215.692 15.4206 215.832 15.4528 215.95 15.495C216.165 15.5718 216.394 15.5979 216.668 15.5521C216.823 15.5269 216.976 15.5316 217.1 15.5818C217.228 15.6333 217.374 15.6246 217.536 15.61C217.684 15.5957 217.836 15.5624 217.989 15.597C218.32 15.6738 218.324 15.6778 218.713 15.6363C218.83 15.6241 218.918 15.6194 219.008 15.6487C219.091 15.6754 219.18 15.6978 219.267 15.7231C219.422 15.71 219.58 15.6969 219.735 15.6825C219.934 15.663 220.046 15.6795 220.095 15.7546C220.124 15.8002 220.138 15.842 220.209 15.8717C220.292 15.908 220.381 15.9046 220.501 15.891C220.615 15.8788 220.697 15.862 220.743 15.812C220.762 15.7911 220.799 15.7712 220.834 15.7541C220.862 15.7412 220.906 15.7212 220.931 15.7233C220.979 15.7277 221.043 15.7412 221.059 15.7585C221.218 15.9195 221.218 15.9209 221.378 15.9649C221.553 16.014 221.735 16.0575 221.895 16.1137C222.039 16.1635 222.181 16.1372 222.336 16.1336C222.454 16.131 222.53 16.1646 222.522 16.2002C222.516 16.2207 222.472 16.2516 222.434 16.2552C222.124 16.2895 221.811 16.3198 221.498 16.3459C221.46 16.3495 221.412 16.3261 221.367 16.3149C221.278 16.2924 221.197 16.2561 221.102 16.2501C221.007 16.2441 220.896 16.2671 220.792 16.2762C220.688 16.2854 220.577 16.3056 220.482 16.2969C220.386 16.2882 220.309 16.2505 220.22 16.2266C220.179 16.2153 220.121 16.199 220.086 16.2038C219.856 16.2417 219.683 16.2007 219.517 16.1446C219.482 16.1332 219.422 16.1264 219.377 16.1301C219.01 16.1616 218.646 16.1971 218.279 16.2313C218.131 16.2456 218.009 16.2007 217.975 16.1212C217.959 16.0767 217.926 16.0325 217.925 15.9876C217.923 15.906 217.748 15.8651 217.621 15.8775C217.412 15.8958 217.2 15.9116 216.994 15.9366C216.827 15.9568 216.684 15.9437 216.569 15.8973C216.434 15.8446 216.282 15.8589 216.131 15.8774C216.017 15.8908 215.986 15.9364 215.995 16.0492C216.003 16.1402 215.95 16.1699 215.744 16.1896C215.485 16.2145 215.222 16.2396 214.96 16.2605C214.918 16.2642 214.87 16.2421 214.829 16.2308C214.74 16.2083 214.659 16.1707 214.564 16.1647C214.469 16.1573 214.358 16.1803 214.254 16.1908C214.15 16.2 214.039 16.2215 213.944 16.2142C213.848 16.2068 213.768 16.1678 213.682 16.1439C213.641 16.1326 213.589 16.1161 213.548 16.1198C213.339 16.1354 213.131 16.1565 212.922 16.1762C212.688 16.1978 212.688 16.1978 212.353 16.1211C212.2 16.0865 212.048 16.1198 211.9 16.1341C211.741 16.1486 211.592 16.1574 211.468 16.1058C211.384 16.0723 211.292 16.0527 211.194 16.0617C210.931 16.084 210.672 16.1103 210.409 16.1326C210.365 16.1363 210.304 16.1309 210.269 16.1195C210.1 16.0662 209.934 16.025 209.7 16.0589C209.498 16.088 209.279 16.0943 209.077 16.1221C208.966 16.1368 208.916 16.1815 208.939 16.215C208.953 16.2324 209.02 16.2513 209.064 16.2503C209.165 16.2493 209.276 16.2264 209.371 16.2324C209.568 16.2442 209.669 16.3563 209.925 16.3191C210.077 16.2966 210.235 16.2862 210.393 16.2772C210.435 16.2749 210.479 16.2997 210.524 16.3123C210.652 16.3462 210.764 16.3912 210.947 16.3626C211.099 16.3401 211.26 16.331 211.415 16.3166C211.662 16.2933 211.662 16.2946 211.984 16.3703C212.137 16.4063 212.289 16.3716 212.438 16.3587C212.548 16.3493 212.653 16.3334 212.742 16.3504C212.879 16.3758 212.978 16.4389 213.146 16.431C213.305 16.4233 213.46 16.4007 213.618 16.3903C213.716 16.384 213.809 16.4037 213.889 16.4386C213.972 16.4735 214.061 16.4878 214.169 16.4771C214.324 16.4627 214.482 16.4455 214.64 16.4351C214.684 16.4328 214.736 16.4438 214.777 16.4538C214.866 16.4763 214.952 16.5029 215.039 16.5268C215.194 16.5151 215.352 16.5088 215.504 16.489C215.621 16.4741 215.704 16.4776 215.799 16.5027C215.921 16.5367 216.02 16.5997 216.216 16.564C216.314 16.5468 216.428 16.5483 216.526 16.5324C216.646 16.512 216.729 16.5169 216.815 16.5558C216.979 16.6296 217.182 16.6264 217.39 16.5917C217.618 16.5539 217.79 16.5881 217.962 16.644C218.144 16.7025 218.144 16.7011 218.287 16.8489C218.329 16.8915 218.447 16.9092 218.545 16.8988C218.71 16.8815 218.853 16.885 218.974 16.934C219.102 16.9869 219.254 16.9766 219.409 16.9581C219.615 16.933 219.82 16.9107 219.99 16.9857C220.073 17.022 220.162 17.0294 220.273 17.0174C220.586 16.9858 220.903 16.9636 221.21 16.9267C221.396 16.9034 221.505 16.9445 221.633 16.9783C221.805 17.0248 221.993 17.0654 221.996 17.1728C221.996 17.1905 222.041 17.2099 222.079 17.2227C222.162 17.2493 222.252 17.2718 222.338 17.2971C222.466 17.335 222.59 17.3662 222.764 17.3404C222.915 17.3193 223.077 17.3102 223.232 17.2944C223.387 17.2787 223.53 17.2686 223.67 17.3171C223.833 17.3719 224.006 17.4238 224.19 17.4631C224.321 17.4915 224.491 17.4345 224.632 17.4735C224.718 17.4974 224.801 17.5255 224.893 17.5451C224.931 17.5538 224.992 17.5456 225.042 17.5418C225.147 17.5339 225.254 17.5274 225.356 17.5115C225.472 17.4939 225.561 17.4946 225.651 17.5239C225.734 17.5505 225.817 17.5881 225.912 17.5941C226.055 17.6031 226.213 17.5451 226.357 17.6044C226.43 17.634 226.523 17.6619 226.618 17.6692C226.713 17.6766 226.824 17.6537 226.925 17.6527C226.97 17.6517 227.024 17.6723 227.05 17.6894C227.066 17.6985 227.044 17.7249 227.023 17.739C226.994 17.7559 226.954 17.7786 226.913 17.7823C226.599 17.8139 226.286 17.8414 225.973 17.8717C225.786 17.8895 225.786 17.8895 225.407 17.8124C225.318 17.7941 225.219 17.8004 225.109 17.8124C224.96 17.828 224.808 17.8546 224.653 17.8337C224.448 17.7458 224.197 17.7433 223.932 17.7847C223.821 17.8022 223.72 17.8045 223.636 17.7806C223.461 17.7328 223.276 17.6894 223.119 17.6317C222.998 17.5869 222.941 17.5841 222.891 17.6505C222.876 17.6713 222.861 17.6934 222.864 17.7124C222.885 17.7799 222.921 17.8458 222.942 17.9134C222.949 17.9323 222.924 17.9546 222.908 17.9754C222.859 18.0336 222.792 18.0311 222.68 17.986C222.568 17.9409 222.435 17.9127 222.258 17.9385C222.106 17.961 221.941 17.962 221.789 17.9858C221.555 18.0211 221.39 17.9813 221.22 17.9267C221.185 17.9152 221.125 17.9098 221.08 17.9135C220.609 17.9555 220.141 18.0015 219.669 18.0436C219.568 18.0527 219.475 18.0344 219.395 17.9994C219.312 17.9646 219.22 17.9476 219.118 17.9567C218.701 17.9948 218.283 18.0302 217.865 18.075C217.694 18.0939 217.558 18.0793 217.439 18.0344C217.35 18.001 217.267 17.992 217.156 17.9986C217.036 18.0054 216.951 18.021 216.891 18.0618C216.835 18.1012 216.877 18.1234 217.004 18.1504C217.141 18.1799 217.269 18.2192 217.4 18.2544C217.504 18.2465 217.609 18.2333 217.71 18.2323C217.755 18.2313 217.796 18.2549 217.841 18.2674C217.969 18.304 218.087 18.3408 218.267 18.3149C218.419 18.2924 218.58 18.2847 218.735 18.2689C218.951 18.249 218.951 18.249 219.301 18.3268C219.391 18.3465 219.486 18.343 219.599 18.3282C219.697 18.3164 219.799 18.3332 219.87 18.3724C219.899 18.388 219.89 18.4155 219.832 18.5066C219.833 18.5732 219.899 18.5418 219.92 18.4978C219.954 18.4344 219.887 18.4155 219.761 18.4524C219.673 18.4789 219.629 18.5153 219.652 18.5434C219.665 18.558 219.726 18.5757 219.832 18.5066C220.109 18.4187 220.321 18.4043 220.523 18.3779C220.644 18.363 220.72 18.3667 220.816 18.3999C220.931 18.4394 221.046 18.4817 221.232 18.4557C221.435 18.4266 221.65 18.419 221.856 18.3939C222.045 18.3705 222.145 18.4282 222.266 18.4608C222.413 18.4996 222.574 18.4484 222.707 18.4698C222.847 18.4911 222.947 18.5487 223.109 18.5559C223.343 18.5139 223.493 18.5785 223.672 18.6194C223.812 18.6502 223.976 18.6165 224.125 18.5982C224.292 18.578 224.432 18.5898 224.551 18.6361C224.685 18.6889 224.834 18.6732 224.986 18.6575C225.34 18.6223 225.352 18.6179 225.56 18.688C225.71 18.739 225.853 18.7113 226.001 18.7011C226.132 18.7349 226.26 18.7714 226.397 18.801C226.432 18.8083 226.498 18.7932 226.552 18.7879C226.707 18.7735 226.865 18.759 227.02 18.7446C227.125 18.7354 227.235 18.7125 227.331 18.7185C227.426 18.7259 227.506 18.7635 227.592 18.7874C227.678 18.8113 227.768 18.8351 227.851 18.8605C227.979 18.8984 228.1 18.9297 228.277 18.9052C228.428 18.8841 228.587 18.875 228.745 18.8592C228.944 18.8397 228.938 18.8439 229.311 18.9171C229.512 18.9574 229.716 18.8984 229.919 18.8883C230.02 18.8833 230.119 18.896 230.19 18.9339C230.219 18.9495 230.21 18.9769 230.22 18.9998C229.698 19.0485 229.172 19.0917 228.657 19.1483C228.457 19.1705 228.352 19.124 228.243 19.0856C228.064 19.0244 227.832 19.1249 227.662 19.0444C227.559 18.9964 227.412 18.9711 227.239 18.9996C227.138 19.0155 227.03 19.0166 226.926 19.0312C226.66 19.0672 226.416 19.0741 226.201 18.985C226.128 18.9541 226.023 18.9388 225.946 18.9092C225.856 18.8772 225.77 18.8601 225.666 18.8693C225.194 18.9127 224.726 18.956 224.258 19.002C224.217 19.0057 224.176 19.027 224.141 19.0428C224.053 19.0829 224.083 19.1121 224.226 19.1334C224.274 19.1405 224.312 19.1573 224.357 19.1698C224.443 19.1937 224.523 19.2328 224.618 19.2401C224.714 19.2475 224.824 19.2259 224.929 19.2167C225.033 19.2076 225.144 19.1846 225.239 19.1906C225.334 19.198 225.414 19.2356 225.504 19.2581C225.545 19.2694 225.596 19.2886 225.638 19.2863C225.847 19.2734 226.052 19.2538 226.261 19.2368C226.392 19.2706 226.504 19.3211 226.66 19.3298C226.758 19.3357 226.862 19.3184 226.964 19.3188C227.008 19.3191 227.066 19.3383 227.088 19.3554C227.101 19.366 227.061 19.3942 227.029 19.4085C226.91 19.4629 226.745 19.4571 226.597 19.4768C226.435 19.4982 226.289 19.4961 226.164 19.4458C226.081 19.4123 225.989 19.3954 225.888 19.4045C225.625 19.4282 225.365 19.4545 225.103 19.4754C225.058 19.4791 225.004 19.4681 224.963 19.4595C224.628 19.3841 224.628 19.3814 224.394 19.4044C224.049 19.4381 224.049 19.4381 223.816 19.3713C223.771 19.3587 223.723 19.334 223.685 19.3362C223.318 19.3663 222.954 19.3963 222.59 19.4359C222.47 19.4482 222.388 19.45 222.298 19.4167C222.221 19.3885 222.132 19.3565 222.036 19.3505C221.938 19.3446 221.831 19.3674 221.726 19.3766C221.622 19.3858 221.511 19.406 221.419 19.3972C221.324 19.3885 221.24 19.3523 221.157 19.327C221.071 19.3003 220.979 19.3038 220.862 19.3173C220.502 19.3568 220.498 19.3528 220.138 19.2766C220.097 19.2681 220.043 19.2584 219.998 19.2621C219.736 19.2844 219.476 19.3107 219.214 19.333C219.112 19.3421 219.014 19.3267 218.943 19.2888C218.914 19.2732 218.923 19.2457 218.903 19.1931C218.88 19.1814 218.906 19.2026 218.913 19.2229C218.96 19.219 219.018 19.2205 219.052 19.2088C219.14 19.1809 219.184 19.1459 219.161 19.1179C219.148 19.1032 219.087 19.0855 219.049 19.0864C218.98 19.088 218.92 19.1193 218.903 19.1931C218.704 19.2426 218.492 19.2569 218.286 19.2834C218.166 19.2997 218.09 19.2946 217.994 19.2614C217.879 19.2205 217.761 19.181 217.574 19.207C217.372 19.2361 217.157 19.2451 216.948 19.2689C216.707 19.2961 216.6 19.1761 216.397 19.1834C216.188 19.1909 215.979 19.2188 215.771 19.2398C215.587 19.2576 215.587 19.2576 215.205 19.1779C215.064 19.1484 214.901 19.1997 214.764 19.1688C214.671 19.1492 214.591 19.1183 214.502 19.0972C214.464 19.0886 214.403 19.0899 214.356 19.0937C214.093 19.116 213.827 19.133 213.574 19.1687C213.287 19.2106 213.067 19.1775 212.859 19.1019C212.6 19.1228 212.337 19.1369 212.081 19.1686C211.894 19.1919 211.785 19.1495 211.658 19.1156C211.613 19.1044 211.575 19.0848 211.527 19.0805C211.479 19.0761 211.422 19.0883 211.372 19.0935C211.163 19.1132 210.948 19.125 210.745 19.154C210.496 19.191 210.398 19.0816 210.204 19.0724C210.076 19.142 210.008 19.2347 209.752 19.2474C209.543 19.2576 209.334 19.2841 209.125 19.3038C209.021 19.313 208.916 19.3235 208.812 19.3327C208.644 19.3488 208.566 19.4036 208.603 19.4844C208.623 19.5289 208.64 19.5734 208.657 19.6179C208.69 19.6974 208.612 19.7672 208.48 19.7798C208.112 19.814 207.749 19.8495 207.381 19.8809C207.283 19.89 207.188 19.869 207.108 19.8341C207.024 19.7993 206.932 19.785 206.831 19.7941C206.464 19.8283 206.1 19.8638 205.733 19.8953C205.692 19.899 205.637 19.8866 205.596 19.8766C205.507 19.8542 205.42 19.8276 205.334 19.8037C205.125 19.8207 204.919 19.8335 204.714 19.8545C204.382 19.8865 204.382 19.8879 204.136 19.8186C204.091 19.8061 204.046 19.7812 204.005 19.7835C203.847 19.7926 203.692 19.8097 203.533 19.8255C203.068 19.8715 203.068 19.8715 202.931 19.8338C202.807 19.7985 202.695 19.7548 202.508 19.7808C202.306 19.8099 202.09 19.823 201.881 19.8413C201.726 19.8544 201.571 19.8688 201.416 19.875C201.375 19.8773 201.33 19.8525 201.285 19.8399C201.158 19.8006 201.033 19.7694 200.859 19.7965C200.758 19.8124 200.65 19.8176 200.546 19.8268C200.274 19.852 200.274 19.852 199.825 19.7806C199.781 19.7734 199.726 19.7651 199.682 19.7702C199.315 19.803 198.951 19.8385 198.584 19.87C198.54 19.8737 198.486 19.8668 198.441 19.861C197.939 19.7935 197.939 19.7935 197.407 19.8437C197.204 19.8619 197.198 19.8675 196.984 19.8002C196.888 19.7711 196.809 19.758 196.698 19.77C196.28 19.8122 195.859 19.8435 195.445 19.891C195.258 19.9116 195.15 19.8732 195.022 19.8394C194.977 19.8282 194.929 19.8021 194.891 19.8043C194.473 19.8396 194.056 19.8804 193.638 19.9158C193.6 19.9194 193.552 19.8932 193.507 19.882C193.421 19.8595 193.338 19.8246 193.242 19.8186C193.144 19.8127 193.037 19.8355 192.929 19.8448C192.666 19.8685 192.666 19.8671 192.36 19.7938C192.319 19.7838 192.264 19.7701 192.223 19.7737C191.806 19.8105 191.385 19.8432 190.97 19.892C190.733 19.9192 190.57 19.8834 190.401 19.8301C190.366 19.8187 190.306 19.8146 190.261 19.8183C189.79 19.8604 189.322 19.9064 188.85 19.9484C188.752 19.9574 188.656 19.9365 188.576 19.9029C188.448 19.85 188.299 19.8602 188.141 19.8761C187.777 19.9129 187.774 19.9116 187.557 19.8512C187.512 19.8387 187.474 19.8218 187.426 19.8161C187.382 19.8103 187.325 19.8157 187.277 19.8195C187.068 19.8379 186.86 19.8576 186.651 19.8773C186.442 19.897 186.23 19.91 186.024 19.9378C185.771 19.9721 185.649 19.8864 185.47 19.8497C185.211 19.8733 184.945 19.8902 184.689 19.9246C184.493 19.9508 184.399 19.8931 184.269 19.8647C184.224 19.8549 184.176 19.8328 184.135 19.8365C183.663 19.8772 183.192 19.9205 182.723 19.9679C182.61 19.9787 182.533 19.9695 182.437 19.939C182.223 19.8704 182.214 19.8734 181.86 19.9086C181.705 19.9244 181.556 19.9387 181.421 19.8859C181.303 19.8383 181.16 19.8293 180.992 19.8494C180.787 19.8745 180.575 19.8902 180.366 19.9086C180.157 19.9283 179.948 19.9534 179.739 19.965C179.571 19.9756 179.469 19.914 179.335 19.8844C179.293 19.8758 179.236 19.8757 179.189 19.8795C178.98 19.8965 178.764 19.9109 178.562 19.9387C178.316 19.9728 178.178 19.9012 178.002 19.8616C177.964 19.8529 177.901 19.8598 177.853 19.865C177.486 19.8978 177.122 19.9333 176.755 19.9675C176.624 19.9337 176.49 19.9014 176.36 19.8676C176.151 19.886 175.942 19.9057 175.733 19.9241C175.575 19.9385 175.413 19.9463 175.265 19.9701C175.072 20.0017 174.975 19.9399 174.845 19.9116C174.8 19.9017 174.752 19.8797 174.711 19.8833C174.448 19.9043 174.185 19.9266 173.926 19.9556C173.679 19.9844 173.578 19.8642 173.375 19.8701C173.166 19.8763 172.951 19.8988 172.749 19.9279C172.515 19.9618 172.349 19.9221 172.18 19.8674C172.145 19.8559 172.084 19.8505 172.04 19.8542C171.777 19.8765 171.518 19.9029 171.255 19.9252C171.211 19.9289 171.157 19.9233 171.112 19.9162C170.61 19.8473 170.61 19.8459 170.391 19.8672C170.236 19.8816 170.078 19.8988 169.92 19.9092C169.875 19.913 169.821 19.902 169.78 19.892C169.448 19.8165 169.448 19.8152 169.211 19.8369C169.002 19.8566 168.793 19.8763 168.584 19.8961C168.453 19.8623 168.319 19.83 168.189 19.7962C167.929 19.8198 167.663 19.8394 167.407 19.8697C167.287 19.8834 167.208 19.8811 167.115 19.8492C167 19.811 166.885 19.766 166.695 19.7934C166.493 19.8225 166.277 19.8301 166.072 19.8552C165.825 19.8853 165.721 19.7638 165.521 19.7697C165.312 19.7759 165.097 19.7984 164.894 19.8275C164.661 19.8614 164.495 19.8216 164.325 19.767C164.29 19.7555 164.23 19.7501 164.186 19.7538C163.61 19.8064 163.037 19.8589 162.461 19.9141C162.106 19.948 162.107 19.9494 161.43 19.8899C161.382 19.8856 161.331 19.8813 161.284 19.8851C161.075 19.9021 160.859 19.9165 160.657 19.9443C160.41 19.9784 160.272 19.9081 160.097 19.8672C160.059 19.8585 159.999 19.8653 159.948 19.8692C159.79 19.8823 159.635 19.8981 159.477 19.9126C159.268 19.9323 159.059 19.952 158.85 19.9717C158.719 19.9393 158.585 19.9056 158.455 19.8732C158.195 19.8968 157.929 19.9124 157.673 19.9468C157.477 19.973 157.384 19.918 157.253 19.8883C157.208 19.8784 157.16 19.8564 157.119 19.8587C156.648 19.8993 156.176 19.9413 155.708 19.9901C155.515 20.0108 155.425 19.9516 155.294 19.9233C155.249 19.9148 155.198 19.8982 155.157 19.9019C154.844 19.9281 154.531 19.9583 154.217 19.9886C154.04 20.0062 154.04 20.0062 153.651 19.9307C153.607 19.9222 153.556 19.9138 153.512 19.9175C152.518 20.0082 151.527 20.1028 150.534 20.1934C150.432 20.2025 150.34 20.1842 150.26 20.1493C150.177 20.1144 150.084 20.0975 149.983 20.1066C149.565 20.1447 149.144 20.1801 148.73 20.2249C148.559 20.2438 148.422 20.2292 148.304 20.1842C148.215 20.1509 148.132 20.1392 148.021 20.1498C147.812 20.1709 147.603 20.1893 147.395 20.209C147.186 20.2287 146.977 20.2484 146.768 20.2681C146.559 20.2879 146.347 20.3008 146.141 20.3286C145.889 20.363 145.763 20.2815 145.588 20.2433C145.274 20.2708 144.961 20.2983 144.651 20.3271C144.233 20.3652 143.815 20.406 143.398 20.4427C143.36 20.4463 143.312 20.4229 143.267 20.4117C143.136 20.3806 143.04 20.3352 142.847 20.3545C141.911 20.448 140.967 20.5306 140.028 20.6228C139.831 20.6422 139.745 20.5856 139.611 20.5574C139.566 20.5489 139.515 20.531 139.474 20.5346C138.952 20.5805 138.43 20.6305 137.907 20.6791C137.695 20.6989 137.695 20.6989 137.338 20.6226C137.297 20.6141 137.243 20.603 137.198 20.6068C136.518 20.6685 135.841 20.7329 135.161 20.796C135.059 20.8051 134.967 20.7881 134.884 20.7533C134.804 20.7184 134.708 20.7001 134.61 20.7092C133.983 20.7669 133.354 20.8234 132.73 20.8852C132.563 20.9027 132.423 20.8936 132.301 20.8474C132.215 20.814 132.129 20.8009 132.021 20.8115C131.081 20.8996 130.142 20.9849 129.202 21.077C129.021 21.0947 128.894 21.0718 128.779 21.0295C128.686 20.9962 128.607 20.9912 128.493 20.9993C128.373 21.0088 128.3 21.0254 128.234 21.0677C128.15 21.1227 128.098 21.1906 127.895 21.1993C127.686 21.2081 127.474 21.2293 127.268 21.2571C127.072 21.2847 126.979 21.2255 126.855 21.1916C126.762 21.1679 126.676 21.1657 126.559 21.1806C126.452 21.194 126.386 21.2186 126.323 21.2636C126.186 21.3592 126.173 21.3595 126.001 21.3049C125.908 21.2757 125.825 21.2531 125.724 21.2609C125.306 21.2976 124.889 21.337 124.471 21.3778C124.23 21.401 124.227 21.4037 124.045 21.3399C123.956 21.3079 123.87 21.2935 123.765 21.304C122.616 21.4118 121.468 21.5168 120.319 21.6287C120.142 21.6463 120.021 21.6205 119.893 21.5826C119.852 21.5699 119.81 21.5518 119.762 21.5474C119.715 21.5431 119.661 21.5497 119.61 21.5536C118.775 21.6311 117.936 21.706 117.104 21.7902C116.914 21.8095 116.812 21.7683 116.681 21.7359C116.636 21.7246 116.598 21.7065 116.55 21.7021C116.502 21.6991 116.446 21.7099 116.395 21.7151C115.56 21.7926 114.721 21.8675 113.889 21.9517C113.69 21.9712 113.603 21.9161 113.472 21.8891C113.427 21.8792 113.379 21.8599 113.338 21.8635C113.075 21.8845 112.816 21.9108 112.553 21.9345C111.927 21.9936 111.3 22.05 110.674 22.1106C110.433 22.1337 110.326 22.015 110.123 22.0251C109.86 22.0379 109.601 22.071 109.338 22.096C109.129 22.1157 108.92 22.1341 108.712 22.1552C108.506 22.1748 108.506 22.1748 107.991 22.1076C107.946 22.1018 107.892 22.0935 107.848 22.0972C107.117 22.1642 106.383 22.2312 105.655 22.3022C105.487 22.3183 105.347 22.3146 105.226 22.267C105.139 22.2336 105.05 22.218 104.946 22.2285C103.848 22.331 102.753 22.4335 101.655 22.5346C101.614 22.5383 101.559 22.5259 101.518 22.516C101.429 22.4935 101.342 22.4669 101.256 22.443C101.194 22.4757 101.112 22.5062 101.071 22.5425C101.016 22.5914 100.94 22.6067 100.819 22.6176C100.699 22.6285 100.623 22.6275 100.527 22.5943C100.412 22.5534 100.294 22.522 100.107 22.5399C98.9587 22.6517 97.8099 22.7554 96.6613 22.8659C96.4714 22.8838 96.3814 22.826 96.2475 22.7977C96.2029 22.7892 96.1518 22.7754 96.1107 22.7791C95.6391 22.8211 95.1708 22.8657 94.6993 22.9091C93.3924 23.0314 92.0854 23.1495 90.7818 23.2771C90.5444 23.3002 90.382 23.2699 90.2127 23.2152C90.1775 23.2038 90.1171 23.1983 90.0728 23.2021C88.2437 23.3716 86.4147 23.5424 84.5888 23.7132C84.4907 23.7222 84.395 23.7026 84.315 23.6691C84.2317 23.6342 84.1394 23.6186 84.0382 23.6277C83.2027 23.7052 82.3673 23.7827 81.5319 23.8616C81.3231 23.8813 81.3199 23.8827 81.1029 23.8224C81.0582 23.8098 81.0101 23.785 80.9753 23.7885C80.9025 23.797 80.8335 23.8326 80.7839 23.88C80.7343 23.9301 80.6554 23.9455 80.5383 23.9577C80.4181 23.9699 80.3388 23.9676 80.2461 23.9371C80.1279 23.899 80.0192 23.862 79.8293 23.8799C77.4276 24.1087 75.0257 24.3306 72.624 24.558C72.4309 24.576 72.3408 24.5209 72.207 24.4927C72.1624 24.4842 72.1177 24.4716 72.0701 24.4699C72.0194 24.4684 71.9657 24.4778 71.915 24.483C67.9974 24.8483 64.0799 25.2149 60.1623 25.5802C59.9281 25.6019 59.9312 25.6018 59.6774 25.7328C59.646 25.7484 59.6053 25.7698 59.561 25.7735C58.3617 25.8879 57.1592 25.9996 55.9567 26.1113C55.4346 26.1599 54.9125 26.2098 54.3903 26.2571C54.2036 26.2736 54.2036 26.2736 53.76 26.4306C53.7223 26.4437 53.6782 26.4611 53.6339 26.4648C51.5454 26.6606 49.4569 26.8564 47.3651 27.0495C47.2005 27.0642 47.068 27.0917 46.9934 27.1587C46.9406 27.2062 46.8715 27.2349 46.7671 27.2455C45.3051 27.3821 43.8432 27.5201 42.378 27.6541C42.204 27.6704 42.1002 27.7108 42.0159 27.7699C41.9879 27.7896 41.963 27.8119 41.9221 27.8264C41.8843 27.8395 41.8274 27.8449 41.7799 27.8501C40.5268 27.967 39.2738 28.0867 38.0174 28.1996C37.8307 28.2161 37.7557 28.2681 37.665 28.3233C37.6337 28.3417 37.6121 28.3667 37.5712 28.3798C37.5302 28.3917 37.47 28.393 37.4194 28.3969C36.3751 28.4941 35.3309 28.5927 34.2866 28.6899C34.0836 28.6877 34.041 28.7676 33.9438 28.8175C33.9093 28.8346 33.8845 28.8569 33.8436 28.8687C33.7995 28.8806 33.7423 28.8805 33.6885 28.8845C32.8531 28.962 32.0177 29.0436 31.1791 29.1171C30.986 29.1337 30.9495 29.2039 30.846 29.2539C30.8115 29.2697 30.7772 29.2936 30.7361 29.2986C30.214 29.3499 29.6919 29.3985 29.1698 29.4458C28.9957 29.462 28.9957 29.4606 28.6913 29.6023C28.6568 29.618 28.6159 29.6353 28.5717 29.6404C27.7901 29.7153 27.0053 29.7876 26.2205 29.8612C26.1192 29.8703 26.0503 29.9045 26.0006 29.9519C25.951 29.9993 25.8788 30.0309 25.7775 30.04C25.151 30.0991 24.5244 30.1597 23.8978 30.2147C23.7237 30.2296 23.6104 30.2662 23.5357 30.3291C23.4797 30.3766 23.4105 30.4013 23.2998 30.412C22.6732 30.4698 22.0467 30.5317 21.4169 30.5841C21.2333 30.5992 21.1392 30.6476 21.0645 30.7064C21.0053 30.754 20.936 30.7719 20.8189 30.7828C19.6701 30.8878 18.5182 30.9929 17.3728 31.106C17.1798 31.1254 17.0805 31.08 16.9529 31.0489C16.7711 31.0054 16.602 30.9575 16.5995 30.8514C16.5991 30.8351 16.5448 30.8173 16.5065 30.8046C16.222 30.709 16.222 30.709 16.1751 30.6012C16.1482 30.5351 16.1181 30.4678 16.0944 30.4003C16.0506 30.2897 15.9485 30.2634 15.6573 30.2905C15.5529 30.2996 15.4485 30.3115 15.344 30.3193C15.1889 30.3324 15.0706 30.2902 15.0402 30.2092C15.0233 30.1647 15.0033 30.1203 14.9864 30.0757C15.1447 30.0612 15.1414 30.06 15.4165 29.8891C15.5322 29.817 15.5323 29.817 15.3056 29.7528C15.2194 29.7289 15.1363 29.7022 15.0439 29.6798C15.0024 29.6699 14.9484 29.6643 14.9041 29.668C14.6414 29.6903 14.3819 29.7153 14.1224 29.7402C13.7047 29.7796 13.7047 29.7796 13.2768 29.6506C13.2416 29.6405 13.1873 29.6213 13.1934 29.6103C13.2271 29.5592 13.3121 29.5355 13.4198 29.5276C13.5781 29.5158 13.7331 29.4987 13.8881 29.4843C13.9926 29.4751 14.097 29.4646 14.2014 29.4554C14.2985 29.4015 14.3988 29.3488 14.4895 29.2937C14.6334 29.2088 14.6333 29.2061 14.4323 29.1535C14.3046 29.1183 14.1675 29.0874 14.0368 29.055C13.8817 29.0694 13.7235 29.0852 13.5684 29.0983C13.3722 29.115 13.2923 29.0909 13.2396 29.0037C13.1934 28.9272 13.2458 28.8593 13.3975 28.8395C13.5525 28.8197 13.6981 28.8055 13.7757 28.7343C13.8502 28.666 13.9827 28.6371 14.1474 28.6279C14.2519 28.6214 14.3563 28.6095 14.4607 28.599C14.5968 28.585 14.6681 28.514 14.6378 28.4371C14.6208 28.3872 14.5881 28.3457 14.4642 28.3377C13.9148 28.3025 13.9084 28.304 13.6337 28.2177C13.6082 28.2101 13.5886 28.1861 13.5978 28.1736C13.6132 28.1529 13.6474 28.1222 13.6853 28.1172C14.0492 28.079 14.413 28.0435 14.7771 28.0148C14.8973 28.0053 14.9859 27.9938 15.0259 27.9425C15.0814 27.8718 15.0545 27.8085 14.9425 27.7634C14.9073 27.7492 14.8497 27.7315 14.8117 27.7337C14.3939 27.7677 13.9794 27.8084 13.5616 27.8424C13.5236 27.846 13.4534 27.8245 13.4371 27.8072C13.4047 27.7752 13.4512 27.7306 13.5618 27.7132C13.7071 27.6894 13.8561 27.6847 13.9528 27.6145C14.0868 27.5148 14.2527 27.4226 14.4027 27.3266C14.4277 27.3097 14.4683 27.2775 14.4587 27.275C14.3788 27.2469 14.2863 27.2259 14.2032 27.1992C14.0627 27.1547 14.0611 27.0881 14.0913 27.0235C14.1155 26.9712 14.2101 26.9486 14.3274 26.946C14.3781 26.9448 14.4415 26.9434 14.4824 26.9302C14.5895 26.8978 14.6235 26.8589 14.5689 26.8316C14.5368 26.816 14.4793 26.7942 14.4413 26.7978C13.7641 26.8581 13.0835 26.9171 12.4097 26.9882C12.2104 27.0091 12.1173 26.9595 11.996 26.9255C11.9035 26.899 11.8176 26.8901 11.7039 26.9131C11.5966 26.9346 11.4918 26.9261 11.4242 26.8827C11.3695 26.8472 11.4638 26.8138 11.7197 26.7726C11.7671 26.7647 11.8209 26.7594 11.8554 26.745C12.2197 26.5897 12.2197 26.5884 12.4728 26.5636C12.7196 26.5403 12.7197 26.5389 12.8478 26.4571C12.9072 26.419 12.9728 26.3807 13.029 26.3414C13.0508 26.3259 13.0883 26.2978 13.0754 26.29C13.0047 26.2494 12.9094 26.242 12.7987 26.2541C12.552 26.2828 12.26 26.2704 12.133 26.4026C12.0834 26.4527 12.0045 26.4681 11.8906 26.4788C10.745 26.5838 9.59948 26.6942 8.45067 26.7965C8.26394 26.813 8.17958 26.8653 8.10796 26.9227C8.04564 26.9704 7.97621 26.9856 7.85595 26.9965C7.73569 27.0074 7.64065 27.0136 7.56988 26.9703C7.52805 26.944 7.56204 26.9052 7.65625 26.8649C7.79129 26.8074 7.76435 26.74 7.7185 26.6771C7.68582 26.6356 7.58688 26.608 7.48234 26.6131C7.32716 26.622 7.17857 26.6404 7.04736 26.5889C6.97056 26.5594 6.87495 26.5398 6.78874 26.5145C6.62263 26.4625 6.45649 26.4091 6.22595 26.4511C6.06716 26.4411 5.95509 26.3947 5.82742 26.3595C5.61361 26.3017 5.59437 26.2926 5.74498 26.2225C5.91441 26.1438 5.77899 26.0489 5.87239 25.9733C5.97199 25.8921 6.1099 25.8196 6.23182 25.7434C6.26307 25.7236 6.2912 25.7053 6.32246 25.6855C6.24893 25.66 6.18159 25.6275 6.09557 25.6104C5.98407 25.5884 5.92632 25.5598 5.93071 25.4753C5.90824 25.4636 5.91841 25.4947 5.94395 25.5022C5.97267 25.5098 6.0423 25.5014 6.07694 25.4911C6.16509 25.4632 6.20864 25.4282 6.18579 25.4001C6.17276 25.3855 6.11215 25.3678 6.07411 25.3687C6.00438 25.3702 5.94486 25.4015 5.92754 25.4754C5.57383 25.5392 5.20672 25.5748 4.83955 25.6049C4.80158 25.6085 4.75343 25.5824 4.70874 25.5698C4.56187 25.5269 4.56188 25.5282 4.13367 25.5243C4.08926 25.524 4.02863 25.5063 4.006 25.4878C3.91217 25.4069 3.91325 25.3157 3.86684 25.2283C3.94793 25.1693 4.02898 25.1117 4.11327 25.054C4.28182 24.9372 4.50145 24.8329 4.63172 24.7061C4.60165 24.6401 4.56207 24.5743 4.70027 24.5167C5.0949 24.4397 5.09176 24.4398 5.19802 24.3721C5.5012 24.1801 5.80116 23.9869 6.11708 23.7973C6.20155 23.7478 6.20097 23.722 6.04836 23.705C6.00069 23.7007 5.94987 23.7005 5.89922 23.7043C5.74096 23.7174 5.58305 23.7455 5.42761 23.7436C5.2722 23.7431 5.15671 23.6858 5.02908 23.652C4.89825 23.6169 4.76739 23.5804 4.63652 23.5439C4.48764 23.5513 4.33958 23.5928 4.18919 23.535C4.07398 23.49 3.93057 23.4592 3.79971 23.4227C3.89557 23.3171 4.07762 23.2341 4.21814 23.1397C4.34618 23.0538 4.34931 23.0551 4.69649 22.9832C4.86062 22.9496 4.91413 22.7946 4.77363 22.7529C4.60438 22.7023 4.42575 22.656 4.2534 22.6082C4.10452 22.6157 3.95326 22.6559 3.80921 22.5979C3.6972 22.5542 3.56967 22.5258 3.38624 22.5476C3.07631 22.5846 2.7597 22.6068 2.44647 22.6384C2.3389 22.649 2.22146 22.6462 2.17285 22.6011C2.1404 22.5692 2.23128 22.5222 2.33566 22.5103C2.49383 22.4931 2.63607 22.4735 2.71374 22.4037C2.78824 22.334 2.92721 22.3104 3.09181 22.2971C3.13613 22.2934 3.1865 22.2759 3.20831 22.2591C3.32059 22.1776 3.44582 22.1068 3.68994 22.1039C3.79074 22.0744 3.8438 22.0392 3.81135 22.0073C3.79193 21.99 3.72486 21.9684 3.68689 21.972C3.42413 21.9916 3.16137 22.0112 2.9052 22.0415C2.785 22.0551 2.6931 22.0599 2.61608 22.0208C2.56157 21.9949 2.58924 21.9575 2.68976 21.9157C2.77772 21.8797 2.8022 21.8397 2.79479 21.7936C2.77646 21.6865 2.68063 21.6574 2.3765 21.6711C2.15792 21.6815 2.10363 21.6651 2.05394 21.5737C2.04076 21.5522 2.00843 21.523 2.03027 21.5075C2.16443 21.4119 2.25054 21.2957 2.50628 21.2463C2.60733 21.2277 2.71505 21.2253 2.77763 21.1885C2.8402 21.1516 2.89634 21.1095 2.96212 21.074C3.04358 21.0314 3.0997 20.992 3.06107 20.967C2.99661 20.9222 2.89512 20.9204 2.77822 20.9394C2.67711 20.9553 2.56937 20.9591 2.46496 20.9697C2.2783 20.9889 2.12538 20.957 2.10181 20.8976C2.03794 20.7412 1.97091 20.5863 1.91338 20.4297C1.9066 20.4108 1.92184 20.386 1.94682 20.3691C2.03425 20.31 2.12812 20.2534 2.21875 20.1955C2.32504 20.1292 2.49651 20.1375 2.64203 20.122C2.84764 20.0996 2.8476 20.101 3.12034 19.9641C3.22692 19.91 3.41441 19.9261 3.52427 19.8774C3.55879 19.8616 3.61211 19.8359 3.60229 19.8225C3.5892 19.8051 3.52553 19.793 3.4778 19.7859C3.43323 19.7787 3.37927 19.7759 3.33182 19.7811C2.75586 19.8336 2.18314 19.8888 1.60715 19.94C1.50905 19.949 1.40059 19.9216 1.36475 19.8802C1.32897 19.8416 1.33735 19.7937 1.32997 19.749C1.4206 19.6911 1.52396 19.6371 1.60182 19.5754C1.66098 19.5278 1.73025 19.5058 1.85063 19.5004C2.00902 19.4927 2.16397 19.4729 2.34118 19.4566C2.66624 19.2505 2.98471 19.0351 3.33511 18.8284C3.47589 18.745 3.4392 18.6641 3.46574 18.5778C3.49245 18.4983 3.70508 18.5057 3.84718 18.4793C3.96085 18.4577 3.99783 18.4133 3.95276 18.3844C3.927 18.3673 3.8695 18.3482 3.82513 18.3492C3.72053 18.3516 3.61622 18.3662 3.51178 18.3754C3.40734 18.3845 3.2868 18.3832 3.20176 18.4083C3.11985 18.4319 3.067 18.4794 3.01403 18.52C2.95481 18.5649 2.87598 18.5817 2.75559 18.5872C2.60034 18.5934 2.44532 18.6092 2.29023 18.6222C2.11785 18.5731 1.93912 18.5254 1.77301 18.4734C1.74106 18.4633 1.73396 18.4321 1.73666 18.4116C1.74177 18.3585 1.69349 18.3269 1.58829 18.3034C1.49904 18.2837 1.42541 18.2541 1.34237 18.2287C1.40491 18.1906 1.47385 18.1536 1.52365 18.113C1.63267 18.0275 1.77077 17.9645 2.01172 17.9618C2.10559 17.9066 2.18013 17.8396 2.30289 17.8C2.41935 17.762 2.61987 17.7928 2.70676 17.7106C2.75022 17.6701 2.81579 17.6237 2.90099 17.6054C3.03669 17.5765 3.2145 17.5861 3.29198 17.5081C3.33851 17.4635 3.40731 17.4225 3.49897 17.4095C3.60329 17.3949 3.71097 17.3897 3.78644 17.3622C3.82733 17.3476 3.87121 17.3249 3.87077 17.3058C3.87049 17.2936 3.8067 17.276 3.76214 17.2688C3.72071 17.2602 3.66661 17.2547 3.61913 17.2585C3.46084 17.2702 3.30587 17.2887 3.14758 17.3005C3.10327 17.3042 3.05235 17.2958 3.00462 17.2888C2.86465 17.2702 2.87351 17.2428 2.98332 17.1913C3.09315 17.1411 3.17102 17.0781 3.26165 17.0203C3.36286 17.0085 3.48972 17.0097 3.55886 16.9822C3.67516 16.9374 3.75613 16.8743 3.85 16.8191C3.9544 16.8086 4.0621 16.8034 4.16002 16.7862C4.2011 16.7798 4.21944 16.7495 4.25389 16.731C4.3165 16.6956 4.3693 16.6454 4.4545 16.6271C4.5934 16.5995 4.76477 16.6051 4.84545 16.5284C4.89199 16.4838 4.9638 16.4359 5.05248 16.4312C5.29959 16.4201 5.40246 16.3429 5.52761 16.2693C5.62147 16.2141 5.82497 16.2367 5.92834 16.1813C5.99728 16.1457 6.04705 16.1024 6.11603 16.0682C6.14424 16.0539 6.20429 16.0458 6.25174 16.0406C6.51118 16.0143 6.7739 15.9933 7.03331 15.9657C7.07442 15.9607 7.11201 15.9394 7.14333 15.9224C7.20908 15.8855 7.2491 15.8356 7.33098 15.8106C7.41285 15.7856 7.53012 15.7829 7.63139 15.7738C7.95739 15.746 7.98289 15.7509 8.12919 15.6319C8.24747 15.5353 8.54382 15.5952 8.63969 15.4896C8.69536 15.4285 8.79878 15.3772 8.98563 15.3661C9.24849 15.3506 9.5078 15.3189 9.77047 15.2952C10.0046 15.2735 10.0015 15.2736 10.2521 15.1414C10.3649 15.0816 10.5331 15.086 10.6819 15.0717C10.8401 15.0572 10.9855 15.0376 11.06 14.9679C11.1345 14.8995 11.2735 14.8746 11.4349 14.8614C11.5836 14.8485 11.7518 14.8515 11.8678 14.7944C12.1501 14.6573 12.1469 14.656 12.3463 14.6379C12.6596 14.609 12.9728 14.5801 13.2861 14.5499C13.495 14.5301 13.7136 14.5225 13.9094 14.4881C14.0515 14.4631 14.1132 14.3855 14.2038 14.3303C14.4633 14.304 14.7227 14.2777 14.9822 14.2528C15.3461 14.2173 15.7132 14.1844 16.0802 14.1502C16.2375 14.095 16.2571 13.9802 16.5232 13.9687C16.6817 13.9624 16.8366 13.9412 16.9948 13.9267C17.2574 13.9017 17.5168 13.8713 17.7796 13.8558C17.9792 13.8444 18.0123 13.7702 18.1158 13.7216C18.1503 13.7045 18.1815 13.6806 18.2226 13.6756C18.6338 13.6282 19.0583 13.6104 19.4595 13.5454C19.5006 13.5391 19.538 13.5096 19.547 13.489C19.5531 13.478 19.4988 13.4588 19.4637 13.4501C19.4222 13.4402 19.3681 13.4305 19.3238 13.4342C18.0168 13.5551 16.71 13.6774 15.403 13.7982C15.2195 13.816 15.2195 13.8146 14.776 13.9744C14.7382 13.9875 14.6941 14.0021 14.6467 14.0073C14.4379 14.0284 14.2257 14.0427 14.0202 14.0678C13.8526 14.0879 13.7128 14.0748 13.5912 14.0286C13.5048 13.9951 13.4157 13.9863 13.308 13.9914C13.1877 13.9983 13.1088 14.015 13.04 14.0533C12.9492 14.1058 12.9031 14.1721 12.7101 14.1901C11.8208 14.2688 10.9316 14.3544 10.0455 14.4371C9.92149 14.4209 9.86061 14.3937 9.89152 14.359C9.91007 14.3381 9.94749 14.3101 9.98546 14.3065C10.3493 14.2696 10.7164 14.2368 11.0803 14.2013C11.1309 14.1961 11.2007 14.1972 11.2289 14.1829C11.367 14.1186 11.4154 14.0181 11.6783 14.0054C11.8304 13.9978 11.9852 13.9739 12.1306 13.9515C12.1717 13.9452 12.209 13.9157 12.2181 13.8951C12.221 13.8842 12.1698 13.8649 12.1316 13.8563C11.9912 13.82 11.8307 13.8713 11.6906 13.8472C11.6428 13.8388 11.5759 13.8267 11.566 13.8106C11.5593 13.7958 11.6126 13.7701 11.6503 13.7543C11.6849 13.7399 11.7321 13.7265 11.7796 13.7214C12.1972 13.6806 12.6149 13.6384 13.0328 13.6044C13.2037 13.591 13.3233 13.5543 13.398 13.49C13.4539 13.4425 13.5231 13.4164 13.6307 13.4071C14.3617 13.3402 15.0926 13.2678 15.8269 13.2048C16.0105 13.1898 16.1046 13.1427 16.1793 13.0825C16.2384 13.0349 16.3078 13.017 16.4249 13.0062C17.4724 12.9116 18.5134 12.809 19.5609 12.7172C19.754 12.7005 19.8097 12.6407 19.9068 12.5882C19.9413 12.5697 19.9629 12.5474 20.007 12.5356C20.0512 12.5237 20.1082 12.5237 20.1621 12.5198C20.9975 12.4423 21.8329 12.3607 22.6716 12.2872C22.8678 12.2705 22.9042 12.2016 23.0045 12.1517C23.0391 12.136 23.0702 12.1108 23.1113 12.1057C23.7379 12.0452 24.3644 11.9875 24.991 11.9283C25.4087 11.8889 25.8263 11.8494 26.2441 11.8114C26.4498 11.7931 26.4498 11.7917 26.7257 11.6562C26.7571 11.6405 26.8011 11.6218 26.8422 11.6168C28.0446 11.5024 29.244 11.3921 30.4464 11.279C30.5477 11.2699 30.6199 11.237 30.6695 11.1896C30.7192 11.1422 30.7914 11.1093 30.8895 11.1002C31.8293 11.0108 32.7691 10.9228 33.7122 10.8374C33.8831 10.8226 34.0028 10.7872 34.0774 10.7243C34.1334 10.6768 34.2026 10.6507 34.3102 10.6415C35.2501 10.5548 36.1899 10.464 37.133 10.38C37.3134 10.3636 37.401 10.3154 37.4885 10.2589C37.5198 10.2392 37.5444 10.2073 37.5824 10.2037C38.0506 10.155 38.5156 10.105 38.9873 10.0684C39.1836 10.053 39.2488 9.9944 39.3268 9.93819C39.3892 9.89323 39.4618 9.87662 39.5821 9.86844C39.8449 9.85022 40.1042 9.8212 40.3605 9.79224C40.3984 9.7873 40.4453 9.75629 40.448 9.73718C40.4535 9.70167 40.38 9.67885 40.2593 9.66934C39.0062 9.78628 37.7499 9.90328 36.4968 10.0202C36.2911 10.0399 36.2911 10.0399 36.0151 10.1754C35.9838 10.1911 35.9398 10.2098 35.8955 10.2149C34.693 10.3279 33.4937 10.4396 32.2912 10.5526C32.19 10.5617 32.1178 10.5947 32.0681 10.6421C32.0185 10.6895 31.9463 10.7224 31.8482 10.7314C30.6995 10.8392 29.5508 10.9483 28.3989 11.0521C28.228 11.0668 28.1083 11.1008 28.0337 11.1651C27.9777 11.2127 27.9085 11.2387 27.8009 11.248C26.7028 11.3492 25.6079 11.4543 24.5066 11.5528C24.3958 11.5622 24.3125 11.5246 24.318 11.4877C24.3208 11.4686 24.3675 11.4363 24.4055 11.4327C24.9781 11.3748 25.5477 11.3155 26.1238 11.2684C26.3169 11.2532 26.3725 11.192 26.4696 11.1395C26.5009 11.1211 26.5257 11.0974 26.5667 11.0869C26.6108 11.075 26.6679 11.0751 26.7217 11.0711C28.0792 10.9437 29.4368 10.8148 30.7976 10.6927C30.9938 10.6747 31.0303 10.6071 31.1306 10.5572C31.1651 10.5401 31.1962 10.5149 31.2374 10.5113C31.655 10.4691 32.0727 10.431 32.4905 10.393C33.2215 10.3246 33.9524 10.2563 34.6866 10.1879C34.8986 10.1681 34.8986 10.1681 35.1682 10.0341C35.1996 10.0184 35.2436 9.99837 35.2847 9.99471C37.2182 9.81332 39.1517 9.63193 41.0852 9.4519C41.1864 9.4428 41.2586 9.40986 41.3083 9.36247C41.3579 9.31643 41.4301 9.28213 41.5281 9.27174C44.142 9.02726 46.7526 8.78284 49.3665 8.54108C49.5374 8.52495 49.6572 8.49365 49.7318 8.42799C49.7846 8.38053 49.8569 8.3544 49.9645 8.34379C52.8378 8.07572 55.7112 7.80765 58.5877 7.53815C60.5212 7.35812 62.4546 7.17537 64.3882 6.99806C64.5654 6.98179 64.6595 6.93745 64.7469 6.87968C64.775 6.85999 64.8028 6.82805 64.8408 6.82447C65.2552 6.78103 65.6697 6.74031 66.0842 6.6996C66.215 6.73336 66.3458 6.76578 66.4766 6.79954C66.5737 6.74563 66.6676 6.69042 66.7646 6.6365C67.3913 6.5828 68.008 6.50754 68.6414 6.47409C68.6826 6.4718 68.7276 6.49663 68.7722 6.50923C69.069 6.58821 69.2368 6.57759 69.4212 6.45909C69.4868 6.41678 69.543 6.37876 69.6443 6.36965C69.9575 6.33804 70.2742 6.31451 70.5841 6.27889C70.7518 6.26011 70.8915 6.27054 71.0131 6.31676C71.0995 6.35018 71.1886 6.36313 71.293 6.35259C71.869 6.29868 72.4417 6.24619 73.0176 6.18955C73.0588 6.1859 73.0962 6.16191 73.1275 6.14486C73.1933 6.10799 73.2495 6.06862 73.312 6.03046C73.3981 6.05163 73.4936 6.06715 73.5641 6.09549C73.6536 6.12883 73.736 6.12695 73.8562 6.11469C76.1536 5.89782 78.4542 5.68495 80.7515 5.46672C80.9477 5.44865 81.0346 5.50383 81.1685 5.53073C81.2131 5.5406 81.2578 5.55319 81.3054 5.55483C81.3561 5.55639 81.4098 5.54701 81.4604 5.54178C83.1851 5.38011 84.9097 5.21979 86.6344 5.05812C86.8622 5.03661 86.8622 5.03661 87.2033 5.11322C87.2448 5.12316 87.2989 5.13418 87.3432 5.12909C88.128 5.05818 88.9128 4.9832 89.6944 4.911C89.7957 4.90189 89.8818 4.9217 89.9744 4.9509C90.1565 5.00799 90.1691 5.00771 90.3002 4.91492C90.3626 4.87132 90.4286 4.84395 90.5329 4.82933C90.6467 4.81314 90.7387 4.81514 90.8281 4.83761C90.9556 4.86873 91.0489 4.92375 91.2419 4.90439C92.0772 4.82145 92.9159 4.74932 93.748 4.66509C93.9378 4.6458 94.0403 4.68974 94.1679 4.72086C94.2126 4.73209 94.2542 4.7502 94.3018 4.75319C94.3495 4.75619 94.4063 4.74537 94.4569 4.74013C95.5012 4.64292 96.5487 4.547 97.5896 4.44441C97.7858 4.42498 97.8728 4.48151 98.0066 4.5084C98.0512 4.51827 98.1023 4.53617 98.1435 4.53252C98.7701 4.47609 99.3999 4.41685 100.026 4.35771C100.251 4.33627 100.251 4.33763 100.595 4.41281C100.637 4.42276 100.691 4.43241 100.735 4.42869C101.466 4.36172 102.2 4.29332 102.931 4.225C103.156 4.20356 103.156 4.20356 103.807 4.25952C103.855 4.26388 103.906 4.27089 103.954 4.26709C104.789 4.18959 105.628 4.11337 106.463 4.03178C106.631 4.01572 106.77 4.02343 106.892 4.06965C106.978 4.10307 107.067 4.11602 107.172 4.10548C108.112 4.01744 109.055 3.93205 109.991 3.84C110.172 3.82229 110.29 3.84954 110.417 3.8861C110.459 3.89876 110.501 3.91687 110.548 3.92123C110.596 3.92559 110.65 3.91892 110.7 3.91369C111.64 3.82564 112.583 3.74161 113.52 3.6482C113.71 3.62892 113.812 3.67285 113.94 3.70397C113.984 3.7152 114.032 3.73861 114.07 3.73638C114.437 3.7049 114.805 3.67615 115.168 3.63387C115.364 3.61036 115.452 3.67096 115.585 3.69786C115.63 3.70637 115.681 3.72563 115.722 3.72197C116.507 3.65106 117.292 3.57743 118.073 3.50251C118.184 3.49183 118.267 3.50219 118.356 3.53553C118.475 3.58047 118.612 3.59641 118.782 3.57756C119.146 3.53799 119.513 3.50788 119.88 3.47368C120.096 3.45382 120.096 3.45383 120.757 3.50956C120.804 3.51392 120.855 3.52092 120.903 3.51712C121.529 3.45934 122.159 3.40284 122.782 3.34104C122.95 3.32362 123.09 3.33269 123.211 3.37891C123.298 3.41233 123.384 3.42536 123.491 3.41475C124.067 3.36083 124.64 3.30698 125.216 3.25307C125.425 3.23335 125.633 3.20275 125.842 3.19799C125.995 3.1959 126.107 3.25865 126.244 3.2882C126.282 3.29685 126.346 3.28454 126.396 3.28067C127.127 3.21235 127.861 3.14802 128.589 3.07297C128.779 3.05369 128.881 3.09762 129.009 3.12874C129.054 3.13997 129.102 3.16337 129.14 3.16115C129.402 3.14021 129.662 3.1139 129.925 3.09024C130.238 3.06134 130.554 3.03782 130.864 3.00083C131.117 2.97059 131.215 3.08675 131.418 3.08622C131.574 3.08677 131.731 3.06005 131.887 3.04564C132.2 3.01674 132.513 2.98513 132.826 2.95896C132.937 2.94964 133.022 2.92592 133.056 2.87616C133.062 2.8665 133.008 2.84733 132.973 2.83588C132.548 2.70674 132.548 2.70674 132.124 2.74631C131.861 2.77133 131.602 2.79629 131.339 2.81859C131.295 2.82231 131.244 2.81259 131.199 2.80544C131.072 2.7852 131.084 2.75771 131.191 2.7063C131.297 2.65489 131.378 2.59318 131.469 2.53533C131.6 2.56773 131.727 2.6002 131.858 2.63261C131.962 2.62343 132.067 2.6129 132.171 2.60372C132.693 2.55647 133.216 2.50786 133.738 2.46333C133.776 2.45975 133.824 2.48587 133.869 2.49846C133.996 2.53502 134.111 2.56642 134.295 2.54728C134.763 2.49718 135.235 2.45788 135.703 2.41322C135.909 2.39357 135.909 2.39357 136.272 2.46968C136.313 2.47827 136.367 2.48792 136.412 2.48419C136.883 2.44218 137.352 2.39752 137.823 2.35414C137.924 2.34503 138.023 2.36048 138.097 2.39826C138.126 2.41394 138.12 2.44128 138.246 2.66159C138.624 2.83398 138.88 2.80911 139.14 2.78688C139.25 2.77756 139.349 2.76852 139.421 2.73966C139.459 2.72383 139.506 2.70099 139.505 2.68331C139.505 2.66971 139.435 2.64953 139.39 2.64781C139.076 2.62775 138.779 2.69165 138.472 2.71088C138.329 2.71956 138.205 2.67477 138.178 2.59782C138.171 2.5762 138.161 2.5533 138.151 2.53176C138.141 2.51021 138.134 2.48724 138.124 2.46569C138 2.4617 137.928 2.48784 137.875 2.5353C137.831 2.57439 137.769 2.61936 137.684 2.6417C137.599 2.66541 137.481 2.664 137.377 2.67318C137.276 2.68228 137.165 2.70249 137.07 2.69513C136.975 2.68641 136.898 2.64869 136.808 2.62623C136.767 2.61492 136.716 2.5984 136.675 2.60206C136.311 2.63346 135.95 2.66479 135.589 2.70292C135.399 2.72357 135.303 2.66861 135.182 2.63599C135.086 2.61095 134.991 2.61991 134.977 2.68283C134.939 2.83337 135.086 2.89262 135.409 2.85671C135.674 2.82617 135.915 2.81663 136.127 2.90436C136.155 2.91595 136.222 2.91988 136.263 2.91622C136.523 2.89399 136.779 2.86775 137.038 2.84552C137.086 2.84172 137.137 2.846 137.181 2.85043C137.83 2.90918 137.83 2.91054 138.048 2.88925C138.152 2.87871 138.254 2.86961 138.239 2.66309C138.434 2.43687 138.751 2.4147 139.057 2.37507C139.256 2.35013 139.343 2.40803 139.474 2.43636C139.519 2.44623 139.567 2.46691 139.608 2.46325C140.288 2.40288 140.966 2.33985 141.643 2.27411C141.757 2.26336 141.839 2.26965 141.929 2.30299C142.044 2.34528 142.171 2.37096 142.352 2.35053C142.712 2.30968 143.079 2.28093 143.446 2.24537C143.633 2.22752 143.633 2.2275 144.012 2.30325C144.054 2.31183 144.108 2.32149 144.152 2.31776C144.519 2.28628 144.883 2.24944 145.247 2.21668C145.348 2.20757 145.441 2.22452 145.521 2.25944C145.601 2.29436 145.696 2.31124 145.795 2.30221C146.162 2.26937 146.526 2.23389 146.889 2.20112C146.934 2.19739 146.988 2.20569 147.029 2.21427C147.418 2.28981 147.418 2.28979 147.595 2.27216C147.855 2.24585 148.121 2.23029 148.377 2.19725C148.626 2.16435 148.758 2.24028 148.93 2.27991C149.399 2.23796 149.87 2.20139 150.336 2.15272C150.525 2.13208 150.628 2.17465 150.755 2.20713C150.8 2.21836 150.845 2.2432 150.886 2.2409C151.045 2.23186 151.2 2.21337 151.355 2.19896C151.51 2.18455 151.668 2.17006 151.823 2.15565C152.001 2.19106 152.121 2.28088 152.374 2.24383C152.525 2.22133 152.687 2.21358 152.842 2.19917C152.997 2.18476 153.155 2.17027 153.31 2.15586C153.415 2.14669 153.522 2.14015 153.624 2.1256C153.81 2.10095 153.904 2.16551 154.037 2.19241C154.082 2.20092 154.133 2.21608 154.174 2.21242C154.488 2.18625 154.804 2.16272 155.111 2.12445C155.348 2.09457 155.511 2.1317 155.68 2.185C155.715 2.19645 155.775 2.20188 155.82 2.19815C156.187 2.16668 156.551 2.12982 156.915 2.09705C157.013 2.08802 157.108 2.10762 157.188 2.14118C157.272 2.17603 157.364 2.19163 157.465 2.18253C157.829 2.14976 158.196 2.11419 158.56 2.08142C158.605 2.0777 158.659 2.08735 158.7 2.0973C159.057 2.17355 159.057 2.17491 159.266 2.15384C159.317 2.1486 159.37 2.14465 159.421 2.13942C159.68 2.11447 159.95 2.10155 160.203 2.06315C160.493 2.0198 160.707 2.06121 160.915 2.13405C161.174 2.11182 161.44 2.09625 161.693 2.06328C161.883 2.03856 161.985 2.08793 162.113 2.11905C162.158 2.13029 162.206 2.15369 162.244 2.1501C162.611 2.11862 162.978 2.08987 163.339 2.04766C163.535 2.02415 163.622 2.08339 163.756 2.11165C163.8 2.12152 163.848 2.13949 163.889 2.13584C164.098 2.1202 164.307 2.09911 164.516 2.0794C164.76 2.05617 164.76 2.05753 165.085 2.13314C165.238 2.16913 165.389 2.13439 165.538 2.12148C165.696 2.107 165.845 2.09545 165.973 2.14833C166.053 2.18189 166.149 2.20149 166.247 2.19382C166.456 2.17682 166.668 2.15976 166.873 2.13468C167.038 2.11461 167.181 2.12224 167.302 2.16983C167.389 2.20324 167.478 2.21892 167.582 2.20838C168.051 2.16507 168.522 2.12032 168.991 2.07838C169.032 2.07472 169.089 2.08567 169.127 2.09705C169.217 2.11951 169.303 2.14476 169.389 2.17002C169.595 2.15309 169.807 2.14284 170.009 2.11919C170.225 2.09525 170.421 2.08398 170.591 2.15496C170.626 2.17049 170.677 2.19245 170.718 2.19015C170.877 2.18111 171.032 2.16398 171.187 2.14957C171.342 2.13516 171.5 2.12068 171.655 2.10627C171.837 2.13616 171.953 2.23149 172.206 2.19444C172.357 2.17194 172.519 2.16419 172.674 2.14978C172.829 2.13537 172.987 2.11953 173.142 2.10647C173.193 2.1026 173.25 2.0945 173.294 2.09893C173.342 2.10329 173.384 2.1214 173.425 2.13406C173.553 2.17062 173.671 2.2074 173.851 2.18018C174.003 2.15768 174.165 2.14992 174.32 2.13415C174.532 2.11436 174.532 2.11436 174.885 2.19205C175.029 2.22417 175.189 2.17426 175.326 2.20108C175.419 2.21939 175.499 2.25158 175.588 2.27269C175.626 2.28134 175.687 2.28405 175.731 2.28032C175.94 2.26332 176.152 2.24626 176.358 2.22118C176.525 2.20104 176.665 2.21419 176.783 2.26048C176.87 2.2939 176.956 2.30692 177.063 2.29631C177.585 2.24634 178.108 2.2018 178.627 2.14782C178.804 2.12883 178.947 2.14871 179.046 2.19544C179.216 2.27595 179.452 2.17126 179.628 2.2353C179.736 2.27501 179.845 2.32153 180.041 2.29666C180.402 2.25308 180.769 2.22568 181.133 2.19291C181.264 2.22668 181.395 2.26045 181.528 2.29415C181.737 2.27443 181.946 2.25471 182.155 2.23635C182.31 2.22194 182.468 2.2061 182.623 2.19305C182.674 2.18917 182.728 2.18251 182.776 2.18823C182.823 2.19395 182.862 2.21077 182.906 2.22336C183.127 2.28503 183.127 2.2864 183.487 2.25098C183.642 2.23521 183.791 2.22366 183.922 2.27511C184.044 2.3227 184.187 2.32897 184.351 2.31026C184.661 2.276 184.975 2.24847 185.291 2.22222C185.389 2.21319 185.482 2.23422 185.565 2.26771C185.69 2.32066 185.842 2.31176 185.997 2.29327C186.202 2.26955 186.405 2.2459 186.581 2.3181C186.616 2.33363 186.671 2.35551 186.709 2.35329C186.968 2.3365 187.231 2.32236 187.484 2.29076C187.737 2.25915 187.863 2.34067 188.038 2.3775C188.297 2.35392 188.56 2.33025 188.82 2.30666C188.87 2.30143 188.93 2.28783 188.975 2.29362C189.162 2.31793 189.272 2.41748 189.528 2.38037C189.677 2.3593 189.839 2.35019 189.994 2.34258C190.035 2.34028 190.089 2.36217 190.118 2.3792C190.134 2.38836 190.119 2.41456 190.1 2.42859C190.044 2.46797 189.975 2.50493 189.926 2.54552C189.919 2.55111 189.98 2.57421 190.015 2.5843C190.101 2.60683 190.2 2.60053 190.313 2.58705C190.411 2.5753 190.513 2.59203 190.584 2.63125C190.613 2.64692 190.604 2.67434 190.546 2.76547C190.547 2.83211 190.613 2.80067 190.634 2.75665C190.668 2.69329 190.601 2.67441 190.475 2.71129C190.387 2.73779 190.343 2.77416 190.366 2.80222C190.379 2.81689 190.44 2.83456 190.546 2.76547C190.823 2.67753 191.032 2.65782 191.241 2.6381C191.294 2.6328 191.357 2.61775 191.396 2.62504C191.533 2.65458 191.66 2.69115 191.794 2.72485C191.946 2.71323 192.089 2.68958 192.239 2.73923C192.45 2.80928 192.459 2.80227 192.662 2.78269C192.766 2.77216 192.87 2.76299 192.975 2.75381C193.079 2.74463 193.162 2.76316 193.255 2.79235C193.443 2.85202 193.459 2.85165 193.581 2.7618C193.652 2.7071 193.703 2.68827 193.795 2.71066C194.101 2.78671 194.105 2.79207 194.364 2.76168C194.579 2.73638 194.782 2.72633 194.942 2.80025C195.051 2.85221 195.086 2.83918 195.17 2.78011C195.395 2.62395 195.499 2.62429 195.93 2.72337C196.131 2.77051 196.335 2.71007 196.538 2.69866C196.709 2.68933 196.83 2.71923 196.845 2.80462C196.856 2.85745 196.885 2.89489 197 2.90998C197.044 2.91577 197.098 2.92406 197.143 2.92033C197.405 2.89803 197.665 2.87308 197.927 2.84806C198.06 2.83551 198.132 2.76994 198.104 2.6862C198.074 2.59708 198.124 2.56327 198.313 2.53311C198.427 2.51556 198.519 2.5162 198.612 2.53859C198.714 2.56348 198.686 2.58861 198.598 2.63959C198.388 2.7641 198.416 2.83696 198.69 2.91373C198.786 2.94013 198.862 2.96425 198.886 3.00591C198.899 3.02738 198.887 3.05623 198.916 3.0719C199.073 3.15949 199.29 3.21308 199.532 3.25113C199.762 3.20915 199.922 3.26674 200.101 3.31166C200.241 3.34658 200.405 3.3102 200.554 3.29321C200.722 3.27443 200.861 3.28213 200.983 3.32972C201.069 3.36314 201.158 3.37743 201.263 3.36826C201.472 3.34854 201.684 3.3342 201.889 3.30775C202.066 3.28468 202.2 3.30885 202.312 3.35258C202.453 3.40789 202.607 3.36491 202.753 3.36975C202.95 3.37481 203.051 3.49361 203.307 3.45514C203.459 3.43264 203.617 3.42224 203.776 3.4132C203.817 3.4109 203.868 3.43287 203.903 3.4484C204.073 3.51938 204.269 3.51083 204.484 3.48417C204.633 3.46583 204.779 3.44892 204.926 3.49729C205.168 3.57885 205.437 3.64897 205.692 3.72345C205.728 3.78522 205.705 3.85923 205.886 3.89184C205.982 3.90872 206.071 3.93527 206.145 3.9649C206.234 3.9996 206.317 4.00725 206.431 3.99514C206.636 3.97142 206.852 3.96242 207.054 3.93333C207.241 3.90732 207.359 3.94955 207.474 3.98912C207.567 4.02103 207.653 4.03539 207.763 4.00839C207.877 3.98268 207.959 3.99576 208.052 4.03039C208.183 4.07776 208.193 4.07211 208.624 4.07727C208.668 4.07762 208.723 4.09679 208.749 4.11389C208.761 4.12313 208.734 4.15099 208.712 4.1651C208.684 4.18207 208.64 4.2021 208.598 4.20712C208.13 4.25315 207.659 4.29516 207.19 4.34119C207.143 4.34635 207.092 4.35703 207.058 4.37142C207.02 4.38725 206.973 4.40872 206.974 4.42776C206.974 4.44136 207.038 4.45625 207.082 4.46476C207.222 4.49287 207.386 4.44152 207.523 4.47378C207.616 4.49482 207.692 4.52572 207.785 4.54539C207.823 4.55405 207.883 4.55132 207.931 4.54752C208.089 4.5344 208.244 4.51727 208.402 4.50551C208.447 4.50314 208.498 4.51559 208.539 4.52554C208.845 4.60022 208.845 4.60022 209.108 4.57656C209.213 4.56738 209.323 4.54446 209.421 4.55038C209.517 4.55638 209.6 4.59123 209.686 4.61241C209.865 4.65733 210.034 4.70112 210.049 4.80691C210.056 4.84757 210.162 4.88055 210.266 4.88089C210.368 4.88131 210.475 4.86391 210.58 4.85337C210.826 4.83143 210.826 4.83143 211.149 4.90712C211.238 4.92822 211.333 4.92877 211.447 4.91258C211.491 4.90613 211.545 4.91035 211.593 4.91607C211.749 4.93294 211.749 4.95878 211.649 5.01004C211.508 5.08537 211.521 5.09189 211.921 5.14401C212.074 5.16367 212.192 5.20453 212.32 5.23973C212.527 5.29625 212.524 5.29631 212.39 5.37965C212.359 5.39805 212.331 5.41775 212.299 5.43751C212.209 5.49264 212.137 5.55142 211.947 5.56118C211.738 5.57138 211.529 5.5979 211.32 5.61762C211.118 5.63719 211.065 5.67104 211.086 5.76309C211.111 5.87411 211.152 5.88542 211.517 5.87577C211.621 5.8734 211.713 5.88218 211.793 5.9171C211.756 5.96149 211.687 5.99708 211.586 6.00754C211.327 6.03385 211.064 6.05752 210.805 6.08111C210.596 6.10082 210.387 6.12053 210.178 6.14025C210.048 6.15272 209.968 6.22533 210.004 6.30342C210.024 6.34787 210.041 6.39239 210.058 6.43691C210.095 6.52588 210.162 6.54749 210.374 6.53859C210.428 6.536 210.479 6.52396 210.529 6.52553C210.736 6.53036 210.837 6.64101 211.083 6.61227C211.289 6.58855 211.504 6.57957 211.707 6.55048C211.893 6.52447 211.999 6.57106 212.13 6.60483C212.174 6.61606 212.222 6.64081 212.26 6.63858C212.523 6.61764 212.786 6.59672 213.042 6.56504C213.162 6.55142 213.235 6.55792 213.331 6.5884C213.561 6.6621 213.567 6.65787 213.906 6.62568C214.153 6.60102 214.156 6.60367 214.475 6.67942C214.564 6.70053 214.659 6.69836 214.773 6.68489C214.922 6.6679 215.077 6.64261 215.232 6.65948C215.28 6.66384 215.341 6.6788 215.357 6.69612C215.367 6.70814 215.323 6.73907 215.285 6.74946C215.008 6.82652 214.681 6.8217 214.378 6.85718C214.283 6.8675 214.187 6.84382 214.107 6.8089C214.024 6.77405 213.935 6.76112 213.827 6.77037C213.618 6.79008 213.406 6.80442 213.2 6.83087C213.023 6.85394 212.899 6.82547 212.774 6.78612C212.733 6.77345 212.685 6.74869 212.644 6.75099C212.175 6.78885 211.703 6.82679 211.238 6.87547C211.052 6.89604 210.943 6.85497 210.815 6.82113C210.771 6.8099 210.726 6.78506 210.685 6.78736C210.526 6.7964 210.371 6.81489 210.213 6.82937C209.637 6.88329 209.064 6.93713 208.488 6.98833C208.45 6.99191 208.402 6.96443 208.358 6.9532C208.271 6.93066 208.182 6.90956 208.093 6.88845C207.935 6.90293 207.78 6.92006 207.621 6.93183C207.507 6.93986 207.406 6.96122 207.392 7.01326C207.383 7.04748 207.488 7.07637 207.599 7.07113C207.707 7.06596 207.814 7.04719 207.903 7.06285C208.346 7.13988 208.346 7.14124 208.621 7.1173C208.862 7.0955 208.836 7.08247 209.05 7.15245C209.143 7.183 209.226 7.20017 209.33 7.18964C209.59 7.16469 209.852 7.13966 210.115 7.11736C210.156 7.11371 210.21 7.12609 210.252 7.13603C210.564 7.21057 210.564 7.21329 210.821 7.18705C211.156 7.15493 211.169 7.14784 211.396 7.22569C211.552 7.27928 211.694 7.2366 211.843 7.23049C212.015 7.27964 212.203 7.323 212.36 7.37931C212.546 7.44586 212.739 7.42921 212.947 7.40406C213.102 7.38556 213.254 7.37667 213.382 7.42955C213.504 7.47849 213.65 7.48063 213.814 7.46328C213.963 7.44765 214.115 7.41834 214.271 7.44473C214.312 7.45196 214.376 7.47093 214.373 7.48324C214.37 7.50235 214.33 7.53049 214.289 7.53959C213.998 7.60198 213.678 7.60789 213.371 7.64072C213.33 7.64574 213.276 7.632 213.235 7.62205C213.145 7.59959 213.059 7.57298 212.973 7.54909C212.818 7.56078 212.659 7.56709 212.508 7.58687C212.391 7.60178 212.302 7.60245 212.215 7.57175C212.135 7.54363 212.049 7.50885 211.954 7.50149C211.858 7.49413 211.748 7.51705 211.644 7.52759C211.539 7.53813 211.419 7.53678 211.337 7.56041C211.255 7.58405 211.205 7.63281 211.152 7.67211C211.093 7.71565 211.011 7.73113 210.89 7.73795C210.78 7.74455 210.691 7.74112 210.607 7.70491C210.572 7.68938 210.524 7.67822 210.477 7.66842C210.432 7.65991 210.381 7.64609 210.34 7.64975C209.868 7.69177 209.4 7.73645 208.928 7.77982C208.694 7.80147 208.697 7.80139 208.207 7.73224C208.163 7.72645 208.109 7.71816 208.064 7.72189C207.802 7.74419 207.542 7.76914 207.28 7.79416C207.014 7.81925 207.017 7.81646 206.562 7.74108C206.479 7.72663 206.359 7.75113 206.261 7.75065C206.055 7.74853 205.95 7.63659 205.71 7.66383C205.504 7.68755 205.289 7.69653 205.084 7.7257C204.897 7.75171 204.788 7.70656 204.661 7.67272C204.616 7.66149 204.568 7.63537 204.53 7.63895C204.058 7.67961 203.59 7.72427 202.962 7.74262C202.807 7.74615 202.877 7.77313 202.979 7.78034C203.125 7.79199 203.172 7.76235 203.092 7.70975C203.034 7.67296 202.951 7.65578 202.884 7.66681C202.85 7.67305 202.806 7.69991 202.962 7.74262C203.128 7.79055 203.12 7.81933 203.148 7.835C203.219 7.87285 203.318 7.88694 203.419 7.87919C203.577 7.86607 203.732 7.84894 203.891 7.83718C203.935 7.83345 203.989 7.84175 204.03 7.85169C204.381 7.92809 204.384 7.93346 204.754 7.89239C204.872 7.88021 204.957 7.87826 205.05 7.90201C205.177 7.93449 205.27 7.99224 205.463 7.9688C205.72 7.93712 205.982 7.91619 206.245 7.89525C206.286 7.8916 206.331 7.91507 206.379 7.92487C206.51 7.95456 206.606 8.0136 206.799 7.98336C206.947 7.95957 207.109 7.95045 207.267 7.94276C207.308 7.94047 207.372 7.96079 207.392 7.97804C207.43 8.00846 207.384 8.04627 207.277 8.07456C207.233 8.08645 207.172 8.08509 207.122 8.09032C206.913 8.11004 206.704 8.13111 206.495 8.1481C206.384 8.15743 206.28 8.18021 206.269 8.23082C206.26 8.26504 206.375 8.29236 206.482 8.28719C206.641 8.27951 206.799 8.26503 206.951 8.24389C207.219 8.20784 207.454 8.21067 207.675 8.29138C207.832 8.34769 207.822 8.32616 207.99 8.49922C208.033 8.54317 208.156 8.54443 208.264 8.53926C208.524 8.52655 208.645 8.54422 208.624 8.58689C208.596 8.63922 208.505 8.65762 208.388 8.66708C208.179 8.68272 207.97 8.70516 207.761 8.72488C207.71 8.73011 207.654 8.73956 207.606 8.73792C207.558 8.73628 207.514 8.72097 207.472 8.70967C207.383 8.68585 207.306 8.64813 207.21 8.64077C207.115 8.63341 207.005 8.65633 206.9 8.66687C206.796 8.67605 206.685 8.69897 206.59 8.69162C206.495 8.68426 206.415 8.64527 206.328 8.62273C206.287 8.61143 206.236 8.59353 206.195 8.59582C205.986 8.61146 205.777 8.6339 205.568 8.65226C205.312 8.67577 205.312 8.67578 204.999 8.59851C204.91 8.57605 204.818 8.5795 204.701 8.59305C204.448 8.62057 204.445 8.61656 203.98 8.54819C203.935 8.54104 203.881 8.53275 203.837 8.53784C203.365 8.57986 202.897 8.62452 202.429 8.66782C202.027 8.70553 202.027 8.70554 201.808 8.84659C201.646 8.95098 201.642 8.95105 201.805 8.99362C201.936 9.02874 202.055 9.08184 202.198 9.099C202.331 9.11501 202.495 9.05006 202.642 9.10931C202.716 9.13894 202.811 9.17078 202.903 9.17413C203.049 9.17762 203.204 9.13464 203.345 9.19131C203.415 9.21965 203.52 9.24856 203.609 9.2479C203.765 9.24709 203.923 9.22172 204.078 9.20867C204.125 9.20487 204.179 9.20365 204.224 9.20944C204.271 9.21652 204.313 9.23191 204.354 9.24457C204.482 9.28793 204.619 9.30659 204.783 9.27972C205.052 9.23551 205.293 9.24908 205.504 9.33137C205.533 9.34296 205.603 9.34274 205.647 9.33629C205.761 9.3201 205.859 9.3165 205.945 9.34039C205.981 9.35048 206.032 9.36836 206.026 9.38075C206.017 9.40136 205.979 9.42943 205.938 9.43717C205.641 9.49018 205.321 9.50291 205.014 9.53438C204.973 9.53803 204.922 9.5215 204.881 9.51019C204.791 9.48773 204.714 9.44867 204.619 9.44131C204.524 9.43395 204.413 9.45415 204.309 9.46333C204.204 9.47251 204.094 9.49543 203.999 9.48943C203.903 9.48207 203.814 9.45008 203.737 9.42189C203.647 9.38991 203.562 9.38778 203.445 9.40405C203.293 9.42519 203.135 9.4315 202.98 9.44456C202.893 9.42066 202.807 9.39403 202.718 9.37157C202.676 9.36027 202.625 9.34647 202.581 9.34883C202.372 9.36447 202.163 9.38554 201.954 9.40526C201.745 9.42497 201.745 9.42499 201.388 9.34873C201.347 9.34015 201.293 9.33049 201.249 9.33422C200.986 9.35652 200.726 9.38282 200.464 9.40512C200.362 9.41422 200.27 9.39727 200.187 9.36242C200.107 9.3275 200.011 9.30927 199.913 9.3183C199.495 9.35637 199.078 9.39309 198.66 9.4366C198.492 9.45402 198.349 9.44502 198.234 9.39866C198.1 9.34592 197.951 9.36291 197.796 9.37732C197.445 9.41252 197.442 9.41122 197.215 9.34697C197.17 9.33438 197.125 9.30955 197.084 9.31184C196.72 9.34053 196.353 9.36793 195.992 9.40879C195.803 9.43079 195.7 9.3855 195.572 9.35302C195.528 9.34179 195.48 9.31702 195.442 9.32061C195.179 9.34155 194.916 9.36114 194.66 9.39417C194.404 9.42721 194.303 9.30296 194.109 9.30872C193.846 9.31606 193.587 9.35325 193.328 9.3782C193.119 9.39791 192.91 9.41762 192.701 9.43734C192.492 9.45705 192.283 9.47404 192.075 9.49648C191.964 9.50852 191.881 9.49815 191.789 9.46624C191.67 9.42402 191.53 9.39185 191.402 9.35393C191.208 9.29984 191.207 9.29983 190.973 9.32148C190.923 9.32672 190.869 9.33066 190.818 9.33589C190.435 9.37453 190.435 9.37182 189.945 9.29723C189.923 9.29365 189.866 9.30992 189.844 9.3213C189.779 9.35817 189.719 9.39762 189.66 9.43571C189.574 9.41589 189.469 9.40603 189.411 9.37605C189.247 9.29132 188.997 9.41812 188.83 9.33483C188.769 9.30355 188.664 9.27737 188.568 9.27137C188.47 9.26544 188.359 9.28701 188.258 9.29747C187.995 9.32386 187.995 9.3225 187.773 9.44866C187.66 9.5111 187.495 9.50396 187.347 9.52094C187.192 9.53943 187.043 9.55098 186.912 9.49817C186.793 9.45052 186.65 9.44152 186.483 9.46166C186.277 9.48675 186.065 9.50381 185.856 9.5208C185.812 9.52453 185.758 9.51896 185.713 9.51181C185.227 9.44259 185.226 9.44124 184.992 9.46425C184.888 9.47479 184.78 9.47995 184.679 9.49449C184.508 9.52014 184.378 9.49454 184.253 9.45382C184.212 9.44116 184.164 9.41641 184.122 9.41871C183.913 9.43027 183.708 9.44719 183.502 9.46411C183.344 9.47723 183.185 9.48628 183.034 9.50878C182.781 9.54582 182.655 9.46021 182.48 9.42338C182.22 9.44696 181.957 9.46519 181.698 9.49558C181.578 9.5092 181.499 9.50692 181.406 9.47637C181.288 9.43824 181.179 9.39445 180.989 9.41917C180.736 9.45213 180.47 9.46771 180.211 9.48994C180.035 9.45174 179.907 9.36893 179.657 9.4059C179.505 9.4284 179.344 9.43615 179.189 9.45056C178.98 9.47028 178.771 9.48865 178.562 9.50972C178.337 9.53116 178.34 9.52701 177.993 9.45462C177.792 9.41155 177.587 9.46928 177.385 9.48205C177.226 9.49245 177.149 9.55681 177.189 9.63619C177.229 9.71557 177.144 9.78008 176.999 9.79427C176.635 9.8284 176.268 9.86395 175.904 9.89536C175.86 9.89908 175.805 9.89079 175.764 9.88221C175.372 9.80538 175.372 9.80676 175.198 9.82296C174.939 9.84927 174.673 9.86619 174.417 9.89787C174.24 9.91958 174.109 9.89399 173.994 9.85034C173.904 9.817 173.822 9.81071 173.708 9.82146C172.455 9.94112 171.201 10.054 169.952 10.1763C169.765 10.1941 169.656 10.1571 169.529 10.1233C169.484 10.1121 169.442 10.0872 169.398 10.0882C169.293 10.0905 169.189 10.1052 169.084 10.1157C168.616 10.159 168.148 10.2091 167.676 10.2443C167.477 10.2597 167.424 10.3235 167.34 10.3772C167.274 10.4181 167.199 10.4362 167.081 10.4443C166.967 10.4523 166.885 10.4474 166.795 10.414C166.68 10.3704 166.549 10.3448 166.372 10.3678C166.167 10.3943 165.958 10.4086 165.746 10.4284C165.638 10.4376 165.556 10.464 165.523 10.5137C165.517 10.522 165.584 10.5409 165.622 10.5523C165.75 10.5902 165.871 10.6351 166.014 10.6604C166.161 10.6856 166.319 10.6494 166.471 10.6378C166.524 10.6338 166.575 10.6245 166.626 10.6247C166.673 10.625 166.731 10.6305 166.766 10.642C166.932 10.6994 167.107 10.7376 167.334 10.6957C167.531 10.7089 167.636 10.8195 167.885 10.7839C168.037 10.7627 168.195 10.751 168.354 10.7406C168.395 10.7383 168.44 10.7618 168.484 10.773C168.612 10.8041 168.715 10.8562 168.904 10.8288C169.107 10.7997 169.322 10.7907 169.528 10.767C169.641 10.7535 169.724 10.7611 169.814 10.7945C169.929 10.8368 170.059 10.8678 170.236 10.842C170.388 10.8195 170.55 10.8118 170.705 10.796C170.907 10.7764 170.907 10.7778 171.271 10.8539C171.312 10.8625 171.366 10.8721 171.41 10.8684C171.673 10.8461 171.933 10.8198 172.195 10.7975C172.297 10.7884 172.395 10.8038 172.466 10.8417C172.495 10.8574 172.486 10.8848 172.496 10.9077C171.974 10.9563 171.452 10.9995 170.933 11.0562C170.737 11.0783 170.647 11.0246 170.516 10.9962C170.471 10.9864 170.423 10.9643 170.382 10.968C170.015 10.9995 169.651 11.0322 169.287 11.0704C169.173 11.0825 169.088 11.079 169.001 11.0415C168.78 10.9418 168.515 11.005 168.268 11.0256C168.078 11.0408 168.019 11.0843 168.043 11.1736C168.074 11.279 168.189 11.309 168.48 11.2834C168.585 11.2742 168.689 11.2623 168.794 11.2545C168.895 11.2467 168.987 11.2623 169.07 11.2972C169.151 11.3321 169.246 11.349 169.344 11.3413C169.553 11.3243 169.765 11.3072 169.968 11.2822C170.135 11.2621 170.275 11.2725 170.393 11.3202C170.525 11.373 170.677 11.3573 170.828 11.3416C171.183 11.3063 171.186 11.3076 171.409 11.3706C171.454 11.3831 171.499 11.408 171.54 11.4057C171.904 11.377 172.272 11.351 172.629 11.3102C172.816 11.2896 172.924 11.3307 173.049 11.3632C173.093 11.3745 173.138 11.4006 173.18 11.397C173.442 11.376 173.705 11.3551 173.961 11.3234C174.081 11.3084 174.154 11.3149 174.253 11.3454C174.49 11.4203 174.496 11.4174 174.828 11.384C174.93 11.3735 175.04 11.3561 175.136 11.3648C175.231 11.3735 175.308 11.4112 175.397 11.4337C175.439 11.4436 175.49 11.4574 175.534 11.4537C175.743 11.4381 175.952 11.417 176.161 11.3973C176.357 11.3778 176.357 11.3792 176.726 11.4552C176.876 11.4871 177.031 11.4537 177.18 11.4394C177.341 11.4235 177.487 11.4202 177.612 11.4704C177.736 11.5207 177.885 11.5145 178.044 11.5001C178.192 11.4858 178.344 11.4524 178.497 11.4857C178.847 11.5621 178.847 11.5634 179.063 11.5422C179.376 11.512 179.686 11.4831 180.002 11.4555C180.044 11.4519 180.098 11.467 180.139 11.4769C180.229 11.4994 180.306 11.5384 180.401 11.5458C180.496 11.5545 180.607 11.5357 180.708 11.5252C181.034 11.492 181.056 11.4819 181.277 11.5667C181.462 11.636 181.688 11.5247 181.861 11.6052C181.96 11.6505 182.094 11.6856 182.278 11.6583C182.429 11.6358 182.588 11.6267 182.746 11.6123C182.996 11.5889 182.996 11.5903 183.315 11.6647C183.356 11.6746 183.41 11.687 183.452 11.6833C183.661 11.6677 183.873 11.6533 184.075 11.6242C184.312 11.5903 184.465 11.6385 184.644 11.6848C184.784 11.7211 184.949 11.6847 185.097 11.6677C185.259 11.6504 185.404 11.6512 185.526 11.7015C185.654 11.753 185.803 11.7428 185.961 11.7283C186.11 11.7154 186.261 11.6807 186.414 11.7153C186.743 11.7922 186.743 11.7922 186.98 11.7705C187.189 11.7507 187.398 11.7297 187.607 11.714C187.648 11.7104 187.699 11.7269 187.74 11.7382C187.83 11.7607 187.907 11.7998 188.002 11.8071C188.097 11.8145 188.208 11.7943 188.312 11.7851C188.417 11.7759 188.527 11.753 188.623 11.759C188.718 11.765 188.807 11.797 188.884 11.8252C188.974 11.8585 189.056 11.8607 189.176 11.8444C189.328 11.8232 189.486 11.8156 189.642 11.8025C189.728 11.8264 189.817 11.8502 189.9 11.8769C189.986 11.9049 190.078 11.9001 190.195 11.8879C190.584 11.8464 190.588 11.8504 190.916 11.9273C191.066 11.962 191.221 11.9272 191.369 11.9143C191.528 11.8998 191.676 11.891 191.801 11.9426C191.923 11.9915 192.072 11.9949 192.23 11.975C192.331 11.9618 192.439 11.9526 192.544 11.9461C192.591 11.9437 192.648 11.9478 192.683 11.9579C192.853 12.0112 193.019 12.0591 193.249 12.0172C193.452 12.0234 193.556 12.1326 193.8 12.1053C194.005 12.0816 194.221 12.0726 194.423 12.0435C194.61 12.0175 194.744 12.0526 194.84 12.098C195.013 12.1785 195.251 12.0587 195.424 12.1378C195.524 12.1832 195.651 12.2184 195.841 12.1937C196.05 12.1671 196.117 12.1942 196.179 12.2785C196.215 12.3267 196.21 12.3663 196.147 12.4058C196.085 12.4467 196.015 12.4414 195.912 12.3989C195.794 12.3512 195.654 12.3449 195.487 12.3595C195.322 12.3742 195.219 12.3058 195.082 12.2817C194.945 12.2562 194.784 12.3075 194.641 12.274C194.303 12.196 194.303 12.196 194.075 12.2175C193.92 12.2319 193.759 12.241 193.607 12.2635C193.427 12.2907 193.309 12.2512 193.184 12.2159C193.139 12.2034 193.094 12.1785 193.056 12.1807C192.692 12.2094 192.325 12.2368 191.964 12.279C191.775 12.3011 191.672 12.2544 191.545 12.2233C191.5 12.212 191.452 12.1886 191.414 12.1922C191.101 12.2184 190.79 12.2499 190.477 12.2802C190.418 12.3183 190.352 12.3552 190.296 12.3959C190.237 12.4381 190.155 12.4576 190.034 12.459C189.835 12.4635 189.639 12.5251 189.438 12.4576C189.23 12.3888 189.215 12.3933 189.015 12.4155C188.762 12.4444 188.493 12.4451 188.256 12.5035C188.215 12.514 188.171 12.5408 188.172 12.5598C188.169 12.5722 188.236 12.5883 188.277 12.5983C188.418 12.6277 188.578 12.5765 188.718 12.6073C188.811 12.627 188.888 12.6579 188.98 12.6789C189.018 12.6876 189.075 12.6849 189.126 12.6824C189.18 12.6798 189.23 12.6692 189.281 12.6694C189.329 12.6696 189.38 12.6766 189.418 12.688C189.593 12.7357 189.778 12.7792 189.935 12.8368C190.089 12.8932 190.23 12.8492 190.382 12.843C190.993 12.9244 190.993 12.9257 191.401 12.8865C191.503 12.8774 191.607 12.8669 191.712 12.8658C191.756 12.8648 191.798 12.8884 191.843 12.901C191.97 12.9389 192.092 12.9729 192.269 12.9471C192.42 12.9246 192.582 12.9168 192.737 12.901C192.946 12.8813 192.946 12.8813 193.303 12.9589C193.392 12.9787 193.487 12.9738 193.601 12.9603C193.699 12.9486 193.801 12.9667 193.871 13.0045C193.9 13.0202 193.891 13.0476 193.901 13.0705C193.588 13.0994 193.272 13.1216 192.968 13.1612C192.772 13.186 192.682 13.1296 192.551 13.1012C192.507 13.0914 192.458 13.0693 192.417 13.073C192.107 13.1004 191.797 13.1306 191.487 13.1649C191.449 13.1685 191.402 13.2008 191.4 13.2199C191.394 13.2554 191.474 13.2876 191.588 13.2837C191.74 13.2789 191.889 13.2524 192.026 13.305C192.142 13.3514 192.285 13.3699 192.452 13.3443C192.553 13.3298 192.661 13.3273 192.762 13.3142C193.031 13.2754 193.275 13.2766 193.48 13.3645C193.636 13.3855 193.788 13.3589 193.936 13.3433C194.047 13.3312 194.155 13.3192 194.234 13.3433C194.404 13.3939 194.57 13.4445 194.8 13.4025C195.052 13.4349 195.244 13.5108 195.454 13.5714C195.553 13.6004 195.63 13.6164 195.743 13.5934C195.791 13.5841 195.848 13.5828 195.898 13.5776C196.003 13.5684 196.113 13.5455 196.209 13.5515C196.304 13.5589 196.384 13.5965 196.47 13.619C196.512 13.6303 196.56 13.6497 196.601 13.6474C196.759 13.637 196.914 13.6198 197.069 13.6054C197.224 13.5924 197.379 13.5793 197.534 13.5663C197.665 13.5987 197.799 13.631 197.93 13.6634C198.139 13.6437 198.348 13.624 198.553 13.6057C198.784 13.5841 198.784 13.5855 199.119 13.6622C199.269 13.6969 199.427 13.6689 199.569 13.6479C199.806 13.614 199.966 13.6621 200.135 13.7126C200.17 13.7227 200.234 13.7281 200.275 13.7217C200.439 13.6989 200.582 13.7106 200.704 13.7582C200.79 13.7916 200.876 13.806 200.981 13.7968C201.345 13.7627 201.708 13.7272 202.072 13.6958C202.117 13.6921 202.168 13.7032 202.209 13.7131C202.534 13.7887 202.538 13.7927 202.775 13.7656C202.987 13.7417 203.183 13.7291 203.353 13.8001C203.388 13.8156 203.443 13.8375 203.481 13.8353C203.74 13.8158 204.003 13.7948 204.259 13.7659C204.376 13.7523 204.459 13.7545 204.551 13.7837C204.669 13.8205 204.775 13.8657 204.968 13.8436C205.503 13.7811 205.506 13.7892 206.142 13.8686C206.187 13.8744 206.247 13.8622 206.297 13.8556C206.405 13.8396 206.484 13.8568 206.58 13.8859C206.794 13.9518 206.8 13.9476 207.003 13.928C207.158 13.9122 207.319 13.9059 207.471 13.882C207.705 13.8467 207.862 13.8963 208.037 13.9426C208.177 13.9789 208.338 13.9426 208.487 13.9269C208.648 13.9097 208.794 13.9104 208.916 13.9594C208.999 13.9929 209.088 14.0099 209.193 14.0007C209.557 13.9679 209.921 13.9324 210.285 13.8997C210.329 13.896 210.383 13.9056 210.424 13.9142C210.788 13.9903 210.788 13.9944 211.145 13.955C211.259 13.9429 211.354 13.938 211.44 13.9646C211.523 13.9899 211.613 14.0137 211.699 14.0376C211.854 14.0246 212.012 14.0183 212.164 13.9985C212.281 13.9836 212.364 13.9871 212.456 14.0136C212.578 14.0476 212.68 14.1092 212.87 14.0736C212.968 14.0564 213.082 14.0579 213.18 14.0421C213.297 14.0217 213.376 14.0308 213.469 14.0641C213.584 14.1036 213.702 14.1445 213.886 14.1185C214.088 14.0895 214.303 14.0805 214.509 14.0568C214.623 14.0433 214.702 14.0524 214.795 14.0856C214.91 14.1279 215.041 14.1535 215.218 14.1318C215.579 14.0896 215.582 14.0963 215.936 14.174C216.025 14.1938 216.12 14.1889 216.234 14.1754C216.332 14.1636 216.434 14.1817 216.504 14.2196C216.572 14.2616 216.566 14.2889 216.573 14.3119ZM188.045 2.6876C187.941 2.69678 187.836 2.70732 187.681 2.59245C187.671 2.57227 187.677 2.54764 187.655 2.53047C187.603 2.4949 187.523 2.47086 187.428 2.46894C187.257 2.46739 187.052 2.51831 187.056 2.5536C187.06 2.58345 187.114 2.60806 187.219 2.63016C187.264 2.63868 187.299 2.65421 187.341 2.66415C187.462 2.69269 187.558 2.75174 187.732 2.7165C187.715 2.6747 187.698 2.6329 187.732 2.7165C187.717 2.76854 187.766 2.80418 187.88 2.81655C187.912 2.81991 187.959 2.8161 187.984 2.80737C188.082 2.77521 188.097 2.73406 188.021 2.62827C188.009 2.64624 188.019 2.67729 188.048 2.68481C188.077 2.69232 188.146 2.68394 188.181 2.67363C188.269 2.64577 188.313 2.61076 188.29 2.5827C188.277 2.56803 188.216 2.55036 188.178 2.55122C188.112 2.55273 188.052 2.58402 188.045 2.6876ZM214.039 17.8776C213.808 17.9087 213.542 17.9052 213.312 17.9635C213.271 17.974 213.23 17.9994 213.228 18.0185C213.225 18.0308 213.288 18.0471 213.327 18.0557C213.413 18.0756 213.508 18.0666 213.618 18.0573C213.786 18.0439 213.886 18.1042 214.017 18.1326C214.058 18.1412 214.112 18.1467 214.156 18.143C214.413 18.1208 214.666 18.0974 214.922 18.0725C214.966 18.0675 215.014 18.0568 215.052 18.0437C215.177 18.0014 215.164 17.9759 215.04 17.9488C214.903 17.9192 214.794 17.8672 214.654 17.8446C214.453 17.8124 214.251 17.866 214.039 17.8776ZM196.062 19.2796C195.907 19.294 195.755 19.3084 195.6 19.3228C195.549 19.328 195.495 19.3306 195.448 19.3371C195.35 19.3489 195.278 19.3791 195.231 19.425C195.305 19.4587 195.394 19.4771 195.492 19.4708C195.647 19.4591 195.799 19.438 195.954 19.4304C196.122 19.4211 196.222 19.4801 196.353 19.5084C196.394 19.517 196.445 19.5172 196.492 19.5175C196.727 19.5176 196.868 19.4436 196.821 19.3454C196.788 19.2686 196.666 19.2251 196.521 19.2379C196.369 19.2509 196.214 19.2653 196.062 19.2796ZM215.077 15.8428C215.114 15.8188 215.155 15.8016 215.174 15.7807C215.229 15.7101 215.206 15.6589 215.1 15.6069C214.972 15.5431 214.817 15.5915 214.675 15.6015C214.64 15.6037 214.603 15.6331 214.584 15.6512C214.572 15.6638 214.572 15.6896 214.591 15.696C214.748 15.7469 214.914 15.7934 215.077 15.8428ZM187.487 12.4502C187.336 12.4646 187.18 12.4762 187.029 12.4947C186.991 12.4996 186.956 12.5262 186.935 12.5444C186.894 12.578 186.94 12.6219 187.07 12.623C187.219 12.6251 187.373 12.5984 187.529 12.584C187.725 12.5659 187.841 12.5129 187.767 12.4711C187.696 12.4305 187.601 12.4245 187.487 12.4502ZM20.5742 13.3364C20.6754 13.3273 20.7799 13.3195 20.8811 13.3077C20.976 13.296 21.0483 13.2644 21.0948 13.2184C21.0147 13.1849 20.9255 13.1678 20.8273 13.1742C20.6722 13.1859 20.5203 13.2002 20.3685 13.2172C20.2736 13.2276 20.1824 13.2596 20.1613 13.3063C20.1399 13.3422 20.3527 13.3578 20.5742 13.3364ZM174.011 9.63902C174.053 9.65032 174.094 9.67387 174.135 9.67293C174.237 9.67063 174.341 9.66008 174.436 9.64432C174.477 9.63795 174.508 9.61275 174.527 9.59327C174.539 9.58075 174.536 9.55906 174.516 9.54861C174.423 9.48542 174.056 9.5169 173.997 9.59307C173.991 9.60681 174.008 9.62413 174.011 9.63902ZM163.839 2.41866C163.849 2.4402 163.852 2.46189 163.866 2.48336C163.892 2.52358 163.962 2.55193 164.064 2.57002C164.143 2.53422 164.183 2.49521 164.179 2.45448C164.175 2.43279 164.165 2.41123 164.152 2.38976C164.126 2.34953 164.055 2.32121 163.953 2.30311C163.875 2.33755 163.838 2.37649 163.839 2.41866ZM222.477 18.9159C222.449 18.9343 222.42 18.9526 222.389 18.9696C222.476 19.0071 222.555 19.0176 222.615 18.9944C222.653 18.98 222.674 18.9591 222.702 18.9407C222.616 18.9033 222.54 18.8941 222.477 18.9159ZM220.509 19.1457C220.551 19.157 220.589 19.1725 220.634 19.1796C220.707 19.1916 220.773 19.1669 220.823 19.1168C220.781 19.1055 220.743 19.0901 220.698 19.0829C220.625 19.071 220.559 19.0956 220.509 19.1457ZM221.753 18.8685C221.731 18.9016 221.776 18.9278 221.894 18.9482C221.922 18.9299 221.96 18.9127 221.978 18.8933C222.009 18.8613 221.955 18.8339 221.84 18.8148C221.809 18.8318 221.781 18.8501 221.753 18.8685ZM215.028 17.5544C215.006 17.5876 215.051 17.6137 215.169 17.6342C215.197 17.6159 215.235 17.5987 215.253 17.5792C215.284 17.5472 215.23 17.5199 215.115 17.5007C215.084 17.5177 215.056 17.5361 215.028 17.5544ZM205.689 8.13785C205.661 8.15618 205.633 8.17451 205.602 8.19155C205.688 8.22905 205.768 8.23948 205.827 8.21635C205.865 8.20189 205.887 8.18098 205.915 8.16265C205.829 8.12515 205.752 8.11601 205.689 8.13785ZM196.839 3.23068C196.915 3.23847 196.978 3.218 197.031 3.16645C196.989 3.15515 196.951 3.13969 196.906 3.13254C196.833 3.1206 196.767 3.14524 196.718 3.19535C196.759 3.20801 196.801 3.21931 196.839 3.23068ZM192.194 3.01648C192.166 3.03481 192.138 3.05314 192.107 3.07018C192.193 3.10768 192.273 3.11811 192.333 3.09498C192.37 3.08052 192.392 3.05961 192.42 3.04128C192.334 3.00379 192.257 2.996 192.194 3.01648ZM160.72 2.48819C160.692 2.50652 160.664 2.52485 160.632 2.54189C160.719 2.57939 160.798 2.58982 160.858 2.56669C160.896 2.55223 160.917 2.53132 160.946 2.51299C160.859 2.4755 160.783 2.46771 160.72 2.48819ZM4.39906 17.1128C4.35757 17.1015 4.31612 17.0902 4.27777 17.0775C4.1867 17.1163 4.15897 17.1509 4.21028 17.1756C4.24236 17.1912 4.29008 17.1997 4.33157 17.211C4.42581 17.1721 4.44724 17.1389 4.39906 17.1128Z" fill="#FFE492"/>
<path d="M116.4 21.725C116.158 21.7563 115.918 21.7944 115.676 21.8162C115.547 21.8273 115.502 21.8867 115.451 21.9422C115.409 21.9866 115.361 22.0013 115.283 22.0112C114.626 22.0927 113.972 22.1782 113.317 22.2623C113.234 22.2465 113.194 22.2189 113.212 22.1846C113.222 22.164 113.247 22.1349 113.272 22.1316C113.72 22.0711 114.166 22.0094 114.617 21.9598C114.745 21.946 114.78 21.8854 114.844 21.8351C114.865 21.8183 114.881 21.7935 114.909 21.7833C114.936 21.7718 114.976 21.7723 115.012 21.7688C115.736 21.6749 116.46 21.5824 117.184 21.4885C117.267 21.5043 117.308 21.5319 117.289 21.5663C117.279 21.5869 117.255 21.616 117.229 21.6193C116.951 21.6541 116.676 21.6889 116.4 21.725Z" fill="#FFE492"/>
<path d="M249.724 28.9199C249.614 28.9387 249.476 28.9649 249.36 28.8887C249.304 28.8519 249.245 28.8411 249.173 28.8509C249.07 28.8668 248.965 28.88 248.86 28.8906C248.832 28.8926 248.796 28.8784 248.768 28.8668C248.709 28.8437 248.657 28.8041 248.593 28.7947C248.53 28.7853 248.455 28.8169 248.389 28.8116C248.302 28.804 248.266 28.7682 248.288 28.7337C248.3 28.7144 248.325 28.6867 248.352 28.682C248.741 28.6229 248.744 28.6228 248.854 28.6692C248.94 28.7053 249.019 28.7456 249.139 28.7198C249.239 28.6985 249.347 28.692 249.45 28.6774C249.593 28.6579 249.593 28.6592 249.827 28.7395C249.887 28.7599 249.95 28.7571 250.026 28.7432C250.091 28.7322 250.155 28.7525 250.208 28.7879C250.176 28.8349 250.128 28.8659 250.063 28.8755C249.957 28.8915 249.854 28.9033 249.724 28.9199Z" fill="#FFE492"/>
<path d="M245.824 28.5222C246.089 28.4874 246.357 28.4566 246.622 28.4177C246.731 28.4015 246.818 28.4146 246.895 28.4594C246.978 28.5081 247.071 28.5019 247.172 28.49C247.235 28.4831 247.297 28.5036 247.34 28.5409C247.357 28.5555 247.354 28.583 247.361 28.6048C247.129 28.6347 246.896 28.666 246.662 28.6932C246.634 28.6966 246.6 28.6837 246.575 28.6734C246.517 28.6514 246.468 28.6115 246.406 28.6047C246.275 28.5885 246.145 28.6284 246.013 28.6383C245.949 28.6425 245.888 28.6234 245.845 28.5874C245.827 28.57 245.831 28.5439 245.824 28.5222Z" fill="#FFE492"/>
<path d="M149.388 16.1957C149.664 16.1596 149.94 16.1248 150.216 16.0886C150.298 16.1057 150.337 16.1321 150.321 16.1664C150.311 16.187 150.286 16.2162 150.261 16.2195C149.709 16.2932 149.158 16.3642 148.608 16.4351C148.526 16.418 148.487 16.3917 148.503 16.3573C148.513 16.3367 148.538 16.3075 148.563 16.3043C148.837 16.2668 149.113 16.2319 149.388 16.1957Z" fill="#FFE492"/>
<path d="M106.69 24.7367C106.566 24.7425 106.437 24.7981 106.297 24.7616C106.269 24.7552 106.231 24.7334 106.233 24.7206C106.237 24.6992 106.261 24.6717 106.288 24.6625C106.407 24.6242 106.557 24.6165 106.615 24.5157C106.644 24.464 106.698 24.4457 106.771 24.434C106.849 24.4208 106.904 24.4238 106.966 24.4521C107.046 24.4885 107.115 24.5578 107.241 24.518C107.248 24.5405 107.263 24.5657 107.257 24.5871C107.251 24.6085 107.224 24.629 107.199 24.6452C107.177 24.6599 107.145 24.6734 107.116 24.6784C106.977 24.6987 106.839 24.7162 106.69 24.7367Z" fill="#FFE492"/>
<path d="M216.779 23.8323C216.882 23.8189 216.989 23.8109 217.09 23.7892C217.17 23.7722 217.221 23.7807 217.285 23.8123C217.394 23.8677 217.4 23.8621 217.664 23.8643C217.693 23.865 217.73 23.8848 217.747 23.9024C217.758 23.9118 217.743 23.9383 217.731 23.9524C217.713 23.9707 217.686 23.9948 217.66 23.9954C217.494 24.0034 217.327 24.0886 217.163 23.9986C217.079 23.9536 216.988 23.9336 216.877 23.9569C216.809 23.9708 216.738 23.978 216.668 23.9851C216.601 23.9922 216.531 23.9786 216.488 23.9383C216.425 23.879 216.461 23.8548 216.571 23.8564C216.64 23.8575 216.709 23.8408 216.779 23.8323Z" fill="#FFE492"/>
<path d="M255.186 33.9201C255.318 33.9028 255.45 33.8826 255.584 33.8681C255.612 33.8646 255.646 33.8794 255.671 33.8888C255.773 33.9289 255.76 34.0016 255.766 34.0654C255.769 34.132 255.537 34.1915 255.437 34.1484C255.326 34.0999 255.226 34.0441 255.076 34.0789C255.017 34.0917 254.947 34.0678 254.908 34.0275C254.85 33.9693 254.881 33.9444 254.988 33.9461C255.051 33.9474 255.118 33.9302 255.186 33.9201Z" fill="#FFE492"/>
<path d="M187.899 13.9398C188.036 13.9214 188.172 13.8947 188.309 13.8901C188.389 13.8869 188.43 13.9317 188.412 13.9654C188.402 13.9865 188.378 14.0162 188.352 14.0196C188.079 14.0592 187.806 14.0933 187.532 14.1302C187.452 14.1126 187.411 14.0844 187.429 14.0507C187.439 14.0296 187.464 14.0013 187.489 13.9965C187.626 13.974 187.762 13.9583 187.899 13.9398Z" fill="#FFE492"/>
<path d="M252.524 29.0644C252.657 29.0474 252.791 29.0234 252.924 29.0134C252.993 29.009 253.049 29.0397 253.058 29.0757C253.062 29.0923 253.029 29.1222 253.002 29.1298C252.814 29.1815 252.609 29.1918 252.412 29.2201C252.349 29.2285 252.281 29.2078 252.242 29.1698C252.184 29.1113 252.215 29.0883 252.322 29.09C252.39 29.0898 252.457 29.0729 252.524 29.0644Z" fill="#FFE492"/>
<path d="M220.279 24.0059C220.346 23.9971 220.415 23.9768 220.48 23.9809C220.55 23.9865 220.595 24.0271 220.617 24.0682C220.641 24.1151 220.64 24.1597 220.62 24.2004C220.588 24.2702 220.554 24.2681 220.475 24.224C220.354 24.155 220.346 24.1639 220.109 24.1724C220.081 24.1731 220.047 24.1523 220.026 24.1342C219.994 24.1062 220.01 24.0612 220.082 24.0336C220.137 24.0136 220.212 24.0147 220.279 24.0059Z" fill="#FFE492"/>
<path d="M247.56 28.6016C247.659 28.588 247.757 28.5675 247.856 28.5651C247.926 28.5621 247.981 28.5931 247.989 28.6281C247.991 28.6449 247.96 28.6737 247.935 28.6828C247.816 28.7235 247.681 28.7295 247.551 28.7452C247.49 28.7522 247.422 28.7313 247.383 28.6929C247.325 28.6352 247.358 28.6077 247.461 28.6137C247.493 28.6158 247.527 28.6066 247.56 28.6016Z" fill="#FFE492"/>
<path d="M231.897 26.8448C231.75 26.8651 231.611 26.8473 231.62 26.8106C231.634 26.7625 231.694 26.7302 231.757 26.7203C231.858 26.7039 231.959 26.6903 232.062 26.6794C232.127 26.6723 232.187 26.692 232.24 26.7272C232.209 26.7729 232.162 26.8063 232.099 26.8176C232.034 26.829 231.964 26.8362 231.897 26.8448Z" fill="#FFE492"/>
<path d="M230.928 26.669C231.026 26.6554 231.125 26.6348 231.224 26.6325C231.293 26.6295 231.349 26.6605 231.356 26.6955C231.358 26.7123 231.328 26.7411 231.302 26.7501C231.183 26.7909 231.049 26.7969 230.918 26.8126C230.857 26.8196 230.789 26.7987 230.751 26.7603C230.692 26.7026 230.725 26.6751 230.829 26.6811C230.861 26.6832 230.894 26.674 230.928 26.669Z" fill="#FFE492"/>
<path d="M219.074 24.0017C219.173 23.9881 219.271 23.9675 219.37 23.9638C219.44 23.9608 219.495 23.9918 219.502 24.0268C219.505 24.0436 219.474 24.071 219.449 24.0815C219.33 24.1222 219.195 24.1282 219.065 24.1439C219.004 24.1509 218.936 24.13 218.897 24.0916C218.839 24.0339 218.872 24.0064 218.975 24.0124C219.007 24.0145 219.041 24.0053 219.074 24.0017Z" fill="#FFE492"/>
<path d="M218.513 23.9156C218.618 23.9019 218.652 23.8941 218.686 23.8933C218.749 23.8918 218.815 23.9071 218.853 23.947C218.912 24.0047 218.878 24.0223 218.775 24.0276C218.643 24.0335 218.513 24.0661 218.38 24.0748C218.311 24.0793 218.255 24.0468 218.25 24.0118C218.248 23.995 218.279 23.9647 218.304 23.9585C218.392 23.9353 218.488 23.9204 218.513 23.9156Z" fill="#FFE492"/>
<path d="M230.025 15.0409C229.958 15.0496 229.887 15.0712 229.823 15.0656C229.739 15.0576 229.704 15.0202 229.725 14.9843C229.737 14.9642 229.759 14.9353 229.785 14.9304C229.919 14.9074 230.055 14.8914 230.19 14.8741C230.27 14.8934 230.306 14.9223 230.286 14.9582C230.274 14.9784 230.251 15.0058 230.226 15.0121C230.161 15.0278 230.092 15.0323 230.025 15.0409Z" fill="#FFE492"/>
<path d="M147.868 16.3771C147.933 16.3742 147.992 16.3913 148.043 16.4257C148.013 16.4721 147.967 16.5031 147.905 16.5175C147.873 16.5239 147.838 16.529 147.804 16.5313C147.739 16.5357 147.68 16.5171 147.629 16.4827C147.659 16.4363 147.707 16.4052 147.767 16.3909C147.799 16.3845 147.834 16.3822 147.868 16.3771Z" fill="#FFE492"/>
<path d="M251.806 29.0593C251.803 29.0181 251.93 28.968 252.046 28.9667C252.107 28.9667 252.171 28.9851 252.207 29.0227C252.263 29.0798 252.232 29.1033 252.129 29.1015C252.066 29.1002 251.999 29.126 251.936 29.1232C251.864 29.1235 251.822 29.0932 251.806 29.0593Z" fill="#FFE492"/>
<path d="M220.896 24.1796C220.893 24.1638 220.882 24.1454 220.888 24.1308C220.926 24.0508 221.166 24.0205 221.231 24.0881C221.242 24.1007 221.246 24.1222 221.238 24.1354C221.226 24.1558 221.204 24.1822 221.179 24.1886C221.114 24.2045 221.047 24.2133 220.98 24.2164C220.951 24.2171 220.923 24.1933 220.896 24.1796Z" fill="#FFE492"/>
<path d="M107.439 24.4964C107.193 24.5323 107.188 24.5296 107.231 24.457C107.269 24.3916 107.342 24.3513 107.449 24.3487C107.48 24.3479 107.513 24.3443 107.541 24.3494C107.57 24.3558 107.613 24.3691 107.619 24.3861C107.633 24.4187 107.598 24.4554 107.535 24.4812C107.508 24.4933 107.473 24.4913 107.439 24.4964Z" fill="#FFE492"/>
<path d="M151 16.1422C150.927 16.1684 150.864 16.1613 150.817 16.1164C150.77 16.0715 150.842 16.0151 150.97 15.9991C151.003 15.9954 151.038 15.983 151.07 15.988C151.101 15.9916 151.133 16.0081 151.152 16.0249C151.187 16.0528 151.167 16.0922 151.1 16.1269C151.073 16.1405 151.033 16.1385 151 16.1422Z" fill="#FFE492"/>
<path d="M251.361 28.9482C251.379 28.9287 251.397 28.9091 251.417 28.891C251.494 28.9141 251.528 28.9426 251.508 28.9768C251.496 28.9976 251.472 29.0158 251.454 29.0353C251.377 29.0123 251.345 28.9823 251.361 28.9482Z" fill="#FFE492"/>
<path d="M110.868 41.5121C110.868 41.4947 110.896 41.4664 110.919 41.4601C110.963 41.4488 111.017 41.4679 111.055 41.5076C111.109 41.5644 111.078 41.5956 110.982 41.582C110.915 41.572 110.869 41.5441 110.868 41.5121Z" fill="#FFE492"/>
<path d="M221.748 22.7827C221.775 22.795 221.803 22.8074 221.828 22.8212C221.794 22.8755 221.751 22.8997 221.705 22.8864C221.675 22.8784 221.65 22.8617 221.623 22.8493C221.657 22.795 221.698 22.7737 221.748 22.7827Z" fill="#FFE492"/>
<path d="M221.017 22.7205C221.058 22.6978 221.108 22.7082 221.168 22.7487C221.149 22.768 221.133 22.79 221.111 22.805C221.072 22.8291 221.019 22.8188 220.962 22.7768C220.978 22.7591 220.997 22.7398 221.017 22.7205Z" fill="#FFE492"/>
<path d="M220.455 22.7888C220.482 22.8011 220.51 22.8135 220.535 22.8273C220.501 22.8817 220.46 22.9058 220.411 22.8925C220.382 22.8845 220.357 22.8678 220.329 22.8554C220.364 22.8011 220.405 22.7784 220.455 22.7888Z" fill="#FFE492"/>
<path d="M220.04 22.7097C220.071 22.7383 220.056 22.7738 219.997 22.8149C219.969 22.8024 219.938 22.7929 219.917 22.7758C219.884 22.7488 219.899 22.7117 219.96 22.6706C219.985 22.6846 220.013 22.6972 220.04 22.7097Z" fill="#FFE492"/>
</svg>
