<svg width="517" height="39" viewBox="0 0 517 39" fill="none" xmlns="http://www.w3.org/2000/svg">
<path d="M482.817 19.368C482.115 19.4006 481.406 19.4237 480.718 19.4716C480.271 19.5015 480.078 19.4182 479.779 19.3752C479.68 19.3603 479.572 19.3301 479.48 19.3342C478.785 19.3668 478.09 19.4032 477.395 19.4396C477.183 19.5146 477.05 19.6142 476.724 19.6514C476.405 19.6867 476.028 19.6879 475.674 19.7061C475.205 19.7285 474.737 19.7509 474.269 19.7714C474.035 19.7816 473.844 19.8184 473.767 19.8873C473.753 19.8988 473.909 19.9269 473.995 19.9438C474.279 20.0002 474.557 20.0642 474.87 20.1071C475.169 20.1482 475.537 20.0784 475.858 20.1309C476.576 20.2488 476.584 20.2469 477.13 20.2224C477.598 20.2 478.066 20.1757 478.535 20.159C478.627 20.155 478.734 20.1832 478.833 20.1982C479.132 20.2392 479.325 20.334 479.765 20.2965C480.098 20.2669 480.467 20.26 480.815 20.2437C481.107 20.2981 481.377 20.3603 481.69 20.4032C481.982 20.4443 482.068 20.4764 481.912 20.5322C481.771 20.5841 481.573 20.6057 481.31 20.6103C481.076 20.6129 480.842 20.6308 480.608 20.641C480.487 20.6471 480.374 20.6513 480.26 20.6574C479.813 20.6797 479.813 20.6797 478.995 20.5601C478.675 20.5134 478.314 20.5812 478.008 20.5363C477.801 20.5065 477.623 20.4612 477.424 20.4294C477.339 20.4163 477.204 20.4148 477.097 20.4189C476.743 20.4334 476.388 20.444 476.047 20.4698C475.806 20.4877 475.665 20.5415 475.694 20.5948C475.702 20.6158 475.873 20.6458 475.972 20.6474C476.199 20.6505 476.44 20.6231 476.66 20.6358C476.874 20.6485 477.094 20.686 477.251 20.7274C477.572 20.8142 477.933 20.7349 478.238 20.7569C478.558 20.7807 478.822 20.8562 479.128 20.9011C479.206 20.9123 479.355 20.8928 479.476 20.8867C479.823 20.8723 480.171 20.8598 480.519 20.8454C480.811 20.8998 481.124 20.9485 481.387 21.0106C481.865 21.1236 482.376 21.1659 482.993 21.1088C483.341 21.0772 483.681 21.0876 483.959 21.1612C484.245 21.2366 484.571 21.228 484.933 21.2116C485.266 21.1954 485.606 21.1524 485.948 21.2048C486.688 21.3208 486.695 21.3265 487.568 21.2781C487.83 21.2639 488.029 21.2595 488.228 21.3028C488.414 21.3423 488.613 21.376 488.805 21.4136C489.153 21.3992 489.507 21.3848 489.855 21.3685C490.302 21.3461 490.551 21.3721 490.659 21.4786C490.724 21.5432 490.753 21.6023 490.91 21.6456C491.095 21.6985 491.294 21.696 491.564 21.6799C491.819 21.6658 492.003 21.6443 492.109 21.5753C492.151 21.5465 492.236 21.5196 492.313 21.4965C492.377 21.4791 492.476 21.4521 492.533 21.4558C492.64 21.4631 492.782 21.4836 492.818 21.5083C493.169 21.738 493.169 21.7399 493.525 21.8056C493.917 21.8788 494.322 21.9443 494.679 22.0272C494.999 22.1006 495.318 22.0672 495.666 22.0662C495.929 22.0654 496.1 22.1145 496.079 22.1641C496.065 22.1928 495.967 22.235 495.882 22.2391C495.186 22.2793 494.484 22.3138 493.782 22.3427C493.697 22.3467 493.59 22.3127 493.49 22.2959C493.291 22.2621 493.112 22.2093 492.899 22.1985C492.686 22.1877 492.438 22.217 492.204 22.2273C491.97 22.2375 491.722 22.2631 491.509 22.2484C491.295 22.2338 491.124 22.179 490.925 22.1434C490.832 22.1265 490.704 22.1021 490.626 22.1081C490.109 22.1554 489.724 22.0936 489.354 22.0108C489.275 21.9939 489.14 21.9828 489.041 21.9869C488.218 22.0219 487.402 22.0624 486.579 22.1012C486.246 22.1174 485.975 22.0515 485.902 21.9392C485.866 21.8763 485.794 21.8136 485.793 21.7507C485.791 21.6363 485.4 21.5745 485.116 21.5887C484.648 21.6092 484.173 21.6259 483.712 21.6559C483.336 21.6799 483.016 21.658 482.759 21.5901C482.46 21.5128 482.119 21.5291 481.779 21.5511C481.524 21.5671 481.453 21.6303 481.47 21.7885C481.486 21.9162 481.366 21.9567 480.905 21.979C480.323 22.0075 479.734 22.036 479.146 22.0587C479.053 22.0628 478.946 22.0307 478.854 22.0138C478.655 21.9801 478.476 21.9253 478.263 21.9145C478.05 21.9018 477.802 21.9312 477.568 21.9433C477.334 21.9535 477.086 21.981 476.872 21.9683C476.659 21.9556 476.481 21.8989 476.289 21.8633C476.196 21.8464 476.082 21.8219 475.99 21.826C475.522 21.8427 475.053 21.867 474.585 21.8894C474.06 21.9138 474.06 21.9138 473.313 21.7978C472.971 21.7455 472.631 21.7884 472.298 21.8047C471.943 21.821 471.61 21.8297 471.332 21.7542C471.146 21.7052 470.94 21.6753 470.72 21.6855C470.131 21.7101 469.55 21.7405 468.961 21.7652C468.861 21.7693 468.726 21.7602 468.648 21.7432C468.271 21.6643 467.9 21.6024 467.376 21.6441C466.922 21.6798 466.432 21.6831 465.978 21.7169C465.73 21.7348 465.617 21.7962 465.668 21.8437C465.696 21.8685 465.846 21.8966 465.945 21.8963C466.173 21.8975 466.421 21.8682 466.634 21.879C467.074 21.9005 467.297 22.0601 467.871 22.0145C468.212 21.9867 468.566 21.9761 468.921 21.9674C469.013 21.9653 469.113 22.0012 469.213 22.02C469.498 22.0706 469.747 22.1366 470.158 22.101C470.499 22.0733 470.861 22.0646 471.208 22.0483C471.762 22.0218 471.762 22.0237 472.481 22.1379C472.822 22.1922 473.162 22.1473 473.496 22.133C473.744 22.1227 473.978 22.1029 474.177 22.129C474.483 22.1681 474.704 22.259 475.081 22.2521C475.435 22.2453 475.783 22.2176 476.138 22.207C476.358 22.2006 476.564 22.2305 476.742 22.2815C476.928 22.3324 477.127 22.3547 477.368 22.3425C477.716 22.3262 478.07 22.3061 478.425 22.2955C478.524 22.2933 478.638 22.3101 478.731 22.3251C478.93 22.3588 479.122 22.3983 479.315 22.4339C479.662 22.4214 480.017 22.4166 480.358 22.3926C480.62 22.3747 480.805 22.3818 481.018 22.4193C481.289 22.4699 481.51 22.5608 481.95 22.5156C482.17 22.494 482.425 22.4989 482.645 22.4792C482.914 22.4536 483.099 22.4626 483.292 22.5192C483.655 22.6268 484.11 22.6274 484.578 22.584C485.088 22.5367 485.472 22.589 485.857 22.6717C486.263 22.7582 486.263 22.7563 486.578 22.9671C486.672 23.0278 486.935 23.0556 487.154 23.0435C487.523 23.0233 487.843 23.0319 488.114 23.1036C488.399 23.1809 488.74 23.1703 489.087 23.1483C489.548 23.1183 490.009 23.0921 490.387 23.2016C490.573 23.2545 490.772 23.2672 491.02 23.2531C491.722 23.2167 492.432 23.1936 493.12 23.1495C493.538 23.1216 493.78 23.1819 494.065 23.2325C494.449 23.3019 494.869 23.3636 494.872 23.5142C494.872 23.539 494.972 23.5673 495.057 23.5862C495.242 23.6257 495.442 23.6594 495.634 23.6969C495.919 23.7533 496.196 23.8001 496.586 23.7685C496.927 23.7426 497.289 23.7339 497.636 23.7157C497.984 23.6975 498.303 23.687 498.617 23.7585C498.98 23.8394 499.364 23.9165 499.777 23.9763C500.069 24.0193 500.451 23.9437 500.764 24.0019C500.957 24.0376 501.142 24.079 501.348 24.1089C501.434 24.122 501.568 24.112 501.682 24.1079C501.916 24.0995 502.157 24.0931 502.384 24.0733C502.647 24.0516 502.845 24.0548 503.045 24.098C503.23 24.1375 503.415 24.1923 503.629 24.2031C503.948 24.2193 504.302 24.1419 504.623 24.2287C504.787 24.2721 504.993 24.3134 505.207 24.3261C505.42 24.3388 505.668 24.3095 505.895 24.3107C505.994 24.3104 506.115 24.3405 506.173 24.3652C506.208 24.3784 506.159 24.4148 506.11 24.434C506.046 24.4571 505.954 24.4879 505.862 24.492C505.16 24.5284 504.458 24.5592 503.755 24.5937C503.337 24.614 503.337 24.614 502.49 24.4964C502.291 24.4684 502.071 24.4748 501.823 24.4889C501.489 24.507 501.149 24.5405 500.801 24.5072C500.344 24.3789 499.783 24.3691 499.188 24.4205C498.94 24.4422 498.712 24.4429 498.527 24.4073C498.136 24.336 497.723 24.2705 497.374 24.1857C497.103 24.1198 496.975 24.1144 496.863 24.2063C496.828 24.235 496.793 24.2656 496.8 24.2923C496.844 24.3875 496.924 24.4807 496.968 24.576C496.983 24.6026 496.926 24.6333 496.891 24.662C496.779 24.7425 496.63 24.7372 496.38 24.6712C496.131 24.6052 495.832 24.5622 495.435 24.594C495.094 24.6217 494.725 24.619 494.385 24.6486C493.86 24.6922 493.49 24.6322 493.113 24.5514C493.034 24.5344 492.899 24.5253 492.8 24.5294C491.743 24.5765 490.693 24.6292 489.636 24.6763C489.409 24.6865 489.203 24.6585 489.024 24.6075C488.839 24.5566 488.633 24.5305 488.405 24.5407C487.469 24.5836 486.533 24.6227 485.596 24.6751C485.213 24.6972 484.908 24.6733 484.644 24.6074C484.444 24.5584 484.26 24.5437 484.011 24.5502C483.742 24.5567 483.55 24.5764 483.416 24.6321C483.289 24.6859 483.382 24.718 483.667 24.7591C483.972 24.8039 484.257 24.8622 484.549 24.9147C484.783 24.9064 485.017 24.8904 485.245 24.8916C485.344 24.8913 485.437 24.9254 485.537 24.9442C485.821 24.9986 486.085 25.0532 486.489 25.0214C486.829 24.9937 487.191 24.9869 487.539 24.9687C488.021 24.9462 488.021 24.9462 488.804 25.064C489.003 25.094 489.216 25.0914 489.471 25.0735C489.691 25.0594 489.919 25.0855 490.076 25.1422C490.14 25.1649 490.12 25.2031 489.987 25.3294C489.988 25.4229 490.136 25.3804 490.185 25.3193C490.262 25.2313 490.112 25.2031 489.829 25.2517C489.631 25.2866 489.532 25.3365 489.583 25.3764C489.611 25.3973 489.747 25.4236 489.987 25.3294C490.61 25.2131 491.085 25.1983 491.539 25.1664C491.808 25.1484 491.979 25.1555 492.193 25.2045C492.449 25.2628 492.706 25.325 493.124 25.2932C493.578 25.2575 494.06 25.2523 494.521 25.2223C494.947 25.1943 495.168 25.2775 495.439 25.3263C495.766 25.3845 496.127 25.3166 496.426 25.35C496.739 25.3834 496.96 25.4667 497.322 25.4808C497.847 25.4278 498.182 25.5221 498.581 25.5839C498.894 25.6306 499.262 25.5875 499.596 25.5655C499.971 25.5415 500.284 25.5616 500.548 25.6294C500.847 25.7067 501.181 25.6886 501.521 25.6704C502.316 25.6298 502.344 25.624 502.807 25.7275C503.142 25.8028 503.461 25.7675 503.794 25.757C504.086 25.8076 504.371 25.862 504.677 25.9069C504.755 25.9181 504.904 25.8986 505.025 25.8925C505.372 25.8762 505.727 25.8599 506.074 25.8436C506.309 25.8333 506.557 25.804 506.77 25.8148C506.983 25.8275 507.161 25.8823 507.354 25.9179C507.546 25.9536 507.745 25.9892 507.93 26.0268C508.215 26.0831 508.485 26.13 508.883 26.1002C509.223 26.0744 509.578 26.0657 509.932 26.0475C510.379 26.0251 510.365 26.0309 511.198 26.1428C511.646 26.2044 512.106 26.1267 512.56 26.1178C512.787 26.1133 513.008 26.1336 513.165 26.1884C513.229 26.2111 513.208 26.2493 513.23 26.2817C512.06 26.3367 510.882 26.3841 509.726 26.4505C509.279 26.4767 509.044 26.4087 508.801 26.3522C508.402 26.2619 507.879 26.3969 507.501 26.2798C507.273 26.2099 506.946 26.1709 506.556 26.2064C506.329 26.2262 506.087 26.225 505.853 26.2428C505.258 26.2866 504.711 26.2902 504.233 26.16C504.069 26.1147 503.835 26.0906 503.664 26.0473C503.464 26.0002 503.272 25.9741 503.038 25.9843C501.981 26.0333 500.931 26.0822 499.881 26.1349C499.789 26.139 499.697 26.1679 499.619 26.1891C499.421 26.2431 499.486 26.2849 499.806 26.3183C499.912 26.3294 499.998 26.3539 500.098 26.3727C500.29 26.4084 500.468 26.465 500.681 26.4778C500.895 26.4905 501.143 26.463 501.377 26.4528C501.611 26.4425 501.859 26.4132 502.072 26.424C502.285 26.4367 502.464 26.4915 502.663 26.5252C502.755 26.5421 502.87 26.5703 502.962 26.5682C503.43 26.5553 503.891 26.5329 504.36 26.5144C504.651 26.565 504.901 26.6386 505.249 26.6547C505.469 26.6655 505.703 26.6438 505.931 26.6469C506.03 26.6485 506.158 26.6768 506.208 26.7014C506.237 26.7166 506.145 26.755 506.074 26.7743C505.806 26.8476 505.437 26.8353 505.103 26.8592C504.742 26.8851 504.415 26.8785 504.137 26.8049C503.951 26.7559 503.745 26.7298 503.518 26.74C502.929 26.7666 502.348 26.797 501.759 26.8197C501.659 26.8238 501.538 26.807 501.446 26.794C500.699 26.6799 500.699 26.6761 500.174 26.7024C499.401 26.741 499.401 26.741 498.881 26.6415C498.781 26.6227 498.674 26.5868 498.589 26.589C497.766 26.622 496.95 26.6549 496.134 26.7012C495.865 26.7154 495.68 26.716 495.481 26.667C495.31 26.6255 495.11 26.5785 494.897 26.5677C494.677 26.5569 494.436 26.5862 494.202 26.5965C493.968 26.6067 493.719 26.6322 493.513 26.6176C493.3 26.603 493.115 26.5501 492.93 26.5126C492.737 26.4731 492.531 26.4756 492.269 26.4916C491.46 26.5379 491.453 26.5323 490.649 26.4164C490.557 26.4034 490.436 26.3885 490.337 26.3926C489.748 26.4172 489.166 26.4476 488.577 26.4723C488.35 26.4825 488.13 26.4584 487.973 26.4035C487.908 26.3808 487.929 26.3426 487.885 26.2683C487.835 26.2513 487.893 26.2817 487.907 26.3103C488.014 26.3061 488.142 26.3095 488.219 26.294C488.418 26.2572 488.516 26.2092 488.466 26.1693C488.437 26.1484 488.302 26.1221 488.217 26.1224C488.061 26.1229 487.926 26.1652 487.885 26.2683C487.439 26.3326 486.964 26.3474 486.503 26.3793C486.233 26.3992 486.063 26.3902 485.849 26.3413C485.592 26.281 485.329 26.2226 484.91 26.2544C484.457 26.2901 483.974 26.2973 483.506 26.3254C482.967 26.3576 482.73 26.1866 482.276 26.1918C481.807 26.197 481.339 26.2309 480.871 26.2552C480.459 26.2755 480.459 26.2755 479.606 26.1541C479.293 26.1092 478.925 26.1771 478.619 26.1303C478.412 26.1004 478.234 26.0552 478.035 26.0234C477.949 26.0103 477.815 26.0107 477.708 26.0148C477.119 26.0395 476.523 26.0565 475.956 26.1002C475.311 26.1517 474.82 26.0998 474.357 25.9887C473.775 26.0114 473.186 26.0246 472.612 26.0626C472.193 26.0906 471.951 26.0284 471.666 25.9777C471.566 25.9609 471.481 25.9325 471.374 25.9252C471.268 25.9179 471.14 25.9335 471.026 25.9396C470.558 25.962 470.076 25.973 469.622 26.0087C469.062 26.0542 468.846 25.8985 468.413 25.8807C468.123 25.975 467.969 26.1033 467.394 26.1146C466.926 26.1236 466.458 26.1555 465.99 26.1779C465.755 26.1882 465.521 26.2003 465.287 26.2106C464.911 26.2289 464.735 26.3038 464.815 26.418C464.858 26.4808 464.895 26.5436 464.931 26.6064C465.004 26.7187 464.828 26.8146 464.53 26.8289C463.707 26.8676 462.891 26.9082 462.068 26.9431C461.848 26.9533 461.635 26.9215 461.456 26.8705C461.271 26.8196 461.065 26.7973 460.838 26.8076C460.015 26.8463 459.199 26.8869 458.376 26.9218C458.284 26.9259 458.163 26.9072 458.071 26.8922C457.871 26.8585 457.679 26.819 457.487 26.7833C457.018 26.8019 456.557 26.8147 456.096 26.839C455.351 26.8756 455.351 26.8775 454.803 26.7742C454.703 26.7555 454.603 26.7195 454.511 26.7217C454.156 26.7304 453.809 26.7505 453.454 26.7688C452.411 26.8215 452.411 26.8215 452.105 26.7652C451.827 26.7126 451.578 26.6486 451.159 26.6803C450.706 26.716 450.223 26.7289 449.755 26.7494C449.407 26.7638 449.06 26.7801 448.712 26.785C448.62 26.7872 448.52 26.7512 448.42 26.7324C448.135 26.6742 447.857 26.6273 447.468 26.6609C447.241 26.6807 446.999 26.6852 446.765 26.6955C446.155 26.724 446.155 26.724 445.152 26.6126C445.053 26.6014 444.932 26.5885 444.833 26.5945C444.01 26.6313 443.194 26.6719 442.371 26.7068C442.272 26.7109 442.151 26.6998 442.051 26.6906C440.928 26.5833 440.928 26.5834 439.736 26.6404C439.282 26.6608 439.268 26.6685 438.791 26.5688C438.577 26.5256 438.399 26.5051 438.151 26.5192C437.215 26.5678 436.271 26.6012 435.342 26.6574C434.923 26.6816 434.681 26.6251 434.396 26.5744C434.297 26.5576 434.19 26.5197 434.105 26.5219C433.168 26.561 432.231 26.6077 431.295 26.6467C431.21 26.6508 431.103 26.613 431.003 26.5961C430.811 26.5623 430.626 26.5114 430.412 26.5006C430.192 26.4898 429.951 26.5192 429.71 26.5294C429.121 26.556 429.121 26.5541 428.438 26.4436C428.345 26.4286 428.224 26.408 428.132 26.4121C427.196 26.4531 426.252 26.4883 425.323 26.5465C424.791 26.5786 424.428 26.5243 424.051 26.4454C423.972 26.4285 423.837 26.4212 423.738 26.4253C422.681 26.4724 421.631 26.5251 420.574 26.5722C420.354 26.5824 420.14 26.5506 419.962 26.5016C419.677 26.4242 419.344 26.4348 418.989 26.453C418.173 26.4955 418.166 26.4936 417.682 26.4035C417.582 26.3848 417.497 26.3602 417.39 26.351C417.29 26.3418 417.163 26.3479 417.056 26.352C416.588 26.3725 416.12 26.3949 415.652 26.4173C415.184 26.4397 414.708 26.4526 414.247 26.4864C413.68 26.5281 413.408 26.405 413.01 26.3489C412.428 26.3755 411.832 26.3925 411.257 26.4343C410.818 26.4662 410.611 26.3829 410.319 26.3399C410.219 26.3249 410.112 26.2928 410.02 26.2969C408.963 26.3421 407.906 26.391 406.856 26.4457C406.601 26.4579 406.43 26.4431 406.216 26.398C405.739 26.2965 405.718 26.3003 404.923 26.3409C404.576 26.3591 404.242 26.3754 403.943 26.2981C403.679 26.2283 403.36 26.2121 402.984 26.2361C402.523 26.2661 402.047 26.2828 401.579 26.3033C401.111 26.3257 400.643 26.3557 400.174 26.3666C399.798 26.3773 399.57 26.2884 399.271 26.2435C399.178 26.2304 399.051 26.2289 398.944 26.233C398.476 26.2516 397.993 26.2664 397.539 26.3002C396.986 26.3419 396.679 26.2379 396.288 26.1781C396.203 26.165 396.061 26.173 395.954 26.1791C395.131 26.2159 394.316 26.2565 393.493 26.2952C393.201 26.2446 392.902 26.1959 392.61 26.1453C392.142 26.1658 391.674 26.1882 391.205 26.2086C390.851 26.225 390.489 26.2318 390.155 26.2614C389.723 26.3008 389.509 26.2118 389.217 26.1689C389.117 26.1539 389.01 26.1218 388.918 26.1259C388.329 26.1487 387.74 26.1733 387.159 26.2075C386.605 26.2416 386.383 26.0706 385.929 26.0739C385.46 26.0772 384.978 26.1034 384.524 26.1391C383.999 26.1808 383.629 26.1208 383.252 26.04C383.173 26.023 383.038 26.0139 382.939 26.018C382.35 26.0427 381.768 26.073 381.179 26.0977C381.08 26.1018 380.959 26.0927 380.86 26.0815C379.736 25.9724 379.736 25.9705 379.247 25.9948C378.899 26.0111 378.545 26.0313 378.19 26.0419C378.09 26.046 377.969 26.0292 377.877 26.0142C377.137 25.9001 377.137 25.8982 376.605 25.9227C376.136 25.9451 375.668 25.9674 375.2 25.9898C374.908 25.9392 374.609 25.8905 374.317 25.8399C373.736 25.8665 373.14 25.8873 372.565 25.9234C372.296 25.9395 372.118 25.9343 371.912 25.8872C371.655 25.8308 371.398 25.7648 370.973 25.7985C370.519 25.8342 370.037 25.8395 369.576 25.8695C369.022 25.9055 368.793 25.7326 368.345 25.7359C367.877 25.7392 367.394 25.7654 366.941 25.8011C366.416 25.8427 366.046 25.7828 365.668 25.702C365.59 25.685 365.455 25.6759 365.356 25.68C364.065 25.7392 362.78 25.7984 361.489 25.8614C360.695 25.9 360.695 25.9019 359.181 25.8016C359.075 25.7943 358.961 25.787 358.854 25.7911C358.386 25.8097 357.903 25.8245 357.45 25.8583C356.897 25.9 356.59 25.798 356.198 25.7362C356.113 25.7231 355.978 25.7311 355.865 25.7353C355.51 25.7497 355.162 25.7679 354.808 25.7843C354.339 25.8067 353.871 25.829 353.403 25.8514C353.111 25.8027 352.812 25.7521 352.52 25.7034C351.939 25.73 351.343 25.7451 350.768 25.7869C350.328 25.8187 350.121 25.7393 349.83 25.6944C349.73 25.6794 349.623 25.6473 349.531 25.6495C348.474 25.6946 347.417 25.7417 346.367 25.7982C345.934 25.8224 345.734 25.7372 345.442 25.6942C345.343 25.6812 345.229 25.6567 345.136 25.6608C344.434 25.6896 343.732 25.7242 343.029 25.7587C342.632 25.779 342.632 25.779 341.764 25.6633C341.665 25.6503 341.551 25.6373 341.452 25.6414C339.224 25.7435 337.003 25.8512 334.776 25.9533C334.549 25.9635 334.343 25.9355 334.164 25.8846C333.979 25.8336 333.773 25.8076 333.546 25.8178C332.609 25.8607 331.665 25.8998 330.736 25.9521C330.353 25.9743 330.048 25.9504 329.784 25.8844C329.584 25.8354 329.4 25.8169 329.151 25.8291C328.683 25.8534 328.215 25.8739 327.747 25.8963C327.278 25.9187 326.81 25.9411 326.342 25.9635C325.874 25.9859 325.398 25.9987 324.937 26.0325C324.37 26.0743 324.091 25.9569 323.7 25.8989C322.998 25.9297 322.295 25.9604 321.6 25.993C320.663 26.0359 319.727 26.0826 318.791 26.1235C318.705 26.1276 318.599 26.0936 318.499 26.0767C318.207 26.0299 317.993 25.9638 317.56 25.9861C315.461 26.0935 313.346 26.1857 311.24 26.2912C310.8 26.3135 310.607 26.2321 310.308 26.1891C310.208 26.1761 310.094 26.1497 310.002 26.1538C308.832 26.205 307.661 26.2619 306.491 26.317C306.015 26.3394 306.015 26.3394 305.218 26.2235C305.126 26.2105 305.005 26.1936 304.905 26.1978C303.38 26.2672 301.862 26.3404 300.337 26.4118C300.11 26.422 299.903 26.3959 299.718 26.345C299.54 26.294 299.326 26.2661 299.106 26.2763C297.702 26.3415 296.29 26.4049 294.893 26.4759C294.517 26.4961 294.204 26.4799 293.933 26.412C293.741 26.363 293.549 26.3426 293.308 26.3548C291.201 26.4546 289.093 26.5506 286.987 26.6561C286.582 26.6764 286.298 26.641 286.041 26.5788C285.835 26.5299 285.657 26.5209 285.401 26.5293C285.132 26.5396 284.969 26.5611 284.821 26.6187C284.63 26.6937 284.511 26.7875 284.057 26.7946C283.588 26.8017 283.113 26.8261 282.652 26.8599C282.212 26.8936 282.005 26.8084 281.727 26.7577C281.521 26.7221 281.329 26.717 281.067 26.7349C280.826 26.7509 280.677 26.7838 280.536 26.8452C280.226 26.9759 280.197 26.976 279.813 26.8951C279.606 26.8519 279.421 26.8181 279.194 26.8264C278.258 26.8674 277.321 26.9122 276.385 26.9588C275.846 26.9853 275.839 26.9891 275.433 26.895C275.233 26.8479 275.041 26.8256 274.807 26.8377C272.232 26.9599 269.656 27.0783 267.081 27.2062C266.684 27.2265 266.414 27.1872 266.129 27.1309C266.036 27.1121 265.944 27.0856 265.837 27.0783C265.73 27.071 265.61 27.079 265.496 27.0832C263.623 27.1708 261.743 27.2547 259.878 27.3519C259.452 27.3741 259.224 27.3138 258.932 27.2651C258.833 27.2482 258.747 27.2218 258.64 27.2145C258.534 27.2091 258.406 27.2228 258.293 27.2289C256.42 27.3165 254.54 27.4004 252.674 27.4975C252.227 27.5199 252.034 27.4403 251.743 27.3993C251.643 27.3843 251.536 27.356 251.444 27.3601C250.855 27.3829 250.273 27.4132 249.684 27.4398C248.28 27.507 246.875 27.5703 245.47 27.6394C244.931 27.6658 244.694 27.4968 244.24 27.5058C243.651 27.5171 243.069 27.557 242.481 27.5855C242.012 27.6078 241.544 27.6283 241.076 27.6526C240.615 27.675 240.615 27.675 239.463 27.5678C239.364 27.5586 239.243 27.5456 239.143 27.5497C237.505 27.6252 235.859 27.7008 234.227 27.782C233.851 27.8003 233.539 27.7917 233.268 27.7219C233.075 27.6729 232.876 27.6487 232.642 27.6609C230.181 27.777 227.726 27.8931 225.264 28.0073C225.172 28.0114 225.051 27.9927 224.958 27.9777C224.759 27.944 224.567 27.9045 224.375 27.8689C224.233 27.9132 224.049 27.9538 223.958 28.0036C223.831 28.0708 223.661 28.0904 223.391 28.1026C223.122 28.1149 222.951 28.1116 222.738 28.0626C222.481 28.0024 222.218 27.9555 221.799 27.9758C219.224 28.1037 216.649 28.2202 214.074 28.3462C213.648 28.3665 213.448 28.2832 213.149 28.2403C213.05 28.2272 212.936 28.2066 212.843 28.2107C211.786 28.2577 210.736 28.3086 209.679 28.3575C206.749 28.496 203.819 28.6288 200.897 28.775C200.365 28.8014 200.002 28.7548 199.624 28.6739C199.546 28.657 199.411 28.6478 199.312 28.6519C195.211 28.8436 191.111 29.0371 187.017 29.2306C186.797 29.2408 186.584 29.211 186.406 29.1619C186.22 29.111 186.014 29.0868 185.787 29.097C183.914 29.1847 182.041 29.2723 180.168 29.3619C179.7 29.3843 179.693 29.3862 179.209 29.2961C179.109 29.2773 179.002 29.2414 178.924 29.2455C178.761 29.2555 178.606 29.3036 178.493 29.3688C178.381 29.4378 178.203 29.4574 177.941 29.4716C177.671 29.4857 177.494 29.4806 177.287 29.4354C177.024 29.379 176.781 29.3244 176.356 29.3448C170.971 29.6051 165.587 29.8559 160.202 30.1143C159.77 30.1347 159.57 30.0552 159.271 30.0123C159.171 29.9992 159.071 29.9804 158.965 29.9769C158.851 29.9735 158.731 29.9853 158.617 29.9913C149.835 30.405 141.052 30.8205 132.269 31.2341C131.744 31.2586 131.751 31.2586 131.179 31.4358C131.108 31.457 131.016 31.4858 130.917 31.4899C128.228 31.6201 125.533 31.7465 122.837 31.8728C121.666 31.9279 120.496 31.9848 119.325 32.0379C118.907 32.0563 118.907 32.0563 117.909 32.2653C117.824 32.2828 117.725 32.3059 117.625 32.3101C112.943 32.532 108.261 32.754 103.572 32.9722C103.203 32.9886 102.905 33.0238 102.736 33.1159C102.617 33.1811 102.461 33.2197 102.227 33.2319C98.9493 33.3867 95.6719 33.5434 92.3872 33.6944C91.9971 33.7128 91.7635 33.7669 91.573 33.8476C91.5096 33.8745 91.4532 33.9051 91.3612 33.9245C91.2763 33.9419 91.1486 33.948 91.0422 33.954C88.2329 34.0865 85.4237 34.2227 82.6072 34.3495C82.1886 34.3679 82.0192 34.439 81.8145 34.514C81.7439 34.539 81.6947 34.5735 81.6027 34.5909C81.5106 34.6064 81.3757 34.6068 81.2622 34.611C78.9211 34.721 76.5801 34.833 74.239 34.943C73.7845 34.9349 73.6867 35.0458 73.4677 35.1132C73.39 35.1363 73.3338 35.167 73.2417 35.1825C73.1425 35.1981 73.0146 35.1966 72.8939 35.2007C71.0211 35.2884 69.1483 35.3818 67.2682 35.4637C66.8354 35.4822 66.7517 35.5797 66.5184 35.6472C66.4407 35.6684 66.3632 35.701 66.271 35.707C65.1005 35.7659 63.93 35.8209 62.7594 35.874C62.3692 35.8923 62.3692 35.8904 61.6834 36.0813C61.6057 36.1025 61.5136 36.1257 61.4143 36.1317C59.6621 36.2171 57.9028 36.2987 56.1434 36.3822C55.9164 36.3924 55.7609 36.4387 55.6483 36.5038C55.5357 36.569 55.3731 36.6115 55.1461 36.6217C53.7415 36.6889 52.3367 36.7579 50.932 36.8194C50.5418 36.8358 50.287 36.8843 50.1179 36.9706C49.9911 37.0358 49.8355 37.0687 49.5872 37.0809C48.1825 37.1462 46.7779 37.2172 45.366 37.2748C44.9545 37.2913 44.7425 37.3568 44.5733 37.4374C44.4394 37.5027 44.2836 37.526 44.0211 37.5383C41.4458 37.6566 38.8635 37.775 36.2956 37.9048C35.8628 37.9271 35.6417 37.861 35.357 37.8142C34.9513 37.7487 34.5741 37.6773 34.5718 37.5286C34.5715 37.5057 34.4504 37.4793 34.3649 37.4605C33.7309 37.3194 33.7309 37.3194 33.6291 37.1671C33.5709 37.0739 33.5056 36.9787 33.4544 36.8835C33.3598 36.7274 33.1319 36.688 32.4792 36.7186C32.2451 36.7288 32.011 36.7429 31.7769 36.7512C31.4292 36.7656 31.1657 36.7035 31.1 36.5892C31.0636 36.5264 31.0201 36.4636 30.9836 36.4008C31.3383 36.3844 31.3311 36.3826 31.9523 36.1499C32.2135 36.0519 32.2136 36.0519 31.7081 35.9561C31.5158 35.9204 31.3306 35.8809 31.1242 35.8472C31.0317 35.8323 30.9109 35.8231 30.8116 35.8272C30.2227 35.8519 29.641 35.8803 29.0593 35.9088C28.1229 35.9535 28.1228 35.9535 27.1685 35.7619C27.0902 35.7469 26.9691 35.7186 26.983 35.7033C27.0601 35.6325 27.2512 35.6014 27.4925 35.5931C27.8473 35.5805 28.1948 35.5604 28.5424 35.5441C28.7766 35.5339 29.0106 35.5218 29.2448 35.5115C29.4637 35.4384 29.6899 35.3671 29.8947 35.2921C30.2195 35.1767 30.2193 35.1729 29.7708 35.0941C29.4861 35.0416 29.1801 34.9948 28.8883 34.9461C28.5406 34.9624 28.186 34.9807 27.8383 34.9951C27.3984 35.0135 27.2204 34.9778 27.1049 34.8542C27.0039 34.7458 27.1231 34.652 27.4635 34.6281C27.811 34.6042 28.1375 34.5879 28.3135 34.4901C28.4824 34.3962 28.78 34.359 29.149 34.3503C29.3832 34.3438 29.6173 34.3298 29.8514 34.3177C30.1564 34.3015 30.3182 34.2037 30.2527 34.0952C30.2161 34.0247 30.1442 33.9658 29.8671 33.9514C28.6379 33.8884 28.6237 33.8903 28.0112 33.7625C27.9542 33.7512 27.9112 33.717 27.9322 33.6998C27.9673 33.6711 28.0448 33.6289 28.1299 33.6229C28.9456 33.5785 29.7614 33.5379 30.5773 33.5068C30.847 33.4965 31.0456 33.4825 31.1368 33.4116C31.2631 33.314 31.2049 33.2245 30.9554 33.1585C30.877 33.1378 30.7487 33.1115 30.6636 33.1136C29.727 33.1508 28.7977 33.1975 27.8612 33.2346C27.7761 33.2387 27.6195 33.2067 27.5836 33.1821C27.5119 33.1365 27.6174 33.0751 27.8655 33.0534C28.1916 33.0238 28.5253 33.0209 28.7439 32.9249C29.0471 32.7886 29.4214 32.6635 29.7602 32.5328C29.8166 32.5097 29.9083 32.4655 29.887 32.4618C29.7089 32.4204 29.5025 32.3886 29.3173 32.3491C29.0039 32.2833 29.0024 32.1898 29.072 32.1C29.1277 32.0273 29.3403 31.9981 29.6029 31.9973C29.7165 31.997 29.8585 31.9965 29.9505 31.9791C30.1912 31.9364 30.2685 31.8828 30.1472 31.8431C30.0759 31.8204 29.9477 31.7884 29.8626 31.7924C28.3443 31.86 26.8188 31.9256 25.3079 32.0083C24.8611 32.0326 24.6542 31.9607 24.3837 31.91C24.1772 31.8706 23.9852 31.8559 23.73 31.8853C23.4891 31.9127 23.2547 31.8982 23.1046 31.8357C22.9831 31.7846 23.1954 31.7401 23.7697 31.6887C23.876 31.6789 23.9966 31.6728 24.0744 31.6535C24.8947 31.445 24.8946 31.4431 25.4622 31.4147C26.0155 31.3883 26.0156 31.3863 26.305 31.2749C26.4391 31.223 26.5872 31.171 26.7142 31.1172C26.7636 31.0961 26.8483 31.0577 26.8197 31.0463C26.6626 30.9877 26.4494 30.975 26.2011 30.9891C25.6479 31.0232 24.9945 30.9984 24.7062 31.1805C24.5936 31.2495 24.4164 31.2691 24.1611 31.2813C21.5929 31.3997 19.0248 31.5257 16.4495 31.6402C16.0309 31.6586 15.8404 31.7298 15.6783 31.8085C15.5373 31.8737 15.3814 31.8933 15.1118 31.9055C14.8422 31.9178 14.6292 31.9242 14.4721 31.8617C14.3792 31.8238 14.4565 31.7702 14.6687 31.7162C14.9728 31.6389 14.9145 31.5438 14.8137 31.4544C14.7418 31.3955 14.5211 31.3542 14.2869 31.3587C13.9392 31.3674 13.6059 31.3894 13.3137 31.314C13.1427 31.2706 12.9292 31.2407 12.7369 31.2032C12.3666 31.1261 11.9962 31.0471 11.4788 31.1002C11.1235 31.0822 10.874 31.0143 10.5892 30.9617C10.1123 30.8754 10.0695 30.8622 10.4088 30.7677C10.7905 30.6617 10.4902 30.5253 10.7016 30.4216C10.9271 30.3103 11.2381 30.2121 11.5134 30.1083C11.5839 30.0814 11.6475 30.0564 11.7181 30.0295C11.5542 29.9919 11.4044 29.9446 11.2123 29.9185C10.9634 29.8849 10.8349 29.8434 10.8473 29.7251C10.7974 29.708 10.8192 29.7518 10.8762 29.7631C10.9402 29.7744 11.0964 29.7644 11.1743 29.7508C11.3725 29.7139 11.471 29.666 11.4207 29.6261C11.392 29.6052 11.2568 29.5789 11.1716 29.5791C11.0155 29.5796 10.8812 29.622 10.8402 29.7251C10.0463 29.8057 9.22328 29.8463 8.40026 29.8793C8.31513 29.8834 8.20812 29.8455 8.10845 29.8268C7.7809 29.7629 7.78089 29.7648 6.82223 29.7486C6.72281 29.747 6.58759 29.7207 6.53749 29.6942C6.32984 29.5785 6.33505 29.4507 6.23377 29.327C6.41712 29.2463 6.60035 29.1676 6.79083 29.0888C7.17176 28.9294 7.66668 28.7887 7.96219 28.6142C7.89687 28.521 7.81024 28.4278 8.12144 28.3505C9.00736 28.2525 9.00031 28.2525 9.24028 28.1603C9.92493 27.8988 10.6024 27.6355 11.3155 27.3777C11.5062 27.3104 11.5056 27.2742 11.1644 27.2466C11.0578 27.2393 10.9441 27.2377 10.8305 27.2419C10.4758 27.2563 10.1214 27.2917 9.77341 27.2851C9.42547 27.2804 9.16863 27.1973 8.88388 27.1467C8.592 27.0941 8.30011 27.0397 8.00821 26.9853C7.67464 26.992 7.34186 27.0464 7.0069 26.9616C6.75032 26.8956 6.43015 26.8489 6.13825 26.7945C6.3561 26.6489 6.76622 26.537 7.08373 26.4083C7.37301 26.291 7.37998 26.2929 8.1595 26.201C8.52801 26.1579 8.65251 25.942 8.33919 25.88C7.96178 25.8048 7.56324 25.7355 7.17879 25.6641C6.84522 25.6709 6.50532 25.7234 6.18455 25.6386C5.9351 25.5745 5.65041 25.5314 5.23905 25.5575C4.54398 25.6015 3.83442 25.6246 3.13214 25.6611C2.89095 25.6733 2.62809 25.6664 2.52062 25.6019C2.44893 25.5564 2.65385 25.4928 2.88792 25.4787C3.24258 25.4586 3.56165 25.4348 3.73767 25.3389C3.90659 25.243 4.21847 25.2134 4.58742 25.199C4.68675 25.1948 4.80007 25.1716 4.84941 25.1486C5.10329 25.0372 5.38581 24.941 5.9325 24.9432C6.15908 24.9043 6.27896 24.8563 6.20727 24.8107C6.1643 24.7861 6.0148 24.7541 5.92967 24.7582C5.34074 24.779 4.75184 24.7999 4.17734 24.8359C3.90781 24.852 3.70188 24.8564 3.53063 24.7997C3.40937 24.7619 3.47247 24.7103 3.69879 24.6543C3.89683 24.606 3.95285 24.5505 3.93766 24.4857C3.89986 24.3351 3.68618 24.2919 3.00482 24.3035C2.5151 24.3126 2.39403 24.2882 2.28557 24.1588C2.2567 24.1284 2.1852 24.0867 2.23457 24.0655C2.53785 23.9349 2.73419 23.7741 3.30828 23.7114C3.5351 23.6878 3.77637 23.6871 3.91759 23.6371C4.05882 23.587 4.18579 23.5294 4.33414 23.4813C4.51784 23.4235 4.64468 23.3698 4.55894 23.3338C4.41597 23.2694 4.18879 23.2643 3.92648 23.288C3.6996 23.3078 3.45827 23.3104 3.22417 23.3225C2.80565 23.3448 2.46422 23.2962 2.41324 23.2125C2.27498 22.9916 2.12961 22.7727 2.00555 22.5519C1.99094 22.5252 2.02582 22.4908 2.08226 22.4677C2.27981 22.387 2.4917 22.3101 2.69638 22.2313C2.93638 22.1409 3.32005 22.1569 3.64634 22.1388C4.1074 22.1126 4.10727 22.1145 4.72209 21.9296C4.96235 21.8564 5.38165 21.8837 5.62913 21.8181C5.7069 21.7969 5.82705 21.7622 5.80547 21.7432C5.77669 21.7185 5.6345 21.6998 5.52784 21.6887C5.42827 21.6776 5.30753 21.6722 5.20113 21.6783C3.90995 21.7375 2.62597 21.8005 1.33476 21.8578C1.11484 21.868 0.872822 21.8267 0.79383 21.7678C0.714896 21.7128 0.735104 21.6459 0.719945 21.583C0.924623 21.5042 1.15769 21.4311 1.33389 21.3466C1.46778 21.2814 1.62355 21.2523 1.89325 21.2477C2.24812 21.2409 2.59566 21.2169 2.99294 21.1986C3.72699 20.9179 4.44658 20.6239 5.23742 20.3431C5.55516 20.2296 5.47545 20.1154 5.53751 19.9951C5.59971 19.8843 6.07558 19.9 6.39454 19.8666C6.6497 19.8392 6.73384 19.7779 6.63382 19.7362C6.57664 19.7116 6.44849 19.6834 6.34911 19.6836C6.11484 19.6844 5.88084 19.7022 5.64672 19.7125C5.4126 19.7227 5.14276 19.7178 4.95158 19.7508C4.76747 19.7819 4.64771 19.8471 4.52787 19.9027C4.39392 19.9642 4.21689 19.9857 3.94719 19.9903C3.59939 19.9952 3.25182 20.0134 2.90417 20.0278C2.51969 19.9546 2.12095 19.8833 1.75061 19.8062C1.67939 19.7912 1.66444 19.7474 1.67111 19.7187C1.68417 19.6443 1.57701 19.5989 1.34219 19.5633C1.14295 19.5334 0.978991 19.49 0.793834 19.4525C0.935028 19.4005 1.0905 19.3505 1.20324 19.2948C1.44993 19.1777 1.76105 19.0929 2.30063 19.0951C2.51246 19.0201 2.6814 18.928 2.95747 18.8757C3.21938 18.8253 3.66739 18.8735 3.86445 18.7604C3.96299 18.7048 4.11119 18.6414 4.30252 18.6179C4.60722 18.5808 5.00505 18.5987 5.1809 18.4914C5.28645 18.43 5.44172 18.3742 5.64736 18.3583C5.88137 18.3405 6.12261 18.3359 6.29244 18.2992C6.38443 18.2798 6.48337 18.249 6.48296 18.2223C6.4827 18.2052 6.34042 18.1789 6.24086 18.1677C6.14837 18.1547 6.0274 18.1455 5.92097 18.1496C5.5662 18.1621 5.21867 18.1842 4.86389 18.1967C4.76457 18.2008 4.65081 18.1878 4.54415 18.1767C4.23133 18.1471 4.252 18.1089 4.49942 18.0395C4.74687 17.972 4.92313 17.8856 5.12781 17.8068C5.35477 17.7928 5.63878 17.7976 5.7944 17.7609C6.05617 17.701 6.23938 17.6146 6.45122 17.5396C6.68531 17.5275 6.9266 17.5229 7.14635 17.5013C7.23853 17.4934 7.28051 17.4513 7.35822 17.4263C7.49948 17.3782 7.61921 17.3091 7.81053 17.2857C8.12237 17.2504 8.50591 17.2626 8.68888 17.1572C8.79444 17.0958 8.95666 17.0305 9.15538 17.0261C9.70898 17.0168 9.94166 16.9112 10.2241 16.8111C10.4359 16.7361 10.8909 16.7729 11.124 16.6978C11.2795 16.6497 11.3922 16.5902 11.5477 16.5439C11.6113 16.5247 11.746 16.5147 11.8524 16.5087C12.4341 16.4783 13.0229 16.4556 13.6046 16.4233C13.6968 16.4173 13.7816 16.3885 13.8523 16.3654C14.0006 16.3153 14.0917 16.2464 14.2758 16.2134C14.4599 16.1804 14.7225 16.1796 14.9495 16.1694C15.6803 16.1386 15.7372 16.1461 16.0684 15.9829C16.3362 15.8505 16.9979 15.942 17.2158 15.7964C17.3423 15.7121 17.5754 15.6427 17.9941 15.6319C18.5831 15.6168 19.1646 15.5788 19.7535 15.5523C20.2785 15.5278 20.2714 15.5278 20.8366 15.3487C21.0909 15.2679 21.4674 15.2782 21.8009 15.2619C22.1556 15.2456 22.4817 15.2217 22.6507 15.1259C22.8196 15.0319 23.1315 15.0004 23.4933 14.986C23.8268 14.9716 24.2032 14.98 24.4647 14.903C25.1009 14.718 25.0937 14.7161 25.5407 14.6956C26.243 14.663 26.9453 14.6304 27.6477 14.5958C28.1159 14.5735 28.6056 14.5682 29.0451 14.5249C29.3641 14.4934 29.5044 14.3862 29.7092 14.3112C30.2908 14.2808 30.8725 14.2504 31.4542 14.222C32.27 14.1814 33.093 14.1446 33.9159 14.1059C34.2697 14.0323 34.3171 13.872 34.9133 13.8626C35.2682 13.8577 35.6157 13.8318 35.9704 13.8155C36.5592 13.787 37.1408 13.751 37.7298 13.7358C38.1769 13.7249 38.2533 13.6217 38.4865 13.5562C38.5643 13.533 38.6348 13.5004 38.727 13.4944C39.6491 13.4382 40.6001 13.4239 41.5005 13.343C41.5927 13.3351 41.6773 13.2948 41.6981 13.2661C41.7121 13.2508 41.591 13.2226 41.5127 13.2095C41.4202 13.1945 41.2993 13.1796 41.2 13.1837C38.27 13.3203 35.3402 13.4589 32.4102 13.5955C31.9988 13.6158 31.9988 13.6139 31.001 13.8267C30.9161 13.8441 30.8169 13.8635 30.7105 13.8695C30.2423 13.8938 29.7669 13.9086 29.3059 13.9386C28.93 13.9626 28.6174 13.9406 28.3465 13.8728C28.1541 13.8238 27.955 13.8091 27.7137 13.8137C27.444 13.8202 27.267 13.8417 27.1116 13.8937C26.9068 13.9649 26.8017 14.0567 26.3689 14.0771C24.3753 14.1651 22.3818 14.2627 20.3954 14.3564C20.1181 14.3305 19.9827 14.2909 20.0529 14.243C20.0951 14.2143 20.1797 14.1759 20.2649 14.1718C21.0806 14.1293 21.9036 14.0925 22.7194 14.0519C22.8329 14.0458 22.9891 14.0491 23.0527 14.0299C23.3637 13.9431 23.4753 13.8036 24.0644 13.7922C24.4051 13.7855 24.7524 13.7558 25.0786 13.7282C25.1707 13.7203 25.2553 13.6799 25.2762 13.6513C25.2831 13.636 25.169 13.6077 25.0836 13.5946C24.7704 13.5403 24.4095 13.6081 24.0965 13.5709C23.9899 13.5579 23.8404 13.5393 23.8187 13.5164C23.8042 13.4955 23.9244 13.4608 24.0093 13.4396C24.0871 13.4203 24.1932 13.4028 24.2996 13.3967C25.236 13.3501 26.1725 13.3015 27.1091 13.2643C27.4922 13.2498 27.7612 13.2013 27.9302 13.1131C28.057 13.0478 28.2127 13.013 28.4539 13.0028C30.0927 12.9273 31.7313 12.8442 33.3773 12.7743C33.7888 12.7578 34.0009 12.6943 34.17 12.6118C34.3039 12.5465 34.4598 12.5231 34.7223 12.5109C37.0705 12.4047 39.4044 12.287 41.7527 12.1846C42.1855 12.1661 42.3121 12.0837 42.5311 12.0125C42.6088 11.9875 42.6579 11.9568 42.757 11.9412C42.8562 11.9257 42.984 11.9272 43.1046 11.923C44.9775 11.8354 46.8504 11.742 48.7305 11.6601C49.1704 11.6416 49.254 11.5459 49.4801 11.4785C49.5579 11.4573 49.6284 11.4228 49.7206 11.4168C51.1253 11.3477 52.5299 11.2824 53.9345 11.2152C54.871 11.1705 55.8074 11.1257 56.7438 11.0828C57.205 11.0623 57.205 11.0604 57.8269 10.8774C57.8976 10.8562 57.9967 10.8311 58.0889 10.8251C60.7846 10.6949 63.4733 10.5705 66.1691 10.4422C66.3961 10.432 66.5587 10.3876 66.6713 10.3224C66.7839 10.2572 66.9467 10.2129 67.1666 10.2027C69.2735 10.101 71.3805 10.0012 73.4946 9.90517C73.8777 9.88876 74.1467 9.84217 74.3158 9.75584C74.4426 9.69061 74.5982 9.65582 74.8395 9.64556C76.9465 9.54766 79.0535 9.44403 81.1677 9.34993C81.5721 9.33155 81.7698 9.26612 81.9674 9.18923C82.038 9.16232 82.0941 9.11828 82.1792 9.11421C83.2291 9.05764 84.2718 8.99919 85.329 8.95977C85.7689 8.94319 85.9168 8.86263 86.0931 8.78581C86.2341 8.72435 86.3971 8.70289 86.6668 8.69445C87.2557 8.67551 87.8373 8.64135 88.4119 8.60719C88.497 8.60122 88.6028 8.55894 88.6095 8.53221C88.623 8.48258 88.4591 8.44874 88.1891 8.43239C85.3797 8.56482 82.5634 8.69727 79.7541 8.8297C79.293 8.85207 79.2929 8.85208 78.671 9.03514C78.6003 9.05633 78.5012 9.08143 78.4019 9.08745C75.7061 9.21573 73.0175 9.34208 70.3217 9.47035C70.0947 9.48057 69.9321 9.52493 69.8195 9.59011C69.7069 9.6553 69.5441 9.69965 69.3242 9.70985C66.749 9.83204 64.1739 9.95615 61.5915 10.0726C61.2084 10.089 60.9394 10.1337 60.7704 10.2219C60.6436 10.2872 60.4879 10.322 60.2467 10.3323C57.785 10.4465 55.3303 10.5664 52.8614 10.6768C52.6131 10.6871 52.4278 10.6323 52.4412 10.5808C52.4479 10.5541 52.5536 10.5099 52.6387 10.5058C53.9226 10.439 55.1996 10.3703 56.4909 10.3188C56.9237 10.3022 57.0501 10.2179 57.2691 10.1467C57.3397 10.1217 57.396 10.0891 57.4881 10.0755C57.5873 10.0599 57.7151 10.0614 57.8357 10.0572C60.8791 9.91267 63.9226 9.76618 66.9732 9.62921C67.4131 9.60881 67.4967 9.51509 67.7229 9.44766C67.8006 9.42454 67.8711 9.39 67.9634 9.38591C68.8997 9.33732 69.8362 9.29444 70.7726 9.25157C72.4114 9.17415 74.0501 9.09674 75.696 9.01931C76.1713 8.9969 76.1713 8.99689 76.7791 8.81578C76.8498 8.79458 76.9488 8.7676 77.0411 8.76351C81.3756 8.55782 85.7103 8.35213 90.0448 8.14835C90.2719 8.13813 90.4345 8.09378 90.547 8.02859C90.6597 7.96531 90.8222 7.91905 91.0421 7.90694C96.9019 7.62991 102.755 7.35288 108.615 7.07966C108.998 7.06134 109.267 7.02048 109.436 6.93033C109.555 6.86512 109.718 6.83031 109.959 6.81814C116.401 6.51456 122.843 6.21098 129.291 5.90547C133.626 5.70169 137.96 5.4941 142.295 5.29413C142.692 5.27577 142.904 5.21599 143.102 5.1372C143.165 5.11031 143.229 5.06625 143.314 5.06218C144.243 5.0117 145.172 4.96504 146.102 4.91837C146.393 4.96899 146.685 5.01771 146.977 5.06833C147.196 4.99519 147.408 4.92017 147.627 4.84703C149.032 4.78749 150.415 4.6975 151.834 4.66652C151.926 4.66434 152.026 4.70028 152.126 4.71905C152.788 4.83721 153.164 4.82654 153.58 4.66508C153.729 4.60742 153.856 4.55554 154.083 4.54532C154.785 4.50887 155.495 4.48385 156.19 4.4417C156.566 4.41959 156.878 4.43772 157.149 4.50556C157.341 4.55457 157.541 4.57496 157.775 4.56281C159.066 4.5017 160.35 4.44252 161.641 4.3776C161.733 4.37351 161.818 4.34082 161.888 4.31772C162.037 4.26768 162.164 4.21391 162.305 4.16199C162.497 4.19383 162.711 4.21799 162.867 4.25948C163.067 4.30846 163.251 4.3079 163.521 4.29373C168.671 4.04744 173.829 3.80686 178.979 3.55866C179.419 3.53826 179.612 3.61779 179.911 3.65885C180.01 3.67381 180.11 3.69257 180.217 3.69607C180.33 3.69954 180.451 3.68774 180.564 3.68168C184.431 3.49838 188.297 3.31698 192.163 3.13368C192.674 3.10926 192.674 3.10926 193.436 3.22521C193.528 3.24019 193.649 3.25699 193.748 3.25097C195.508 3.17129 197.267 3.0859 199.019 3.00433C199.246 2.99411 199.439 3.02404 199.645 3.06728C200.051 3.15189 200.079 3.15181 200.376 3.02504C200.517 2.96549 200.665 2.92879 200.899 2.91092C201.154 2.89108 201.361 2.8962 201.56 2.92993C201.845 2.97675 202.052 3.05622 202.484 3.03394C204.357 2.93865 206.237 2.85862 208.103 2.76145C208.529 2.73919 208.757 2.80334 209.041 2.85016C209.141 2.86703 209.234 2.89345 209.34 2.89885C209.447 2.90426 209.574 2.89051 209.688 2.88444C212.029 2.7744 214.377 2.66626 216.711 2.54861C217.151 2.52631 217.344 2.60772 217.643 2.64878C217.742 2.66374 217.856 2.69011 217.948 2.68602C219.353 2.62266 220.765 2.55545 222.17 2.48828C222.673 2.46388 222.673 2.46579 223.442 2.57981C223.534 2.59479 223.655 2.60969 223.755 2.60558C225.393 2.53007 227.039 2.45264 228.678 2.37523C229.182 2.35082 229.182 2.35083 230.639 2.44562C230.745 2.45292 230.859 2.46404 230.965 2.4599C232.838 2.37225 234.718 2.28647 236.591 2.1931C236.967 2.1748 237.28 2.18911 237.55 2.25696C237.743 2.30597 237.942 2.32636 238.176 2.31421C240.283 2.21441 242.397 2.1184 244.497 2.0129C244.901 1.99261 245.165 2.03376 245.449 2.08821C245.542 2.10701 245.635 2.13343 245.741 2.14074C245.848 2.14805 245.968 2.14005 246.082 2.13399C248.189 2.03419 250.303 1.94009 252.403 1.83268C252.828 1.81042 253.057 1.87458 253.341 1.9214C253.441 1.93826 253.548 1.97227 253.633 1.97011C254.456 1.93521 255.279 1.90413 256.095 1.85399C256.535 1.82597 256.728 1.9131 257.026 1.95416C257.126 1.96721 257.24 1.99549 257.332 1.9914C259.092 1.91172 260.851 1.82823 262.603 1.74284C262.852 1.73065 263.036 1.74725 263.236 1.79623C263.5 1.86219 263.805 1.88797 264.188 1.86584C265.004 1.81952 265.827 1.78653 266.65 1.74781C267.132 1.72538 267.132 1.72539 268.611 1.82011C268.717 1.82742 268.831 1.83851 268.937 1.83438C270.342 1.76911 271.754 1.70574 273.151 1.63478C273.527 1.61457 273.84 1.63079 274.111 1.69864C274.303 1.74764 274.495 1.76806 274.736 1.75589C276.027 1.69478 277.312 1.63369 278.603 1.57258C279.071 1.55019 279.539 1.51254 280.007 1.51113C280.348 1.51201 280.598 1.6028 280.904 1.64765C280.989 1.66074 281.131 1.64508 281.245 1.64092C282.883 1.56351 284.529 1.49179 286.161 1.40487C286.586 1.3826 286.815 1.44676 287.099 1.49358C287.199 1.51045 287.306 1.54446 287.391 1.54229C287.98 1.51954 288.562 1.48918 289.151 1.46261C289.853 1.42998 290.562 1.40495 291.257 1.3609C291.825 1.32486 292.04 1.49014 292.495 1.49449C292.843 1.49916 293.197 1.46568 293.545 1.44937C294.247 1.41674 294.949 1.3803 295.652 1.35148C295.9 1.3412 296.091 1.31009 296.169 1.2412C296.183 1.22781 296.061 1.19958 295.983 1.18265C295.036 0.990962 295.036 0.990953 294.085 1.03578C293.496 1.06425 292.915 1.09271 292.326 1.11737C292.226 1.12148 292.113 1.10657 292.013 1.09542C291.729 1.06386 291.756 1.02563 291.997 0.95625C292.237 0.886865 292.42 0.802403 292.625 0.723589C292.917 0.772298 293.202 0.821011 293.493 0.86972C293.728 0.859478 293.962 0.847347 294.196 0.837105C295.366 0.783991 296.537 0.728966 297.708 0.679666C297.793 0.675595 297.9 0.713423 297.999 0.732196C298.284 0.786647 298.541 0.833543 298.952 0.811324C300.002 0.752852 301.059 0.709616 302.109 0.658772C302.57 0.636404 302.57 0.636406 303.381 0.752211C303.474 0.765283 303.594 0.780178 303.694 0.776064C304.751 0.729014 305.801 0.678176 306.858 0.629218C307.085 0.618998 307.305 0.643127 307.469 0.697942C307.534 0.720636 307.52 0.758814 307.795 1.07077C308.636 1.3219 309.211 1.29348 309.793 1.26884C310.041 1.25856 310.261 1.24835 310.423 1.20972C310.508 1.18848 310.614 1.15764 310.614 1.13285C310.614 1.11378 310.457 1.08373 310.358 1.08021C309.654 1.04419 308.988 1.12631 308.3 1.14555C307.98 1.15414 307.703 1.08822 307.644 0.979683C307.629 0.949212 307.608 0.916856 307.586 0.886406C307.564 0.855956 307.55 0.823579 307.528 0.793129C307.251 0.784427 307.088 0.819242 306.968 0.884448C306.87 0.938148 306.729 0.999604 306.537 1.02879C306.346 1.05988 306.083 1.05496 305.849 1.0652C305.622 1.07542 305.374 1.10096 305.161 1.08825C304.948 1.07364 304.777 1.01883 304.577 0.985103C304.485 0.968217 304.371 0.943775 304.279 0.947868C303.463 0.982748 302.654 1.0176 301.845 1.06199C301.42 1.08616 301.205 1.00671 300.935 0.957939C300.721 0.920438 300.508 0.930603 300.474 1.01844C300.385 1.2285 300.713 1.31524 301.437 1.27301C302.032 1.23689 302.572 1.22956 303.042 1.35783C303.107 1.37481 303.256 1.38198 303.348 1.37789C303.93 1.35325 304.504 1.32291 305.086 1.29827C305.192 1.29413 305.306 1.30141 305.406 1.30874C306.856 1.40736 306.856 1.40928 307.345 1.38492C307.579 1.37277 307.806 1.36255 307.78 1.07273C308.223 0.760513 308.933 0.7374 309.62 0.689554C310.067 0.6596 310.26 0.742941 310.552 0.785929C310.651 0.800886 310.758 0.831074 310.851 0.826982C312.376 0.759448 313.894 0.688113 315.412 0.612972C315.668 0.60076 315.852 0.611649 316.052 0.660636C316.308 0.722802 316.593 0.762005 316.997 0.7379C317.806 0.689691 318.629 0.65861 319.452 0.617986C319.87 0.597653 319.87 0.597633 320.717 0.713332C320.81 0.726404 320.93 0.741299 321.03 0.737185C321.853 0.702283 322.669 0.659785 323.484 0.622998C323.712 0.612778 323.918 0.638855 324.096 0.689814C324.274 0.740772 324.488 0.766827 324.708 0.756629C325.531 0.71982 326.346 0.67923 327.162 0.642442C327.262 0.638328 327.382 0.651314 327.475 0.664386C328.343 0.78002 328.343 0.780001 328.74 0.759732C329.322 0.729371 329.918 0.71424 330.492 0.674365C331.052 0.634532 331.345 0.744261 331.73 0.804135C332.78 0.757106 333.837 0.717693 334.879 0.66115C335.305 0.636981 335.533 0.699227 335.818 0.747957C335.918 0.764822 336.017 0.800763 336.11 0.798577C336.465 0.78988 336.812 0.767857 337.16 0.751552C337.507 0.735247 337.862 0.718922 338.21 0.702617C338.608 0.756727 338.873 0.88562 339.44 0.840045C339.78 0.812318 340.142 0.805506 340.49 0.789201C340.838 0.772896 341.192 0.756572 341.54 0.740267C341.774 0.730026 342.015 0.723569 342.242 0.70572C342.661 0.675851 342.868 0.768692 343.167 0.809752C343.266 0.822802 343.38 0.845331 343.472 0.841239C344.175 0.812422 344.884 0.7874 345.572 0.741461C346.104 0.705528 346.467 0.76166 346.845 0.840627C346.923 0.857556 347.058 0.866684 347.157 0.862571C347.98 0.827669 348.796 0.785148 349.612 0.74836C349.832 0.738162 350.045 0.768034 350.224 0.817085C350.409 0.868022 350.615 0.892214 350.842 0.881993C351.658 0.845206 352.481 0.804571 353.297 0.767783C353.396 0.763669 353.517 0.778566 353.61 0.793545C354.407 0.909393 354.407 0.911302 354.875 0.887005C354.988 0.880941 355.109 0.876749 355.222 0.870685C355.804 0.842232 356.407 0.830891 356.975 0.783409C357.627 0.729949 358.103 0.793362 358.567 0.900679C359.148 0.87604 359.744 0.860891 360.312 0.821037C360.737 0.791147 360.966 0.862931 361.25 0.909754C361.35 0.926619 361.457 0.960627 361.542 0.956556C362.365 0.921654 363.188 0.890577 363.997 0.84046C364.436 0.812434 364.629 0.897663 364.928 0.940629C365.028 0.955587 365.135 0.98198 365.227 0.977888C365.695 0.96122 366.164 0.936911 366.632 0.914521C367.178 0.888081 367.178 0.889987 367.904 1.00414C368.245 1.05842 368.586 1.01353 368.919 0.999175C369.274 0.982848 369.607 0.970404 369.892 1.04774C370.071 1.09679 370.284 1.12667 370.504 1.11838C370.972 1.0998 371.448 1.08121 371.909 1.05121C372.277 1.02722 372.597 1.0415 372.868 1.11126C373.06 1.16026 373.259 1.18447 373.494 1.17232C374.544 1.12339 375.601 1.0725 376.651 1.02548C376.743 1.02138 376.871 1.03817 376.956 1.05508C377.156 1.08881 377.348 1.12636 377.54 1.16393C378.001 1.14538 378.477 1.13633 378.931 1.10827C379.413 1.08011 379.853 1.06925 380.231 1.17301C380.309 1.19566 380.423 1.22772 380.516 1.22553C380.87 1.21684 381.218 1.19672 381.566 1.18042C381.913 1.16411 382.268 1.14779 382.616 1.13148C383.021 1.17794 383.279 1.31449 383.846 1.26891C384.186 1.24118 384.548 1.23437 384.896 1.21807C385.244 1.20176 385.598 1.18353 385.946 1.16913C386.059 1.16498 386.187 1.15505 386.286 1.16238C386.393 1.16969 386.486 1.19611 386.578 1.21491C386.863 1.26936 387.127 1.32388 387.531 1.29024C387.871 1.26252 388.233 1.2557 388.581 1.23749C389.056 1.21508 389.056 1.21508 389.846 1.33286C390.166 1.38148 390.527 1.31555 390.833 1.35659C391.039 1.38458 391.218 1.43171 391.417 1.46353C391.502 1.47663 391.637 1.48193 391.736 1.47782C392.205 1.45924 392.68 1.44066 393.141 1.41066C393.517 1.38664 393.83 1.40858 394.093 1.47645C394.286 1.52546 394.478 1.54587 394.719 1.5337C395.89 1.47677 397.06 1.42745 398.224 1.36483C398.621 1.34265 398.941 1.37412 399.162 1.44211C399.54 1.55922 400.07 1.4184 400.462 1.51258C400.704 1.57098 400.947 1.63891 401.387 1.60898C402.195 1.55695 403.018 1.52776 403.834 1.49097C404.126 1.54159 404.418 1.59221 404.717 1.64281C405.185 1.62042 405.653 1.59802 406.121 1.57753C406.469 1.56123 406.824 1.543 407.171 1.5286C407.285 1.52444 407.405 1.51645 407.512 1.52566C407.619 1.53488 407.704 1.55942 407.804 1.57819C408.295 1.67017 408.295 1.67208 409.104 1.6315C409.451 1.61329 409.785 1.60084 410.077 1.67625C410.348 1.746 410.668 1.75838 411.036 1.73629C411.732 1.69605 412.434 1.66533 413.144 1.63649C413.363 1.62629 413.57 1.6581 413.755 1.70713C414.033 1.78448 414.374 1.77583 414.721 1.75381C415.182 1.72572 415.636 1.69765 416.028 1.80328C416.107 1.82593 416.228 1.85797 416.313 1.8558C416.895 1.83879 417.484 1.82558 418.051 1.78764C418.619 1.74969 418.897 1.8671 419.289 1.92313C419.871 1.89659 420.459 1.87002 421.041 1.84347C421.155 1.83741 421.289 1.81985 421.389 1.82908C421.808 1.86787 422.052 2.01018 422.626 1.96458C422.959 1.93878 423.321 1.93007 423.669 1.9233C423.761 1.92112 423.883 1.95316 423.947 1.97776C423.983 1.991 423.948 2.02734 423.905 2.04654C423.778 2.10033 423.623 2.1504 423.51 2.20605C423.496 2.21372 423.631 2.24763 423.71 2.26265C423.902 2.2964 424.122 2.29003 424.377 2.274C424.597 2.25999 424.825 2.28601 424.982 2.34275C425.046 2.36544 425.025 2.40365 424.892 2.52993C424.894 2.62338 425.042 2.58096 425.091 2.51978C425.168 2.43182 425.018 2.40366 424.735 2.4522C424.537 2.48712 424.438 2.53701 424.488 2.57691C424.517 2.59781 424.652 2.6241 424.892 2.52993C425.515 2.41361 425.984 2.39123 426.452 2.36884C426.572 2.36276 426.714 2.34325 426.799 2.35443C427.105 2.39929 427.39 2.45375 427.689 2.50434C428.03 2.49187 428.349 2.46229 428.683 2.53566C429.154 2.63915 429.175 2.62955 429.629 2.6072C429.863 2.59505 430.097 2.58483 430.331 2.57459C430.565 2.56435 430.75 2.59239 430.957 2.63563C431.377 2.72401 431.412 2.72389 431.687 2.601C431.85 2.52613 431.963 2.501 432.169 2.53471C432.852 2.64899 432.86 2.65659 433.441 2.62051C433.924 2.59045 434.378 2.58145 434.734 2.68909C434.977 2.76465 435.055 2.74726 435.245 2.66658C435.753 2.45334 435.987 2.45645 436.948 2.60613C437.396 2.67726 437.857 2.59768 438.311 2.58678C438.694 2.57799 438.965 2.62294 438.995 2.74301C439.017 2.81732 439.082 2.87054 439.338 2.89456C439.438 2.9038 439.558 2.91678 439.658 2.91267C440.247 2.88801 440.828 2.85955 441.417 2.83107C441.715 2.81683 441.877 2.72671 441.818 2.60864C441.753 2.48296 441.865 2.43683 442.291 2.39931C442.546 2.37757 442.752 2.38078 442.958 2.41448C443.186 2.45194 443.123 2.48646 442.925 2.55572C442.452 2.72498 442.51 2.82778 443.123 2.94227C443.336 2.98168 443.507 3.01742 443.558 3.07639C443.587 3.10682 443.559 3.14696 443.623 3.16965C443.973 3.29638 444.457 3.37694 444.997 3.43635C445.515 3.38329 445.871 3.46803 446.27 3.53549C446.583 3.58795 446.951 3.54108 447.285 3.521C447.661 3.49889 447.973 3.5132 448.244 3.58295C448.436 3.63196 448.635 3.65424 448.87 3.644C449.338 3.62161 449.813 3.60683 450.274 3.57493C450.671 3.54703 450.97 3.58428 451.22 3.64837C451.533 3.72944 451.88 3.67307 452.207 3.68353C452.647 3.69556 452.87 3.86462 453.444 3.81712C453.785 3.78939 454.139 3.77879 454.494 3.7701C454.587 3.76791 454.701 3.8 454.779 3.82265C455.157 3.92641 455.597 3.91936 456.079 3.88739C456.413 3.8654 456.739 3.84536 457.066 3.91684C457.608 4.03728 458.206 4.14229 458.776 4.2531C458.855 4.34059 458.8 4.44373 459.205 4.494C459.418 4.52006 459.618 4.55953 459.782 4.6029C459.981 4.6538 460.166 4.66659 460.421 4.65247C460.882 4.62438 461.365 4.61719 461.819 4.58149C462.237 4.54972 462.501 4.61188 462.757 4.67023C462.964 4.71729 463.156 4.73959 463.404 4.70451C463.659 4.67132 463.844 4.69174 464.051 4.74261C464.343 4.8123 464.364 4.80462 465.33 4.82269C465.429 4.82429 465.55 4.85252 465.607 4.87714C465.636 4.89041 465.573 4.92877 465.523 4.94799C465.46 4.97106 465.361 4.99805 465.269 5.00405C464.219 5.0568 463.162 5.10385 462.112 5.1566C462.005 5.16264 461.892 5.17635 461.814 5.19565C461.729 5.21689 461.623 5.2458 461.624 5.2725C461.624 5.29157 461.766 5.31404 461.866 5.32709C462.179 5.37001 462.547 5.30215 462.853 5.35082C463.059 5.38262 463.23 5.42787 463.437 5.45776C463.522 5.47086 463.657 5.46855 463.764 5.46441C464.118 5.44999 464.466 5.42988 464.821 5.41737C464.92 5.41516 465.034 5.4339 465.126 5.44888C465.81 5.56125 465.81 5.56125 466.398 5.53468C466.633 5.52444 466.881 5.49508 467.101 5.50586C467.314 5.51666 467.499 5.5676 467.692 5.59944C468.09 5.6669 468.467 5.73252 468.498 5.88119C468.513 5.93836 468.748 5.98723 468.982 5.99034C469.21 5.99347 469.451 5.97179 469.685 5.95964C470.238 5.93508 470.238 5.93508 470.957 6.04926C471.156 6.08108 471.369 6.08425 471.624 6.0644C471.724 6.05648 471.845 6.06375 471.951 6.07297C472.3 6.10053 472.3 6.13675 472.074 6.20609C471.756 6.30813 471.785 6.31759 472.68 6.40072C473.022 6.43211 473.285 6.49235 473.57 6.5449C474.033 6.62933 474.026 6.62934 473.722 6.74278C473.652 6.76778 473.588 6.79468 473.517 6.8216C473.313 6.8966 473.151 6.97718 472.725 6.9861C472.256 6.99514 471.788 7.02707 471.32 7.04946C470.866 7.07181 470.746 7.11793 470.791 7.24748C470.843 7.40372 470.935 7.42061 471.752 7.41625C471.986 7.41554 472.192 7.43017 472.37 7.48113C472.286 7.54242 472.131 7.59057 471.904 7.60269C471.322 7.63305 470.733 7.65963 470.151 7.68617C469.683 7.70856 469.215 7.73095 468.747 7.75334C468.456 7.76756 468.273 7.8673 468.353 7.97768C468.396 8.04049 468.433 8.10331 468.469 8.16614C468.549 8.29178 468.699 8.32376 469.174 8.31661C469.295 8.31434 469.408 8.29872 469.522 8.3022C469.983 8.31416 470.206 8.47178 470.759 8.43769C471.22 8.4096 471.703 8.40243 472.157 8.36673C472.575 8.33496 472.81 8.40293 473.102 8.45354C473.202 8.47041 473.309 8.5063 473.394 8.50414C473.983 8.48139 474.572 8.45865 475.146 8.42068C475.416 8.40461 475.579 8.41556 475.793 8.46069C476.306 8.56976 476.32 8.564 477.079 8.52738C477.632 8.49901 477.639 8.5028 478.351 8.617C478.55 8.64882 478.763 8.64818 479.019 8.63215C479.352 8.61207 479.699 8.58051 480.048 8.60807C480.154 8.61538 480.29 8.63787 480.326 8.66255C480.347 8.67965 480.248 8.72191 480.163 8.73552C479.54 8.83657 478.809 8.82161 478.128 8.86372C477.915 8.8758 477.701 8.8402 477.523 8.78924C477.338 8.73831 477.139 8.71793 476.897 8.7282C476.429 8.75059 475.954 8.76536 475.493 8.79727C475.096 8.82517 474.818 8.78213 474.54 8.72384C474.448 8.70505 474.341 8.66913 474.249 8.67131C473.198 8.71262 472.141 8.75396 471.099 8.8105C470.68 8.83465 470.438 8.77436 470.153 8.72372C470.053 8.70685 469.953 8.67091 469.861 8.6731C469.506 8.6818 469.159 8.70382 468.804 8.72014C467.513 8.78125 466.229 8.84234 464.938 8.89963C464.852 8.9037 464.745 8.86396 464.646 8.8471C464.454 8.81335 464.254 8.78152 464.055 8.7497C463.7 8.76603 463.353 8.78614 462.998 8.79866C462.743 8.80705 462.516 8.83445 462.481 8.90703C462.461 8.95477 462.696 8.99792 462.944 8.99336C463.186 8.98882 463.427 8.9652 463.626 8.9894C464.614 9.10848 464.614 9.11039 465.232 9.08374C465.771 9.05923 465.714 9.04032 466.191 9.14378C466.397 9.18893 466.582 9.21509 466.817 9.20294C467.398 9.17449 467.987 9.14601 468.576 9.12135C468.668 9.11725 468.789 9.13597 468.882 9.15095C469.579 9.26328 469.579 9.26709 470.154 9.23675C470.906 9.20016 470.934 9.19054 471.44 9.30535C471.789 9.38441 472.107 9.32813 472.441 9.32331C472.826 9.39654 473.245 9.46204 473.595 9.5449C474.008 9.64283 474.441 9.62435 474.909 9.59433C475.256 9.5723 475.597 9.56365 475.882 9.64099C476.153 9.71265 476.479 9.7193 476.848 9.69912C477.182 9.68095 477.522 9.64368 477.871 9.68459C477.963 9.69575 478.105 9.72394 478.098 9.74113C478.092 9.76785 478 9.80627 477.908 9.818C477.256 9.89816 476.539 9.8984 475.851 9.93671C475.759 9.94271 475.638 9.92209 475.545 9.90711C475.346 9.87338 475.154 9.83392 474.961 9.79826C474.614 9.81075 474.259 9.81562 473.919 9.83953C473.656 9.85749 473.457 9.8562 473.265 9.811C473.087 9.76958 472.894 9.71865 472.681 9.70595C472.468 9.69324 472.22 9.7226 471.986 9.73474C471.752 9.74689 471.482 9.74197 471.298 9.77304C471.114 9.80411 471.001 9.87121 470.881 9.92498C470.747 9.98451 470.563 10.0041 470.293 10.0107C470.045 10.0171 469.846 10.0101 469.661 9.95727C469.582 9.93462 469.475 9.91777 469.369 9.90283C469.269 9.88978 469.155 9.86914 469.063 9.87323C468.006 9.92028 466.956 9.97114 465.899 10.0201C465.374 10.0446 465.381 10.0445 464.286 9.9353C464.187 9.92606 464.066 9.91308 463.966 9.91719C463.378 9.94185 462.796 9.97031 462.207 9.99879C461.611 10.0273 461.618 10.0234 460.601 9.90635C460.416 9.88402 460.147 9.91535 459.927 9.9122C459.465 9.90406 459.236 9.74454 458.697 9.77668C458.236 9.80477 457.753 9.81195 457.292 9.84766C456.873 9.87944 456.631 9.81342 456.346 9.76279C456.247 9.74592 456.14 9.7081 456.054 9.71217C454.997 9.75731 453.947 9.80815 452.542 9.81811C452.194 9.81916 452.351 9.85874 452.578 9.87141C452.905 9.8914 453.011 9.85103 452.832 9.77528C452.704 9.72227 452.519 9.6961 452.37 9.7099C452.292 9.71777 452.193 9.75431 452.542 9.81811C452.912 9.88947 452.892 9.92958 452.956 9.95227C453.113 10.0071 453.333 10.0293 453.56 10.021C453.915 10.0066 454.263 9.98648 454.617 9.97397C454.717 9.96985 454.838 9.98284 454.93 9.99782C455.713 10.1137 455.72 10.1213 456.55 10.0731C456.812 10.0589 457.004 10.0583 457.211 10.094C457.495 10.1427 457.702 10.226 458.135 10.198C458.71 10.16 459.298 10.1373 459.887 10.1145C459.98 10.1104 460.079 10.1444 460.186 10.1594C460.478 10.2043 460.692 10.2894 461.125 10.2519C461.458 10.2223 461.82 10.2136 462.175 10.2068C462.267 10.2046 462.409 10.2347 462.452 10.2593C462.538 10.3029 462.433 10.3548 462.192 10.3917C462.093 10.4073 461.958 10.4039 461.844 10.4099C461.376 10.4323 460.908 10.4566 460.439 10.4752C460.191 10.4855 459.957 10.5148 459.93 10.5855C459.909 10.6332 460.166 10.6744 460.407 10.6698C460.762 10.663 461.116 10.6467 461.457 10.6209C462.06 10.5771 462.585 10.587 463.077 10.7057C463.426 10.7885 463.404 10.7581 463.777 11.0049C463.87 11.0676 464.147 11.0724 464.389 11.0679C464.971 11.0566 465.241 11.0844 465.192 11.1437C465.129 11.2163 464.924 11.2398 464.661 11.2502C464.193 11.2668 463.725 11.2931 463.257 11.3154C463.143 11.3215 463.015 11.3333 462.909 11.3298C462.802 11.3263 462.703 11.3038 462.61 11.2869C462.411 11.2512 462.239 11.1964 462.026 11.1837C461.813 11.171 461.565 11.2004 461.331 11.2125C461.097 11.2228 460.849 11.2521 460.636 11.2394C460.423 11.2267 460.244 11.17 460.052 11.1363C459.959 11.1194 459.845 11.093 459.753 11.0952C459.285 11.1119 458.817 11.1381 458.349 11.1586C457.774 11.1851 457.774 11.1851 457.076 11.0689C456.877 11.0352 456.671 11.0378 456.409 11.0538C455.841 11.086 455.834 11.0803 454.796 10.9728C454.696 10.9617 454.575 10.9487 454.476 10.9547C453.419 11.0018 452.369 11.0526 451.319 11.1015C450.418 11.1443 450.418 11.1443 449.924 11.3365C449.557 11.4788 449.55 11.4788 449.913 11.5425C450.205 11.5951 450.469 11.6725 450.789 11.7001C451.087 11.7259 451.455 11.639 451.783 11.7257C451.947 11.7691 452.161 11.8161 452.367 11.8231C452.693 11.8317 453.04 11.7753 453.354 11.8583C453.511 11.8998 453.746 11.943 453.945 11.9443C454.293 11.947 454.647 11.9154 454.995 11.901C455.101 11.8969 455.222 11.8966 455.321 11.9058C455.428 11.9169 455.521 11.9395 455.613 11.9583C455.898 12.0223 456.204 12.0519 456.573 12.0184C457.175 11.9631 457.715 11.9882 458.186 12.1089C458.25 12.1258 458.406 12.1273 458.505 12.1194C458.76 12.0995 458.98 12.0969 459.173 12.1326C459.251 12.1476 459.365 12.174 459.351 12.1912C459.33 12.2198 459.246 12.2582 459.153 12.2681C458.487 12.3349 457.77 12.3447 457.082 12.3811C456.99 12.3852 456.876 12.3607 456.783 12.3439C456.584 12.3101 456.413 12.2534 456.2 12.2407C455.987 12.228 455.738 12.2536 455.504 12.2638C455.27 12.274 455.022 12.3034 454.809 12.2926C454.596 12.2799 454.396 12.2328 454.225 12.1914C454.026 12.1443 453.834 12.1391 453.572 12.159C453.231 12.1848 452.876 12.1897 452.529 12.2041C452.337 12.1684 452.144 12.129 451.945 12.0952C451.852 12.0783 451.739 12.0577 451.639 12.0599C451.171 12.0766 450.703 12.1009 450.234 12.1233C449.766 12.1457 449.766 12.1457 448.969 12.0298C448.877 12.0168 448.756 12.0019 448.657 12.006C448.068 12.0306 447.486 12.061 446.897 12.0856C446.67 12.0959 446.464 12.0698 446.279 12.0188C446.1 11.9679 445.887 11.9399 445.667 11.9501C444.73 11.993 443.794 12.034 442.858 12.0845C442.482 12.1047 442.162 12.0885 441.905 12.0206C441.606 11.9433 441.273 11.9634 440.925 11.9797C440.138 12.0202 440.13 12.0183 439.625 11.9225C439.525 11.9038 439.425 11.8678 439.333 11.87C438.517 11.9011 437.694 11.9303 436.885 11.9785C436.46 12.0046 436.232 11.9385 435.947 11.8898C435.847 11.8729 435.74 11.837 435.655 11.8411C435.066 11.8638 434.477 11.8847 433.903 11.9245C433.328 11.9644 433.106 11.7877 432.673 11.7909C432.083 11.7946 431.502 11.8402 430.92 11.8687C430.452 11.8911 429.984 11.9134 429.516 11.9358C429.047 11.9582 428.579 11.9768 428.111 12.003C427.863 12.0171 427.678 12.0005 427.471 11.9534C427.208 11.8913 426.895 11.8427 426.61 11.7863C426.176 11.7056 426.175 11.7056 425.65 11.7301C425.537 11.7361 425.416 11.7403 425.303 11.7464C424.445 11.7909 424.444 11.7871 423.349 11.6702C423.3 11.6647 423.172 11.686 423.123 11.7014C422.974 11.7515 422.84 11.8053 422.706 11.8572C422.514 11.8272 422.28 11.8108 422.151 11.7673C421.787 11.6444 421.222 11.8159 420.851 11.6949C420.715 11.6496 420.48 11.6102 420.267 11.5994C420.047 11.5886 419.799 11.6161 419.572 11.6282C418.983 11.6586 418.983 11.6567 418.482 11.8279C418.227 11.9126 417.858 11.8985 417.525 11.9185C417.177 11.9406 416.844 11.953 416.551 11.8757C416.288 11.8059 415.968 11.7897 415.592 11.8138C415.131 11.8438 414.656 11.8623 414.187 11.8809C414.088 11.885 413.967 11.8759 413.868 11.8647C412.78 11.7555 412.78 11.7536 412.255 11.7799C412.021 11.7921 411.779 11.7966 411.552 11.8145C411.169 11.8461 410.878 11.807 410.6 11.7468C410.508 11.728 410.4 11.6921 410.308 11.6943C409.84 11.7052 409.379 11.7238 408.917 11.7423C408.563 11.7567 408.208 11.7654 407.868 11.7932C407.3 11.8387 407.022 11.7156 406.63 11.6596C406.048 11.6861 405.46 11.705 404.878 11.7411C404.608 11.7572 404.431 11.752 404.224 11.7069C403.961 11.6504 403.718 11.5863 403.293 11.6162C402.726 11.6561 402.129 11.6712 401.548 11.6959C401.156 11.6379 400.871 11.5186 400.31 11.5642C399.97 11.5919 399.608 11.5987 399.26 11.615C398.792 11.6374 398.324 11.6579 397.856 11.6822C397.352 11.7066 397.359 11.7008 396.584 11.5907C396.135 11.5253 395.675 11.601 395.221 11.6138C394.866 11.6244 394.69 11.7127 394.777 11.825C394.864 11.9372 394.673 12.0255 394.347 12.0418C393.531 12.0805 392.708 12.1211 391.892 12.156C391.793 12.1601 391.672 12.1471 391.58 12.134C390.705 12.0165 390.705 12.0184 390.315 12.0368C389.733 12.0671 389.137 12.0842 388.562 12.1221C388.165 12.1481 387.873 12.109 387.617 12.0449C387.417 11.9959 387.233 11.985 386.977 11.9972C384.168 12.1335 381.359 12.2602 378.556 12.4002C378.138 12.4206 377.896 12.366 377.611 12.3153C377.511 12.2985 377.418 12.2625 377.319 12.2628C377.085 12.2635 376.851 12.2814 376.617 12.2935C375.567 12.3425 374.517 12.4009 373.46 12.4385C373.013 12.4551 372.893 12.5432 372.703 12.6162C372.555 12.672 372.385 12.6954 372.122 12.7038C371.867 12.7122 371.682 12.7032 371.482 12.6542C371.226 12.5901 370.934 12.551 370.537 12.5788C370.076 12.6108 369.608 12.6255 369.132 12.6479C368.891 12.6582 368.707 12.6931 368.63 12.762C368.616 12.7735 368.765 12.8016 368.851 12.8185C369.136 12.8749 369.407 12.9408 369.727 12.9799C370.054 13.019 370.408 12.9721 370.749 12.9597C370.869 12.9555 370.983 12.9437 371.096 12.9453C371.203 12.9469 371.331 12.956 371.409 12.9729C371.78 13.0577 372.171 13.1156 372.681 13.0626C373.122 13.086 373.351 13.2436 373.912 13.2C374.252 13.1742 374.607 13.1617 374.962 13.1511C375.054 13.1489 375.154 13.1829 375.253 13.1998C375.538 13.2466 375.766 13.3222 376.192 13.2885C376.646 13.2528 377.128 13.2456 377.589 13.2175C377.845 13.2015 378.029 13.2143 378.229 13.2633C378.485 13.3254 378.777 13.3722 379.174 13.3405C379.515 13.3128 379.877 13.306 380.224 13.2878C380.678 13.2654 380.678 13.2673 381.489 13.3831C381.582 13.3962 381.703 13.4111 381.802 13.407C382.391 13.3823 382.973 13.352 383.561 13.3273C383.788 13.3171 384.009 13.3412 384.166 13.3961C384.23 13.4187 384.209 13.457 384.231 13.4893C383.061 13.5444 381.89 13.5917 380.727 13.6582C380.287 13.6843 380.087 13.6067 379.795 13.5637C379.696 13.5488 379.589 13.5167 379.496 13.5208C378.673 13.5557 377.858 13.5924 377.042 13.6368C376.787 13.651 376.595 13.6439 376.402 13.5892C375.91 13.4438 375.315 13.5257 374.762 13.5484C374.336 13.5649 374.202 13.6244 374.254 13.7502C374.32 13.8987 374.576 13.9437 375.229 13.9151C375.463 13.9048 375.697 13.8907 375.931 13.8824C376.158 13.8741 376.364 13.8983 376.55 13.9492C376.728 14.0002 376.941 14.0262 377.161 14.0179C377.63 13.9994 378.105 13.9808 378.559 13.9508C378.935 13.9268 379.247 13.9449 379.511 14.0147C379.803 14.092 380.144 14.0738 380.484 14.0556C381.279 14.0151 381.286 14.017 381.784 14.1108C381.884 14.1296 381.984 14.1655 382.076 14.1634C382.892 14.1323 383.715 14.105 384.517 14.0568C384.935 14.0327 385.178 14.093 385.455 14.1417C385.555 14.1586 385.655 14.1964 385.747 14.1923C386.336 14.1696 386.925 14.1468 387.499 14.1089C387.769 14.0909 387.932 14.1018 388.153 14.1469C388.68 14.2579 388.694 14.254 389.439 14.2155C389.666 14.2034 389.914 14.1817 390.127 14.1963C390.341 14.2109 390.512 14.2657 390.711 14.2995C390.804 14.3144 390.918 14.3351 391.017 14.3309C391.485 14.3143 391.953 14.29 392.422 14.2676C392.861 14.2453 392.861 14.2472 393.687 14.363C394.021 14.4115 394.368 14.3685 394.702 14.3523C395.064 14.334 395.39 14.333 395.668 14.4066C395.946 14.4801 396.28 14.4753 396.635 14.459C396.968 14.4427 397.308 14.3997 397.65 14.4502C398.432 14.5661 398.432 14.568 398.915 14.5436C399.617 14.5091 400.312 14.4765 401.022 14.4458C401.114 14.4417 401.235 14.4642 401.327 14.4792C401.527 14.5129 401.698 14.5696 401.911 14.5823C402.124 14.5969 402.372 14.5733 402.599 14.5612C403.33 14.5227 403.38 14.5092 403.871 14.6336C404.285 14.7354 404.794 14.5851 405.179 14.7022C405.4 14.7682 405.699 14.8207 406.11 14.7871C406.45 14.7594 406.805 14.7507 407.16 14.7343C407.72 14.7078 407.72 14.7098 408.432 14.8221C408.525 14.837 408.645 14.8557 408.738 14.8516C409.206 14.835 409.682 14.8202 410.135 14.7845C410.667 14.7428 411.009 14.8143 411.408 14.8837C411.721 14.938 412.089 14.8911 412.423 14.8711C412.784 14.8509 413.111 14.8556 413.382 14.9292C413.667 15.0046 414.001 14.9941 414.355 14.9778C414.689 14.9634 415.029 14.9185 415.37 14.9709C416.103 15.0869 416.103 15.0869 416.635 15.0624C417.104 15.04 417.572 15.0158 418.04 14.9991C418.132 14.995 418.246 15.0194 418.339 15.0363C418.538 15.0701 418.709 15.1268 418.923 15.1395C419.136 15.1522 419.384 15.1266 419.618 15.1164C419.852 15.1062 420.1 15.0768 420.313 15.0876C420.526 15.0984 420.726 15.1455 420.897 15.1869C421.097 15.2359 421.281 15.2411 421.551 15.2212C421.891 15.1954 422.246 15.1886 422.593 15.1742C422.786 15.2099 422.985 15.2455 423.17 15.285C423.363 15.3264 423.568 15.3219 423.831 15.3078C424.703 15.2594 424.71 15.2651 425.443 15.3811C425.778 15.4335 426.125 15.3886 426.459 15.3743C426.813 15.3579 427.147 15.3493 427.425 15.4247C427.696 15.4964 428.03 15.5049 428.384 15.481C428.611 15.465 428.852 15.4548 429.087 15.4484C429.193 15.4461 429.321 15.4534 429.399 15.4684C429.777 15.5474 430.147 15.6187 430.664 15.5657C431.119 15.5796 431.348 15.7353 431.895 15.7031C432.356 15.675 432.838 15.6678 433.292 15.6321C433.71 15.6003 434.01 15.6529 434.223 15.719C434.609 15.8361 435.146 15.6742 435.531 15.7894C435.752 15.8555 436.037 15.908 436.462 15.8782C436.93 15.8462 437.08 15.8858 437.217 16.0056C437.296 16.074 437.283 16.1293 437.141 16.1832C437 16.2389 436.844 16.2298 436.616 16.1676C436.352 16.0978 436.039 16.0854 435.663 16.1018C435.295 16.1182 435.066 16.0197 434.76 15.9825C434.454 15.9433 434.093 16.0112 433.773 15.9606C433.019 15.8428 433.019 15.8428 432.508 15.8672C432.16 15.8835 431.798 15.8922 431.458 15.9199C431.054 15.9536 430.79 15.8952 430.512 15.8427C430.413 15.8239 430.313 15.788 430.228 15.7901C429.412 15.8212 428.589 15.8504 427.78 15.9005C427.354 15.9266 427.126 15.8586 426.842 15.8118C426.742 15.7949 426.635 15.7609 426.55 15.765C425.847 15.7938 425.152 15.8302 424.45 15.8647C424.316 15.9166 424.167 15.9667 424.04 16.0224C423.906 16.08 423.722 16.1053 423.453 16.1042C423.005 16.1056 422.566 16.187 422.118 16.0873C421.655 15.9857 421.619 15.9915 421.172 16.0177C420.605 16.0518 420.001 16.046 419.47 16.122C419.378 16.1356 419.279 16.1721 419.28 16.1988C419.273 16.216 419.422 16.2404 419.515 16.2553C419.828 16.3002 420.189 16.2323 420.502 16.2791C420.708 16.309 420.879 16.3542 421.086 16.386C421.171 16.3991 421.299 16.3968 421.412 16.3946C421.533 16.3923 421.646 16.3786 421.76 16.3802C421.866 16.3818 421.98 16.3929 422.066 16.4098C422.457 16.4811 422.87 16.5466 423.219 16.6313C423.561 16.7142 423.88 16.6561 424.22 16.6512C425.586 16.7806 425.586 16.7825 426.501 16.7378C426.728 16.7276 426.962 16.7154 427.196 16.7166C427.296 16.7163 427.388 16.7504 427.488 16.7691C427.773 16.8255 428.043 16.8762 428.441 16.8445C428.781 16.8168 429.143 16.8099 429.49 16.7917C429.959 16.7693 429.959 16.7693 430.756 16.8871C430.955 16.917 431.168 16.9126 431.423 16.8965C431.643 16.8825 431.87 16.9105 432.027 16.9653C432.092 16.988 432.071 17.0262 432.093 17.0585C431.39 17.0912 430.681 17.1143 430 17.1621C429.56 17.1921 429.36 17.1106 429.069 17.0677C428.969 17.0527 428.862 17.0206 428.77 17.0247C428.075 17.0554 427.379 17.0899 426.684 17.1301C426.599 17.1342 426.493 17.1784 426.487 17.2051C426.473 17.2547 426.651 17.3019 426.907 17.2992C427.248 17.2963 427.581 17.2628 427.887 17.3401C428.144 17.408 428.464 17.4376 428.839 17.4059C429.066 17.3881 429.308 17.3873 429.535 17.3714C430.138 17.3238 430.684 17.3317 431.14 17.46C431.489 17.4933 431.829 17.4599 432.163 17.4417C432.411 17.4276 432.652 17.4135 432.83 17.4492C433.207 17.5244 433.578 17.5995 434.095 17.5465C434.657 17.5982 435.085 17.7094 435.554 17.7996C435.775 17.8428 435.946 17.8671 436.201 17.8377C436.307 17.8259 436.435 17.8255 436.549 17.8194C436.783 17.8092 437.031 17.7798 437.244 17.7906C437.457 17.8034 437.635 17.8581 437.828 17.8919C437.92 17.9088 438.027 17.9371 438.119 17.9349C438.474 17.9243 438.822 17.9042 439.169 17.8878C439.517 17.8734 439.865 17.8591 440.212 17.8447C440.504 17.8934 440.803 17.9421 441.095 17.9908C441.563 17.9684 442.031 17.946 442.493 17.9255C443.01 17.9011 443.01 17.903 443.757 18.019C444.092 18.0714 444.446 18.036 444.766 18.0102C445.297 17.9686 445.653 18.04 446.031 18.1151C446.109 18.1302 446.251 18.1393 446.343 18.1313C446.712 18.1035 447.032 18.1235 447.303 18.1933C447.495 18.2423 447.687 18.2646 447.921 18.2544C448.737 18.2157 449.553 18.1751 450.369 18.1402C450.468 18.1361 450.582 18.1529 450.675 18.1679C451.4 18.282 451.408 18.2877 451.94 18.2556C452.415 18.2275 452.855 18.2147 453.233 18.3185C453.311 18.3411 453.432 18.3732 453.517 18.371C454.099 18.3502 454.688 18.3274 455.263 18.2933C455.525 18.2772 455.71 18.2824 455.916 18.3257C456.18 18.3802 456.415 18.4462 456.848 18.4201C458.046 18.346 458.054 18.3574 459.476 18.4847C459.575 18.4939 459.71 18.4783 459.823 18.4703C460.064 18.4505 460.242 18.4767 460.456 18.5199C460.933 18.6176 460.947 18.6118 461.401 18.5895C461.749 18.5713 462.111 18.5664 462.451 18.5367C462.976 18.4932 463.325 18.5665 463.716 18.6359C464.029 18.6903 464.391 18.6434 464.724 18.6253C465.086 18.6051 465.413 18.6098 465.683 18.6815C465.869 18.7305 466.068 18.7566 466.302 18.7464C467.118 18.7096 467.934 18.669 468.75 18.6322C468.849 18.6281 468.97 18.643 469.062 18.6561C469.873 18.7719 469.873 18.7776 470.675 18.7313C470.93 18.7172 471.143 18.7127 471.336 18.7522C471.521 18.7898 471.72 18.8254 471.912 18.8611C472.26 18.8467 472.615 18.8418 472.955 18.8179C473.218 18.7999 473.402 18.807 473.609 18.8465C473.879 18.8971 474.108 18.9861 474.533 18.9409C474.753 18.9193 475.008 18.9242 475.228 18.9045C475.491 18.8789 475.668 18.8936 475.875 18.9426C476.131 19.001 476.395 19.0612 476.806 19.0294C477.26 18.9937 477.743 18.9866 478.204 18.9585C478.459 18.9424 478.637 18.9572 478.843 19.0061C479.1 19.0683 479.392 19.1075 479.789 19.0815C480.597 19.0314 480.605 19.0409 481.394 19.1587C481.594 19.1886 481.807 19.1841 482.062 19.1681C482.282 19.1541 482.509 19.182 482.666 19.2368C482.816 19.2974 482.803 19.3356 482.817 19.368ZM419.295 2.35797C419.061 2.36821 418.827 2.38036 418.484 2.21546C418.462 2.18692 418.476 2.15256 418.426 2.12791C418.311 2.07676 418.133 2.04106 417.92 2.03598C417.537 2.02951 417.076 2.09573 417.084 2.14529C417.092 2.18723 417.213 2.2231 417.448 2.25672C417.548 2.26977 417.626 2.29242 417.719 2.3074C417.989 2.35045 418.203 2.43565 418.593 2.39061C418.557 2.33159 418.52 2.27258 418.593 2.39061C418.559 2.46319 418.666 2.51436 418.922 2.53457C418.993 2.54008 419.099 2.53593 419.156 2.52432C419.375 2.4817 419.41 2.42439 419.244 2.27422C419.216 2.29909 419.238 2.34288 419.302 2.35413C419.367 2.36538 419.523 2.35539 419.6 2.3418C419.799 2.30497 419.897 2.25698 419.847 2.21708C419.818 2.19619 419.683 2.1699 419.598 2.17015C419.449 2.1706 419.315 2.21296 419.295 2.35797ZM477.036 24.3022C476.518 24.34 475.922 24.3285 475.405 24.4044C475.313 24.4181 475.221 24.4527 475.214 24.4794C475.207 24.4966 475.35 24.521 475.435 24.534C475.627 24.564 475.84 24.5538 476.088 24.5435C476.464 24.529 476.686 24.6161 476.977 24.6591C477.07 24.6721 477.191 24.6813 477.29 24.6772C477.865 24.6526 478.432 24.6261 479.007 24.5977C479.106 24.5916 479.213 24.578 479.297 24.5605C479.581 24.5044 479.552 24.4682 479.274 24.4271C478.968 24.3823 478.726 24.3067 478.413 24.2714C477.965 24.2213 477.511 24.2913 477.036 24.3022ZM436.742 25.8159C436.394 25.8322 436.054 25.8485 435.706 25.8648C435.592 25.8709 435.472 25.8731 435.365 25.8811C435.146 25.8951 434.983 25.9356 434.877 25.9989C435.041 26.048 435.241 26.076 435.461 26.0696C435.808 26.0571 436.149 26.0313 436.496 26.0245C436.873 26.0158 437.094 26.1009 437.386 26.1439C437.478 26.157 437.592 26.1586 437.698 26.1601C438.224 26.1662 438.542 26.0661 438.44 25.9271C438.368 25.8186 438.097 25.7546 437.77 25.769C437.43 25.7833 437.082 25.7996 436.742 25.8159ZM479.421 21.4762C479.505 21.4435 479.597 21.4203 479.64 21.3916C479.766 21.2939 479.715 21.2216 479.479 21.146C479.194 21.0534 478.847 21.1174 478.528 21.1279C478.45 21.1301 478.365 21.1704 478.323 21.1953C478.295 21.2125 478.296 21.2488 478.338 21.2582C478.687 21.3334 479.058 21.4029 479.421 21.4762ZM417.751 16.028C417.41 16.0443 417.062 16.0567 416.722 16.0787C416.637 16.0847 416.559 16.1212 416.51 16.1461C416.418 16.1922 416.519 16.2548 416.81 16.2597C417.144 16.2663 417.491 16.2328 417.839 16.2165C418.278 16.1961 418.54 16.1248 418.376 16.0642C418.219 16.0056 418.006 15.9948 417.751 16.028ZM44.0026 13.078C44.2296 13.0678 44.4637 13.0595 44.6907 13.0454C44.9035 13.0314 45.0662 12.989 45.1717 12.9257C44.9935 12.8767 44.7943 12.8506 44.5743 12.857C44.2266 12.8694 43.8861 12.8857 43.5457 12.9058C43.3329 12.9179 43.1277 12.9605 43.079 13.0255C43.03 13.0752 43.506 13.1024 44.0026 13.078ZM387.662 11.7491C387.755 11.766 387.847 11.8001 387.94 11.7998C388.167 11.7991 388.401 11.7869 388.614 11.7672C388.706 11.7593 388.776 11.7248 388.818 11.698C388.847 11.6807 388.839 11.6502 388.796 11.6351C388.589 11.5442 387.766 11.5791 387.633 11.6844C387.619 11.7035 387.655 11.7282 387.662 11.7491ZM365.105 1.37304C365.127 1.40349 365.135 1.43398 365.163 1.46441C365.221 1.52145 365.378 1.56295 365.605 1.59087C365.782 1.54266 365.874 1.48899 365.866 1.4318C365.858 1.4013 365.836 1.37083 365.808 1.3404C365.75 1.28336 365.593 1.24189 365.366 1.21397C365.189 1.26027 365.104 1.31392 365.105 1.37304ZM495.896 25.9696C495.832 25.9946 495.769 26.0196 495.698 26.0427C495.891 26.0974 496.069 26.114 496.203 26.0831C496.288 26.0638 496.337 26.035 496.401 26.01C496.208 25.9553 496.037 25.9406 495.896 25.9696ZM491.484 26.2423C491.577 26.2591 491.662 26.2818 491.762 26.2929C491.926 26.3115 492.074 26.2786 492.187 26.2096C492.094 26.1927 492.009 26.1701 491.909 26.159C491.745 26.1404 491.597 26.1733 491.484 26.2423ZM494.276 25.8848C494.227 25.9308 494.327 25.9686 494.59 26.0002C494.654 25.9752 494.739 25.9521 494.781 25.9253C494.851 25.8812 494.73 25.8415 494.474 25.8118C494.403 25.8349 494.339 25.8598 494.276 25.8848ZM479.259 23.8741C479.21 23.92 479.309 23.9578 479.573 23.9895C479.636 23.9645 479.721 23.9413 479.763 23.9145C479.834 23.8704 479.712 23.8307 479.456 23.801C479.386 23.8241 479.322 23.8491 479.259 23.8741ZM458.636 10.4406C458.572 10.4656 458.509 10.4906 458.438 10.5137C458.631 10.5684 458.808 10.585 458.943 10.5541C459.028 10.5348 459.077 10.506 459.14 10.481C458.948 10.4263 458.777 10.4115 458.636 10.4406ZM438.968 3.34005C439.139 3.35289 439.281 3.32577 439.4 3.25485C439.308 3.23796 439.222 3.21533 439.123 3.20418C438.959 3.1856 438.811 3.21848 438.698 3.28748C438.791 3.30628 438.883 3.32315 438.968 3.34005ZM428.576 2.92316C428.512 2.94815 428.449 2.97313 428.378 2.99623C428.571 3.05096 428.748 3.06759 428.883 3.03667C428.968 3.01734 429.017 2.98858 429.08 2.9636C428.888 2.90887 428.717 2.89603 428.576 2.92316ZM358.12 1.39217C358.056 1.41716 357.993 1.44215 357.922 1.46525C358.115 1.51998 358.292 1.5366 358.427 1.50568C358.512 1.48635 358.561 1.45759 358.624 1.43261C358.432 1.37788 358.261 1.36505 358.12 1.39217ZM7.67167 17.9651C7.57913 17.9482 7.48666 17.9313 7.40118 17.9125C7.19609 17.9646 7.13295 18.0125 7.24709 18.0484C7.31843 18.071 7.42504 18.0841 7.51758 18.101C7.72977 18.0488 7.77874 18.0029 7.67167 17.9651Z" fill="#FFE492"/>
<path d="M48.6965 10.9216C47.8807 10.9602 47.0721 11.0084 46.2561 11.0338C45.8232 11.0465 45.6684 11.129 45.4921 11.2058C45.351 11.2672 45.188 11.2868 44.9255 11.299C42.712 11.3991 40.5057 11.505 38.2993 11.6089C38.0221 11.5849 37.8866 11.5453 37.9498 11.4974C37.9848 11.4687 38.0694 11.4284 38.1546 11.4243C39.6656 11.3492 41.1694 11.2722 42.6878 11.2123C43.1206 11.1958 43.2401 11.1115 43.4591 11.0422C43.5297 11.0191 43.586 10.9846 43.6781 10.971C43.7702 10.9554 43.9051 10.957 44.0257 10.9528C46.4661 10.8367 48.9066 10.7226 51.3471 10.6066C51.6243 10.6305 51.7598 10.6701 51.6966 10.718C51.6616 10.7467 51.577 10.787 51.4918 10.7911C50.5554 10.834 49.6259 10.8768 48.6965 10.9216Z" fill="#FFE492"/>
<path d="M495.988 20.0612C495.619 20.0852 495.151 20.119 494.766 20.0096C494.581 19.9567 494.381 19.9402 494.14 19.9523C493.793 19.9725 493.438 19.9888 493.083 20.0013C492.991 20.0035 492.87 19.9828 492.777 19.966C492.578 19.9322 492.407 19.8755 492.194 19.8609C491.98 19.8463 491.725 19.889 491.505 19.8802C491.214 19.8677 491.093 19.8166 491.17 19.7687C491.212 19.7418 491.297 19.7034 491.389 19.6974C492.701 19.6229 492.708 19.6229 493.078 19.6905C493.363 19.743 493.627 19.8013 494.031 19.7677C494.371 19.7399 494.733 19.7331 495.081 19.7149C495.563 19.6906 495.563 19.6925 496.346 19.8103C496.545 19.8402 496.758 19.8377 497.013 19.8197C497.233 19.8057 497.447 19.8356 497.625 19.8865C497.513 19.9517 497.35 19.9942 497.13 20.0063C496.775 20.0264 496.428 20.0408 495.988 20.0612Z" fill="#FFE492"/>
<path d="M482.914 19.5044C483.808 19.4616 484.709 19.4246 485.603 19.3761C485.972 19.3559 486.263 19.376 486.519 19.4401C486.797 19.5099 487.11 19.5032 487.45 19.4888C487.663 19.4805 487.869 19.5104 488.012 19.5634C488.069 19.5842 488.056 19.6225 488.077 19.6529C487.297 19.6896 486.51 19.7282 485.722 19.7611C485.63 19.7652 485.516 19.7465 485.431 19.7315C485.238 19.6996 485.074 19.6429 484.868 19.6321C484.428 19.6067 483.988 19.6595 483.541 19.6704C483.328 19.6749 483.122 19.6469 482.979 19.5958C482.922 19.5712 482.936 19.5348 482.914 19.5044Z" fill="#FFE492"/>
<path d="M159.369 3.76822C160.298 3.72346 161.227 3.68063 162.157 3.63588C162.434 3.66174 162.562 3.69949 162.506 3.74734C162.471 3.77605 162.387 3.81636 162.302 3.82043C160.443 3.91185 158.584 3.99944 156.733 4.08702C156.455 4.06116 156.327 4.02341 156.383 3.97556C156.418 3.94685 156.503 3.90654 156.588 3.90247C157.51 3.85583 158.439 3.81298 159.369 3.76822Z" fill="#FFE492"/>
<path d="M16.0913 14.8003C15.6727 14.8055 15.2339 14.8776 14.7648 14.8254C14.6724 14.8162 14.5441 14.7859 14.551 14.7687C14.5647 14.7399 14.6493 14.7033 14.7414 14.6916C15.1452 14.6425 15.6489 14.6352 15.8527 14.5006C15.951 14.4315 16.1351 14.4079 16.3833 14.3938C16.6456 14.3777 16.8302 14.3828 17.0366 14.4224C17.307 14.4732 17.5356 14.5682 17.9606 14.5172C17.9823 14.5477 18.0324 14.582 18.0116 14.6108C17.9907 14.6395 17.899 14.6666 17.8142 14.6879C17.7364 14.7073 17.6302 14.7248 17.5309 14.7309C17.0629 14.7553 16.5948 14.7758 16.0913 14.8003Z" fill="#FFE492"/>
<path d="M385.466 13.5106C385.813 13.4943 386.175 13.4856 386.516 13.4578C386.785 13.436 386.956 13.4488 387.169 13.494C387.533 13.5731 387.554 13.5654 388.441 13.5742C388.541 13.5758 388.662 13.604 388.719 13.6287C388.755 13.6419 388.705 13.6784 388.663 13.6976C388.6 13.7226 388.508 13.7553 388.423 13.7556C387.862 13.763 387.296 13.8774 386.747 13.7492C386.47 13.6851 386.164 13.6555 385.788 13.6853C385.561 13.7031 385.32 13.7115 385.086 13.7199C384.859 13.7282 384.624 13.7079 384.481 13.6511C384.274 13.5677 384.394 13.5349 384.764 13.5395C384.998 13.5426 385.232 13.5209 385.466 13.5106Z" fill="#FFE492"/>
<path d="M514.296 26.4443C514.743 26.4238 515.19 26.3995 515.643 26.3828C515.736 26.3787 515.85 26.3994 515.935 26.4126C516.276 26.4689 516.228 26.5666 516.244 26.6527C516.252 26.7426 515.466 26.8177 515.131 26.7575C514.761 26.6898 514.426 26.6123 513.916 26.656C513.718 26.6719 513.483 26.6382 513.354 26.5831C513.162 26.5033 513.268 26.4704 513.63 26.4751C513.842 26.4783 514.069 26.4565 514.296 26.4443Z" fill="#FFE492"/>
<path d="M288.587 0.834243C289.048 0.811834 289.509 0.77798 289.97 0.774672C290.24 0.771944 290.376 0.834556 290.313 0.880591C290.277 0.909349 290.193 0.94972 290.108 0.953798C289.186 1.00244 288.264 1.04344 287.342 1.08826C287.071 1.06234 286.936 1.02264 286.999 0.976604C287.034 0.947846 287.119 0.909386 287.204 0.903397C287.665 0.875258 288.126 0.856652 288.587 0.834243Z" fill="#FFE492"/>
<path d="M505.395 20.2091C505.842 20.1887 506.295 20.1586 506.742 20.1477C506.977 20.1432 507.162 20.1866 507.191 20.2362C507.206 20.259 507.093 20.2995 507.001 20.3093C506.363 20.3762 505.674 20.386 505.008 20.4205C504.795 20.4307 504.567 20.4008 504.439 20.3477C504.246 20.2661 504.352 20.2352 504.714 20.2399C504.941 20.2411 505.168 20.2194 505.395 20.2091Z" fill="#FFE492"/>
<path d="M397.206 13.7408C397.433 13.7305 397.666 13.7049 397.886 13.7119C398.121 13.7207 398.271 13.7758 398.342 13.8312C398.421 13.8941 398.415 13.9535 398.345 14.0074C398.233 14.0997 398.119 14.0962 397.856 14.0357C397.45 13.9412 397.422 13.9528 396.62 13.959C396.528 13.9593 396.414 13.9309 396.343 13.9062C396.236 13.8683 396.292 13.8087 396.539 13.7735C396.724 13.748 396.979 13.7511 397.206 13.7408Z" fill="#FFE492"/>
<path d="M488.746 19.6196C489.079 19.6033 489.412 19.5775 489.746 19.5764C489.98 19.5738 490.165 19.6172 490.187 19.665C490.195 19.6879 490.089 19.7264 490.004 19.7382C489.6 19.791 489.146 19.7962 488.706 19.8148C488.5 19.8231 488.273 19.7932 488.144 19.74C487.951 19.6603 488.064 19.6236 488.412 19.634C488.519 19.6375 488.632 19.6257 488.746 19.6196Z" fill="#FFE492"/>
<path d="M436.188 17.3892C435.692 17.4136 435.223 17.3864 435.258 17.3366C435.307 17.2714 435.512 17.2287 435.724 17.2166C436.065 17.1964 436.405 17.1801 436.753 17.1676C436.973 17.1592 437.172 17.1873 437.35 17.2365C437.245 17.298 437.082 17.3425 436.869 17.3565C436.649 17.3705 436.415 17.3789 436.188 17.3892Z" fill="#FFE492"/>
<path d="M432.926 17.1519C433.259 17.1355 433.592 17.1097 433.926 17.1087C434.16 17.106 434.345 17.1495 434.367 17.1972C434.375 17.2201 434.269 17.2587 434.184 17.2704C433.78 17.3233 433.326 17.3285 432.886 17.347C432.68 17.3553 432.453 17.3254 432.324 17.2722C432.131 17.1925 432.244 17.1559 432.592 17.1663C432.699 17.1698 432.812 17.1579 432.926 17.1519Z" fill="#FFE492"/>
<path d="M393.17 13.7353C393.504 13.719 393.837 13.6931 394.17 13.6902C394.404 13.6876 394.589 13.731 394.611 13.7788C394.619 13.8017 394.513 13.8383 394.428 13.852C394.024 13.9048 393.57 13.91 393.131 13.9286C392.925 13.9368 392.697 13.9069 392.569 13.8538C392.376 13.7741 392.489 13.7374 392.837 13.7478C392.943 13.7513 393.057 13.7395 393.17 13.7353Z" fill="#FFE492"/>
<path d="M391.302 13.6266C391.657 13.6103 391.771 13.6003 391.884 13.6C392.097 13.5994 392.317 13.6216 392.446 13.6767C392.639 13.7564 392.526 13.7797 392.178 13.7846C391.731 13.7898 391.291 13.8313 390.844 13.8403C390.61 13.8448 390.425 13.7995 390.41 13.7517C390.403 13.7288 390.508 13.6883 390.594 13.6804C390.891 13.6508 391.217 13.6326 391.302 13.6266Z" fill="#FFE492"/>
<path d="M429.913 2.22226C429.686 2.23252 429.446 2.26005 429.233 2.25113C428.949 2.2386 428.834 2.1873 428.904 2.13925C428.947 2.11234 429.024 2.07383 429.109 2.06783C429.563 2.03966 430.024 2.02102 430.478 2.0005C430.748 2.02838 430.869 2.06819 430.799 2.11623C430.757 2.14315 430.679 2.17974 430.594 2.18765C430.374 2.20746 430.14 2.21201 429.913 2.22226Z" fill="#FFE492"/>
<path d="M154.276 4.00786C154.495 4.00528 154.694 4.02955 154.865 4.07689C154.76 4.13847 154.605 4.17915 154.392 4.19702C154.286 4.20501 154.165 4.21111 154.052 4.21337C153.832 4.21787 153.633 4.19168 153.462 4.14435C153.567 4.08276 153.73 4.04207 153.935 4.02421C154.041 4.01623 154.162 4.01395 154.276 4.00786Z" fill="#FFE492"/>
<path d="M502.962 20.2071C502.954 20.1516 503.386 20.0872 503.776 20.0879C503.982 20.0892 504.195 20.1153 504.316 20.1666C504.502 20.2445 504.396 20.2755 504.048 20.2708C503.835 20.2676 503.609 20.3009 503.396 20.2958C503.155 20.2946 503.012 20.2529 502.962 20.2071Z" fill="#FFE492"/>
<path d="M399.261 13.9676C399.254 13.9466 399.218 13.9218 399.239 13.9026C399.372 13.7968 400.188 13.7617 400.402 13.853C400.437 13.8702 400.452 13.8988 400.424 13.9162C400.382 13.9431 400.304 13.9778 400.219 13.9858C400 14.0056 399.773 14.0159 399.546 14.0185C399.447 14.0188 399.354 13.9865 399.261 13.9676Z" fill="#FFE492"/>
<path d="M18.6144 14.4868C17.7779 14.5296 17.7636 14.5258 17.9112 14.4296C18.0446 14.343 18.2922 14.2906 18.654 14.2895C18.7605 14.2891 18.8739 14.285 18.9662 14.2923C19.0657 14.3016 19.208 14.3203 19.2296 14.3432C19.2729 14.3871 19.1529 14.4354 18.9405 14.4686C18.8485 14.4842 18.7279 14.4807 18.6144 14.4868Z" fill="#FFE492"/>
<path d="M164.764 3.71045C164.516 3.74378 164.304 3.73294 164.147 3.67212C163.99 3.6113 164.237 3.53774 164.669 3.51917C164.783 3.51499 164.903 3.49931 165.01 3.50664C165.116 3.51207 165.223 3.53471 165.287 3.5575C165.401 3.59546 165.331 3.64742 165.105 3.69217C165.013 3.7097 164.878 3.70627 164.764 3.71045Z" fill="#FFE492"/>
<path d="M501.482 20.067C501.545 20.0419 501.609 20.0167 501.679 19.9935C501.941 20.0253 502.055 20.0633 501.985 20.1077C501.943 20.1347 501.858 20.1579 501.795 20.1831C501.533 20.1513 501.426 20.1113 501.482 20.067Z" fill="#FFE492"/>
<path d="M30.0545 36.342C30.0542 36.319 30.1527 36.2823 30.2304 36.2744C30.3788 36.2605 30.5631 36.2868 30.6913 36.34C30.8694 36.4162 30.764 36.4568 30.4381 36.4367C30.2115 36.422 30.0552 36.3842 30.0545 36.342Z" fill="#FFE492"/>
<path d="M402.132 12.1719C402.224 12.1889 402.316 12.2059 402.402 12.2248C402.282 12.296 402.134 12.3272 401.978 12.3085C401.879 12.2973 401.794 12.2745 401.701 12.2576C401.821 12.1863 401.962 12.159 402.132 12.1719Z" fill="#FFE492"/>
<path d="M399.677 12.0917C399.818 12.0625 399.988 12.0774 400.187 12.1323C400.124 12.1575 400.068 12.1864 399.99 12.2058C399.856 12.2368 399.679 12.222 399.487 12.1651C399.543 12.142 399.607 12.1169 399.677 12.0917Z" fill="#FFE492"/>
<path d="M397.794 12.1804C397.887 12.1974 397.979 12.2144 398.064 12.2333C397.945 12.3045 397.804 12.3356 397.641 12.317C397.542 12.3058 397.456 12.283 397.364 12.2661C397.483 12.1948 397.624 12.1656 397.794 12.1804Z" fill="#FFE492"/>
<path d="M396.404 12.0815C396.511 12.1196 396.455 12.1658 396.251 12.2182C396.159 12.2013 396.052 12.1882 395.981 12.1654C395.868 12.1293 395.923 12.0811 396.135 12.0286C396.22 12.0476 396.312 12.0646 396.404 12.0815Z" fill="#FFE492"/>
</svg>
