<svg width="235" height="39" viewBox="0 0 235 39" fill="none" xmlns="http://www.w3.org/2000/svg">
<path d="M219.175 19.773C218.856 19.8065 218.534 19.8302 218.221 19.8792C218.018 19.9099 217.93 19.8249 217.795 19.7812C217.749 19.7659 217.701 19.7351 217.659 19.7393C217.343 19.7728 217.027 19.8101 216.711 19.8475C216.615 19.9241 216.555 20.0257 216.406 20.0638C216.262 20.0999 216.091 20.1012 215.929 20.1199C215.717 20.1428 215.504 20.1658 215.291 20.1868C215.185 20.1973 215.098 20.2349 215.063 20.3053C215.057 20.317 215.128 20.3457 215.167 20.3629C215.296 20.4204 215.422 20.4856 215.565 20.5293C215.7 20.5712 215.868 20.4999 216.013 20.5533C216.34 20.6736 216.343 20.6716 216.591 20.6464C216.804 20.6235 217.017 20.5986 217.229 20.5814C217.271 20.5772 217.32 20.6061 217.365 20.6213C217.501 20.6631 217.589 20.7598 217.788 20.7214C217.94 20.6911 218.107 20.684 218.265 20.6673C218.398 20.7228 218.521 20.7861 218.663 20.8298C218.796 20.8717 218.835 20.9045 218.764 20.9615C218.7 21.0145 218.61 21.0366 218.49 21.0413C218.384 21.0441 218.278 21.0623 218.171 21.0729C218.117 21.0791 218.065 21.0834 218.013 21.0896C217.81 21.1125 217.81 21.1125 217.439 20.9906C217.293 20.943 217.129 21.0123 216.99 20.9666C216.896 20.9362 216.815 20.8901 216.725 20.8576C216.686 20.8443 216.625 20.8428 216.576 20.847C216.415 20.8618 216.254 20.8728 216.099 20.8992C215.99 20.9175 215.926 20.9725 215.939 21.0269C215.943 21.0483 216.02 21.0789 216.065 21.0805C216.169 21.0836 216.278 21.0556 216.378 21.0684C216.475 21.0814 216.575 21.1196 216.646 21.1619C216.792 21.2503 216.956 21.1693 217.095 21.1917C217.24 21.2159 217.36 21.2929 217.499 21.3386C217.535 21.35 217.602 21.3301 217.657 21.3238C217.815 21.309 217.973 21.2962 218.131 21.2814C218.264 21.3369 218.406 21.3865 218.526 21.4499C218.743 21.5651 218.975 21.6081 219.255 21.5496C219.413 21.5173 219.568 21.5279 219.694 21.6029C219.824 21.6798 219.972 21.6709 220.137 21.6541C220.288 21.6375 220.443 21.5935 220.598 21.6469C220.934 21.7651 220.937 21.7709 221.334 21.7213C221.453 21.7068 221.543 21.7023 221.634 21.7464C221.718 21.7866 221.808 21.821 221.896 21.8593C222.054 21.8445 222.215 21.8297 222.373 21.813C222.576 21.7901 222.689 21.8165 222.738 21.9252C222.768 21.9911 222.781 22.0514 222.852 22.0956C222.936 22.1495 223.027 22.1469 223.149 22.1304C223.265 22.116 223.349 22.0939 223.397 22.0235C223.416 21.9942 223.454 21.9666 223.49 21.943C223.519 21.9253 223.564 21.8977 223.589 21.9014C223.638 21.9089 223.703 21.9298 223.719 21.955C223.879 22.1893 223.879 22.1913 224.04 22.2582C224.218 22.3329 224.403 22.3996 224.564 22.4841C224.71 22.5589 224.855 22.5248 225.013 22.5237C225.132 22.5228 225.21 22.5728 225.201 22.6235C225.195 22.6527 225.15 22.6959 225.111 22.7001C224.795 22.7413 224.476 22.7767 224.157 22.8063C224.118 22.8105 224.07 22.7758 224.025 22.7586C223.934 22.7242 223.853 22.6703 223.756 22.6593C223.659 22.6484 223.547 22.6784 223.44 22.6889C223.334 22.6994 223.221 22.7256 223.124 22.7107C223.027 22.6958 222.95 22.6399 222.859 22.6036C222.817 22.5864 222.759 22.5615 222.723 22.5676C222.488 22.6161 222.314 22.5531 222.145 22.4687C222.11 22.4514 222.048 22.4402 222.003 22.4444C221.629 22.4803 221.259 22.5219 220.885 22.5616C220.733 22.5783 220.61 22.5111 220.577 22.3964C220.561 22.3323 220.528 22.2683 220.527 22.2041C220.527 22.0873 220.349 22.0244 220.22 22.039C220.007 22.06 219.791 22.0771 219.582 22.1078C219.411 22.1325 219.266 22.1102 219.149 22.0409C219.013 21.9621 218.858 21.9788 218.704 22.0014C218.588 22.0178 218.556 22.0823 218.563 22.2438C218.571 22.3741 218.516 22.4154 218.307 22.4384C218.043 22.4675 217.775 22.4967 217.507 22.5201C217.466 22.5243 217.417 22.4916 217.375 22.4744C217.284 22.44 217.203 22.3841 217.107 22.3732C217.01 22.3602 216.897 22.3903 216.791 22.4027C216.684 22.4132 216.572 22.4413 216.475 22.4284C216.378 22.4155 216.297 22.3577 216.209 22.3213C216.167 22.3041 216.116 22.2792 216.074 22.2834C215.861 22.3005 215.648 22.3254 215.436 22.3484C215.197 22.3735 215.197 22.3735 214.858 22.2553C214.702 22.2019 214.548 22.2459 214.396 22.2626C214.235 22.2793 214.084 22.2882 213.957 22.2113C213.873 22.1613 213.779 22.1308 213.68 22.1413C213.412 22.1666 213.148 22.1977 212.88 22.223C212.835 22.2273 212.774 22.218 212.738 22.2007C212.567 22.1202 212.398 22.0572 212.16 22.0998C211.954 22.1364 211.731 22.1399 211.525 22.1745C211.412 22.1929 211.361 22.2555 211.384 22.304C211.397 22.3293 211.465 22.358 211.51 22.3576C211.614 22.3588 211.726 22.3288 211.823 22.3398C212.023 22.3617 212.124 22.5244 212.385 22.4777C212.54 22.4494 212.701 22.4385 212.862 22.4295C212.904 22.4272 212.95 22.4639 212.995 22.483C213.124 22.5346 213.238 22.6019 213.424 22.5655C213.579 22.5371 213.744 22.5282 213.901 22.5114C214.153 22.4843 214.153 22.4862 214.479 22.6026C214.635 22.6579 214.789 22.612 214.941 22.5973C215.053 22.5867 215.16 22.5665 215.25 22.5931C215.389 22.6329 215.49 22.7256 215.661 22.7185C215.822 22.7115 215.98 22.6831 216.141 22.6722C216.241 22.6656 216.335 22.6961 216.416 22.7481C216.5 22.8 216.59 22.8227 216.7 22.8102C216.858 22.7935 217.019 22.7728 217.18 22.7619C217.225 22.7597 217.277 22.7768 217.319 22.7921C217.41 22.8264 217.497 22.8667 217.584 22.903C217.742 22.8902 217.904 22.8851 218.058 22.8606C218.177 22.8422 218.261 22.8494 218.358 22.8876C218.481 22.9393 218.582 23.032 218.782 22.9858C218.881 22.9636 218.998 22.9686 219.097 22.9484C219.22 22.9222 219.304 22.9313 219.391 22.9891C219.557 23.0988 219.763 23.0993 219.976 23.0549C220.207 23.0065 220.382 23.0597 220.557 23.1441C220.741 23.2323 220.741 23.2303 220.885 23.4453C220.927 23.5073 221.046 23.5357 221.146 23.5232C221.314 23.5026 221.459 23.5112 221.582 23.5843C221.712 23.6632 221.867 23.6523 222.024 23.6297C222.234 23.599 222.443 23.5722 222.615 23.6838C222.699 23.7377 222.79 23.7506 222.903 23.7362C223.222 23.6988 223.544 23.6751 223.857 23.63C224.047 23.6013 224.157 23.6628 224.286 23.7144C224.461 23.7852 224.651 23.848 224.653 24.0018C224.653 24.0271 224.698 24.0559 224.737 24.0751C224.821 24.1154 224.912 24.1498 224.999 24.188C225.128 24.2455 225.255 24.2932 225.432 24.2608C225.586 24.2344 225.751 24.2254 225.909 24.2067C226.067 24.188 226.212 24.1772 226.354 24.2502C226.519 24.3327 226.694 24.4112 226.881 24.4721C227.014 24.5159 227.188 24.4387 227.33 24.498C227.417 24.5344 227.501 24.5766 227.595 24.607C227.634 24.6204 227.695 24.6102 227.747 24.6059C227.853 24.5974 227.963 24.5907 228.066 24.5705C228.185 24.5482 228.275 24.5515 228.366 24.5956C228.45 24.6359 228.534 24.6917 228.631 24.7026C228.776 24.7191 228.937 24.6401 229.083 24.7285C229.157 24.7728 229.251 24.8149 229.348 24.8278C229.445 24.8408 229.558 24.8107 229.661 24.8119C229.706 24.8116 229.761 24.8423 229.787 24.8674C229.803 24.881 229.781 24.9181 229.759 24.9377C229.73 24.9613 229.688 24.9928 229.646 24.997C229.327 25.0343 229.008 25.0659 228.689 25.1013C228.499 25.1221 228.499 25.1221 228.114 25.0023C228.024 24.9738 227.924 24.9803 227.811 24.9948C227.659 25.0134 227.505 25.0476 227.346 25.0138C227.139 24.8829 226.884 24.8731 226.614 24.9257C226.501 24.9479 226.398 24.9487 226.314 24.9123C226.136 24.8396 225.948 24.7729 225.79 24.6864C225.666 24.6192 225.608 24.6138 225.557 24.7076C225.542 24.7369 225.526 24.7682 225.529 24.7954C225.549 24.8926 225.585 24.9877 225.605 25.0849C225.612 25.1121 225.586 25.1434 225.57 25.1727C225.519 25.2549 225.452 25.2495 225.338 25.1822C225.225 25.1149 225.089 25.0711 224.909 25.1036C224.754 25.132 224.586 25.1293 224.432 25.1597C224.193 25.2042 224.025 25.1432 223.854 25.0607C223.818 25.0434 223.757 25.0342 223.712 25.0384C223.231 25.0867 222.754 25.1408 222.274 25.189C222.171 25.1995 222.077 25.171 221.996 25.1191C221.912 25.0671 221.818 25.0405 221.715 25.051C221.29 25.095 220.864 25.1351 220.439 25.1888C220.265 25.2115 220.126 25.1872 220.006 25.12C219.916 25.07 219.832 25.0551 219.719 25.0617C219.596 25.0685 219.509 25.0886 219.448 25.1455C219.391 25.2004 219.433 25.2332 219.562 25.275C219.701 25.3207 219.831 25.3802 219.963 25.4337C220.07 25.4251 220.176 25.4088 220.279 25.4099C220.324 25.4096 220.367 25.4444 220.412 25.4635C220.541 25.519 220.661 25.5746 220.845 25.5421C220.999 25.5137 221.164 25.5067 221.322 25.488C221.541 25.465 221.541 25.465 221.896 25.585C221.987 25.6155 222.084 25.6128 222.2 25.5945C222.299 25.5801 222.403 25.6066 222.474 25.6645C222.503 25.6876 222.494 25.7266 222.434 25.8556C222.434 25.9509 222.502 25.9076 222.524 25.8452C222.559 25.7554 222.491 25.7267 222.362 25.7763C222.272 25.812 222.227 25.8629 222.25 25.9036C222.263 25.9249 222.325 25.9517 222.434 25.8556C222.717 25.7367 222.933 25.7215 223.139 25.6888C223.261 25.6704 223.339 25.6776 223.436 25.7275C223.552 25.787 223.669 25.8504 223.859 25.8179C224.065 25.7813 224.284 25.7758 224.494 25.7451C224.687 25.7164 224.788 25.8014 224.911 25.8511C225.06 25.9103 225.224 25.841 225.359 25.875C225.501 25.909 225.602 25.9939 225.767 26.0083C226.005 25.954 226.157 26.0502 226.338 26.1132C226.48 26.1608 226.648 26.1167 226.799 26.0942C226.97 26.0696 227.112 26.09 227.232 26.1592C227.368 26.238 227.52 26.2194 227.674 26.2007C228.035 26.1591 228.048 26.1532 228.258 26.2587C228.41 26.3355 228.555 26.2994 228.707 26.2885C228.84 26.3401 228.969 26.3956 229.108 26.4413C229.144 26.4527 229.211 26.4328 229.266 26.4266C229.424 26.4098 229.585 26.3931 229.743 26.3764C229.849 26.3658 229.962 26.3358 230.059 26.3468C230.156 26.3597 230.237 26.4156 230.324 26.4519C230.411 26.4883 230.502 26.5246 230.586 26.5629C230.715 26.6203 230.838 26.6681 231.019 26.6376C231.173 26.6112 231.335 26.6022 231.496 26.5835C231.699 26.5606 231.692 26.5665 232.071 26.6805C232.274 26.7433 232.483 26.6639 232.69 26.6546C232.793 26.6499 232.893 26.6706 232.964 26.7266C232.993 26.7497 232.984 26.7887 232.994 26.8217C232.462 26.8782 231.927 26.9268 231.402 26.9949C231.199 27.0217 231.092 26.9524 230.982 26.8948C230.801 26.8027 230.563 26.9407 230.391 26.8213C230.287 26.75 230.139 26.7102 229.962 26.7466C229.859 26.7668 229.749 26.7656 229.643 26.7839C229.372 26.8287 229.124 26.8325 228.907 26.6998C228.832 26.6536 228.725 26.6291 228.648 26.5849C228.557 26.5369 228.47 26.5102 228.363 26.5207C227.883 26.571 227.406 26.6212 226.929 26.6753C226.887 26.6795 226.846 26.709 226.81 26.7306C226.72 26.7858 226.75 26.8284 226.895 26.8624C226.944 26.8737 226.982 26.8987 227.028 26.9179C227.115 26.9542 227.196 27.012 227.293 27.0249C227.39 27.0379 227.503 27.0098 227.609 26.9993C227.715 26.9888 227.828 26.9587 227.925 26.9697C228.022 26.9826 228.103 27.0385 228.193 27.0729C228.235 27.0901 228.287 27.1189 228.329 27.1166C228.542 27.1034 228.751 27.0805 228.964 27.0614C229.097 27.113 229.21 27.1881 229.368 27.2044C229.468 27.2154 229.574 27.1932 229.678 27.1963C229.723 27.1979 229.781 27.2267 229.804 27.2519C229.817 27.2673 229.775 27.3066 229.743 27.3263C229.621 27.4011 229.453 27.3887 229.302 27.4132C229.138 27.4397 228.989 27.433 228.863 27.358C228.779 27.308 228.685 27.2815 228.582 27.2919C228.314 27.3192 228.05 27.3503 227.782 27.3737C227.737 27.3779 227.682 27.3608 227.64 27.3475C227.301 27.2312 227.301 27.2273 227.062 27.2544C226.711 27.2939 226.711 27.2939 226.475 27.1925C226.43 27.1733 226.381 27.1367 226.342 27.139C225.968 27.1728 225.598 27.2067 225.227 27.2542C225.105 27.2687 225.021 27.2693 224.93 27.2194C224.852 27.1771 224.762 27.1291 224.665 27.1181C224.565 27.1072 224.455 27.1372 224.349 27.1477C224.243 27.1582 224.13 27.1843 224.036 27.1694C223.939 27.1546 223.855 27.1007 223.771 27.0624C223.684 27.0221 223.59 27.0247 223.471 27.0412C223.104 27.0886 223.1 27.0828 222.735 26.9648C222.693 26.9515 222.638 26.9363 222.593 26.9406C222.325 26.9659 222.061 26.997 221.794 27.0223C221.691 27.0328 221.59 27.0082 221.519 26.9523C221.49 26.9292 221.499 26.8901 221.479 26.8144C221.457 26.797 221.483 26.828 221.489 26.8571C221.538 26.8529 221.596 26.8564 221.631 26.8405C221.721 26.8029 221.766 26.7539 221.743 26.7132C221.73 26.6919 221.669 26.6651 221.63 26.6653C221.559 26.6659 221.498 26.7091 221.479 26.8144C221.277 26.8801 221.061 26.8953 220.851 26.928C220.729 26.9484 220.651 26.9392 220.554 26.8893C220.438 26.8279 220.318 26.7684 220.128 26.8009C219.922 26.8374 219.702 26.8449 219.49 26.8737C219.245 26.9067 219.137 26.7322 218.931 26.7376C218.718 26.7431 218.505 26.7777 218.293 26.8027C218.106 26.8235 218.106 26.8235 217.718 26.6998C217.575 26.6541 217.408 26.7235 217.269 26.6758C217.175 26.6453 217.094 26.5992 217.004 26.5668C216.965 26.5535 216.904 26.5539 216.856 26.5581C216.588 26.5835 216.317 26.601 216.059 26.6457C215.766 26.6985 215.543 26.6456 215.333 26.5323C215.069 26.5556 214.801 26.5693 214.54 26.6082C214.35 26.6368 214.24 26.5734 214.11 26.5218C214.065 26.5046 214.026 26.4757 213.978 26.4682C213.929 26.4608 213.871 26.4768 213.82 26.483C213.607 26.506 213.388 26.5173 213.182 26.5539C212.927 26.6005 212.829 26.4416 212.632 26.4236C212.501 26.5199 212.431 26.6508 212.17 26.6625C211.957 26.6718 211.744 26.7045 211.532 26.7275C211.425 26.738 211.319 26.7505 211.213 26.761C211.042 26.7797 210.962 26.8562 210.998 26.9728C211.018 27.0369 211.034 27.101 211.051 27.1651C211.084 27.2797 211.004 27.3776 210.869 27.3922C210.495 27.4319 210.124 27.4736 209.75 27.5094C209.65 27.5199 209.553 27.4875 209.472 27.4355C209.388 27.3836 209.294 27.3609 209.191 27.3714C208.817 27.4111 208.447 27.4528 208.073 27.4886C208.031 27.4928 207.976 27.4737 207.934 27.4584C207.843 27.4241 207.756 27.3838 207.669 27.3475C207.456 27.3666 207.246 27.3798 207.037 27.4046C206.699 27.4422 206.699 27.4441 206.449 27.3389C206.404 27.3197 206.359 27.2831 206.317 27.2854C206.156 27.2943 205.998 27.3149 205.837 27.3336C205.363 27.3877 205.363 27.3877 205.224 27.3303C205.098 27.2767 204.984 27.2114 204.794 27.2439C204.588 27.2805 204.369 27.2937 204.156 27.3148C203.998 27.3295 203.84 27.3463 203.682 27.3513C203.64 27.3536 203.595 27.3169 203.55 27.2978C203.42 27.2384 203.294 27.1906 203.117 27.225C203.014 27.2452 202.904 27.25 202.798 27.2605C202.521 27.2897 202.521 27.2897 202.065 27.1763C202.02 27.1649 201.965 27.1517 201.92 27.1579C201.546 27.1956 201.175 27.2373 200.801 27.2731C200.756 27.2773 200.701 27.266 200.656 27.2566C200.146 27.1475 200.146 27.1475 199.604 27.2059C199.398 27.2269 199.392 27.2347 199.175 27.1332C199.078 27.0891 198.997 27.0683 198.884 27.0827C198.459 27.1326 198.03 27.1668 197.608 27.2244C197.418 27.2492 197.308 27.1916 197.178 27.14C197.133 27.1228 197.084 27.0842 197.046 27.0864C196.62 27.1265 196.195 27.1744 195.769 27.2145C195.731 27.2187 195.682 27.1801 195.637 27.1629C195.549 27.1285 195.465 27.0766 195.368 27.0656C195.268 27.0547 195.159 27.0847 195.049 27.0952C194.782 27.1225 194.782 27.1205 194.471 27.0079C194.429 26.9927 194.374 26.9717 194.332 26.9759C193.907 27.0179 193.478 27.0541 193.056 27.1137C192.814 27.1466 192.649 27.0913 192.478 27.0108C192.442 26.9936 192.381 26.9862 192.336 26.9904C191.856 27.0387 191.379 27.0928 190.898 27.1411C190.799 27.1516 190.701 27.1192 190.621 27.0692C190.491 26.9903 190.339 27.0011 190.178 27.0198C189.808 27.0634 189.804 27.0615 189.584 26.9697C189.539 26.9506 189.5 26.9255 189.452 26.9161C189.407 26.9067 189.349 26.913 189.3 26.9173C189.088 26.9383 188.875 26.9612 188.662 26.9842C188.449 27.0072 188.233 27.0204 188.024 27.0551C187.766 27.0978 187.643 26.9722 187.462 26.9151C187.197 26.9423 186.927 26.9599 186.666 27.0027C186.466 27.0353 186.372 26.9503 186.239 26.9065C186.194 26.8913 186.145 26.8586 186.103 26.8628C185.623 26.9091 185.143 26.9593 184.666 27.0154C184.55 27.0279 184.473 27.0129 184.375 26.9669C184.159 26.8633 184.149 26.8673 183.788 26.9089C183.63 26.9276 183.479 26.9442 183.343 26.8654C183.223 26.7943 183.078 26.7778 182.907 26.8024C182.697 26.8331 182.481 26.8503 182.269 26.8713C182.056 26.8943 181.843 26.925 181.63 26.9363C181.46 26.9473 181.356 26.8566 181.22 26.8109C181.178 26.7976 181.12 26.796 181.071 26.8003C180.859 26.8193 180.64 26.8346 180.433 26.8692C180.182 26.9119 180.043 26.8058 179.865 26.7449C179.826 26.7315 179.761 26.7398 179.713 26.746C179.339 26.7837 178.969 26.8254 178.595 26.8651C178.462 26.8135 178.326 26.7639 178.194 26.7123C177.981 26.7333 177.768 26.7563 177.556 26.7773C177.394 26.7941 177.23 26.8011 177.079 26.8314C176.882 26.8718 176.785 26.781 176.652 26.7372C176.607 26.722 176.558 26.6892 176.516 26.6934C176.249 26.7168 175.981 26.7421 175.717 26.7771C175.466 26.8121 175.365 26.6376 175.158 26.641C174.945 26.6445 174.726 26.6715 174.52 26.708C174.282 26.7506 174.113 26.6896 173.942 26.6071C173.906 26.5899 173.845 26.5806 173.8 26.5848C173.532 26.6101 173.268 26.6412 173.001 26.6666C172.955 26.6708 172.901 26.6615 172.855 26.6501C172.345 26.539 172.345 26.537 172.123 26.562C171.965 26.5788 171.804 26.5994 171.642 26.6103C171.597 26.6145 171.542 26.5974 171.5 26.5821C171.164 26.4659 171.164 26.4639 170.922 26.489C170.709 26.512 170.497 26.535 170.284 26.5579C170.151 26.5063 170.016 26.4567 169.883 26.4052C169.619 26.4324 169.348 26.4538 169.087 26.4908C168.964 26.5072 168.884 26.502 168.79 26.454C168.673 26.3965 168.557 26.3292 168.364 26.3637C168.157 26.4002 167.938 26.4057 167.729 26.4365C167.477 26.4733 167.373 26.297 167.17 26.3004C166.957 26.3039 166.738 26.3308 166.532 26.3674C166.293 26.41 166.125 26.3489 165.953 26.2665C165.918 26.2492 165.857 26.2399 165.811 26.2442C165.225 26.3049 164.641 26.3656 164.055 26.4302C163.694 26.4698 163.694 26.4718 163.006 26.3698C162.958 26.3623 162.906 26.3549 162.858 26.3592C162.645 26.3783 162.426 26.3935 162.22 26.4281C161.968 26.4708 161.829 26.3667 161.651 26.3038C161.612 26.2904 161.551 26.2986 161.499 26.3029C161.338 26.3177 161.18 26.3364 161.019 26.3532C160.807 26.3761 160.594 26.3991 160.381 26.4221C160.248 26.3724 160.113 26.3208 159.98 26.2712C159.716 26.2984 159.445 26.3141 159.184 26.3568C158.984 26.3894 158.89 26.3084 158.758 26.2626C158.712 26.2474 158.664 26.2146 158.622 26.2169C158.142 26.2632 157.661 26.3115 157.184 26.3695C156.988 26.3943 156.897 26.3074 156.764 26.2636C156.719 26.2503 156.667 26.2253 156.625 26.2295C156.306 26.2591 155.987 26.2946 155.668 26.33C155.488 26.3508 155.488 26.3508 155.093 26.233C155.048 26.2197 154.996 26.2064 154.951 26.2106C153.939 26.3154 152.93 26.4259 151.918 26.5306C151.815 26.5411 151.722 26.5126 151.641 26.4606C151.556 26.4087 151.463 26.3821 151.359 26.3926C150.934 26.4366 150.505 26.4767 150.083 26.5304C149.909 26.5531 149.77 26.5288 149.65 26.4616C149.56 26.4116 149.476 26.3928 149.363 26.4053C149.15 26.4302 148.938 26.4512 148.725 26.4742C148.512 26.4971 148.299 26.5201 148.087 26.5431C147.874 26.566 147.658 26.5793 147.449 26.6139C147.191 26.6567 147.064 26.5369 146.886 26.4779C146.567 26.5094 146.248 26.5409 145.932 26.5744C145.507 26.6184 145.082 26.6663 144.656 26.7083C144.617 26.7125 144.569 26.6778 144.524 26.6606C144.391 26.6129 144.294 26.5455 144.097 26.5683C143.143 26.6785 142.183 26.7731 141.226 26.8813C141.026 26.9042 140.938 26.8211 140.802 26.7773C140.757 26.7641 140.705 26.7372 140.663 26.7414C140.132 26.7939 139.6 26.8523 139.068 26.9088C138.852 26.9318 138.852 26.9318 138.49 26.8137C138.448 26.8004 138.393 26.7833 138.348 26.7875C137.655 26.8587 136.965 26.9339 136.272 27.0071C136.169 27.0176 136.075 26.991 135.991 26.939C135.91 26.8871 135.813 26.8586 135.713 26.8691C135.075 26.936 134.434 27.001 133.799 27.0738C133.628 27.0945 133.486 27.078 133.363 27.0089C133.275 26.9589 133.188 26.9381 133.079 26.9506C132.121 27.053 131.164 27.1515 130.207 27.2597C130.023 27.2805 129.894 27.2445 129.777 27.1811C129.684 27.1311 129.603 27.122 129.487 27.1306C129.364 27.1413 129.29 27.1632 129.223 27.2221C129.136 27.2986 129.082 27.3944 128.876 27.4018C128.663 27.4092 128.447 27.4341 128.238 27.4687C128.038 27.5033 127.944 27.4164 127.818 27.3647C127.724 27.3284 127.637 27.3232 127.518 27.3416C127.408 27.358 127.341 27.3916 127.277 27.4543C127.136 27.5877 127.123 27.5878 126.948 27.5054C126.854 27.4613 126.77 27.4269 126.667 27.4354C126.241 27.4775 125.816 27.5234 125.39 27.5713C125.146 27.5984 125.142 27.6023 124.958 27.5063C124.867 27.4583 124.78 27.4356 124.674 27.4481C123.504 27.5734 122.334 27.6949 121.164 27.8261C120.983 27.8468 120.86 27.8069 120.731 27.7494C120.689 27.7302 120.647 27.7033 120.598 27.6959C120.55 27.6884 120.495 27.6966 120.444 27.7009C119.593 27.7908 118.739 27.8769 117.891 27.9765C117.698 27.9993 117.594 27.9378 117.461 27.8882C117.416 27.871 117.377 27.844 117.329 27.8366C117.28 27.8311 117.222 27.8451 117.171 27.8514C116.32 27.9413 115.466 28.0273 114.618 28.127C114.415 28.1499 114.328 28.0687 114.195 28.0269C114.15 28.0116 114.101 27.9828 114.059 27.987C113.792 28.0104 113.528 28.0415 113.26 28.0687C112.622 28.1377 111.984 28.2027 111.346 28.2735C111.101 28.3006 110.993 28.1281 110.787 28.1374C110.519 28.1491 110.255 28.19 109.987 28.2192C109.775 28.2422 109.562 28.2632 109.349 28.2881C109.14 28.3111 109.14 28.311 108.616 28.202C108.571 28.1926 108.516 28.1793 108.471 28.1836C107.727 28.261 106.979 28.3385 106.238 28.4218C106.067 28.4406 105.925 28.4319 105.802 28.3608C105.714 28.3108 105.624 28.2861 105.518 28.2986C104.399 28.4177 103.284 28.5368 102.166 28.654C102.124 28.6582 102.069 28.6392 102.027 28.6239C101.936 28.5895 101.849 28.5493 101.761 28.5129C101.697 28.5582 101.614 28.5997 101.572 28.6506C101.515 28.7191 101.437 28.7392 101.315 28.7517C101.192 28.7643 101.115 28.761 101.018 28.7111C100.901 28.6496 100.782 28.6018 100.591 28.6227C99.4215 28.7539 98.2515 28.8734 97.0816 29.0026C96.8882 29.0235 96.7974 28.9385 96.6616 28.8947C96.6163 28.8814 96.5645 28.8604 96.5226 28.8646C96.0424 28.9129 95.5654 28.9651 95.0852 29.0153C93.7541 29.1574 92.423 29.2936 91.0952 29.4435C90.8535 29.4706 90.6886 29.4231 90.5171 29.3407C90.4815 29.3234 90.4202 29.3141 90.3751 29.3183C88.5122 29.5149 86.6493 29.7135 84.7896 29.912C84.6897 29.9224 84.5927 29.892 84.5117 29.842C84.4275 29.7901 84.3338 29.7654 84.2307 29.7759C83.3798 29.8658 82.529 29.9558 81.6781 30.0476C81.4654 30.0706 81.4622 30.0726 81.2422 29.9807C81.1969 29.9616 81.1483 29.925 81.1128 29.9291C81.0387 29.9394 80.9681 29.9886 80.9169 30.0551C80.8658 30.1256 80.7853 30.1456 80.6661 30.1601C80.5436 30.1747 80.463 30.1694 80.3691 30.1234C80.2494 30.0659 80.1393 30.0102 79.9459 30.0311C77.4997 30.2981 75.0535 30.5554 72.6073 30.8205C72.4107 30.8414 72.3198 30.7604 72.184 30.7166C72.1387 30.7033 72.0935 30.6841 72.0451 30.6806C71.9934 30.6771 71.9387 30.6892 71.8871 30.6954C67.8971 31.1197 63.9071 31.546 59.9171 31.9703C59.6786 31.9954 59.6818 31.9954 59.4218 32.1764C59.3897 32.198 59.3479 32.2275 59.3028 32.2317C58.0813 32.3652 56.8566 32.4949 55.6319 32.6245C55.1001 32.6809 54.5683 32.7394 54.0365 32.7939C53.8464 32.8128 53.8464 32.8128 53.3931 33.0263C53.3545 33.0441 53.3095 33.0678 53.2643 33.072C51.1372 33.2997 49.01 33.5275 46.8796 33.7513C46.712 33.7681 46.5768 33.8041 46.5001 33.8981C46.4457 33.9647 46.3751 34.0042 46.2687 34.0166C44.7797 34.1754 43.2907 34.3362 41.7985 34.4912C41.6212 34.51 41.5151 34.5653 41.4286 34.6477C41.3998 34.6751 41.3742 34.7064 41.3324 34.7262C41.2938 34.744 41.2358 34.7503 41.1875 34.7565C39.9112 34.8923 38.6349 35.0321 37.3554 35.1621C37.1652 35.181 37.0883 35.2536 36.9953 35.3302C36.9632 35.3558 36.9409 35.391 36.8991 35.4088C36.8573 35.4247 36.796 35.4251 36.7444 35.4294C35.6808 35.5423 34.6173 35.6571 33.5537 35.77C33.3472 35.7618 33.3028 35.875 33.2033 35.9438C33.168 35.9675 33.1425 35.9988 33.1007 36.0147C33.0556 36.0306 32.9975 36.029 32.9427 36.0333C32.0918 36.1233 31.241 36.219 30.3869 36.3031C30.1903 36.3221 30.1522 36.4216 30.0463 36.4905C30.011 36.5122 29.9758 36.5456 29.9339 36.5517C29.4021 36.6121 28.8703 36.6685 28.3385 36.723C28.1613 36.7418 28.1613 36.7399 27.8498 36.9349C27.8144 36.9565 27.7726 36.9802 27.7275 36.9864C26.9315 37.0739 26.1322 37.1576 25.3329 37.2433C25.2298 37.2538 25.1591 37.301 25.108 37.3676C25.0569 37.4341 24.983 37.4775 24.8799 37.488C24.2417 37.5569 23.6035 37.6277 22.9654 37.6908C22.7881 37.7076 22.6724 37.7572 22.5956 37.8453C22.538 37.9119 22.4673 37.9455 22.3545 37.958C21.7163 38.025 21.0782 38.0978 20.4368 38.157C20.2498 38.1739 20.1535 38.2408 20.0767 38.3231C20.0158 38.3897 19.945 38.4136 19.8258 38.4262C18.6558 38.5476 17.4827 38.6691 16.316 38.8022C16.1194 38.825 16.019 38.7577 15.8896 38.7099C15.7053 38.6432 15.5339 38.5704 15.5328 38.4186C15.5326 38.3953 15.4776 38.3684 15.4388 38.3492C15.1507 38.2053 15.1507 38.2054 15.1044 38.05C15.0779 37.9548 15.0482 37.8577 15.025 37.7605C14.9819 37.6012 14.8784 37.5611 14.5819 37.5925C14.4755 37.603 14.3692 37.6173 14.2628 37.6259C14.1049 37.6407 13.9851 37.5773 13.9552 37.4608C13.9387 37.3966 13.9189 37.3326 13.9023 37.2684C14.0634 37.2517 14.0602 37.2498 14.3423 37.0122C14.461 36.912 14.461 36.912 14.2313 36.8144C14.144 36.7781 14.0598 36.7378 13.966 36.7035C13.924 36.6882 13.8691 36.6789 13.824 36.6831C13.5565 36.7084 13.2922 36.7376 13.0279 36.7668C12.6025 36.8127 12.6024 36.8127 12.1688 36.6173C12.1333 36.602 12.0782 36.5732 12.0846 36.5576C12.1195 36.4853 12.2064 36.4535 12.316 36.445C12.4772 36.4321 12.6351 36.4115 12.793 36.3948C12.8993 36.3842 13.0057 36.3718 13.1121 36.3613C13.2115 36.2866 13.3143 36.2138 13.4073 36.1372C13.5548 36.0194 13.5547 36.0155 13.351 35.9352C13.2216 35.8816 13.0825 35.834 12.9499 35.7843C12.792 35.8011 12.6309 35.8198 12.4729 35.8345C12.2731 35.8535 12.1922 35.8171 12.1397 35.691C12.0938 35.5804 12.1479 35.4846 12.3026 35.4601C12.4604 35.4356 12.6088 35.4189 12.6887 35.3191C12.7654 35.2231 12.9006 35.1852 13.0683 35.1761C13.1746 35.1695 13.281 35.1551 13.3873 35.1427C13.5259 35.1261 13.5994 35.0263 13.5696 34.9155C13.553 34.8436 13.5203 34.7835 13.3944 34.7689C12.8359 34.7048 12.8295 34.7068 12.5511 34.5765C12.5253 34.565 12.5057 34.5301 12.5153 34.5125C12.5312 34.4832 12.5664 34.4401 12.605 34.434C12.9756 34.3885 13.3462 34.3468 13.7169 34.3149C13.8394 34.3043 13.9296 34.29 13.9711 34.2177C14.0284 34.118 14.002 34.0267 13.8886 33.9594C13.853 33.9382 13.7947 33.9114 13.756 33.9136C13.3305 33.9518 12.9083 33.9996 12.4829 34.0378C12.4442 34.042 12.373 34.0094 12.3567 33.9842C12.3241 33.9377 12.372 33.8751 12.4848 33.8529C12.6329 33.8226 12.7845 33.8195 12.8838 33.7215C13.0215 33.5823 13.1915 33.4545 13.3454 33.321C13.371 33.2975 13.4127 33.2524 13.403 33.2485C13.3221 33.2063 13.2283 33.1739 13.1441 33.1336C13.0017 33.0666 13.001 32.9712 13.0327 32.8795C13.0579 32.8053 13.1545 32.7754 13.2738 32.7745C13.3254 32.7742 13.3899 32.7737 13.4317 32.7559C13.5411 32.7122 13.5762 32.6575 13.5211 32.617C13.4886 32.5939 13.4304 32.5612 13.3917 32.5654C12.702 32.6347 12.0089 32.702 11.3225 32.7869C11.1195 32.8117 11.0255 32.7384 10.9026 32.6867C10.8088 32.6466 10.7215 32.6316 10.6056 32.6617C10.4961 32.6897 10.3896 32.6749 10.3215 32.6112C10.2663 32.5591 10.3627 32.5136 10.6236 32.4611C10.6719 32.451 10.7266 32.4447 10.762 32.425C11.1346 32.212 11.1346 32.2101 11.3924 32.181C11.6438 32.1538 11.6439 32.1519 11.7753 32.038C11.8362 31.985 11.9035 31.932 11.9612 31.877C11.9836 31.8555 12.0221 31.8162 12.0091 31.8047C11.9377 31.7448 11.8408 31.7319 11.728 31.7464C11.4767 31.7813 11.1798 31.7562 11.0489 31.9421C10.9978 32.0126 10.9173 32.0326 10.8013 32.0451C9.63453 32.1666 8.46782 32.2958 7.29783 32.4133C7.10766 32.4323 7.02114 32.5049 6.94753 32.5853C6.88349 32.6519 6.81266 32.6719 6.69018 32.6845C6.5677 32.697 6.47094 32.7036 6.39953 32.6399C6.35733 32.6013 6.39243 32.5465 6.4888 32.4913C6.62694 32.4124 6.60043 32.3153 6.55464 32.2241C6.52196 32.164 6.42168 32.1219 6.31527 32.1266C6.15729 32.1355 6.0059 32.1581 5.87311 32.0812C5.79539 32.037 5.69839 32.0065 5.61104 31.9682C5.44276 31.8896 5.27447 31.8091 5.0394 31.8634C4.878 31.8451 4.76462 31.7759 4.63522 31.7223C4.4185 31.6344 4.39905 31.6209 4.55319 31.5244C4.7266 31.416 4.59012 31.2769 4.68614 31.171C4.78855 31.0574 4.9298 30.9571 5.05484 30.8511C5.0869 30.8236 5.11576 30.7981 5.14782 30.7706C5.07337 30.7322 5.00531 30.684 4.91803 30.6574C4.8049 30.6232 4.74654 30.5808 4.75214 30.4601C4.72944 30.4427 4.73937 30.4874 4.76525 30.4989C4.79436 30.5104 4.8653 30.5001 4.90068 30.4863C4.99073 30.4486 5.03549 30.3996 5.01262 30.3589C4.99957 30.3376 4.93815 30.3108 4.89944 30.3111C4.82849 30.3116 4.76752 30.3549 4.74891 30.4601C4.38825 30.5426 4.01434 30.5842 3.64043 30.6181C3.60176 30.6223 3.55313 30.5837 3.50784 30.5646C3.35902 30.4995 3.35901 30.5014 2.92347 30.4851C2.8783 30.4835 2.81686 30.4567 2.79409 30.4296C2.69972 30.3116 2.70205 30.1811 2.656 30.0549C2.73928 29.9726 2.82251 29.8922 2.90902 29.8117C3.08204 29.6489 3.30686 29.5052 3.44107 29.327C3.41136 29.2319 3.37198 29.1368 3.51334 29.0579C3.91581 28.9576 3.91261 28.9576 4.0216 28.8634C4.33258 28.5964 4.6403 28.3275 4.96421 28.0643C5.05081 27.9955 5.05056 27.9585 4.89554 27.9305C4.84711 27.923 4.79542 27.9215 4.74384 27.9257C4.58268 27.9405 4.42167 27.9767 4.26358 27.9701C4.1055 27.9654 3.98879 27.8806 3.85941 27.829C3.72679 27.7755 3.59416 27.72 3.46153 27.6645C3.30998 27.6715 3.15881 27.7271 3.0066 27.6406C2.89002 27.5733 2.74455 27.5257 2.61191 27.4702C2.71085 27.3216 2.89714 27.2073 3.04136 27.0758C3.17275 26.9561 3.17592 26.9581 3.53005 26.864C3.69746 26.8199 3.75396 26.5996 3.6116 26.5364C3.44011 26.4598 3.25903 26.389 3.08434 26.3164C2.9328 26.3233 2.77839 26.377 2.63263 26.2905C2.51928 26.2251 2.38993 26.1813 2.20305 26.208C1.88728 26.2531 1.56492 26.2769 1.24587 26.3142C1.13629 26.3267 1.01687 26.3198 0.968023 26.254C0.935441 26.2075 1.02852 26.1426 1.13486 26.1282C1.29598 26.1075 1.44094 26.0831 1.52088 25.9852C1.5976 25.8873 1.73929 25.8571 1.9069 25.8422C1.95203 25.838 2.00351 25.8143 2.02592 25.7907C2.14123 25.677 2.26956 25.5787 2.51793 25.5808C2.62086 25.5411 2.67531 25.4921 2.64273 25.4456C2.6232 25.4204 2.55527 25.3878 2.5166 25.392C2.24904 25.4134 1.98149 25.4349 1.7205 25.4718C1.59805 25.4883 1.50449 25.4928 1.42667 25.435C1.37157 25.3965 1.40022 25.3437 1.50303 25.2865C1.59299 25.2372 1.61843 25.1806 1.61151 25.1144C1.5943 24.9608 1.4972 24.9167 1.18765 24.9287C0.965165 24.9381 0.910154 24.9132 0.86084 24.7812C0.847719 24.7502 0.815221 24.7076 0.837647 24.686C0.975396 24.5526 1.06455 24.3885 1.32536 24.3243C1.4284 24.3002 1.53801 24.2994 1.60216 24.2483C1.66631 24.1972 1.72398 24.1384 1.79136 24.0892C1.87481 24.0302 1.93242 23.9753 1.89345 23.9386C1.82848 23.8729 1.72527 23.8678 1.6061 23.892C1.50303 23.9123 1.39339 23.915 1.28704 23.9274C1.0969 23.9502 0.941769 23.9008 0.918587 23.8153C0.855713 23.59 0.789608 23.3666 0.733184 23.1412C0.726541 23.114 0.742375 23.0788 0.768012 23.0553C0.857741 22.9729 0.953985 22.8943 1.04695 22.8138C1.15596 22.7215 1.33028 22.7378 1.47852 22.7192C1.68798 22.6924 1.68792 22.6943 1.96719 22.5054C2.07633 22.4306 2.26683 22.4584 2.37925 22.3914C2.41457 22.3697 2.46916 22.3343 2.45934 22.3149C2.44626 22.2897 2.38165 22.2707 2.33319 22.2594C2.28796 22.248 2.2331 22.2426 2.18476 22.2488C1.59817 22.3095 1.01485 22.3741 0.42824 22.4329C0.328327 22.4434 0.218364 22.4014 0.18246 22.3413C0.146583 22.2851 0.155746 22.2169 0.148842 22.1527C0.24181 22.0722 0.347679 21.9975 0.427704 21.9113C0.488516 21.8446 0.559278 21.8149 0.681809 21.8101C0.843029 21.8031 1.00092 21.7786 1.1814 21.7597C1.51482 21.4731 1.84167 21.1729 2.20089 20.8861C2.34521 20.7702 2.30896 20.6536 2.33712 20.5308C2.36535 20.4177 2.58156 20.4337 2.72646 20.3995C2.84237 20.3714 2.88058 20.3088 2.83513 20.2663C2.80915 20.2412 2.75092 20.2124 2.70577 20.2128C2.59933 20.2135 2.49303 20.2318 2.38666 20.2424C2.2803 20.2529 2.15771 20.2479 2.07086 20.2817C1.98722 20.3134 1.93283 20.38 1.8784 20.4368C1.81756 20.4996 1.73714 20.5216 1.61461 20.5264C1.4566 20.5314 1.2987 20.5501 1.14076 20.5649C0.966058 20.4902 0.784884 20.4176 0.616609 20.339C0.584247 20.3237 0.577445 20.279 0.580464 20.2497C0.586378 20.1738 0.537682 20.1274 0.430989 20.0912C0.340462 20.0607 0.265959 20.0165 0.181828 19.9782C0.245962 19.9252 0.316584 19.874 0.367789 19.8172C0.479833 19.6976 0.621154 19.611 0.866299 19.6131C0.962519 19.5364 1.03924 19.4424 1.16466 19.389C1.28363 19.3375 1.48719 19.3866 1.57668 19.2711C1.62144 19.2143 1.68875 19.1496 1.77567 19.1256C1.91409 19.0876 2.09484 19.1058 2.1747 18.9962C2.22264 18.9335 2.29316 18.8766 2.38659 18.8603C2.49289 18.842 2.6025 18.8373 2.67964 18.7998C2.72143 18.78 2.76637 18.7485 2.76618 18.7213C2.76605 18.7038 2.70141 18.677 2.65617 18.6656C2.61415 18.6523 2.55919 18.643 2.51084 18.6472C2.34966 18.6601 2.19178 18.6826 2.0306 18.6955C1.98547 18.6997 1.93379 18.6865 1.88533 18.6752C1.7432 18.6451 1.75258 18.6061 1.86497 18.5352C1.97737 18.4662 2.05742 18.378 2.15039 18.2975C2.2535 18.2831 2.38253 18.288 2.45323 18.2505C2.57213 18.1893 2.65535 18.1011 2.75157 18.0245C2.85792 18.012 2.96754 18.0074 3.06737 17.9852C3.10925 17.9771 3.12831 17.9342 3.16361 17.9086C3.22777 17.8595 3.28215 17.789 3.36907 17.765C3.51073 17.7289 3.68498 17.7413 3.76808 17.6336C3.81602 17.571 3.88971 17.5043 3.97998 17.4997C4.2315 17.4901 4.33718 17.3822 4.46547 17.2801C4.56169 17.2034 4.76839 17.2409 4.87428 17.1642C4.94489 17.115 4.9961 17.0543 5.06673 17.007C5.09562 16.9874 5.15681 16.9772 5.20514 16.971C5.46941 16.9399 5.73694 16.9165 6.00119 16.8834C6.04307 16.8773 6.0816 16.8478 6.11369 16.8242C6.18106 16.7731 6.22245 16.7027 6.30607 16.669C6.38969 16.6353 6.50901 16.6345 6.61215 16.624C6.94414 16.5923 6.97002 16.5999 7.12044 16.4334C7.24205 16.2982 7.54271 16.3914 7.64164 16.2427C7.69909 16.1566 7.80498 16.0858 7.9952 16.0747C8.2628 16.0591 8.527 16.0202 8.79452 15.9929C9.03302 15.9678 9.0298 15.9678 9.28654 15.7849C9.40207 15.7023 9.57313 15.7127 9.7246 15.6961C9.88575 15.6793 10.0339 15.6549 10.1107 15.557C10.1874 15.461 10.3291 15.4288 10.4934 15.414C10.6449 15.3993 10.816 15.4078 10.9348 15.3291C11.2237 15.1401 11.2205 15.1381 11.4235 15.1172C11.7426 15.0837 12.0617 15.0502 12.3807 15.0148C12.5935 14.9918 12.816 14.9863 13.0156 14.942C13.1605 14.9098 13.2242 14.8004 13.3172 14.7238C13.5815 14.6926 13.8458 14.6615 14.11 14.6323C14.4807 14.5907 14.8545 14.5529 15.2284 14.5132C15.3891 14.4381 15.4106 14.2744 15.6815 14.2646C15.8427 14.2595 16.0006 14.2331 16.1617 14.2163C16.4292 14.1871 16.6934 14.1502 16.961 14.1346C17.1641 14.1234 17.1988 14.018 17.3048 13.951C17.3401 13.9274 17.3721 13.8941 17.414 13.8879C17.8329 13.8304 18.265 13.8155 18.674 13.7327C18.7159 13.7247 18.7543 13.6835 18.7638 13.6542C18.7701 13.6386 18.7151 13.6098 18.6795 13.5965C18.6375 13.5812 18.5826 13.566 18.5374 13.5702C17.2063 13.7104 15.8753 13.8525 14.5442 13.9926C14.3573 14.0135 14.3573 14.0115 13.904 14.2289C13.8654 14.2467 13.8204 14.2665 13.772 14.2727C13.5593 14.2976 13.3434 14.3129 13.1339 14.3436C12.9631 14.3682 12.8211 14.3459 12.6981 14.2767C12.6106 14.2267 12.5202 14.2118 12.4105 14.2165C12.288 14.2232 12.2076 14.2453 12.137 14.2983C12.044 14.371 11.9962 14.4648 11.7996 14.4857C10.8939 14.576 9.98826 14.6761 9.08583 14.7722C8.95986 14.7459 8.89829 14.7055 8.9302 14.6566C8.94935 14.6272 8.98779 14.588 9.02647 14.5838C9.39708 14.5403 9.77094 14.5025 10.1416 14.4609C10.1931 14.4546 10.2641 14.458 10.293 14.4383C10.4343 14.3497 10.4849 14.2072 10.7526 14.1955C10.9073 14.1886 11.0651 14.1582 11.2133 14.1299C11.2552 14.1218 11.2936 14.0806 11.3031 14.0514C11.3062 14.0358 11.2544 14.0069 11.2156 13.9936C11.0733 13.9382 10.9093 14.0075 10.7671 13.9696C10.7186 13.9564 10.6507 13.9374 10.6409 13.9141C10.6343 13.8927 10.6889 13.8573 10.7274 13.8356C10.7628 13.8159 10.811 13.798 10.8593 13.7918C11.2847 13.7439 11.7102 13.6941 12.1357 13.656C12.3098 13.6411 12.4319 13.5915 12.5087 13.5014C12.5663 13.4348 12.637 13.3992 12.7466 13.3887C13.4911 13.3112 14.2356 13.226 14.9833 13.1543C15.1703 13.1374 15.2666 13.0725 15.3435 12.9882C15.4043 12.9216 15.4751 12.8977 15.5943 12.8852C16.6612 12.7761 17.7214 12.6555 18.7883 12.5504C18.9849 12.5314 19.0424 12.4473 19.1419 12.3745C19.1772 12.349 19.1995 12.3177 19.2445 12.3018C19.2896 12.2859 19.3476 12.2874 19.4024 12.2831C20.2533 12.1931 21.1042 12.0974 21.9583 12.0133C22.1582 11.9943 22.1961 11.8967 22.2988 11.8278C22.3342 11.8061 22.3662 11.7709 22.4081 11.7647C23.0462 11.6939 23.6843 11.6269 24.3225 11.558C24.7479 11.5121 25.1733 11.4662 25.5988 11.4222C25.8083 11.4012 25.8083 11.3992 26.0908 11.2122C26.1229 11.1906 26.1679 11.1649 26.2098 11.1588C27.4345 11.0253 28.656 10.8976 29.8807 10.766C29.9838 10.7555 30.0577 10.7102 30.1088 10.6437C30.16 10.5771 30.2339 10.5318 30.3338 10.5213C31.291 10.417 32.2482 10.3146 33.2087 10.2161C33.3827 10.1993 33.5049 10.1517 33.5817 10.0635C33.6393 9.9969 33.71 9.96136 33.8196 9.95082C34.7768 9.85039 35.7341 9.7441 36.6945 9.64754C36.8783 9.62868 36.9681 9.56185 37.0578 9.48333C37.0899 9.45584 37.1154 9.41088 37.1541 9.40671C37.631 9.34872 38.1047 9.2888 38.585 9.24831C38.7848 9.23127 38.852 9.14902 38.9321 9.07057C38.9962 9.00782 39.0702 8.98587 39.1927 8.97719C39.4603 8.95771 39.7245 8.9227 39.9855 8.8877C40.0242 8.88158 40.0723 8.8384 40.0753 8.81113C40.0814 8.76047 40.0069 8.72597 39.8843 8.70935C38.608 8.84521 37.3285 8.98108 36.0522 9.11693C35.8427 9.13988 35.8427 9.13989 35.5602 9.32688C35.5281 9.34852 35.483 9.37416 35.4379 9.38033C34.2132 9.51192 32.9917 9.64153 31.767 9.77312C31.6639 9.78361 31.59 9.82892 31.5389 9.89547C31.4878 9.96203 31.4138 10.0073 31.3139 10.0178C30.144 10.1431 28.9741 10.2704 27.8009 10.39C27.6268 10.4068 27.5046 10.4525 27.4279 10.5426C27.3703 10.6092 27.2996 10.6447 27.19 10.6553C26.0716 10.7725 24.9564 10.8954 23.8348 11.0088C23.722 11.0193 23.6378 10.9635 23.6439 10.9109C23.6469 10.8836 23.6949 10.8385 23.7336 10.8343C24.3169 10.7658 24.897 10.6954 25.4836 10.6424C25.6803 10.6254 25.7377 10.5394 25.8371 10.4666C25.8692 10.4411 25.8948 10.4078 25.9366 10.3939C25.9817 10.378 26.0397 10.3795 26.0946 10.3752C27.4772 10.2269 28.8599 10.0766 30.2458 9.93608C30.4456 9.91515 30.4836 9.81948 30.5863 9.7506C30.6216 9.72698 30.6537 9.69172 30.6956 9.68752C31.121 9.63769 31.5464 9.5937 31.9718 9.54971C32.7163 9.4703 33.4608 9.39089 34.2086 9.31145C34.4245 9.28846 34.4245 9.28845 34.7006 9.10346C34.7327 9.08181 34.7777 9.05425 34.8196 9.05005C36.7888 8.83905 38.7581 8.62805 40.7273 8.419C40.8304 8.40851 40.9043 8.3632 40.9554 8.29665C41.0066 8.23203 41.0804 8.18478 41.1803 8.17237C43.8425 7.88817 46.5014 7.60399 49.1636 7.32369C49.3377 7.3049 49.4599 7.26313 49.5367 7.17108C49.591 7.1045 49.6649 7.06893 49.7745 7.05645C52.701 6.74502 55.6274 6.43359 58.5571 6.12019C60.5263 5.91114 62.4956 5.6982 64.4648 5.49304C64.6453 5.4742 64.7416 5.41314 64.8314 5.33268C64.8602 5.30521 64.8889 5.26023 64.9276 5.25605C65.3498 5.2043 65.7719 5.15645 66.1941 5.1086C66.3267 5.16018 66.4593 5.20984 66.5919 5.26142C66.6914 5.18673 66.7877 5.1101 66.8871 5.03541C67.5253 4.97429 68.1536 4.8821 68.7984 4.85014C68.8404 4.84788 68.8857 4.88454 68.931 4.90368C69.2318 5.02411 69.4027 5.01313 69.5919 4.84823C69.6592 4.78934 69.7169 4.73637 69.82 4.72588C70.139 4.68851 70.4615 4.66279 70.7773 4.61961C70.948 4.59694 71.09 4.61537 71.2131 4.68454C71.3005 4.73452 71.391 4.75528 71.4974 4.74282C72.084 4.68014 72.6673 4.61942 73.2539 4.55284C73.2958 4.54864 73.3342 4.51525 73.3663 4.49166C73.4336 4.44056 73.4913 4.38564 73.5555 4.33262C73.6428 4.36507 73.7397 4.38967 73.811 4.43198C73.9017 4.48192 73.9855 4.4813 74.108 4.46678C76.4478 4.21414 78.7909 3.96732 81.1308 3.71274C81.3306 3.69181 81.4183 3.77293 81.554 3.81476C81.5993 3.83001 81.6446 3.84913 81.693 3.85267C81.7446 3.85619 81.7994 3.84412 81.8509 3.8379C83.6074 3.64987 85.364 3.46377 87.1205 3.27574C87.3525 3.25069 87.3526 3.25069 87.6985 3.36884C87.7405 3.38411 87.7955 3.40123 87.8406 3.39506C88.6399 3.3133 89.4392 3.22571 90.2352 3.14203C90.3384 3.13154 90.4257 3.16204 90.5196 3.20613C90.704 3.29237 90.7169 3.29229 90.8514 3.16283C90.9155 3.10202 90.983 3.06452 91.0893 3.04623C91.2052 3.02592 91.2989 3.03109 91.3894 3.06547C91.5188 3.11319 91.6129 3.19424 91.8095 3.17139C92.6603 3.07368 93.5144 2.99153 94.362 2.8919C94.5554 2.86907 94.6591 2.9345 94.7884 2.98221C94.8337 2.9994 94.8758 3.02635 94.9242 3.03183C94.9726 3.03732 95.0306 3.02326 95.0821 3.01704C96.1457 2.90415 97.2125 2.7932 98.2728 2.67255C98.4726 2.64968 98.5603 2.73273 98.6961 2.77456C98.7413 2.7898 98.7931 2.81669 98.835 2.81249C99.4732 2.74748 100.115 2.67854 100.753 2.60963C100.982 2.5846 100.982 2.58655 101.331 2.70274C101.373 2.718 101.428 2.73318 101.473 2.72895C102.217 2.65149 102.965 2.57205 103.71 2.49264C103.938 2.46761 103.938 2.46761 104.6 2.564C104.649 2.57143 104.7 2.58274 104.749 2.5785C105.6 2.48858 106.454 2.40057 107.305 2.3048C107.475 2.28604 107.617 2.30057 107.74 2.36974C107.828 2.41971 107.918 2.44048 108.025 2.42802C108.982 2.32564 109.942 2.22714 110.896 2.11894C111.08 2.09813 111.2 2.14007 111.329 2.19557C111.371 2.21473 111.413 2.24168 111.462 2.24911C111.51 2.25654 111.565 2.24835 111.617 2.24213C112.574 2.13975 113.534 2.04319 114.488 1.93305C114.681 1.91023 114.785 1.97565 114.915 2.02337C114.96 2.04056 115.008 2.07524 115.047 2.07301C115.421 2.03719 115.795 2.00527 116.165 1.95389C116.365 1.92518 116.453 2.01406 116.589 2.0559C116.634 2.06919 116.686 2.09803 116.728 2.09383C117.527 2.01207 118.326 1.92642 119.122 1.83885C119.235 1.82634 119.319 1.84323 119.41 1.89318C119.53 1.96043 119.669 1.98667 119.843 1.96399C120.213 1.91651 120.587 1.88264 120.961 1.84292C121.18 1.8199 121.18 1.81991 121.852 1.91622C121.9 1.92366 121.952 1.93495 122 1.9307C122.638 1.86375 123.28 1.79872 123.914 1.72595C124.085 1.70523 124.227 1.72171 124.35 1.79089C124.438 1.84086 124.525 1.86164 124.635 1.84916C125.221 1.78648 125.805 1.72381 126.391 1.66113C126.604 1.63816 126.816 1.59961 127.029 1.59806C127.184 1.59887 127.298 1.69147 127.437 1.73717C127.476 1.75052 127.54 1.73449 127.591 1.73022C128.336 1.65081 129.084 1.57721 129.825 1.48809C130.018 1.46526 130.122 1.53068 130.251 1.5784C130.297 1.59559 130.345 1.63027 130.384 1.62804C130.651 1.60468 130.916 1.57354 131.183 1.54628C131.502 1.5128 131.825 1.48709 132.14 1.44196C132.398 1.40503 132.496 1.57366 132.703 1.57799C132.861 1.58268 133.022 1.54842 133.18 1.53169C133.499 1.49821 133.818 1.46084 134.137 1.43126C134.25 1.4207 134.337 1.38891 134.372 1.31858C134.378 1.3049 134.323 1.27612 134.287 1.25886C133.857 1.06346 133.857 1.06345 133.425 1.10943C133.158 1.13864 132.893 1.16783 132.626 1.19314C132.581 1.19736 132.529 1.18217 132.484 1.17082C132.354 1.13868 132.367 1.09966 132.476 1.02878C132.585 0.957907 132.669 0.871658 132.762 0.791169C132.894 0.840811 133.024 0.890457 133.156 0.940098C133.263 0.929588 133.369 0.917148 133.475 0.906638C134.007 0.85214 134.539 0.795692 135.071 0.745087C135.109 0.740911 135.158 0.779492 135.203 0.798627C135.333 0.854131 135.449 0.90193 135.636 0.879152C136.113 0.819215 136.593 0.774827 137.07 0.722676C137.28 0.699732 137.28 0.699734 137.648 0.817727C137.69 0.831046 137.745 0.846218 137.79 0.841995C138.271 0.793713 138.748 0.741568 139.228 0.69134C139.331 0.680853 139.431 0.705425 139.506 0.76133C139.535 0.784476 139.529 0.823444 139.654 1.14177C140.036 1.39786 140.297 1.36872 140.561 1.34343C140.674 1.33287 140.774 1.3224 140.848 1.28293C140.886 1.26123 140.935 1.22973 140.934 1.20443C140.934 1.18496 140.863 1.15433 140.818 1.15077C140.498 1.11417 140.196 1.19815 139.883 1.21796C139.738 1.2268 139.612 1.1596 139.585 1.04884C139.578 1.01774 139.569 0.984723 139.559 0.953651C139.549 0.922578 139.542 0.889537 139.532 0.858464C139.406 0.849652 139.332 0.885225 139.278 0.951805C139.233 1.00664 139.169 1.06939 139.082 1.09923C138.995 1.13101 138.876 1.12605 138.77 1.13656C138.667 1.14705 138.554 1.17317 138.457 1.16026C138.36 1.14539 138.282 1.0895 138.192 1.05513C138.15 1.03791 138.098 1.013 138.056 1.0172C137.685 1.053 137.318 1.08876 136.951 1.13427C136.757 1.15904 136.66 1.07801 136.537 1.0283C136.44 0.990078 136.343 1.00051 136.328 1.09016C136.287 1.30458 136.436 1.39303 136.765 1.34974C137.036 1.31273 137.281 1.30511 137.495 1.43592C137.524 1.45322 137.592 1.46051 137.633 1.45631C137.898 1.43102 138.159 1.39991 138.423 1.37462C138.471 1.37038 138.523 1.37777 138.568 1.38523C139.227 1.48553 139.227 1.48748 139.449 1.4625C139.556 1.45004 139.659 1.43955 139.647 1.14376C139.848 0.825005 140.17 0.80124 140.483 0.752238C140.686 0.721556 140.774 0.806568 140.906 0.85037C140.951 0.865611 141 0.896395 141.042 0.892196C141.735 0.822893 142.425 0.749713 143.114 0.672648C143.23 0.660121 143.314 0.671189 143.405 0.721136C143.521 0.784521 143.651 0.824462 143.834 0.79976C144.202 0.750358 144.576 0.718433 144.95 0.676769C145.14 0.655913 145.14 0.655893 145.524 0.773768C145.566 0.787087 145.621 0.802258 145.666 0.798035C146.04 0.762211 146.411 0.718636 146.782 0.680888C146.885 0.670401 146.978 0.696966 147.059 0.748931C147.14 0.800896 147.237 0.827436 147.337 0.816972C147.711 0.779201 148.082 0.737573 148.453 0.699826C148.498 0.695603 148.553 0.708826 148.595 0.722145C148.989 0.839949 148.989 0.839929 149.169 0.819144C149.434 0.788014 149.704 0.772424 149.965 0.731585C150.22 0.690793 150.353 0.802712 150.528 0.863725C151.005 0.815467 151.485 0.774981 151.959 0.717015C152.152 0.692243 152.256 0.755715 152.385 0.80538C152.43 0.822568 152.476 0.859225 152.518 0.856972C152.679 0.848007 152.837 0.825444 152.995 0.808717C153.153 0.79199 153.314 0.775242 153.472 0.758515C153.653 0.813642 153.773 0.945127 154.031 0.898472C154.185 0.87009 154.35 0.863049 154.508 0.846322C154.666 0.829595 154.827 0.812846 154.985 0.796119C155.091 0.785609 155.201 0.778959 155.304 0.760687C155.494 0.730099 155.588 0.824803 155.724 0.866635C155.769 0.87993 155.821 0.902895 155.863 0.898696C156.182 0.869111 156.504 0.843398 156.817 0.796343C157.058 0.759538 157.223 0.816737 157.395 0.897239C157.43 0.914498 157.492 0.923781 157.537 0.919558C157.911 0.883733 158.281 0.840135 158.652 0.802388C158.752 0.791924 158.849 0.822359 158.93 0.872378C159.014 0.924319 159.108 0.948959 159.211 0.938472C159.581 0.900724 159.955 0.859048 160.326 0.821301C160.371 0.817078 160.426 0.832252 160.468 0.847517C160.83 0.965557 160.83 0.967505 161.043 0.942592C161.095 0.936375 161.149 0.932066 161.201 0.925849C161.465 0.896666 161.739 0.884943 161.997 0.836342C162.293 0.781618 162.51 0.846221 162.72 0.955637C162.985 0.930346 163.255 0.914738 163.513 0.873922C163.706 0.843311 163.81 0.916518 163.939 0.964236C163.985 0.981424 164.033 1.01611 164.072 1.01193C164.446 0.976107 164.82 0.944185 165.187 0.892836C165.387 0.864124 165.475 0.951062 165.61 0.99484C165.656 1.01008 165.704 1.03699 165.746 1.03279C165.959 1.01567 166.172 0.99074 166.384 0.967773C166.633 0.940654 166.633 0.942599 166.962 1.05893C167.118 1.11424 167.272 1.06834 167.424 1.05361C167.585 1.03686 167.736 1.02407 167.866 1.10294C167.947 1.15295 168.044 1.18339 168.144 1.17487C168.356 1.1558 168.572 1.13671 168.782 1.10598C168.949 1.0814 169.095 1.0959 169.218 1.16702C169.305 1.217 169.396 1.24165 169.502 1.2292C169.979 1.17899 170.459 1.1268 170.936 1.07854C170.978 1.07434 171.036 1.09144 171.075 1.10868C171.166 1.14306 171.253 1.18134 171.34 1.21963C171.55 1.20058 171.766 1.19124 171.972 1.16248C172.191 1.13362 172.391 1.12243 172.563 1.22823C172.598 1.25133 172.65 1.28402 172.692 1.28177C172.853 1.27281 173.011 1.25219 173.169 1.23547C173.327 1.21874 173.488 1.20199 173.646 1.18526C173.83 1.23258 173.948 1.37188 174.205 1.32522C174.36 1.29684 174.524 1.2898 174.682 1.27307C174.84 1.25634 175.001 1.23765 175.159 1.22287C175.211 1.2186 175.269 1.20843 175.314 1.21589C175.362 1.22332 175.405 1.25027 175.447 1.26943C175.576 1.32493 175.696 1.38052 175.879 1.34608C176.034 1.3177 176.198 1.31066 176.356 1.29198C176.572 1.26899 176.572 1.269 176.931 1.38901C177.077 1.43855 177.241 1.37117 177.38 1.41298C177.473 1.4415 177.554 1.48956 177.645 1.52199C177.684 1.53533 177.745 1.54071 177.79 1.53649C178.003 1.51742 178.219 1.49833 178.428 1.4676C178.599 1.44299 178.741 1.46531 178.861 1.53451C178.948 1.58448 179.036 1.60526 179.145 1.59278C179.677 1.53439 180.209 1.48377 180.737 1.41957C180.918 1.39683 181.063 1.42887 181.164 1.49821C181.335 1.61764 181.576 1.47379 181.754 1.56981C181.864 1.62935 181.975 1.69863 182.174 1.66797C182.542 1.61467 182.916 1.58467 183.286 1.54692C183.419 1.59851 183.551 1.65011 183.687 1.70168C183.9 1.67871 184.113 1.65573 184.325 1.63471C184.483 1.61798 184.645 1.59929 184.802 1.58451C184.854 1.58024 184.909 1.57205 184.957 1.58143C185.006 1.5908 185.045 1.61583 185.09 1.63497C185.313 1.72871 185.313 1.73067 185.681 1.68905C185.838 1.67038 185.99 1.65759 186.123 1.73449C186.246 1.80561 186.391 1.81816 186.559 1.79553C186.874 1.75429 187.194 1.72276 187.516 1.69315C187.616 1.68269 187.709 1.71509 187.794 1.76509C187.92 1.84397 188.075 1.83506 188.233 1.81249C188.442 1.78371 188.648 1.75496 188.826 1.86266C188.862 1.88576 188.917 1.91843 188.956 1.9162C189.22 1.8987 189.488 1.88507 189.746 1.8462C190.003 1.80733 190.13 1.92709 190.308 1.98419C190.572 1.95695 190.84 1.92968 191.104 1.90245C191.155 1.89623 191.217 1.87828 191.262 1.88768C191.452 1.92716 191.563 2.07234 191.824 2.02566C191.975 1.99925 192.14 1.99027 192.298 1.98328C192.34 1.98102 192.395 2.0137 192.424 2.03879C192.44 2.0523 192.424 2.08939 192.405 2.109C192.348 2.16393 192.277 2.21507 192.226 2.27189C192.219 2.27972 192.281 2.3143 192.316 2.32961C192.404 2.36401 192.504 2.35745 192.62 2.34103C192.72 2.32668 192.823 2.35317 192.894 2.41105C192.924 2.43419 192.914 2.47319 192.854 2.6021C192.854 2.69748 192.922 2.65415 192.944 2.5917C192.979 2.5019 192.911 2.47321 192.782 2.52281C192.692 2.55851 192.647 2.60945 192.67 2.65016C192.683 2.67148 192.745 2.69828 192.854 2.6021C193.137 2.48324 193.35 2.46028 193.562 2.43732C193.617 2.43108 193.681 2.41113 193.72 2.42252C193.859 2.46822 193.989 2.52374 194.124 2.5753C194.279 2.56249 194.424 2.53222 194.576 2.60702C194.79 2.71252 194.799 2.70272 195.006 2.6798C195.112 2.66735 195.218 2.65685 195.325 2.64634C195.431 2.63583 195.515 2.66441 195.609 2.70849C195.8 2.79859 195.816 2.79846 195.941 2.67297C196.015 2.59651 196.066 2.57084 196.16 2.60519C196.47 2.72166 196.474 2.72942 196.738 2.69245C196.957 2.66165 197.163 2.65235 197.325 2.76212C197.436 2.83918 197.471 2.82141 197.557 2.73902C197.788 2.52126 197.895 2.52437 198.331 2.6769C198.535 2.74938 198.744 2.66806 198.95 2.65681C199.124 2.64776 199.247 2.69357 199.261 2.8161C199.271 2.89194 199.301 2.94624 199.417 2.97069C199.462 2.9801 199.517 2.99332 199.562 2.98909C199.83 2.96378 200.094 2.93459 200.361 2.90538C200.497 2.89077 200.57 2.79876 200.544 2.67827C200.514 2.55001 200.565 2.5029 200.758 2.46451C200.874 2.44225 200.968 2.44547 201.062 2.47982C201.165 2.518 201.136 2.55325 201.046 2.62398C200.832 2.79685 200.858 2.90175 201.136 3.01845C201.233 3.05862 201.311 3.09506 201.334 3.15523C201.347 3.18628 201.335 3.22725 201.364 3.25039C201.523 3.37965 201.743 3.46175 201.988 3.52225C202.223 3.46797 202.385 3.55437 202.566 3.62312C202.709 3.67659 202.876 3.62866 203.027 3.60808C203.198 3.58542 203.34 3.59995 203.463 3.67107C203.551 3.72105 203.641 3.74373 203.747 3.73322C203.96 3.71026 204.176 3.69506 204.386 3.66238C204.566 3.63381 204.702 3.67176 204.815 3.73711C204.958 3.81977 205.115 3.76216 205.264 3.77275C205.464 3.78492 205.565 3.95741 205.826 3.90879C205.981 3.88041 206.142 3.8695 206.303 3.86054C206.345 3.85828 206.397 3.891 206.432 3.9141C206.604 4.01991 206.804 4.0126 207.023 3.97985C207.174 3.95734 207.323 3.93679 207.472 4.00968C207.718 4.13246 207.989 4.23949 208.248 4.35244C208.284 4.44172 208.259 4.547 208.443 4.59821C208.54 4.62475 208.631 4.66498 208.705 4.70921C208.796 4.7611 208.88 4.77412 208.996 4.75964C209.205 4.73086 209.425 4.7234 209.631 4.68685C209.821 4.65432 209.941 4.7177 210.057 4.77719C210.151 4.82517 210.238 4.84788 210.351 4.81202C210.467 4.77808 210.551 4.79887 210.645 4.85074C210.778 4.92179 210.787 4.91395 211.226 4.93215C211.271 4.93377 211.326 4.96255 211.352 4.98766C211.365 5.0012 211.336 5.04036 211.314 5.05999C211.285 5.08356 211.24 5.11112 211.198 5.11727C210.721 5.17137 210.241 5.21965 209.764 5.27375C209.716 5.27994 209.664 5.29395 209.629 5.31368C209.59 5.33537 209.542 5.3649 209.542 5.39215C209.543 5.41162 209.607 5.43451 209.652 5.44781C209.795 5.49154 209.962 5.42219 210.101 5.47178C210.195 5.50419 210.272 5.55033 210.366 5.58079C210.405 5.59413 210.466 5.59174 210.515 5.5875C210.676 5.57269 210.834 5.55208 210.995 5.53922C211.04 5.53694 211.092 5.55604 211.134 5.5713C211.444 5.68583 211.444 5.68582 211.712 5.65856C211.818 5.64805 211.931 5.61803 212.031 5.62897C212.128 5.63995 212.212 5.69189 212.299 5.72434C212.48 5.79309 212.652 5.85997 212.666 6.0117C212.673 6.07004 212.779 6.11987 212.886 6.12298C212.989 6.12612 213.099 6.10393 213.205 6.09147C213.456 6.06627 213.456 6.06627 213.783 6.18262C213.873 6.21505 213.97 6.21823 214.086 6.19792C214.131 6.1898 214.186 6.1972 214.235 6.20657C214.393 6.23462 214.393 6.27159 214.29 6.34242C214.146 6.44664 214.159 6.45628 214.566 6.5409C214.721 6.57286 214.841 6.63428 214.97 6.68784C215.18 6.7739 215.177 6.7739 215.039 6.88976C215.007 6.9153 214.978 6.94277 214.946 6.97025C214.853 7.04685 214.78 7.12914 214.586 7.13834C214.373 7.14768 214.161 7.18039 213.948 7.20336C213.742 7.22628 213.687 7.27338 213.708 7.40559C213.731 7.56504 213.773 7.58225 214.144 7.5776C214.251 7.57682 214.344 7.5917 214.425 7.64367C214.387 7.70624 214.317 7.75542 214.213 7.76785C213.949 7.79898 213.682 7.82625 213.417 7.85349C213.205 7.87645 212.992 7.89941 212.779 7.92238C212.647 7.93697 212.564 8.03881 212.6 8.15144C212.62 8.21554 212.637 8.27965 212.653 8.34376C212.689 8.47197 212.757 8.50458 212.974 8.49716C213.028 8.49481 213.08 8.47885 213.131 8.48236C213.341 8.49446 213.442 8.65528 213.694 8.62035C213.903 8.59157 214.122 8.58413 214.329 8.54758C214.519 8.51505 214.626 8.58436 214.758 8.63595C214.803 8.65314 214.852 8.68974 214.891 8.68752C215.158 8.66415 215.426 8.6408 215.687 8.6019C215.809 8.58544 215.884 8.59657 215.981 8.64258C216.214 8.75377 216.22 8.74788 216.565 8.71033C216.816 8.68124 216.82 8.6851 217.143 8.80148C217.233 8.83391 217.33 8.8332 217.446 8.81678C217.598 8.7962 217.755 8.76391 217.914 8.79195C217.962 8.79938 218.024 8.8223 218.04 8.84748C218.05 8.86493 218.005 8.90808 217.966 8.92199C217.683 9.02528 217.351 9.0102 217.041 9.05334C216.945 9.06572 216.848 9.02944 216.767 8.97748C216.683 8.92554 216.592 8.90479 216.483 8.91533C216.27 8.93829 216.054 8.95349 215.844 8.98617C215.664 9.01474 215.538 8.97088 215.412 8.91146C215.37 8.89231 215.321 8.85567 215.279 8.85792C214.802 8.90034 214.322 8.94279 213.848 9.00076C213.658 9.02551 213.548 8.96403 213.418 8.91242C213.373 8.89523 213.328 8.85857 213.286 8.86083C213.125 8.86979 212.967 8.89235 212.806 8.90911C212.219 8.97179 211.636 9.03445 211.049 9.09324C211.01 9.09742 210.962 9.05689 210.916 9.0397C210.829 9.0053 210.738 8.97287 210.648 8.94044C210.487 8.95719 210.329 8.97781 210.168 8.99067C210.052 8.9993 209.949 9.02732 209.933 9.1014C209.924 9.15013 210.03 9.19412 210.143 9.1894C210.253 9.1847 210.362 9.16054 210.453 9.18519C210.902 9.30648 210.902 9.30843 211.183 9.28108C211.428 9.25593 211.402 9.23664 211.618 9.34212C211.712 9.38815 211.796 9.4148 211.903 9.40235C212.167 9.37316 212.434 9.34395 212.702 9.31864C212.744 9.31444 212.799 9.33351 212.841 9.34877C213.158 9.46325 213.158 9.46714 213.419 9.43603C213.76 9.39849 213.773 9.38867 214.003 9.50573C214.162 9.58632 214.306 9.52881 214.458 9.52381C214.633 9.59845 214.824 9.6652 214.982 9.74969C215.17 9.84953 215.367 9.83056 215.579 9.79981C215.737 9.77724 215.892 9.76832 216.021 9.84719C216.144 9.92026 216.293 9.92697 216.46 9.90628C216.612 9.88765 216.767 9.84953 216.925 9.89119C216.967 9.90257 217.032 9.9313 217.028 9.94884C217.025 9.97612 216.984 10.0154 216.942 10.0273C216.646 10.1093 216.32 10.1097 216.007 10.149C215.966 10.1552 215.911 10.1341 215.869 10.1189C215.778 10.0845 215.691 10.0443 215.603 10.0079C215.445 10.0208 215.284 10.0258 215.129 10.0503C215.01 10.0687 214.92 10.0674 214.832 10.0214C214.751 9.97912 214.664 9.92719 214.567 9.91427C214.47 9.90136 214.358 9.93138 214.251 9.94384C214.145 9.95629 214.022 9.95134 213.939 9.9831C213.855 10.0149 213.804 10.0834 213.75 10.1383C213.689 10.1991 213.605 10.2191 213.482 10.2259C213.37 10.2325 213.279 10.2254 213.195 10.1715C213.159 10.1484 213.111 10.1313 213.062 10.116C213.017 10.1027 212.965 10.0817 212.923 10.0859C212.443 10.1342 211.966 10.1863 211.486 10.2366C211.248 10.2617 211.251 10.2616 210.753 10.1504C210.708 10.141 210.653 10.1278 210.608 10.132C210.34 10.1573 210.076 10.1865 209.809 10.2157C209.538 10.245 209.541 10.241 209.079 10.1218C208.995 10.099 208.873 10.1311 208.773 10.1279C208.563 10.1197 208.459 9.95699 208.214 9.98992C208.004 10.0187 207.785 10.0261 207.576 10.0627C207.386 10.0952 207.275 10.0279 207.146 9.97632C207.101 9.95913 207.052 9.92055 207.013 9.92473C206.533 9.97106 206.056 10.0232 205.418 10.0337C205.26 10.0349 205.331 10.0752 205.434 10.0881C205.583 10.1084 205.631 10.0672 205.55 9.98994C205.491 9.93586 205.407 9.9092 205.339 9.92332C205.304 9.93137 205.259 9.9687 205.418 10.0337C205.586 10.1065 205.576 10.1474 205.606 10.1705C205.677 10.2265 205.777 10.2491 205.88 10.2406C206.042 10.2258 206.199 10.2051 206.361 10.1923C206.406 10.1881 206.461 10.2013 206.503 10.2165C206.858 10.3346 206.862 10.3424 207.239 10.2929C207.358 10.2784 207.445 10.2778 207.539 10.3141C207.668 10.3638 207.762 10.4487 207.959 10.42C208.22 10.3811 208.487 10.3578 208.755 10.3344C208.797 10.3302 208.842 10.3649 208.891 10.3801C209.023 10.4259 209.121 10.5128 209.317 10.4743C209.468 10.444 209.633 10.435 209.794 10.428C209.836 10.4258 209.901 10.4564 209.92 10.4816C209.959 10.5261 209.911 10.579 209.802 10.6168C209.757 10.6327 209.695 10.6292 209.644 10.6355C209.431 10.6584 209.219 10.6833 209.006 10.7024C208.893 10.713 208.787 10.7429 208.774 10.8151C208.765 10.8638 208.881 10.9058 208.991 10.9011C209.152 10.894 209.313 10.8773 209.468 10.8509C209.742 10.806 209.981 10.816 210.204 10.937C210.363 11.0215 210.353 10.9904 210.522 11.2422C210.565 11.3061 210.691 11.311 210.8 11.3064C211.065 11.2947 211.187 11.323 211.165 11.3835C211.137 11.4577 211.043 11.4817 210.924 11.4923C210.711 11.5094 210.499 11.5363 210.286 11.5593C210.234 11.5655 210.176 11.5776 210.128 11.574C210.079 11.5705 210.034 11.5475 209.992 11.5303C209.902 11.4939 209.824 11.4381 209.727 11.4251C209.63 11.4122 209.517 11.4422 209.411 11.4547C209.305 11.4652 209.192 11.4952 209.095 11.4823C208.998 11.4694 208.917 11.4116 208.83 11.3772C208.788 11.36 208.736 11.3331 208.694 11.3354C208.481 11.3525 208.269 11.3794 208.056 11.4004C207.795 11.4276 207.795 11.4276 207.478 11.3092C207.387 11.2749 207.294 11.2775 207.175 11.2939C206.917 11.327 206.914 11.3211 206.442 11.2117C206.397 11.2003 206.342 11.1871 206.297 11.1933C205.816 11.2416 205.339 11.2937 204.862 11.3439C204.453 11.3878 204.453 11.3878 204.229 11.5841C204.062 11.7294 204.059 11.7294 204.224 11.7944C204.356 11.8479 204.476 11.9268 204.622 11.9549C204.757 11.9812 204.924 11.8924 205.073 11.9808C205.148 12.0251 205.245 12.073 205.339 12.0801C205.487 12.0888 205.645 12.0312 205.787 12.1158C205.858 12.1581 205.965 12.2021 206.055 12.2034C206.214 12.2061 206.375 12.1738 206.533 12.159C206.581 12.1547 206.636 12.1543 206.681 12.1638C206.729 12.1751 206.771 12.1981 206.814 12.2173C206.943 12.2825 207.082 12.3126 207.249 12.2783C207.523 12.2218 207.768 12.2473 207.982 12.3703C208.011 12.3876 208.082 12.389 208.127 12.3809C208.243 12.3606 208.343 12.3579 208.431 12.3943C208.466 12.4096 208.518 12.4365 208.512 12.454C208.502 12.4833 208.464 12.5225 208.422 12.5325C208.119 12.6009 207.794 12.6111 207.481 12.6484C207.439 12.6526 207.387 12.6277 207.345 12.6105C207.255 12.5761 207.177 12.5183 207.08 12.5054C206.983 12.4925 206.87 12.5186 206.764 12.5291C206.658 12.5396 206.545 12.5696 206.448 12.5587C206.351 12.5457 206.261 12.4977 206.183 12.4555C206.092 12.4075 206.005 12.4023 205.886 12.4226C205.731 12.4491 205.57 12.4541 205.412 12.4689C205.325 12.4326 205.238 12.3923 205.147 12.3579C205.105 12.3407 205.053 12.3197 205.008 12.322C204.795 12.3391 204.583 12.364 204.37 12.387C204.157 12.4099 204.157 12.41 203.795 12.2919C203.753 12.2786 203.698 12.2634 203.653 12.2677C203.385 12.293 203.121 12.3241 202.854 12.3494C202.751 12.3599 202.657 12.3333 202.573 12.2814C202.492 12.2294 202.395 12.2009 202.295 12.2114C201.869 12.2554 201.444 12.2974 201.018 12.3492C200.848 12.3699 200.702 12.3535 200.586 12.2842C200.45 12.2054 200.298 12.226 200.14 12.2427C199.783 12.2843 199.779 12.2823 199.55 12.1847C199.504 12.1656 199.459 12.1289 199.417 12.1312C199.046 12.1631 198.672 12.1931 198.305 12.2425C198.112 12.2692 198.008 12.2018 197.879 12.1522C197.833 12.135 197.785 12.0984 197.746 12.1025C197.479 12.1259 197.211 12.1473 196.95 12.1882C196.689 12.229 196.588 12.0487 196.391 12.0521C196.123 12.056 195.859 12.1027 195.595 12.1319C195.382 12.1549 195.17 12.1778 194.957 12.2008C194.744 12.2238 194.531 12.2428 194.319 12.2697C194.206 12.2841 194.122 12.2672 194.028 12.2192C193.908 12.1559 193.766 12.1063 193.637 12.0489C193.439 11.9666 193.439 11.9666 193.201 11.9917C193.149 11.9979 193.094 12.0022 193.043 12.0084C192.653 12.0541 192.653 12.0502 192.155 11.9312C192.133 11.9256 192.075 11.9474 192.052 11.9631C191.985 12.0142 191.924 12.0692 191.863 12.1222C191.776 12.0917 191.669 12.0749 191.611 12.0306C191.446 11.9053 191.189 12.0804 191.02 11.957C190.959 11.9108 190.852 11.8707 190.755 11.8597C190.655 11.8488 190.542 11.8768 190.439 11.8893C190.172 11.9204 190.172 11.9185 189.944 12.0934C189.828 12.1799 189.661 12.1655 189.509 12.1861C189.351 12.2087 189.2 12.2215 189.067 12.1426C188.947 12.0715 188.802 12.055 188.631 12.0796C188.422 12.1104 188.206 12.1295 187.993 12.1485C187.948 12.1527 187.893 12.1434 187.848 12.1321C187.353 12.0208 187.353 12.0189 187.115 12.0459C187.008 12.0584 186.899 12.0631 186.796 12.0814C186.622 12.1138 186.489 12.0739 186.363 12.0125C186.321 11.9933 186.272 11.9567 186.23 11.959C186.018 11.9703 185.808 11.9893 185.599 12.0084C185.437 12.0232 185.276 12.0321 185.122 12.0605C184.864 12.1072 184.737 11.9816 184.559 11.9245C184.295 11.9517 184.028 11.9712 183.763 12.0081C183.641 12.0246 183.56 12.0194 183.466 11.9733C183.347 11.9158 183.237 11.8504 183.043 11.8811C182.785 11.9219 182.515 11.9375 182.25 11.9628C182.073 11.9037 181.943 11.782 181.688 11.8287C181.534 11.857 181.369 11.8641 181.211 11.8808C180.998 11.9038 180.786 11.9248 180.573 11.9497C180.344 11.9748 180.347 11.9689 179.995 11.8566C179.791 11.79 179.582 11.8674 179.376 11.8806C179.215 11.8915 179.135 11.9816 179.174 12.0962C179.214 12.2108 179.127 12.3009 178.979 12.3176C178.608 12.3573 178.235 12.3989 177.864 12.4347C177.819 12.439 177.764 12.4257 177.722 12.4124C177.324 12.2927 177.324 12.2947 177.147 12.3135C176.883 12.3446 176.612 12.3621 176.351 12.401C176.171 12.4277 176.038 12.3878 175.921 12.3224C175.831 12.2725 175.747 12.2614 175.631 12.2739C174.355 12.4137 173.078 12.5437 171.805 12.6873C171.615 12.7082 171.505 12.6525 171.376 12.6009C171.33 12.5837 171.288 12.5471 171.243 12.5474C171.137 12.5482 171.03 12.5665 170.924 12.5789C170.447 12.6291 169.97 12.6891 169.49 12.7276C169.287 12.7447 169.232 12.8346 169.146 12.9092C169.078 12.9662 169.001 12.9901 168.882 12.9987C168.766 13.0074 168.682 12.9982 168.591 12.9483C168.475 12.883 168.342 12.843 168.162 12.8716C167.952 12.9043 167.74 12.9195 167.524 12.9425C167.414 12.953 167.33 12.9887 167.295 13.059C167.289 13.0707 167.357 13.0994 167.396 13.1167C167.525 13.1741 167.648 13.2413 167.794 13.2812C167.942 13.3209 168.103 13.273 168.258 13.2602C168.313 13.2559 168.364 13.2439 168.416 13.2455C168.464 13.247 168.523 13.2564 168.558 13.2736C168.726 13.36 168.904 13.419 169.136 13.3648C169.336 13.3886 169.441 13.5494 169.695 13.5047C169.85 13.4783 170.011 13.4654 170.172 13.4545C170.214 13.4523 170.259 13.487 170.305 13.5042C170.434 13.5519 170.538 13.629 170.731 13.5945C170.937 13.5579 171.157 13.5505 171.366 13.5217C171.482 13.5053 171.566 13.5183 171.657 13.5683C171.773 13.6316 171.906 13.6793 172.086 13.6469C172.241 13.6185 172.405 13.6114 172.563 13.5928C172.769 13.5698 172.769 13.5718 173.138 13.6898C173.18 13.7031 173.235 13.7183 173.28 13.714C173.548 13.6887 173.812 13.6576 174.079 13.6323C174.182 13.6218 174.283 13.6464 174.354 13.7023C174.383 13.7254 174.374 13.7645 174.384 13.7975C173.852 13.8539 173.32 13.9026 172.792 13.9707C172.592 13.9974 172.501 13.9183 172.368 13.8745C172.323 13.8593 172.274 13.8265 172.233 13.8307C171.859 13.8665 171.488 13.9043 171.117 13.9498C171.001 13.9643 170.914 13.9571 170.827 13.9013C170.603 13.7531 170.333 13.8368 170.081 13.8601C169.888 13.877 169.827 13.9378 169.851 14.0661C169.881 14.2178 169.997 14.2636 170.294 14.2342C170.4 14.2237 170.506 14.2093 170.613 14.2007C170.716 14.1922 170.81 14.2168 170.894 14.2687C170.975 14.3207 171.072 14.3472 171.172 14.3387C171.384 14.3197 171.6 14.3006 171.807 14.2699C171.977 14.2453 172.119 14.2637 172.239 14.3348C172.372 14.4137 172.527 14.395 172.682 14.3764C173.042 14.3348 173.046 14.3367 173.272 14.4324C173.317 14.4515 173.363 14.4882 173.405 14.4859C173.776 14.454 174.149 14.426 174.514 14.3766C174.704 14.3519 174.814 14.4133 174.94 14.463C174.985 14.4802 175.031 14.5188 175.073 14.5146C175.34 14.4912 175.608 14.4679 175.869 14.429C175.991 14.4106 176.065 14.4217 176.166 14.4677C176.405 14.5808 176.411 14.5768 176.75 14.5374C176.853 14.5249 176.966 14.5027 177.063 14.5176C177.159 14.5324 177.237 14.5883 177.328 14.6227C177.37 14.638 177.422 14.659 177.467 14.6548C177.679 14.6376 177.892 14.6127 178.105 14.5898C178.305 14.5669 178.305 14.5689 178.68 14.6868C178.832 14.7363 178.989 14.6923 179.141 14.6756C179.305 14.6569 179.454 14.6558 179.58 14.7308C179.706 14.8058 179.858 14.8008 180.019 14.7841C180.17 14.7674 180.325 14.7234 180.48 14.7749C180.836 14.893 180.836 14.8949 181.055 14.8699C181.374 14.8345 181.69 14.801 182.012 14.7695C182.054 14.7653 182.109 14.7883 182.151 14.8035C182.242 14.8379 182.319 14.8957 182.416 14.9086C182.513 14.9235 182.626 14.8993 182.729 14.8869C183.061 14.8475 183.083 14.8337 183.307 14.9605C183.495 15.0643 183.726 14.9107 183.901 15.0302C184.001 15.0975 184.137 15.1511 184.324 15.1166C184.479 15.0882 184.64 15.0792 184.801 15.0625C185.056 15.0353 185.056 15.0373 185.379 15.1517C185.421 15.167 185.476 15.186 185.518 15.1818C185.731 15.1647 185.947 15.1495 186.153 15.113C186.394 15.0703 186.55 15.1432 186.731 15.2139C186.873 15.2693 187.041 15.2213 187.192 15.2007C187.356 15.1801 187.505 15.1848 187.628 15.2598C187.757 15.3368 187.909 15.3259 188.07 15.3092C188.222 15.2944 188.376 15.2485 188.531 15.3019C188.864 15.4202 188.864 15.4202 189.106 15.395C189.319 15.3721 189.531 15.3472 189.744 15.33C189.786 15.3258 189.838 15.3508 189.88 15.368C189.97 15.4023 190.048 15.4602 190.145 15.4731C190.242 15.486 190.355 15.4599 190.461 15.4494C190.567 15.4389 190.68 15.4088 190.777 15.4198C190.874 15.4308 190.964 15.4788 191.042 15.521C191.133 15.571 191.217 15.5762 191.339 15.5558C191.494 15.5294 191.655 15.5224 191.813 15.5076C191.9 15.544 191.991 15.5803 192.075 15.6205C192.162 15.6627 192.256 15.6582 192.375 15.6437C192.771 15.594 192.775 15.5999 193.108 15.7181C193.26 15.7715 193.417 15.7256 193.569 15.7108C193.73 15.6941 193.882 15.6852 194.008 15.7621C194.131 15.8352 194.283 15.8438 194.444 15.8193C194.547 15.803 194.656 15.7924 194.763 15.7858C194.811 15.7835 194.869 15.7909 194.905 15.8062C195.076 15.8867 195.245 15.9594 195.48 15.9052C195.686 15.9192 195.791 16.0781 196.039 16.0451C196.248 16.0163 196.467 16.0089 196.674 15.9723C196.864 15.9398 197 15.9933 197.097 16.0608C197.272 16.1802 197.516 16.0149 197.691 16.1323C197.791 16.1997 197.921 16.2533 198.114 16.2227C198.327 16.19 198.395 16.2303 198.457 16.3525C198.493 16.4223 198.487 16.4788 198.423 16.5338C198.358 16.5907 198.287 16.5815 198.184 16.518C198.064 16.4469 197.922 16.4343 197.751 16.4511C197.583 16.4679 197.48 16.3675 197.341 16.3295C197.202 16.2897 197.038 16.359 196.892 16.3075C196.549 16.1874 196.549 16.1874 196.317 16.2124C196.159 16.2292 195.995 16.2382 195.84 16.2665C195.657 16.301 195.537 16.2415 195.411 16.1879C195.365 16.1688 195.32 16.1321 195.281 16.1344C194.911 16.1663 194.537 16.1963 194.169 16.2476C193.976 16.2743 193.872 16.205 193.743 16.1573C193.698 16.1401 193.649 16.1054 193.61 16.1096C193.291 16.1392 192.976 16.1765 192.656 16.212C192.596 16.265 192.528 16.316 192.47 16.3729C192.41 16.4318 192.326 16.4577 192.203 16.4566C192 16.4581 191.801 16.5413 191.597 16.4397C191.387 16.3361 191.37 16.342 191.167 16.3688C190.91 16.4038 190.635 16.398 190.394 16.4757C190.352 16.4896 190.307 16.5269 190.308 16.5542C190.304 16.5717 190.372 16.5965 190.414 16.6118C190.557 16.6575 190.721 16.5882 190.863 16.6358C190.957 16.6662 191.034 16.7124 191.128 16.7448C191.167 16.7581 191.225 16.7558 191.277 16.7534C191.331 16.7511 191.383 16.7371 191.435 16.7387C191.483 16.7403 191.535 16.7516 191.573 16.7688C191.751 16.8415 191.939 16.9082 192.098 16.9947C192.253 17.0792 192.398 17.0197 192.552 17.0147C193.173 17.1464 193.173 17.1484 193.588 17.1025C193.692 17.092 193.798 17.0796 193.904 17.0807C193.95 17.0804 193.992 17.1151 194.037 17.1342C194.166 17.1917 194.289 17.2434 194.47 17.2109C194.624 17.1825 194.789 17.1755 194.947 17.1568C195.159 17.1338 195.159 17.1338 195.522 17.2538C195.612 17.2843 195.709 17.2797 195.825 17.2633C195.925 17.2489 196.028 17.2774 196.099 17.3333C196.129 17.3565 196.119 17.3955 196.129 17.4285C195.81 17.4619 195.488 17.4857 195.178 17.5347C194.979 17.5654 194.888 17.4823 194.755 17.4385C194.71 17.4233 194.661 17.3905 194.619 17.3947C194.304 17.4262 193.988 17.4616 193.672 17.5029C193.633 17.507 193.585 17.5522 193.582 17.5794C193.576 17.6301 193.657 17.6782 193.773 17.6754C193.928 17.6723 194.079 17.6381 194.219 17.7169C194.335 17.7861 194.48 17.8162 194.651 17.7838C194.754 17.7655 194.864 17.7647 194.967 17.7484C195.241 17.6997 195.489 17.7076 195.697 17.8385C195.855 17.8723 196.009 17.8381 196.161 17.8195C196.274 17.805 196.383 17.7906 196.464 17.827C196.636 17.9036 196.804 17.9802 197.039 17.926C197.294 17.9786 197.489 18.092 197.702 18.1839C197.802 18.2279 197.88 18.2527 197.996 18.2227C198.044 18.2106 198.102 18.2102 198.154 18.204C198.26 18.1935 198.373 18.1634 198.47 18.1744C198.566 18.1873 198.647 18.2432 198.735 18.2776C198.777 18.2948 198.825 18.3236 198.867 18.3214C199.029 18.3105 199.186 18.2899 199.344 18.2731C199.502 18.2583 199.66 18.2436 199.818 18.2288C199.951 18.2784 200.087 18.3281 200.219 18.3777C200.432 18.3547 200.645 18.3318 200.854 18.3108C201.089 18.2857 201.089 18.2876 201.429 18.4058C201.581 18.4592 201.742 18.423 201.887 18.3966C202.128 18.354 202.29 18.4268 202.462 18.5034C202.497 18.5187 202.562 18.528 202.604 18.5199C202.771 18.4914 202.917 18.5117 203.04 18.5829C203.127 18.6328 203.214 18.6556 203.321 18.6451C203.691 18.6054 204.062 18.5637 204.433 18.5279C204.478 18.5237 204.529 18.5408 204.571 18.5561C204.901 18.6724 204.905 18.6782 205.146 18.6453C205.362 18.6165 205.562 18.6034 205.734 18.7092C205.769 18.7323 205.824 18.765 205.863 18.7627C206.127 18.7413 206.395 18.718 206.656 18.683C206.775 18.6665 206.859 18.6718 206.953 18.7158C207.073 18.7714 207.18 18.8388 207.376 18.812C207.921 18.736 207.924 18.7476 208.57 18.8772C208.615 18.8866 208.676 18.8706 208.728 18.8625C208.837 18.8422 208.918 18.8689 209.015 18.9129C209.232 19.0126 209.239 19.0067 209.445 18.9838C209.603 18.9651 209.767 18.96 209.922 18.9297C210.16 18.8851 210.319 18.9599 210.497 19.0306C210.639 19.086 210.803 19.0381 210.955 19.0194C211.119 18.9988 211.267 19.0035 211.39 19.0766C211.475 19.1266 211.565 19.1532 211.671 19.1427C212.042 19.1049 212.413 19.0633 212.783 19.0255C212.829 19.0213 212.884 19.0365 212.926 19.0498C213.294 19.1678 213.294 19.1736 213.658 19.1262C213.774 19.1117 213.871 19.1071 213.958 19.1474C214.042 19.1857 214.133 19.222 214.22 19.2583C214.378 19.2436 214.54 19.2385 214.694 19.214C214.813 19.1956 214.897 19.2028 214.991 19.243C215.114 19.2947 215.218 19.3854 215.411 19.3392C215.511 19.317 215.627 19.322 215.727 19.3018C215.846 19.2757 215.927 19.2906 216.021 19.3406C216.137 19.4001 216.257 19.4615 216.444 19.429C216.65 19.3924 216.869 19.385 217.079 19.3562C217.195 19.3398 217.276 19.3548 217.369 19.4047C217.486 19.4681 217.619 19.508 217.799 19.4814C218.166 19.43 218.17 19.4397 218.528 19.5597C218.619 19.5902 218.716 19.5856 218.832 19.5692C218.932 19.5548 219.035 19.5833 219.106 19.6392C219.174 19.701 219.168 19.74 219.175 19.773ZM190.311 2.42798C190.205 2.43849 190.098 2.45095 189.942 2.28274C189.932 2.25361 189.939 2.21854 189.916 2.1934C189.864 2.14122 189.783 2.10483 189.686 2.0997C189.512 2.09318 189.303 2.16088 189.306 2.21147C189.31 2.25427 189.365 2.29084 189.472 2.3251C189.517 2.3384 189.553 2.3615 189.595 2.37676C189.717 2.42064 189.815 2.50753 189.992 2.46147C189.975 2.40125 189.959 2.34102 189.992 2.46147C189.976 2.53555 190.025 2.58775 190.141 2.60832C190.174 2.61392 190.222 2.60966 190.248 2.5978C190.347 2.55424 190.363 2.49574 190.288 2.34252C190.275 2.36791 190.285 2.4126 190.314 2.42406C190.343 2.43553 190.414 2.42529 190.45 2.41141C190.54 2.37376 190.584 2.32477 190.562 2.28406C190.548 2.26274 190.487 2.23594 190.448 2.23622C190.381 2.23672 190.32 2.27998 190.311 2.42798ZM216.55 24.8104C216.314 24.8491 216.043 24.8375 215.809 24.9151C215.767 24.9291 215.725 24.9644 215.722 24.9917C215.719 25.0092 215.784 25.0341 215.822 25.0474C215.91 25.0779 216.006 25.0674 216.119 25.0569C216.29 25.042 216.391 25.1308 216.523 25.1746C216.565 25.1879 216.62 25.1973 216.665 25.193C216.926 25.1678 217.184 25.1406 217.445 25.1115C217.49 25.1053 217.539 25.0913 217.577 25.0735C217.706 25.0161 217.693 24.9792 217.567 24.9373C217.428 24.8916 217.317 24.8145 217.175 24.7786C216.972 24.7275 216.766 24.7991 216.55 24.8104ZM198.244 26.3652C198.086 26.382 197.931 26.3987 197.773 26.4154C197.721 26.4216 197.667 26.424 197.618 26.4321C197.518 26.4464 197.445 26.4879 197.397 26.5524C197.471 26.6025 197.562 26.6311 197.662 26.6245C197.82 26.6116 197.974 26.5852 198.132 26.5782C198.303 26.5692 198.404 26.6561 198.536 26.6999C198.578 26.7132 198.63 26.7147 198.678 26.7163C198.917 26.7224 199.061 26.6201 199.015 26.4783C198.982 26.3676 198.859 26.3023 198.711 26.3171C198.556 26.3318 198.398 26.3485 198.244 26.3652ZM217.632 21.9255C217.671 21.8921 217.713 21.8685 217.732 21.8391C217.789 21.7394 217.766 21.6656 217.659 21.5885C217.529 21.4941 217.372 21.5595 217.227 21.5703C217.191 21.5725 217.153 21.6137 217.134 21.6391C217.121 21.6567 217.121 21.6937 217.141 21.7033C217.299 21.78 217.467 21.8508 217.632 21.9255ZM189.613 16.3802C189.458 16.3969 189.3 16.4097 189.146 16.4323C189.107 16.4384 189.072 16.4756 189.049 16.5011C189.008 16.5481 189.053 16.612 189.186 16.6169C189.337 16.6236 189.495 16.5893 189.653 16.5726C189.853 16.5517 189.972 16.4788 189.897 16.417C189.826 16.3572 189.729 16.3463 189.613 16.3802ZM19.8107 13.4617C19.9138 13.4512 20.0202 13.4426 20.1233 13.4282C20.22 13.4139 20.2939 13.3705 20.3418 13.3059C20.2608 13.2559 20.1703 13.2293 20.0704 13.2359C19.9124 13.2487 19.7577 13.2654 19.6031 13.286C19.5064 13.2984 19.4132 13.3419 19.3911 13.4083C19.3689 13.459 19.5851 13.4867 19.8107 13.4617ZM175.942 12.0206C175.984 12.0378 176.026 12.0725 176.068 12.0722C176.171 12.0714 176.278 12.059 176.374 12.0388C176.416 12.0307 176.448 11.9954 176.467 11.968C176.48 11.9504 176.477 11.9193 176.457 11.9039C176.363 11.8111 175.989 11.847 175.928 11.9545C175.922 11.974 175.939 11.9992 175.942 12.0206ZM165.691 1.43612C165.701 1.4672 165.704 1.49831 165.717 1.52936C165.744 1.58757 165.815 1.62988 165.918 1.65832C165.999 1.60907 166.04 1.55427 166.037 1.4959C166.033 1.46478 166.023 1.43369 166.01 1.40264C165.984 1.34444 165.913 1.30215 165.809 1.2737C165.729 1.32101 165.691 1.37578 165.691 1.43612ZM225.119 26.5075C225.09 26.533 225.061 26.5585 225.029 26.5821C225.116 26.6379 225.197 26.6548 225.258 26.6233C225.297 26.6035 225.319 26.5741 225.348 26.5486C225.26 26.4928 225.183 26.4778 225.119 26.5075ZM223.114 26.7869C223.156 26.8041 223.195 26.8272 223.241 26.8385C223.315 26.8574 223.382 26.8238 223.433 26.7534C223.391 26.7362 223.353 26.7131 223.307 26.7017C223.233 26.6828 223.165 26.7164 223.114 26.7869ZM224.383 26.4214C224.36 26.4683 224.406 26.5069 224.525 26.5391C224.554 26.5136 224.593 26.4899 224.612 26.4625C224.644 26.4175 224.589 26.377 224.472 26.3468C224.44 26.3703 224.411 26.3959 224.383 26.4214ZM217.559 24.3729C217.537 24.4197 217.582 24.4583 217.702 24.4906C217.731 24.465 217.769 24.4414 217.789 24.414C217.821 24.369 217.765 24.3285 217.649 24.2982C217.617 24.3218 217.588 24.3473 217.559 24.3729ZM208.186 10.6675C208.157 10.693 208.129 10.7186 208.096 10.7421C208.184 10.798 208.265 10.8149 208.326 10.7833C208.364 10.7635 208.387 10.7342 208.416 10.7087C208.328 10.6529 208.251 10.6379 208.186 10.6675ZM199.249 3.42546C199.327 3.43852 199.391 3.41081 199.445 3.33839C199.403 3.32118 199.364 3.2981 199.319 3.28675C199.245 3.26783 199.177 3.30142 199.126 3.37187C199.168 3.39103 199.21 3.40822 199.249 3.42546ZM194.527 3.00254C194.499 3.02805 194.47 3.05357 194.438 3.07717C194.525 3.13298 194.606 3.1499 194.667 3.11831C194.705 3.09856 194.728 3.0692 194.757 3.04368C194.669 2.98787 194.592 2.97482 194.527 3.00254ZM162.517 1.45738C162.489 1.48289 162.46 1.50841 162.428 1.532C162.515 1.58781 162.596 1.60474 162.657 1.57314C162.695 1.5534 162.718 1.52403 162.747 1.49852C162.659 1.44271 162.582 1.42965 162.517 1.45738ZM3.30617 18.4584C3.26411 18.4412 3.2221 18.424 3.18326 18.4048C3.0901 18.4581 3.06143 18.5069 3.11329 18.5435C3.14571 18.5667 3.19414 18.5799 3.2362 18.5972C3.33258 18.5439 3.35482 18.497 3.30617 18.4584Z" fill="#FFE492"/>
<path d="M21.9539 10.9269C21.5832 10.9666 21.2159 11.016 20.8452 11.042C20.6485 11.0551 20.5782 11.1393 20.4981 11.2178C20.4341 11.2805 20.36 11.3005 20.2407 11.313C19.2351 11.4157 18.2328 11.5242 17.2304 11.6308C17.1045 11.6064 17.0429 11.566 17.0716 11.5171C17.0875 11.4878 17.1259 11.4467 17.1646 11.4425C17.8511 11.3655 18.5343 11.2866 19.2241 11.2251C19.4207 11.2081 19.475 11.1221 19.5744 11.0513C19.6065 11.0277 19.6321 10.9925 19.6739 10.9786C19.7158 10.9627 19.777 10.9642 19.8319 10.9599C20.9405 10.8409 22.0493 10.7239 23.158 10.6049C23.2839 10.6292 23.3455 10.6696 23.3168 10.7185C23.3009 10.7478 23.2625 10.7889 23.2238 10.7931C22.7984 10.8371 22.3761 10.881 21.9539 10.9269Z" fill="#FFE492"/>
<path d="M225.136 20.7379C224.968 20.7625 224.756 20.7971 224.581 20.6855C224.496 20.6317 224.406 20.6148 224.296 20.6273C224.138 20.6479 223.977 20.6647 223.816 20.6775C223.774 20.6798 223.719 20.6587 223.677 20.6415C223.587 20.6072 223.509 20.5494 223.412 20.5345C223.315 20.5197 223.199 20.5633 223.099 20.5543C222.967 20.5416 222.912 20.4895 222.947 20.4406C222.966 20.4132 223.004 20.374 223.046 20.3679C223.642 20.2915 223.646 20.2915 223.814 20.3603C223.943 20.4139 224.063 20.4733 224.247 20.4389C224.401 20.4105 224.566 20.4035 224.724 20.3848C224.943 20.3599 224.943 20.3618 225.298 20.4818C225.389 20.5123 225.486 20.5096 225.602 20.4913C225.701 20.4769 225.799 20.5073 225.88 20.5593C225.828 20.6258 225.754 20.6692 225.655 20.6816C225.493 20.7022 225.336 20.717 225.136 20.7379Z" fill="#FFE492"/>
<path d="M219.197 20.1599C219.603 20.116 220.012 20.078 220.418 20.0282C220.586 20.0075 220.718 20.028 220.835 20.0934C220.961 20.1646 221.103 20.1577 221.258 20.1429C221.354 20.1344 221.448 20.1649 221.513 20.219C221.539 20.2402 221.533 20.2793 221.543 20.3104C221.188 20.3481 220.83 20.3877 220.473 20.4215C220.431 20.4257 220.379 20.4066 220.34 20.3913C220.253 20.3588 220.178 20.3009 220.085 20.2899C219.884 20.2641 219.685 20.3181 219.482 20.3294C219.385 20.334 219.291 20.3055 219.226 20.2533C219.2 20.2282 219.207 20.1911 219.197 20.1599Z" fill="#FFE492"/>
<path d="M72.2082 3.61652C72.6304 3.57061 73.0526 3.52667 73.4748 3.48077C73.6008 3.5071 73.6591 3.54559 73.6337 3.59443C73.6177 3.62374 73.5793 3.6649 73.5406 3.66907C72.6963 3.76283 71.8519 3.85268 71.0107 3.94251C70.8847 3.91619 70.8264 3.87769 70.8518 3.82885C70.8678 3.79954 70.9062 3.75839 70.9449 3.75421C71.3638 3.70638 71.786 3.66242 72.2082 3.61652Z" fill="#FFE492"/>
<path d="M7.14887 14.9145C6.95865 14.9198 6.75927 14.994 6.54607 14.9406C6.50408 14.9311 6.4458 14.9 6.4489 14.8823C6.45514 14.8528 6.49358 14.8152 6.53541 14.8031C6.71887 14.7526 6.9478 14.745 7.04034 14.6068C7.08499 14.5357 7.16866 14.5115 7.28142 14.4969C7.40062 14.4803 7.48448 14.4856 7.57828 14.5261C7.70119 14.5783 7.80508 14.6757 7.9982 14.6232C8.00809 14.6546 8.03086 14.6898 8.02139 14.7193C8.01192 14.7489 7.97027 14.7767 7.93172 14.7986C7.89639 14.8185 7.8481 14.8365 7.803 14.8428C7.59034 14.8679 7.37765 14.8892 7.14887 14.9145Z" fill="#FFE492"/>
<path d="M174.923 13.8798C175.081 13.863 175.246 13.854 175.4 13.8255C175.523 13.8031 175.6 13.8162 175.697 13.8624C175.862 13.9432 175.872 13.9353 176.275 13.944C176.32 13.9457 176.375 13.9745 176.401 13.9997C176.418 14.0133 176.395 14.0505 176.376 14.0702C176.347 14.0958 176.305 14.1293 176.267 14.1296C176.012 14.1373 175.755 14.2544 175.506 14.1235C175.379 14.058 175.24 14.0278 175.07 14.0583C174.967 14.0766 174.857 14.0853 174.751 14.0939C174.647 14.1024 174.541 14.0817 174.476 14.0236C174.382 13.9384 174.436 13.9048 174.604 13.9095C174.711 13.9126 174.817 13.8903 174.923 13.8798Z" fill="#FFE492"/>
<path d="M233.464 27.3635C233.667 27.3424 233.87 27.3173 234.076 27.3C234.118 27.2958 234.17 27.317 234.209 27.3305C234.364 27.3883 234.342 27.4887 234.349 27.577C234.353 27.6694 233.996 27.7467 233.844 27.685C233.675 27.6155 233.523 27.536 233.292 27.581C233.201 27.5974 233.095 27.5628 233.036 27.5063C232.949 27.4244 232.997 27.3906 233.161 27.3953C233.258 27.3985 233.361 27.3761 233.464 27.3635Z" fill="#FFE492"/>
<path d="M130.896 0.683183C131.106 0.66013 131.315 0.625362 131.525 0.621861C131.647 0.619002 131.709 0.683059 131.68 0.730197C131.665 0.759644 131.626 0.800989 131.587 0.805184C131.169 0.855201 130.75 0.897403 130.331 0.943508C130.208 0.91704 130.146 0.87644 130.175 0.829301C130.191 0.799855 130.229 0.760465 130.268 0.754314C130.477 0.725396 130.687 0.706236 130.896 0.683183Z" fill="#FFE492"/>
<path d="M229.409 20.905C229.612 20.884 229.818 20.8531 230.021 20.8418C230.128 20.8371 230.212 20.8815 230.225 20.9322C230.232 20.9557 230.181 20.9971 230.139 21.0072C229.849 21.0759 229.536 21.086 229.233 21.1215C229.137 21.132 229.033 21.1015 228.975 21.0471C228.887 20.9636 228.935 20.932 229.1 20.9366C229.203 20.9378 229.306 20.9156 229.409 20.905Z" fill="#FFE492"/>
<path d="M180.257 14.1261C180.36 14.1154 180.466 14.089 180.566 14.0961C180.673 14.1052 180.741 14.1618 180.773 14.2188C180.809 14.2835 180.807 14.3446 180.775 14.4001C180.724 14.4951 180.672 14.4915 180.552 14.4293C180.368 14.3322 180.355 14.3441 179.991 14.3508C179.949 14.3511 179.897 14.3219 179.865 14.2965C179.816 14.2575 179.841 14.1962 179.954 14.1599C180.038 14.1336 180.154 14.1367 180.257 14.1261Z" fill="#FFE492"/>
<path d="M221.846 20.2816C221.997 20.2648 222.149 20.2381 222.3 20.237C222.407 20.2343 222.491 20.2787 222.501 20.3277C222.504 20.3512 222.456 20.3908 222.417 20.4028C222.234 20.4571 222.028 20.4626 221.828 20.4817C221.734 20.4902 221.631 20.4596 221.572 20.4052C221.485 20.3235 221.536 20.2858 221.694 20.2964C221.743 20.3 221.794 20.2878 221.846 20.2816Z" fill="#FFE492"/>
<path d="M197.969 17.9291C197.744 17.9543 197.531 17.9265 197.546 17.8754C197.569 17.8086 197.662 17.7648 197.758 17.7523C197.913 17.7315 198.068 17.7147 198.226 17.7018C198.326 17.6932 198.416 17.7219 198.497 17.7723C198.449 17.8354 198.375 17.881 198.279 17.8955C198.179 17.9099 198.072 17.9186 197.969 17.9291Z" fill="#FFE492"/>
<path d="M196.487 17.6834C196.639 17.6666 196.79 17.64 196.942 17.6389C197.048 17.6361 197.132 17.6806 197.142 17.7295C197.146 17.753 197.098 17.7926 197.059 17.8047C196.876 17.859 196.669 17.8644 196.469 17.8836C196.376 17.8921 196.273 17.8615 196.214 17.807C196.126 17.7253 196.178 17.6877 196.336 17.6983C196.384 17.7018 196.436 17.6897 196.487 17.6834Z" fill="#FFE492"/>
<path d="M178.423 14.1161C178.574 14.0993 178.726 14.0726 178.877 14.0695C178.983 14.0668 179.068 14.1113 179.078 14.1602C179.081 14.1837 179.033 14.2213 178.994 14.2354C178.811 14.2897 178.605 14.2951 178.405 14.3142C178.311 14.3228 178.208 14.2922 178.149 14.2377C178.062 14.156 178.113 14.1183 178.271 14.1289C178.32 14.1325 178.371 14.1204 178.423 14.1161Z" fill="#FFE492"/>
<path d="M177.574 14.0029C177.735 13.9861 177.787 13.9759 177.838 13.9755C177.935 13.9748 178.035 13.9976 178.094 14.054C178.181 14.1357 178.13 14.1596 177.972 14.1647C177.769 14.1702 177.569 14.2128 177.366 14.2222C177.26 14.2269 177.175 14.1804 177.169 14.1315C177.165 14.108 177.213 14.0664 177.252 14.0583C177.387 14.0279 177.535 14.0091 177.574 14.0029Z" fill="#FFE492"/>
<path d="M195.092 2.23123C194.988 2.24182 194.879 2.27014 194.782 2.26104C194.653 2.24825 194.601 2.1956 194.633 2.14625C194.652 2.1186 194.687 2.07905 194.726 2.07287C194.932 2.04383 195.142 2.02457 195.348 2.00339C195.471 2.03195 195.526 2.07279 195.494 2.12214C195.475 2.14979 195.44 2.18737 195.401 2.19552C195.301 2.21591 195.195 2.22064 195.092 2.23123Z" fill="#FFE492"/>
<path d="M69.8953 3.85964C69.9952 3.85693 70.0856 3.88183 70.1634 3.93043C70.1154 3.99375 70.0448 4.03559 69.9482 4.05401C69.8999 4.06224 69.8451 4.06855 69.7935 4.0709C69.6936 4.07558 69.6031 4.04871 69.5254 4.00011C69.5733 3.9368 69.6472 3.89493 69.7405 3.87653C69.7888 3.8683 69.8437 3.86593 69.8953 3.85964Z" fill="#FFE492"/>
<path d="M228.304 20.9008C228.3 20.8438 228.497 20.7774 228.674 20.778C228.768 20.7793 228.864 20.8061 228.92 20.8588C229.004 20.9388 228.956 20.9707 228.798 20.9659C228.701 20.9627 228.598 20.9969 228.501 20.9918C228.392 20.9906 228.327 20.9478 228.304 20.9008Z" fill="#FFE492"/>
<path d="M181.19 14.3611C181.187 14.3394 181.17 14.3139 181.18 14.2941C181.24 14.1853 181.611 14.149 181.708 14.2429C181.724 14.2605 181.731 14.29 181.718 14.3078C181.699 14.3356 181.664 14.3713 181.625 14.3795C181.526 14.4 181.422 14.4106 181.319 14.4133C181.274 14.4137 181.232 14.3805 181.19 14.3611Z" fill="#FFE492"/>
<path d="M8.29444 14.5923C7.91426 14.6365 7.90779 14.6326 7.97481 14.5336C8.03545 14.4445 8.14794 14.3905 8.31238 14.3893C8.36074 14.389 8.41228 14.3846 8.45425 14.3922C8.49946 14.4017 8.56412 14.4209 8.57396 14.4444C8.59363 14.4896 8.53911 14.5392 8.44262 14.5734C8.40081 14.5895 8.34598 14.586 8.29444 14.5923Z" fill="#FFE492"/>
<path d="M74.6587 3.55943C74.5461 3.59379 74.4493 3.58269 74.378 3.52015C74.3066 3.4576 74.4189 3.38185 74.6155 3.36263C74.667 3.3583 74.7217 3.34214 74.7701 3.34966C74.8185 3.35521 74.8671 3.37848 74.8963 3.40192C74.9481 3.44095 74.9163 3.49443 74.8134 3.54054C74.7716 3.55859 74.7103 3.5551 74.6587 3.55943Z" fill="#FFE492"/>
<path d="M227.632 20.7544C227.661 20.7284 227.689 20.7025 227.721 20.6785C227.84 20.7112 227.892 20.7504 227.86 20.7962C227.841 20.8241 227.803 20.8481 227.774 20.8741C227.655 20.8413 227.606 20.8001 227.632 20.7544Z" fill="#FFE492"/>
<path d="M13.5301 37.2167C13.5299 37.193 13.5747 37.1551 13.61 37.147C13.6774 37.1326 13.7612 37.1596 13.8195 37.2145C13.9005 37.2929 13.8526 37.3348 13.7045 37.3142C13.6014 37.2991 13.5304 37.2602 13.5301 37.2167Z" fill="#FFE492"/>
<path d="M182.492 12.5049C182.534 12.5223 182.576 12.5398 182.614 12.5592C182.56 12.6327 182.493 12.6647 182.422 12.6455C182.377 12.634 182.338 12.6106 182.296 12.5932C182.35 12.5198 182.414 12.4917 182.492 12.5049Z" fill="#FFE492"/>
<path d="M181.376 12.4197C181.44 12.3896 181.517 12.4049 181.607 12.4614C181.579 12.4873 181.553 12.5171 181.518 12.5371C181.457 12.5691 181.376 12.5539 181.289 12.4954C181.315 12.4715 181.344 12.4456 181.376 12.4197Z" fill="#FFE492"/>
<path d="M180.522 12.5105C180.564 12.5279 180.606 12.5454 180.645 12.5648C180.59 12.6382 180.526 12.6703 180.452 12.6511C180.407 12.6396 180.368 12.6162 180.326 12.5988C180.38 12.5253 180.445 12.4953 180.522 12.5105Z" fill="#FFE492"/>
<path d="M179.889 12.4068C179.937 12.446 179.912 12.4937 179.819 12.5479C179.777 12.5304 179.729 12.5169 179.696 12.4934C179.645 12.4562 179.67 12.4065 179.766 12.3523C179.805 12.3718 179.847 12.3893 179.889 12.4068Z" fill="#FFE492"/>
</svg>
