<svg width="100%" height="100%" viewBox="0 0 36 37" fill="none" xmlns="http://www.w3.org/2000/svg">
<g clip-path="url(#clip0_9_23713)">
<path d="M4.99623 12.2002C4.37595 12.2002 3.84967 12.4165 3.41705 12.8491C2.98444 13.2817 2.76807 13.8009 2.76807 14.4067V23.7096C2.76807 24.3306 2.98437 24.8565 3.41705 25.2891C3.84967 25.7217 4.37595 25.9381 4.99623 25.9381C5.61605 25.9381 6.13914 25.7218 6.56505 25.2891C6.99012 24.8565 7.20323 24.3306 7.20323 23.7096V14.4067C7.20323 13.8008 6.98693 13.2817 6.55425 12.8491C6.12157 12.4165 5.60212 12.2002 4.99623 12.2002Z" fill="white"/>
<path d="M22.9088 3.84887L24.4449 1.01521C24.5457 0.827609 24.5099 0.683752 24.337 0.582596C24.1493 0.49537 24.0051 0.539569 23.9044 0.712067L22.3468 3.56838C20.9763 2.96243 19.5267 2.65889 17.9981 2.65889C16.4692 2.65889 15.0195 2.96249 13.6494 3.56838L12.0918 0.712067C11.9906 0.539569 11.8464 0.495761 11.6592 0.582596C11.4859 0.684207 11.45 0.827609 11.5513 1.01521L13.0874 3.84887C11.5298 4.64321 10.2892 5.74948 9.36619 7.17009C8.44316 8.59148 7.98145 10.1447 7.98145 11.8326H27.993C27.993 10.1451 27.5312 8.5918 26.6082 7.17009C25.6851 5.74948 24.4517 4.64321 22.9088 3.84887ZM14.0279 7.97048C13.8618 8.13699 13.6634 8.21986 13.4327 8.21986C13.2016 8.21986 13.0073 8.13699 12.8487 7.97048C12.6901 7.80475 12.6109 7.60713 12.6109 7.37572C12.6109 7.14509 12.6901 6.94708 12.8487 6.78096C13.0073 6.61523 13.2021 6.53237 13.4327 6.53237C13.6634 6.53237 13.8618 6.61523 14.0279 6.78096C14.1936 6.94747 14.2769 7.14509 14.2769 7.37572C14.2764 7.60674 14.1932 7.80475 14.0279 7.97048ZM23.1466 7.97048C22.9877 8.13699 22.7929 8.21986 22.5627 8.21986C22.3315 8.21986 22.1332 8.13699 21.9674 7.97048C21.8013 7.80475 21.7185 7.60713 21.7185 7.37572C21.7185 7.14509 21.8013 6.94708 21.9674 6.78096C22.1332 6.61523 22.3315 6.53237 22.5627 6.53237C22.7933 6.53237 22.9877 6.61523 23.1466 6.78096C23.3053 6.94747 23.3845 7.14509 23.3845 7.37572C23.3845 7.60674 23.3052 7.80475 23.1466 7.97048Z" fill="white"/>
<path d="M8.06738 27.0191C8.06738 27.6832 8.29801 28.2453 8.75933 28.7067C9.22104 29.168 9.78319 29.3986 10.4468 29.3986H12.0479L12.0698 34.3102C12.0698 34.9304 12.2861 35.4571 12.7187 35.8898C13.1513 36.3224 13.6709 36.5387 14.2764 36.5387C14.8962 36.5387 15.4229 36.3224 15.8555 35.8898C16.2882 35.4571 16.5045 34.9305 16.5045 34.3102V29.3991H19.49V34.3102C19.49 34.9304 19.7062 35.4571 20.1389 35.8898C20.5716 36.3224 21.0977 36.5387 21.7181 36.5387C22.338 36.5387 22.8646 36.3224 23.2972 35.8898C23.7299 35.4571 23.9462 34.9305 23.9462 34.3102V29.3991H25.5688C26.2177 29.3991 26.7727 29.1684 27.2348 28.7071C27.6961 28.2457 27.9269 27.6836 27.9269 27.0196V12.6104H8.06738V27.0191Z" fill="white"/>
<path d="M31.0006 12.2002C30.3946 12.2002 29.8755 12.4133 29.4429 12.8384C29.0103 13.2642 28.7939 13.7873 28.7939 14.4067V23.7096C28.7939 24.3306 29.0102 24.8565 29.4429 25.2891C29.8755 25.7218 30.395 25.9381 31.0006 25.9381C31.6204 25.9381 32.1471 25.7218 32.5797 25.2891C33.0124 24.8565 33.2287 24.3306 33.2287 23.7096V14.4067C33.2287 13.7872 33.0124 13.2642 32.5797 12.8384C32.1471 12.4133 31.6204 12.2002 31.0006 12.2002Z" fill="white"/>
</g>
<defs>
<clipPath id="clip0_9_23713">
<rect width="36" height="36" fill="white" transform="translate(0 0.539062)"/>
</clipPath>
</defs>
</svg>
