<svg width="100%" height="100%" viewBox="0 0 36 37" fill="none" xmlns="http://www.w3.org/2000/svg">
<g clip-path="url(#clip0_9_23701)">
<path d="M27.8643 20.7178C26.874 15.734 31.6045 12.8111 31.6045 12.8111C31.6045 12.8111 29.7614 10.1446 26.6639 9.45865C23.568 8.77118 22.0185 9.63011 20.472 10.2743C18.924 10.9201 18.1516 10.9201 18.1516 10.9201C15.9177 10.9201 14.2847 8.55489 10.0286 9.63169C7.09645 10.3717 4.00972 13.7565 3.45202 17.7964C2.89432 21.8379 4.09781 26.9947 6.41821 30.9913C8.73861 34.991 11.1023 36.4942 12.78 36.5375C14.4578 36.5791 16.1325 35.3355 18.1516 35.0327C20.1724 34.733 21.416 35.765 23.398 36.3227C25.3724 36.8789 26.0645 36.3629 28.3386 34.4287C30.6188 32.4945 32.6828 26.9468 32.6828 26.9468C32.6828 26.9468 28.8546 25.7047 27.8643 20.7178Z" fill="white"/>
<path d="M23.4804 6.23503C25.6741 3.99964 24.9311 0.539062 24.9311 0.539062C24.9311 0.539062 21.8506 1.07979 19.7866 3.22715C17.7241 5.37609 18.0656 8.77021 18.0656 8.77021C18.0656 8.77021 21.2866 8.46898 23.4804 6.23503Z" fill="white"/>
</g>
<defs>
<clipPath id="clip0_9_23701">
<rect width="36" height="36" fill="white" transform="translate(0 0.539062)"/>
</clipPath>
</defs>
</svg>
